<?xml version="1.0" encoding="utf-8" standalone="no"?>
<!DOCTYPE svg PUBLIC "-//W3C//DTD SVG 1.1//EN"
  "http://www.w3.org/Graphics/SVG/1.1/DTD/svg11.dtd">
<!-- Created with matplotlib (http://matplotlib.org/) -->
<svg height="345pt" version="1.1" viewBox="0 0 460 345" width="460pt" xmlns="http://www.w3.org/2000/svg" xmlns:xlink="http://www.w3.org/1999/xlink">
 <defs>
  <style type="text/css">
*{stroke-linecap:butt;stroke-linejoin:round;}
  </style>
 </defs>
 <g id="figure_1">
  <g id="patch_1">
   <path d="M 0 345.6 
L 460.8 345.6 
L 460.8 0 
L 0 0 
z
" style="fill:#ffffff;"/>
  </g>
  <g id="axes_1">
   <g id="patch_2">
    <path d="M 57.6 307.584 
L 414.72 307.584 
L 414.72 41.472 
L 57.6 41.472 
z
" style="fill:#ffffff;"/>
   </g>
   <g id="matplotlib.axis_1">
    <g id="xtick_1">
     <g id="line2d_1">
      <path clip-path="url(#p6dd80d123f)" d="M 57.6 307.584 
L 57.6 41.472 
" style="fill:none;stroke:#b0b0b0;stroke-linecap:square;stroke-width:0.8;"/>
     </g>
     <g id="line2d_2">
      <defs>
       <path d="M 0 0 
L 0 3.5 
" id="mc2e3019563" style="stroke:#000000;stroke-width:0.8;"/>
      </defs>
      <g>
       <use style="stroke:#000000;stroke-width:0.8;" x="57.6" xlink:href="#mc2e3019563" y="307.584"/>
      </g>
     </g>
     <g id="text_1">
      <!-- 0.800 -->
      <defs>
       <path d="M 44.796875 32 
C 44.796875 40.296875 44.296875 48.40625 40.703125 56 
C 36.59375 64.296875 29.40625 66.5 24.5 66.5 
C 18.703125 66.5 11.59375 63.59375 7.90625 55.296875 
C 5.09375 49 4.09375 42.796875 4.09375 32 
C 4.09375 22.296875 4.796875 15 8.40625 7.90625 
C 12.296875 0.296875 19.203125 -2.09375 24.40625 -2.09375 
C 33.09375 -2.09375 38.09375 3.09375 41 8.90625 
C 44.59375 16.40625 44.796875 26.203125 44.796875 32 
z
M 37.203125 33.203125 
C 37.203125 26.5 37.203125 18.90625 36.09375 12.796875 
C 34.203125 1.796875 27.90625 -0.09375 24.40625 -0.09375 
C 21.203125 -0.09375 14.703125 1.703125 12.796875 12.59375 
C 11.703125 18.59375 11.703125 26.203125 11.703125 33.203125 
C 11.703125 41.40625 11.703125 48.796875 13.296875 54.703125 
C 15 61.40625 20.09375 64.5 24.40625 64.5 
C 28.203125 64.5 34 62.203125 35.90625 53.59375 
C 37.203125 47.90625 37.203125 40 37.203125 33.203125 
z
" id="LMRoman12-Regular-30"/>
       <path d="M 18.40625 4.90625 
C 18.40625 7.59375 16.09375 9.703125 13.59375 9.703125 
C 10.703125 9.703125 8.703125 7.40625 8.703125 4.90625 
C 8.703125 1.90625 11.203125 0 13.5 0 
C 16.203125 0 18.40625 2.09375 18.40625 4.90625 
z
" id="LMRoman12-Regular-2e"/>
       <path d="M 44.796875 16.59375 
C 44.796875 26.796875 37.59375 31.296875 29.796875 36.09375 
C 34.796875 38.796875 42.09375 43.40625 42.09375 51.796875 
C 42.09375 60.5 33.703125 66.5 24.5 66.5 
C 14.59375 66.5 6.796875 59.203125 6.796875 50.09375 
C 6.796875 46.703125 7.796875 43.296875 10.59375 39.90625 
C 11.703125 38.59375 11.796875 38.5 18.796875 33.59375 
C 9.09375 29.09375 4.09375 22.40625 4.09375 15.09375 
C 4.09375 4.5 14.203125 -2.09375 24.40625 -2.09375 
C 35.5 -2.09375 44.796875 6.09375 44.796875 16.59375 
z
M 38 51.703125 
C 38 45.59375 33.59375 40.703125 27.796875 37.5 
L 16.203125 45.09375 
C 14.90625 46 10.90625 48.59375 10.90625 53.5 
C 10.90625 60 17.703125 64.09375 24.40625 64.09375 
C 31.59375 64.09375 38 58.90625 38 51.703125 
z
M 40.203125 13.40625 
C 40.203125 5.796875 32.5 0.59375 24.5 0.59375 
C 16 0.59375 8.703125 6.796875 8.703125 15.09375 
C 8.703125 22.90625 14.40625 29.203125 20.90625 32.203125 
L 33 24.296875 
C 35.59375 22.59375 40.203125 19.5 40.203125 13.40625 
z
" id="LMRoman12-Regular-38"/>
      </defs>
      <g transform="translate(46.439844 321.524625)scale(0.1 -0.1)">
       <use xlink:href="#LMRoman12-Regular-30"/>
       <use x="48.999985" xlink:href="#LMRoman12-Regular-2e"/>
       <use x="76.199982" xlink:href="#LMRoman12-Regular-38"/>
       <use x="125.199966" xlink:href="#LMRoman12-Regular-30"/>
       <use x="174.199951" xlink:href="#LMRoman12-Regular-30"/>
      </g>
     </g>
    </g>
    <g id="xtick_2">
     <g id="line2d_3">
      <path clip-path="url(#p6dd80d123f)" d="M 102.24 307.584 
L 102.24 41.472 
" style="fill:none;stroke:#b0b0b0;stroke-linecap:square;stroke-width:0.8;"/>
     </g>
     <g id="line2d_4">
      <g>
       <use style="stroke:#000000;stroke-width:0.8;" x="102.24" xlink:href="#mc2e3019563" y="307.584"/>
      </g>
     </g>
     <g id="text_2">
      <!-- 0.825 -->
      <defs>
       <path d="M 44 16.796875 
L 41.796875 16.796875 
C 41.5 15.09375 40.703125 9.59375 39.703125 8 
C 39 7.09375 33.296875 7.09375 30.296875 7.09375 
L 11.796875 7.09375 
C 14.5 9.40625 20.59375 15.796875 23.203125 18.203125 
C 38.40625 32.203125 44 37.40625 44 47.296875 
C 44 58.796875 34.90625 66.5 23.296875 66.5 
C 11.703125 66.5 4.90625 56.59375 4.90625 48 
C 4.90625 42.90625 9.296875 42.90625 9.59375 42.90625 
C 11.703125 42.90625 14.296875 44.40625 14.296875 47.59375 
C 14.296875 50.40625 12.40625 52.296875 9.59375 52.296875 
C 8.703125 52.296875 8.5 52.296875 8.203125 52.203125 
C 10.09375 59 15.5 63.59375 22 63.59375 
C 30.5 63.59375 35.703125 56.5 35.703125 47.296875 
C 35.703125 38.796875 30.796875 31.40625 25.09375 25 
L 4.90625 2.40625 
L 4.90625 0 
L 41.40625 0 
z
" id="LMRoman12-Regular-32"/>
       <path d="M 44 20.09375 
C 44 32 36 41.90625 25.5 41.90625 
C 19.796875 41.90625 15.40625 39.40625 12.796875 36.59375 
L 12.796875 57.296875 
C 17.09375 55.90625 20.59375 55.796875 21.703125 55.796875 
C 33 55.796875 40.203125 64.09375 40.203125 65.5 
C 40.203125 65.90625 40 66.40625 39.40625 66.40625 
C 39.40625 66.40625 39 66.40625 38.09375 66 
C 32.5 63.59375 27.703125 63.296875 25.09375 63.296875 
C 18.5 63.296875 13.796875 65.296875 11.90625 66.09375 
C 11.203125 66.40625 10.90625 66.40625 10.90625 66.40625 
C 10.09375 66.40625 10.09375 65.796875 10.09375 64.203125 
L 10.09375 34.5 
C 10.09375 32.703125 10.09375 32.09375 11.296875 32.09375 
C 11.796875 32.09375 11.90625 32.203125 12.90625 33.40625 
C 15.703125 37.5 20.40625 39.90625 25.40625 39.90625 
C 30.703125 39.90625 33.296875 35 34.09375 33.296875 
C 35.796875 29.40625 35.90625 24.5 35.90625 20.703125 
C 35.90625 16.90625 35.90625 11.203125 33.09375 6.703125 
C 30.90625 3.09375 27 0.59375 22.59375 0.59375 
C 16 0.59375 9.5 5.09375 7.703125 12.40625 
C 8.203125 12.203125 8.796875 12.09375 9.296875 12.09375 
C 11 12.09375 13.703125 13.09375 13.703125 16.5 
C 13.703125 19.296875 11.796875 20.90625 9.296875 20.90625 
C 7.5 20.90625 4.90625 20 4.90625 16.09375 
C 4.90625 7.59375 11.703125 -2.09375 22.796875 -2.09375 
C 34.09375 -2.09375 44 7.40625 44 20.09375 
z
" id="LMRoman12-Regular-35"/>
      </defs>
      <g transform="translate(91.079844 321.524625)scale(0.1 -0.1)">
       <use xlink:href="#LMRoman12-Regular-30"/>
       <use x="48.999985" xlink:href="#LMRoman12-Regular-2e"/>
       <use x="76.199982" xlink:href="#LMRoman12-Regular-38"/>
       <use x="125.199966" xlink:href="#LMRoman12-Regular-32"/>
       <use x="174.199951" xlink:href="#LMRoman12-Regular-35"/>
      </g>
     </g>
    </g>
    <g id="xtick_3">
     <g id="line2d_5">
      <path clip-path="url(#p6dd80d123f)" d="M 146.88 307.584 
L 146.88 41.472 
" style="fill:none;stroke:#b0b0b0;stroke-linecap:square;stroke-width:0.8;"/>
     </g>
     <g id="line2d_6">
      <g>
       <use style="stroke:#000000;stroke-width:0.8;" x="146.88" xlink:href="#mc2e3019563" y="307.584"/>
      </g>
     </g>
     <g id="text_3">
      <!-- 0.850 -->
      <g transform="translate(135.719844 321.524625)scale(0.1 -0.1)">
       <use xlink:href="#LMRoman12-Regular-30"/>
       <use x="48.999985" xlink:href="#LMRoman12-Regular-2e"/>
       <use x="76.199982" xlink:href="#LMRoman12-Regular-38"/>
       <use x="125.199966" xlink:href="#LMRoman12-Regular-35"/>
       <use x="174.199951" xlink:href="#LMRoman12-Regular-30"/>
      </g>
     </g>
    </g>
    <g id="xtick_4">
     <g id="line2d_7">
      <path clip-path="url(#p6dd80d123f)" d="M 191.52 307.584 
L 191.52 41.472 
" style="fill:none;stroke:#b0b0b0;stroke-linecap:square;stroke-width:0.8;"/>
     </g>
     <g id="line2d_8">
      <g>
       <use style="stroke:#000000;stroke-width:0.8;" x="191.52" xlink:href="#mc2e3019563" y="307.584"/>
      </g>
     </g>
     <g id="text_4">
      <!-- 0.875 -->
      <defs>
       <path d="M 47.5 62.09375 
L 47.5 64.40625 
L 23.40625 64.40625 
C 11.296875 64.40625 11.09375 65.703125 10.703125 67.59375 
L 8.5 67.59375 
L 5.40625 47.59375 
L 7.59375 47.59375 
C 7.90625 49.40625 8.796875 55.59375 10.09375 56.703125 
C 10.90625 57.296875 18.40625 57.296875 19.796875 57.296875 
L 41 57.296875 
L 30.40625 42.09375 
C 27.703125 38.203125 17.59375 21.796875 17.59375 3 
C 17.59375 1.90625 17.59375 -2.09375 21.703125 -2.09375 
C 25.90625 -2.09375 25.90625 1.796875 25.90625 3.09375 
L 25.90625 8.09375 
C 25.90625 23 28.296875 34.59375 33 41.296875 
z
" id="LMRoman12-Regular-37"/>
      </defs>
      <g transform="translate(180.359844 321.524625)scale(0.1 -0.1)">
       <use xlink:href="#LMRoman12-Regular-30"/>
       <use x="48.999985" xlink:href="#LMRoman12-Regular-2e"/>
       <use x="76.199982" xlink:href="#LMRoman12-Regular-38"/>
       <use x="125.199966" xlink:href="#LMRoman12-Regular-37"/>
       <use x="174.199951" xlink:href="#LMRoman12-Regular-35"/>
      </g>
     </g>
    </g>
    <g id="xtick_5">
     <g id="line2d_9">
      <path clip-path="url(#p6dd80d123f)" d="M 236.16 307.584 
L 236.16 41.472 
" style="fill:none;stroke:#b0b0b0;stroke-linecap:square;stroke-width:0.8;"/>
     </g>
     <g id="line2d_10">
      <g>
       <use style="stroke:#000000;stroke-width:0.8;" x="236.16" xlink:href="#mc2e3019563" y="307.584"/>
      </g>
     </g>
     <g id="text_5">
      <!-- 0.900 -->
      <defs>
       <path d="M 44.796875 32.90625 
C 44.796875 59.796875 33.59375 66.5 24.796875 66.5 
C 13.796875 66.5 4.09375 57.296875 4.09375 44.09375 
C 4.09375 30.90625 13.40625 21.90625 23.40625 21.90625 
C 30.796875 21.90625 34.59375 27.296875 36.59375 32.40625 
L 36.59375 29.09375 
C 36.59375 5.5 26.09375 0.59375 20.09375 0.59375 
C 17.703125 0.59375 12.40625 0.90625 9.90625 4.40625 
L 10.5 4.40625 
C 11.203125 4.203125 14.796875 4.796875 14.796875 8.5 
C 14.796875 10.703125 13.296875 12.59375 10.703125 12.59375 
C 8.09375 12.59375 6.5 10.90625 6.5 8.296875 
C 6.5 2.09375 11.5 -2.09375 20.203125 -2.09375 
C 32.703125 -2.09375 44.796875 11.203125 44.796875 32.90625 
z
M 36.40625 41.90625 
C 36.40625 33.5 32.59375 23.90625 23.796875 23.90625 
C 17.5 23.90625 14.796875 29 13.90625 30.90625 
C 12.296875 34.703125 12.296875 39.5 12.296875 44 
C 12.296875 49.59375 12.296875 54.40625 14.90625 58.5 
C 16.703125 61.203125 19.40625 64.09375 24.796875 64.09375 
C 30.5 64.09375 33.40625 59.09375 34.40625 56.796875 
C 36.40625 51.90625 36.40625 43.40625 36.40625 41.90625 
z
" id="LMRoman12-Regular-39"/>
      </defs>
      <g transform="translate(224.999844 321.524625)scale(0.1 -0.1)">
       <use xlink:href="#LMRoman12-Regular-30"/>
       <use x="48.999985" xlink:href="#LMRoman12-Regular-2e"/>
       <use x="76.199982" xlink:href="#LMRoman12-Regular-39"/>
       <use x="125.199966" xlink:href="#LMRoman12-Regular-30"/>
       <use x="174.199951" xlink:href="#LMRoman12-Regular-30"/>
      </g>
     </g>
    </g>
    <g id="xtick_6">
     <g id="line2d_11">
      <path clip-path="url(#p6dd80d123f)" d="M 280.8 307.584 
L 280.8 41.472 
" style="fill:none;stroke:#b0b0b0;stroke-linecap:square;stroke-width:0.8;"/>
     </g>
     <g id="line2d_12">
      <g>
       <use style="stroke:#000000;stroke-width:0.8;" x="280.8" xlink:href="#mc2e3019563" y="307.584"/>
      </g>
     </g>
     <g id="text_6">
      <!-- 0.925 -->
      <g transform="translate(269.639844 321.524625)scale(0.1 -0.1)">
       <use xlink:href="#LMRoman12-Regular-30"/>
       <use x="48.999985" xlink:href="#LMRoman12-Regular-2e"/>
       <use x="76.199982" xlink:href="#LMRoman12-Regular-39"/>
       <use x="125.199966" xlink:href="#LMRoman12-Regular-32"/>
       <use x="174.199951" xlink:href="#LMRoman12-Regular-35"/>
      </g>
     </g>
    </g>
    <g id="xtick_7">
     <g id="line2d_13">
      <path clip-path="url(#p6dd80d123f)" d="M 325.44 307.584 
L 325.44 41.472 
" style="fill:none;stroke:#b0b0b0;stroke-linecap:square;stroke-width:0.8;"/>
     </g>
     <g id="line2d_14">
      <g>
       <use style="stroke:#000000;stroke-width:0.8;" x="325.44" xlink:href="#mc2e3019563" y="307.584"/>
      </g>
     </g>
     <g id="text_7">
      <!-- 0.950 -->
      <g transform="translate(314.279844 321.524625)scale(0.1 -0.1)">
       <use xlink:href="#LMRoman12-Regular-30"/>
       <use x="48.999985" xlink:href="#LMRoman12-Regular-2e"/>
       <use x="76.199982" xlink:href="#LMRoman12-Regular-39"/>
       <use x="125.199966" xlink:href="#LMRoman12-Regular-35"/>
       <use x="174.199951" xlink:href="#LMRoman12-Regular-30"/>
      </g>
     </g>
    </g>
    <g id="xtick_8">
     <g id="line2d_15">
      <path clip-path="url(#p6dd80d123f)" d="M 370.08 307.584 
L 370.08 41.472 
" style="fill:none;stroke:#b0b0b0;stroke-linecap:square;stroke-width:0.8;"/>
     </g>
     <g id="line2d_16">
      <g>
       <use style="stroke:#000000;stroke-width:0.8;" x="370.08" xlink:href="#mc2e3019563" y="307.584"/>
      </g>
     </g>
     <g id="text_8">
      <!-- 0.975 -->
      <g transform="translate(358.919844 321.524625)scale(0.1 -0.1)">
       <use xlink:href="#LMRoman12-Regular-30"/>
       <use x="48.999985" xlink:href="#LMRoman12-Regular-2e"/>
       <use x="76.199982" xlink:href="#LMRoman12-Regular-39"/>
       <use x="125.199966" xlink:href="#LMRoman12-Regular-37"/>
       <use x="174.199951" xlink:href="#LMRoman12-Regular-35"/>
      </g>
     </g>
    </g>
    <g id="xtick_9">
     <g id="line2d_17">
      <path clip-path="url(#p6dd80d123f)" d="M 414.72 307.584 
L 414.72 41.472 
" style="fill:none;stroke:#b0b0b0;stroke-linecap:square;stroke-width:0.8;"/>
     </g>
     <g id="line2d_18">
      <g>
       <use style="stroke:#000000;stroke-width:0.8;" x="414.72" xlink:href="#mc2e3019563" y="307.584"/>
      </g>
     </g>
     <g id="text_9">
      <!-- 1.000 -->
      <defs>
       <path d="M 41 0 
L 41 2.90625 
L 37.90625 2.90625 
C 29.09375 2.90625 28.796875 4.09375 28.796875 7.703125 
L 28.796875 64.09375 
C 28.796875 66.40625 28.796875 66.5 26.796875 66.5 
C 24.40625 63.796875 19.40625 60.09375 9.09375 60.09375 
L 9.09375 57.203125 
C 11.40625 57.203125 16.40625 57.203125 21.90625 59.796875 
L 21.90625 7.703125 
C 21.90625 4.09375 21.59375 2.90625 12.796875 2.90625 
L 9.703125 2.90625 
L 9.703125 0 
C 12.40625 0.203125 22.09375 0.203125 25.40625 0.203125 
C 28.703125 0.203125 38.296875 0.203125 41 0 
z
" id="LMRoman12-Regular-31"/>
      </defs>
      <g transform="translate(403.559844 321.524625)scale(0.1 -0.1)">
       <use xlink:href="#LMRoman12-Regular-31"/>
       <use x="48.999985" xlink:href="#LMRoman12-Regular-2e"/>
       <use x="76.199982" xlink:href="#LMRoman12-Regular-30"/>
       <use x="125.199966" xlink:href="#LMRoman12-Regular-30"/>
       <use x="174.199951" xlink:href="#LMRoman12-Regular-30"/>
      </g>
     </g>
    </g>
    <g id="text_10">
     <!-- tp_rate/recall -->
     <defs>
      <path d="M 32.59375 12.40625 
L 32.59375 18.09375 
L 30.40625 18.09375 
L 30.40625 12.59375 
C 30.40625 5.40625 27.5 1.203125 23.59375 1.203125 
C 16.796875 1.203125 16.796875 10.5 16.796875 12.203125 
L 16.796875 40.203125 
L 30.90625 40.203125 
L 30.90625 43.09375 
L 16.796875 43.09375 
L 16.796875 61.5 
L 14.59375 61.5 
C 14.5 52.09375 10.90625 42.5 1.796875 42.203125 
L 1.796875 40.203125 
L 10.296875 40.203125 
L 10.296875 12.40625 
C 10.296875 1.296875 17.703125 -1 23 -1 
C 29.296875 -1 32.59375 5.203125 32.59375 12.40625 
z
" id="LMRoman12-Regular-74"/>
      <path d="M 50.796875 21.59375 
C 50.796875 34.296875 41.40625 44.09375 30.5 44.09375 
C 21.703125 44.09375 17 37.796875 16.703125 37.40625 
L 16.703125 44.09375 
L 2.796875 43 
L 2.796875 40.09375 
C 9.796875 40.09375 10.40625 39.40625 10.40625 35 
L 10.40625 -12 
C 10.40625 -16.5 9.296875 -16.5 2.796875 -16.5 
L 2.796875 -19.40625 
C 5.40625 -19.203125 10.796875 -19.203125 13.59375 -19.203125 
C 16.5 -19.203125 21.90625 -19.203125 24.5 -19.40625 
L 24.5 -16.5 
C 18.09375 -16.5 16.90625 -16.5 16.90625 -12 
L 16.90625 5.40625 
C 18.703125 2.90625 22.796875 -1 29.203125 -1 
C 40.703125 -1 50.796875 8.703125 50.796875 21.59375 
z
M 43.203125 21.59375 
C 43.203125 9.703125 36.40625 1 28.703125 1 
C 25.59375 1 22.703125 2.296875 20.703125 4.203125 
C 18.40625 6.5 16.90625 8.5 16.90625 11.296875 
L 16.90625 31.90625 
C 16.90625 33.796875 16.90625 33.90625 18 35.5 
C 21 40 25.90625 41.90625 29.703125 41.90625 
C 37.203125 41.90625 43.203125 32.796875 43.203125 21.59375 
z
" id="LMRoman12-Regular-70"/>
      <path d="M 73.40625 -13.59375 
L 73.40625 -11.40625 
L 0 -11.40625 
L 0 -13.59375 
z
" id="LMRoman12-Regular-5f"/>
      <path d="M 35.296875 38.296875 
C 35.296875 41.296875 32.59375 44.09375 28.296875 44.09375 
C 19.796875 44.09375 16.90625 34.90625 16.296875 33 
L 16.203125 33 
L 16.203125 44.09375 
L 2.796875 43 
L 2.796875 40.09375 
C 9.59375 40.09375 10.40625 39.40625 10.40625 34.5 
L 10.40625 7.40625 
C 10.40625 2.90625 9.296875 2.90625 2.796875 2.90625 
L 2.796875 0 
C 5.59375 0.203125 11.09375 0.203125 14.09375 0.203125 
C 16.796875 0.203125 23.90625 0.203125 26.203125 0 
L 26.203125 2.90625 
L 24.203125 2.90625 
C 16.90625 2.90625 16.703125 4 16.703125 7.59375 
L 16.703125 23.296875 
C 16.703125 33 20.703125 42.09375 28.40625 42.09375 
C 29.203125 42.09375 29.40625 42.09375 29.796875 42 
C 29 41.59375 27.40625 41 27.40625 38.296875 
C 27.40625 35.40625 29.703125 34.296875 31.296875 34.296875 
C 33.296875 34.296875 35.296875 35.59375 35.296875 38.296875 
z
" id="LMRoman12-Regular-72"/>
      <path d="M 47.40625 8.90625 
L 47.40625 14.5 
L 45.203125 14.5 
L 45.203125 8.90625 
C 45.203125 3.203125 42.796875 2.40625 41.40625 2.40625 
C 37.59375 2.40625 37.59375 7.703125 37.59375 9.203125 
L 37.59375 26.703125 
C 37.59375 32.09375 37.59375 36.09375 33.203125 40 
C 29.703125 43.203125 25.203125 44.59375 20.796875 44.59375 
C 12.59375 44.59375 6.296875 39.203125 6.296875 32.703125 
C 6.296875 29.796875 8.203125 28.40625 10.5 28.40625 
C 12.90625 28.40625 14.59375 30.09375 14.59375 32.5 
C 14.59375 36.59375 11 36.59375 9.5 36.59375 
C 11.796875 40.796875 16.59375 42.59375 20.59375 42.59375 
C 25.203125 42.59375 31.09375 38.796875 31.09375 29.796875 
L 31.09375 25.796875 
C 11 25.5 3.40625 17.09375 3.40625 9.40625 
C 3.40625 1.5 12.59375 -1 18.703125 -1 
C 25.296875 -1 29.796875 3 31.703125 7.796875 
C 32.09375 3.09375 35.203125 -0.5 39.5 -0.5 
C 41.59375 -0.5 47.40625 0.90625 47.40625 8.90625 
z
M 31.09375 14.09375 
C 31.09375 4.296875 23.796875 1 19.5 1 
C 14.59375 1 10.5 4.59375 10.5 9.40625 
C 10.5 22.59375 27.5 23.796875 31.09375 24 
z
" id="LMRoman12-Regular-61"/>
      <path d="M 40.703125 11.90625 
C 40.703125 12.5 40.203125 12.90625 39.59375 12.90625 
C 38.796875 12.90625 38.59375 12.40625 38.40625 11.90625 
C 35.796875 3.5 29.09375 1.203125 24.90625 1.203125 
C 20.703125 1.203125 10.59375 4 10.59375 21.296875 
L 10.59375 23.203125 
L 38.296875 23.203125 
C 40.5 23.203125 40.703125 23.203125 40.703125 25.09375 
C 40.703125 35.203125 35.296875 44.59375 23.203125 44.59375 
C 11.796875 44.59375 3 34.296875 3 21.90625 
C 3 8.703125 13.203125 -1 24.296875 -1 
C 36.203125 -1 40.703125 9.796875 40.703125 11.90625 
z
M 34.5 25.09375 
L 10.703125 25.09375 
C 11.5 40.796875 20.296875 42.59375 23.09375 42.59375 
C 33.796875 42.59375 34.40625 28.5 34.5 25.09375 
z
" id="LMRoman12-Regular-65"/>
      <path d="M 43.5 73.09375 
C 43.5 74.40625 42.5 75 41.703125 75 
C 40.40625 75 40.09375 74.09375 39.59375 72.796875 
L 5.90625 -21.40625 
C 5.40625 -22.703125 5.40625 -23.09375 5.40625 -23.09375 
C 5.40625 -24.203125 6.203125 -25 7.296875 -25 
C 8.59375 -25 8.90625 -24 9.296875 -22.90625 
L 43 71.40625 
C 43.5 72.703125 43.5 73.09375 43.5 73.09375 
z
" id="LMRoman12-Regular-2f"/>
      <path d="M 40.59375 11.90625 
C 40.59375 12.796875 39.90625 12.796875 39.59375 12.796875 
C 38.703125 12.796875 38.59375 12.5 38.296875 11.296875 
C 36.09375 4.203125 30.703125 1.203125 25.296875 1.203125 
C 19.203125 1.203125 11.09375 6.5 11.09375 21.703125 
C 11.09375 38.296875 19.59375 42.40625 24.59375 42.40625 
C 28.40625 42.40625 33.90625 40.90625 36.203125 37 
C 35 37 31.296875 37 31.296875 32.90625 
C 31.296875 30.5 33 28.796875 35.40625 28.796875 
C 37.703125 28.796875 39.59375 30.203125 39.59375 33.09375 
C 39.59375 39.796875 32.59375 44.59375 24.5 44.59375 
C 12.796875 44.59375 3.5 34.203125 3.5 21.59375 
C 3.5 8.796875 13.09375 -1 24.40625 -1 
C 37.59375 -1 40.59375 11 40.59375 11.90625 
z
" id="LMRoman12-Regular-63"/>
      <path d="M 24.796875 0 
L 24.796875 2.90625 
C 18.40625 2.90625 17.203125 2.90625 17.203125 7.40625 
L 17.203125 69.40625 
L 3.296875 68.296875 
L 3.296875 65.40625 
C 10.09375 65.40625 10.90625 64.703125 10.90625 59.796875 
L 10.90625 7.40625 
C 10.90625 2.90625 9.796875 2.90625 3.296875 2.90625 
L 3.296875 0 
C 6.09375 0.203125 11 0.203125 14 0.203125 
C 17 0.203125 22 0.203125 24.796875 0 
z
" id="LMRoman12-Regular-6c"/>
     </defs>
     <g transform="translate(205.555312 334.96525)scale(0.1 -0.1)">
      <use xlink:href="#LMRoman12-Regular-74"/>
      <use x="38.099991" xlink:href="#LMRoman12-Regular-70"/>
      <use x="92.499985" xlink:href="#LMRoman12-Regular-5f"/>
      <use x="165.899979" xlink:href="#LMRoman12-Regular-72"/>
      <use x="203.999969" xlink:href="#LMRoman12-Regular-61"/>
      <use x="252.999954" xlink:href="#LMRoman12-Regular-74"/>
      <use x="291.099945" xlink:href="#LMRoman12-Regular-65"/>
      <use x="334.59993" xlink:href="#LMRoman12-Regular-2f"/>
      <use x="383.599915" xlink:href="#LMRoman12-Regular-72"/>
      <use x="421.699905" xlink:href="#LMRoman12-Regular-65"/>
      <use x="465.19989" xlink:href="#LMRoman12-Regular-63"/>
      <use x="508.699875" xlink:href="#LMRoman12-Regular-61"/>
      <use x="557.69986" xlink:href="#LMRoman12-Regular-6c"/>
      <use x="584.899857" xlink:href="#LMRoman12-Regular-6c"/>
     </g>
    </g>
   </g>
   <g id="matplotlib.axis_2">
    <g id="ytick_1">
     <g id="line2d_19">
      <path clip-path="url(#p6dd80d123f)" d="M 57.6 307.584 
L 414.72 307.584 
" style="fill:none;stroke:#b0b0b0;stroke-linecap:square;stroke-width:0.8;"/>
     </g>
     <g id="line2d_20">
      <defs>
       <path d="M 0 0 
L -3.5 0 
" id="ma7a39d274a" style="stroke:#000000;stroke-width:0.8;"/>
      </defs>
      <g>
       <use style="stroke:#000000;stroke-width:0.8;" x="57.6" xlink:href="#ma7a39d274a" y="307.584"/>
      </g>
     </g>
     <g id="text_11">
      <!-- 0.800 -->
      <g transform="translate(28.279688 311.054312)scale(0.1 -0.1)">
       <use xlink:href="#LMRoman12-Regular-30"/>
       <use x="48.999985" xlink:href="#LMRoman12-Regular-2e"/>
       <use x="76.199982" xlink:href="#LMRoman12-Regular-38"/>
       <use x="125.199966" xlink:href="#LMRoman12-Regular-30"/>
       <use x="174.199951" xlink:href="#LMRoman12-Regular-30"/>
      </g>
     </g>
    </g>
    <g id="ytick_2">
     <g id="line2d_21">
      <path clip-path="url(#p6dd80d123f)" d="M 57.6 274.32 
L 414.72 274.32 
" style="fill:none;stroke:#b0b0b0;stroke-linecap:square;stroke-width:0.8;"/>
     </g>
     <g id="line2d_22">
      <g>
       <use style="stroke:#000000;stroke-width:0.8;" x="57.6" xlink:href="#ma7a39d274a" y="274.32"/>
      </g>
     </g>
     <g id="text_12">
      <!-- 0.825 -->
      <g transform="translate(28.279688 277.790312)scale(0.1 -0.1)">
       <use xlink:href="#LMRoman12-Regular-30"/>
       <use x="48.999985" xlink:href="#LMRoman12-Regular-2e"/>
       <use x="76.199982" xlink:href="#LMRoman12-Regular-38"/>
       <use x="125.199966" xlink:href="#LMRoman12-Regular-32"/>
       <use x="174.199951" xlink:href="#LMRoman12-Regular-35"/>
      </g>
     </g>
    </g>
    <g id="ytick_3">
     <g id="line2d_23">
      <path clip-path="url(#p6dd80d123f)" d="M 57.6 241.056 
L 414.72 241.056 
" style="fill:none;stroke:#b0b0b0;stroke-linecap:square;stroke-width:0.8;"/>
     </g>
     <g id="line2d_24">
      <g>
       <use style="stroke:#000000;stroke-width:0.8;" x="57.6" xlink:href="#ma7a39d274a" y="241.056"/>
      </g>
     </g>
     <g id="text_13">
      <!-- 0.850 -->
      <g transform="translate(28.279688 244.526312)scale(0.1 -0.1)">
       <use xlink:href="#LMRoman12-Regular-30"/>
       <use x="48.999985" xlink:href="#LMRoman12-Regular-2e"/>
       <use x="76.199982" xlink:href="#LMRoman12-Regular-38"/>
       <use x="125.199966" xlink:href="#LMRoman12-Regular-35"/>
       <use x="174.199951" xlink:href="#LMRoman12-Regular-30"/>
      </g>
     </g>
    </g>
    <g id="ytick_4">
     <g id="line2d_25">
      <path clip-path="url(#p6dd80d123f)" d="M 57.6 207.792 
L 414.72 207.792 
" style="fill:none;stroke:#b0b0b0;stroke-linecap:square;stroke-width:0.8;"/>
     </g>
     <g id="line2d_26">
      <g>
       <use style="stroke:#000000;stroke-width:0.8;" x="57.6" xlink:href="#ma7a39d274a" y="207.792"/>
      </g>
     </g>
     <g id="text_14">
      <!-- 0.875 -->
      <g transform="translate(28.279688 211.262312)scale(0.1 -0.1)">
       <use xlink:href="#LMRoman12-Regular-30"/>
       <use x="48.999985" xlink:href="#LMRoman12-Regular-2e"/>
       <use x="76.199982" xlink:href="#LMRoman12-Regular-38"/>
       <use x="125.199966" xlink:href="#LMRoman12-Regular-37"/>
       <use x="174.199951" xlink:href="#LMRoman12-Regular-35"/>
      </g>
     </g>
    </g>
    <g id="ytick_5">
     <g id="line2d_27">
      <path clip-path="url(#p6dd80d123f)" d="M 57.6 174.528 
L 414.72 174.528 
" style="fill:none;stroke:#b0b0b0;stroke-linecap:square;stroke-width:0.8;"/>
     </g>
     <g id="line2d_28">
      <g>
       <use style="stroke:#000000;stroke-width:0.8;" x="57.6" xlink:href="#ma7a39d274a" y="174.528"/>
      </g>
     </g>
     <g id="text_15">
      <!-- 0.900 -->
      <g transform="translate(28.279688 177.998312)scale(0.1 -0.1)">
       <use xlink:href="#LMRoman12-Regular-30"/>
       <use x="48.999985" xlink:href="#LMRoman12-Regular-2e"/>
       <use x="76.199982" xlink:href="#LMRoman12-Regular-39"/>
       <use x="125.199966" xlink:href="#LMRoman12-Regular-30"/>
       <use x="174.199951" xlink:href="#LMRoman12-Regular-30"/>
      </g>
     </g>
    </g>
    <g id="ytick_6">
     <g id="line2d_29">
      <path clip-path="url(#p6dd80d123f)" d="M 57.6 141.264 
L 414.72 141.264 
" style="fill:none;stroke:#b0b0b0;stroke-linecap:square;stroke-width:0.8;"/>
     </g>
     <g id="line2d_30">
      <g>
       <use style="stroke:#000000;stroke-width:0.8;" x="57.6" xlink:href="#ma7a39d274a" y="141.264"/>
      </g>
     </g>
     <g id="text_16">
      <!-- 0.925 -->
      <g transform="translate(28.279688 144.734312)scale(0.1 -0.1)">
       <use xlink:href="#LMRoman12-Regular-30"/>
       <use x="48.999985" xlink:href="#LMRoman12-Regular-2e"/>
       <use x="76.199982" xlink:href="#LMRoman12-Regular-39"/>
       <use x="125.199966" xlink:href="#LMRoman12-Regular-32"/>
       <use x="174.199951" xlink:href="#LMRoman12-Regular-35"/>
      </g>
     </g>
    </g>
    <g id="ytick_7">
     <g id="line2d_31">
      <path clip-path="url(#p6dd80d123f)" d="M 57.6 108 
L 414.72 108 
" style="fill:none;stroke:#b0b0b0;stroke-linecap:square;stroke-width:0.8;"/>
     </g>
     <g id="line2d_32">
      <g>
       <use style="stroke:#000000;stroke-width:0.8;" x="57.6" xlink:href="#ma7a39d274a" y="108"/>
      </g>
     </g>
     <g id="text_17">
      <!-- 0.950 -->
      <g transform="translate(28.279688 111.470312)scale(0.1 -0.1)">
       <use xlink:href="#LMRoman12-Regular-30"/>
       <use x="48.999985" xlink:href="#LMRoman12-Regular-2e"/>
       <use x="76.199982" xlink:href="#LMRoman12-Regular-39"/>
       <use x="125.199966" xlink:href="#LMRoman12-Regular-35"/>
       <use x="174.199951" xlink:href="#LMRoman12-Regular-30"/>
      </g>
     </g>
    </g>
    <g id="ytick_8">
     <g id="line2d_33">
      <path clip-path="url(#p6dd80d123f)" d="M 57.6 74.736 
L 414.72 74.736 
" style="fill:none;stroke:#b0b0b0;stroke-linecap:square;stroke-width:0.8;"/>
     </g>
     <g id="line2d_34">
      <g>
       <use style="stroke:#000000;stroke-width:0.8;" x="57.6" xlink:href="#ma7a39d274a" y="74.736"/>
      </g>
     </g>
     <g id="text_18">
      <!-- 0.975 -->
      <g transform="translate(28.279688 78.206312)scale(0.1 -0.1)">
       <use xlink:href="#LMRoman12-Regular-30"/>
       <use x="48.999985" xlink:href="#LMRoman12-Regular-2e"/>
       <use x="76.199982" xlink:href="#LMRoman12-Regular-39"/>
       <use x="125.199966" xlink:href="#LMRoman12-Regular-37"/>
       <use x="174.199951" xlink:href="#LMRoman12-Regular-35"/>
      </g>
     </g>
    </g>
    <g id="ytick_9">
     <g id="line2d_35">
      <path clip-path="url(#p6dd80d123f)" d="M 57.6 41.472 
L 414.72 41.472 
" style="fill:none;stroke:#b0b0b0;stroke-linecap:square;stroke-width:0.8;"/>
     </g>
     <g id="line2d_36">
      <g>
       <use style="stroke:#000000;stroke-width:0.8;" x="57.6" xlink:href="#ma7a39d274a" y="41.472"/>
      </g>
     </g>
     <g id="text_19">
      <!-- 1.000 -->
      <g transform="translate(28.279688 44.942312)scale(0.1 -0.1)">
       <use xlink:href="#LMRoman12-Regular-31"/>
       <use x="48.999985" xlink:href="#LMRoman12-Regular-2e"/>
       <use x="76.199982" xlink:href="#LMRoman12-Regular-30"/>
       <use x="125.199966" xlink:href="#LMRoman12-Regular-30"/>
       <use x="174.199951" xlink:href="#LMRoman12-Regular-30"/>
      </g>
     </g>
    </g>
    <g id="text_20">
     <!-- precision -->
     <defs>
      <path d="M 24.09375 0 
L 24.09375 2.90625 
C 17.59375 2.90625 17.203125 3.40625 17.203125 7.296875 
L 17.203125 44.09375 
L 3.59375 43 
L 3.59375 40.09375 
C 10 40.09375 10.90625 39.5 10.90625 34.59375 
L 10.90625 7.40625 
C 10.90625 2.90625 9.796875 2.90625 3.296875 2.90625 
L 3.296875 0 
C 6.09375 0.203125 10.90625 0.203125 13.796875 0.203125 
C 14.90625 0.203125 20.703125 0.203125 24.09375 0 
z
M 18.5 60.40625 
C 18.5 63.40625 16.09375 65.296875 13.703125 65.296875 
C 10.90625 65.296875 8.796875 63.09375 8.796875 60.40625 
C 8.796875 57.796875 11 55.59375 13.59375 55.59375 
C 16.59375 55.59375 18.5 58 18.5 60.40625 
z
" id="LMRoman12-Regular-69"/>
      <path d="M 35.203125 12.703125 
C 35.203125 18.09375 31.90625 21.296875 31 22.203125 
C 27.40625 25.296875 24.703125 25.90625 18.09375 27.09375 
C 15.09375 27.703125 7.796875 29.09375 7.796875 35.09375 
C 7.796875 38.203125 9.90625 42.796875 18.90625 42.796875 
C 29.796875 42.796875 30.40625 33.5 30.59375 30.40625 
C 30.703125 29.59375 31.40625 29.59375 31.703125 29.59375 
C 32.796875 29.59375 32.796875 30.09375 32.796875 31.90625 
L 32.796875 42.296875 
C 32.796875 44.09375 32.796875 44.59375 31.796875 44.59375 
C 31 44.59375 29.09375 42.40625 28.40625 41.5 
C 25.296875 44 22.203125 44.59375 19 44.59375 
C 6.90625 44.59375 3.296875 38 3.296875 32.5 
C 3.296875 31.40625 3.296875 27.90625 7.09375 24.40625 
C 10.296875 21.59375 13.703125 20.90625 18.296875 20 
C 23.796875 18.90625 25.09375 18.59375 27.59375 16.59375 
C 29.40625 15.09375 30.703125 12.90625 30.703125 10.09375 
C 30.703125 5.796875 28.203125 1 19.40625 1 
C 12.796875 1 8 4.796875 5.796875 14.796875 
C 5.40625 16.59375 5.296875 16.796875 5.296875 16.796875 
C 5.09375 17.203125 4.703125 17.203125 4.40625 17.203125 
C 3.296875 17.203125 3.296875 16.703125 3.296875 14.90625 
L 3.296875 1.296875 
C 3.296875 -0.5 3.296875 -1 4.296875 -1 
C 4.796875 -1 4.90625 -0.90625 6.59375 1.203125 
C 7.09375 1.90625 7.09375 2.09375 8.59375 3.703125 
C 12.40625 -1 17.796875 -1 19.5 -1 
C 30 -1 35.203125 4.796875 35.203125 12.703125 
z
" id="LMRoman12-Regular-73"/>
      <path d="M 45.90625 21.40625 
C 45.90625 34.296875 36.09375 44.59375 24.5 44.59375 
C 12.5 44.59375 3 34 3 21.40625 
C 3 8.59375 13 -1 24.40625 -1 
C 36.203125 -1 45.90625 8.796875 45.90625 21.40625 
z
M 38.296875 22.296875 
C 38.296875 18.796875 38.296875 12.59375 35.703125 7.90625 
C 32.90625 3.09375 28.296875 1.203125 24.5 1.203125 
C 20.796875 1.203125 16.296875 2.796875 13.40625 7.703125 
C 10.703125 12.203125 10.59375 18.09375 10.59375 22.296875 
C 10.59375 26.09375 10.59375 32.203125 13.703125 36.703125 
C 16.5 41 20.90625 42.59375 24.40625 42.59375 
C 28.296875 42.59375 32.5 40.796875 35.203125 36.90625 
C 38.296875 32.296875 38.296875 26 38.296875 22.296875 
z
" id="LMRoman12-Regular-6f"/>
      <path d="M 52.09375 0 
L 52.09375 2.90625 
C 47.09375 2.90625 44.59375 2.90625 44.5 5.90625 
L 44.5 24.296875 
C 44.5 33.59375 44.5 36.40625 42.203125 39.59375 
C 39.296875 43.5 34.59375 44.09375 31.203125 44.09375 
C 21.5 44.09375 17.703125 35.796875 16.90625 33.796875 
L 16.796875 33.796875 
L 16.796875 44.09375 
L 3.203125 43 
L 3.203125 40.09375 
C 10 40.09375 10.796875 39.40625 10.796875 34.5 
L 10.796875 7.40625 
C 10.796875 2.90625 9.703125 2.90625 3.203125 2.90625 
L 3.203125 0 
C 5.796875 0.203125 11.203125 0.203125 14 0.203125 
C 16.90625 0.203125 22.296875 0.203125 24.90625 0 
L 24.90625 2.90625 
C 18.5 2.90625 17.296875 2.90625 17.296875 7.40625 
L 17.296875 26 
C 17.296875 36.5 24.203125 42.09375 30.40625 42.09375 
C 36.59375 42.09375 38 37 38 30.90625 
L 38 7.40625 
C 38 2.90625 36.90625 2.90625 30.40625 2.90625 
L 30.40625 0 
C 33 0.203125 38.40625 0.203125 41.203125 0.203125 
C 44.09375 0.203125 49.5 0.203125 52.09375 0 
z
" id="LMRoman12-Regular-6e"/>
     </defs>
     <g transform="translate(22.339062 193.323312)rotate(-90)scale(0.1 -0.1)">
      <use xlink:href="#LMRoman12-Regular-70"/>
      <use x="54.399994" xlink:href="#LMRoman12-Regular-72"/>
      <use x="92.499985" xlink:href="#LMRoman12-Regular-65"/>
      <use x="135.999969" xlink:href="#LMRoman12-Regular-63"/>
      <use x="179.499954" xlink:href="#LMRoman12-Regular-69"/>
      <use x="206.699951" xlink:href="#LMRoman12-Regular-73"/>
      <use x="245.299942" xlink:href="#LMRoman12-Regular-69"/>
      <use x="272.499939" xlink:href="#LMRoman12-Regular-6f"/>
      <use x="321.499924" xlink:href="#LMRoman12-Regular-6e"/>
     </g>
    </g>
   </g>
   <g id="line2d_37">
    <path clip-path="url(#p6dd80d123f)" d="M 383.771938 233.340426 
L 362.933577 132.825421 
L 284.634981 87.496905 
L 63.872141 70.665722 
L -1 71.276847 
" style="fill:none;stroke:#7d9aaa;stroke-dasharray:5.55,2.4;stroke-dashoffset:0;stroke-width:1.5;"/>
    <defs>
     <path d="M 0 -3 
L -0.673542 -0.927051 
L -2.85317 -0.927051 
L -1.089814 0.354102 
L -1.763356 2.427051 
L -0 1.145898 
L 1.763356 2.427051 
L 1.089814 0.354102 
L 2.85317 -0.927051 
L 0.673542 -0.927051 
z
" id="m73c8016e96" style="stroke:#7d9aaa;stroke-linejoin:bevel;"/>
    </defs>
    <g clip-path="url(#p6dd80d123f)">
     <use style="fill:#7d9aaa;stroke:#7d9aaa;stroke-linejoin:bevel;" x="383.771938" xlink:href="#m73c8016e96" y="233.340426"/>
     <use style="fill:#7d9aaa;stroke:#7d9aaa;stroke-linejoin:bevel;" x="362.933577" xlink:href="#m73c8016e96" y="132.825421"/>
     <use style="fill:#7d9aaa;stroke:#7d9aaa;stroke-linejoin:bevel;" x="284.634981" xlink:href="#m73c8016e96" y="87.496905"/>
     <use style="fill:#7d9aaa;stroke:#7d9aaa;stroke-linejoin:bevel;" x="63.872141" xlink:href="#m73c8016e96" y="70.665722"/>
     <use style="fill:#7d9aaa;stroke:#7d9aaa;stroke-linejoin:bevel;" x="-1" xlink:href="#m73c8016e96" y="71.276847"/>
    </g>
   </g>
   <g id="line2d_38">
    <path clip-path="url(#p6dd80d123f)" d="M 400.690212 231.770167 
L 399.245969 131.077601 
L 395.738522 84.696407 
L 387.795186 65.38529 
L 365.718902 58.86749 
L 292.681477 55.190797 
L 83.266259 54.371907 
" style="fill:none;stroke:#7d9aaa;stroke-dasharray:5.55,2.4;stroke-dashoffset:0;stroke-width:1.5;"/>
    <defs>
     <path d="M -3 3 
L 3 -3 
M -3 -3 
L 3 3 
" id="m936e74c1d1" style="stroke:#7d9aaa;"/>
    </defs>
    <g clip-path="url(#p6dd80d123f)">
     <use style="fill:#7d9aaa;stroke:#7d9aaa;" x="400.690212" xlink:href="#m936e74c1d1" y="231.770167"/>
     <use style="fill:#7d9aaa;stroke:#7d9aaa;" x="399.245969" xlink:href="#m936e74c1d1" y="131.077601"/>
     <use style="fill:#7d9aaa;stroke:#7d9aaa;" x="395.738522" xlink:href="#m936e74c1d1" y="84.696407"/>
     <use style="fill:#7d9aaa;stroke:#7d9aaa;" x="387.795186" xlink:href="#m936e74c1d1" y="65.38529"/>
     <use style="fill:#7d9aaa;stroke:#7d9aaa;" x="365.718902" xlink:href="#m936e74c1d1" y="58.86749"/>
     <use style="fill:#7d9aaa;stroke:#7d9aaa;" x="292.681477" xlink:href="#m936e74c1d1" y="55.190797"/>
     <use style="fill:#7d9aaa;stroke:#7d9aaa;" x="83.266259" xlink:href="#m936e74c1d1" y="54.371907"/>
    </g>
   </g>
   <g id="line2d_39">
    <path clip-path="url(#p6dd80d123f)" d="M 405.332421 231.343786 
L 403.991339 130.854121 
L 401.206013 84.567364 
L 399.349129 65.232 
L 395.944843 58.573722 
L 388.723628 54.449305 
L 364.171499 52.300406 
" style="fill:none;stroke:#7d9aaa;stroke-dasharray:5.55,2.4;stroke-dashoffset:0;stroke-width:1.5;"/>
    <defs>
     <path d="M -3 0 
L 3 0 
M 0 3 
L 0 -3 
" id="m7d56496416" style="stroke:#7d9aaa;"/>
    </defs>
    <g clip-path="url(#p6dd80d123f)">
     <use style="fill:#7d9aaa;stroke:#7d9aaa;" x="405.332421" xlink:href="#m7d56496416" y="231.343786"/>
     <use style="fill:#7d9aaa;stroke:#7d9aaa;" x="403.991339" xlink:href="#m7d56496416" y="130.854121"/>
     <use style="fill:#7d9aaa;stroke:#7d9aaa;" x="401.206013" xlink:href="#m7d56496416" y="84.567364"/>
     <use style="fill:#7d9aaa;stroke:#7d9aaa;" x="399.349129" xlink:href="#m7d56496416" y="65.232"/>
     <use style="fill:#7d9aaa;stroke:#7d9aaa;" x="395.944843" xlink:href="#m7d56496416" y="58.573722"/>
     <use style="fill:#7d9aaa;stroke:#7d9aaa;" x="388.723628" xlink:href="#m7d56496416" y="54.449305"/>
     <use style="fill:#7d9aaa;stroke:#7d9aaa;" x="364.171499" xlink:href="#m7d56496416" y="52.300406"/>
    </g>
   </g>
   <g id="line2d_40">
    <path clip-path="url(#p6dd80d123f)" d="M 382.530296 236.163646 
L 358.181674 139.846829 
L 277.088383 89.952319 
L 58.260302 71.699199 
L -1 72.179302 
" style="fill:none;stroke:#a9a280;stroke-dasharray:9.6,2.4,1.5,2.4;stroke-dashoffset:0;stroke-width:1.5;"/>
    <defs>
     <path d="M 0 -3 
L -0.673542 -0.927051 
L -2.85317 -0.927051 
L -1.089814 0.354102 
L -1.763356 2.427051 
L -0 1.145898 
L 1.763356 2.427051 
L 1.089814 0.354102 
L 2.85317 -0.927051 
L 0.673542 -0.927051 
z
" id="m322e1fea4d" style="stroke:#a9a280;stroke-linejoin:bevel;"/>
    </defs>
    <g clip-path="url(#p6dd80d123f)">
     <use style="fill:#a9a280;stroke:#a9a280;stroke-linejoin:bevel;" x="382.530296" xlink:href="#m322e1fea4d" y="236.163646"/>
     <use style="fill:#a9a280;stroke:#a9a280;stroke-linejoin:bevel;" x="358.181674" xlink:href="#m322e1fea4d" y="139.846829"/>
     <use style="fill:#a9a280;stroke:#a9a280;stroke-linejoin:bevel;" x="277.088383" xlink:href="#m322e1fea4d" y="89.952319"/>
     <use style="fill:#a9a280;stroke:#a9a280;stroke-linejoin:bevel;" x="58.260302" xlink:href="#m322e1fea4d" y="71.699199"/>
     <use style="fill:#a9a280;stroke:#a9a280;stroke-linejoin:bevel;" x="-1" xlink:href="#m322e1fea4d" y="72.179302"/>
    </g>
   </g>
   <g id="line2d_41">
    <path clip-path="url(#p6dd80d123f)" d="M 406.46623 233.920922 
L 401.823484 137.599931 
L 394.704607 86.832853 
L 385.212772 66.175934 
L 359.626084 59.007179 
L 285.651669 53.461986 
L 76.521768 49.672533 
" style="fill:none;stroke:#a9a280;stroke-dasharray:9.6,2.4,1.5,2.4;stroke-dashoffset:0;stroke-width:1.5;"/>
    <defs>
     <path d="M -3 3 
L 3 -3 
M -3 -3 
L 3 3 
" id="m6c01057655" style="stroke:#a9a280;"/>
    </defs>
    <g clip-path="url(#p6dd80d123f)">
     <use style="fill:#a9a280;stroke:#a9a280;" x="406.46623" xlink:href="#m6c01057655" y="233.920922"/>
     <use style="fill:#a9a280;stroke:#a9a280;" x="401.823484" xlink:href="#m6c01057655" y="137.599931"/>
     <use style="fill:#a9a280;stroke:#a9a280;" x="394.704607" xlink:href="#m6c01057655" y="86.832853"/>
     <use style="fill:#a9a280;stroke:#a9a280;" x="385.212772" xlink:href="#m6c01057655" y="66.175934"/>
     <use style="fill:#a9a280;stroke:#a9a280;" x="359.626084" xlink:href="#m6c01057655" y="59.007179"/>
     <use style="fill:#a9a280;stroke:#a9a280;" x="285.651669" xlink:href="#m6c01057655" y="53.461986"/>
     <use style="fill:#a9a280;stroke:#a9a280;" x="76.521768" xlink:href="#m6c01057655" y="49.672533"/>
    </g>
   </g>
   <g id="line2d_42">
    <path clip-path="url(#p6dd80d123f)" d="M 412.656557 233.349291 
L 410.902631 137.145328 
L 407.394779 86.520108 
L 401.823484 65.948709 
L 396.664878 58.644473 
L 385.522288 52.786022 
L 356.840437 48.348892 
" style="fill:none;stroke:#a9a280;stroke-dasharray:9.6,2.4,1.5,2.4;stroke-dashoffset:0;stroke-width:1.5;"/>
    <defs>
     <path d="M -3 0 
L 3 0 
M 0 3 
L 0 -3 
" id="m42e542e54f" style="stroke:#a9a280;"/>
    </defs>
    <g clip-path="url(#p6dd80d123f)">
     <use style="fill:#a9a280;stroke:#a9a280;" x="412.656557" xlink:href="#m42e542e54f" y="233.349291"/>
     <use style="fill:#a9a280;stroke:#a9a280;" x="410.902631" xlink:href="#m42e542e54f" y="137.145328"/>
     <use style="fill:#a9a280;stroke:#a9a280;" x="407.394779" xlink:href="#m42e542e54f" y="86.520108"/>
     <use style="fill:#a9a280;stroke:#a9a280;" x="401.823484" xlink:href="#m42e542e54f" y="65.948709"/>
     <use style="fill:#a9a280;stroke:#a9a280;" x="396.664878" xlink:href="#m42e542e54f" y="58.644473"/>
     <use style="fill:#a9a280;stroke:#a9a280;" x="385.522288" xlink:href="#m42e542e54f" y="52.786022"/>
     <use style="fill:#a9a280;stroke:#a9a280;" x="356.840437" xlink:href="#m42e542e54f" y="48.348892"/>
    </g>
   </g>
   <g id="line2d_43">
    <path clip-path="url(#p6dd80d123f)" d="M 385.209361 239.395545 
L 358.794244 140.981262 
L 273.564218 89.127123 
L 53.988558 68.747631 
L -1 68.488733 
" style="fill:none;stroke:#56aa1c;stroke-dasharray:1.5,2.475;stroke-dashoffset:0;stroke-width:1.5;"/>
    <defs>
     <path d="M 0 -3 
L -0.673542 -0.927051 
L -2.85317 -0.927051 
L -1.089814 0.354102 
L -1.763356 2.427051 
L -0 1.145898 
L 1.763356 2.427051 
L 1.089814 0.354102 
L 2.85317 -0.927051 
L 0.673542 -0.927051 
z
" id="ma7670f6f9b" style="stroke:#56aa1c;stroke-linejoin:bevel;"/>
    </defs>
    <g clip-path="url(#p6dd80d123f)">
     <use style="fill:#56aa1c;stroke:#56aa1c;stroke-linejoin:bevel;" x="385.209361" xlink:href="#ma7670f6f9b" y="239.395545"/>
     <use style="fill:#56aa1c;stroke:#56aa1c;stroke-linejoin:bevel;" x="358.794244" xlink:href="#ma7670f6f9b" y="140.981262"/>
     <use style="fill:#56aa1c;stroke:#56aa1c;stroke-linejoin:bevel;" x="273.564218" xlink:href="#ma7670f6f9b" y="89.127123"/>
     <use style="fill:#56aa1c;stroke:#56aa1c;stroke-linejoin:bevel;" x="53.988558" xlink:href="#ma7670f6f9b" y="68.747631"/>
     <use style="fill:#56aa1c;stroke:#56aa1c;stroke-linejoin:bevel;" x="-1" xlink:href="#ma7670f6f9b" y="68.488733"/>
    </g>
   </g>
   <g id="line2d_44">
    <path clip-path="url(#p6dd80d123f)" d="M 411.41811 236.912581 
L 408.632141 138.39737 
L 403.060202 85.764146 
L 387.995331 63.654396 
L 360.857925 53.803636 
L 283.057151 46.763483 
L 73.180792 44.60206 
" style="fill:none;stroke:#56aa1c;stroke-dasharray:1.5,2.475;stroke-dashoffset:0;stroke-width:1.5;"/>
    <defs>
     <path d="M -3 3 
L 3 -3 
M -3 -3 
L 3 3 
" id="m75ba276cff" style="stroke:#56aa1c;"/>
    </defs>
    <g clip-path="url(#p6dd80d123f)">
     <use style="fill:#56aa1c;stroke:#56aa1c;" x="411.41811" xlink:href="#m75ba276cff" y="236.912581"/>
     <use style="fill:#56aa1c;stroke:#56aa1c;" x="408.632141" xlink:href="#m75ba276cff" y="138.39737"/>
     <use style="fill:#56aa1c;stroke:#56aa1c;" x="403.060202" xlink:href="#m75ba276cff" y="85.764146"/>
     <use style="fill:#56aa1c;stroke:#56aa1c;" x="387.995331" xlink:href="#m75ba276cff" y="63.654396"/>
     <use style="fill:#56aa1c;stroke:#56aa1c;" x="360.857925" xlink:href="#m75ba276cff" y="53.803636"/>
     <use style="fill:#56aa1c;stroke:#56aa1c;" x="283.057151" xlink:href="#m75ba276cff" y="46.763483"/>
     <use style="fill:#56aa1c;stroke:#56aa1c;" x="73.180792" xlink:href="#m75ba276cff" y="44.60206"/>
    </g>
   </g>
   <g id="line2d_45">
    <path clip-path="url(#p6dd80d123f)" d="M 414.410448 236.63305 
L 412.965871 138.179011 
L 411.830847 85.553455 
L 408.735325 63.400139 
L 403.472938 53.510144 
L 389.955828 46.443443 
L 357.556036 44.088092 
" style="fill:none;stroke:#56aa1c;stroke-dasharray:1.5,2.475;stroke-dashoffset:0;stroke-width:1.5;"/>
    <defs>
     <path d="M -3 0 
L 3 0 
M 0 3 
L 0 -3 
" id="m9c452213da" style="stroke:#56aa1c;"/>
    </defs>
    <g clip-path="url(#p6dd80d123f)">
     <use style="fill:#56aa1c;stroke:#56aa1c;" x="414.410448" xlink:href="#m9c452213da" y="236.63305"/>
     <use style="fill:#56aa1c;stroke:#56aa1c;" x="412.965871" xlink:href="#m9c452213da" y="138.179011"/>
     <use style="fill:#56aa1c;stroke:#56aa1c;" x="411.830847" xlink:href="#m9c452213da" y="85.553455"/>
     <use style="fill:#56aa1c;stroke:#56aa1c;" x="408.735325" xlink:href="#m9c452213da" y="63.400139"/>
     <use style="fill:#56aa1c;stroke:#56aa1c;" x="403.472938" xlink:href="#m9c452213da" y="53.510144"/>
     <use style="fill:#56aa1c;stroke:#56aa1c;" x="389.955828" xlink:href="#m9c452213da" y="46.443443"/>
     <use style="fill:#56aa1c;stroke:#56aa1c;" x="357.556036" xlink:href="#m9c452213da" y="44.088092"/>
    </g>
   </g>
   <g id="patch_3">
    <path d="M 57.6 307.584 
L 57.6 41.472 
" style="fill:none;stroke:#000000;stroke-linecap:square;stroke-linejoin:miter;stroke-width:0.8;"/>
   </g>
   <g id="patch_4">
    <path d="M 414.72 307.584 
L 414.72 41.472 
" style="fill:none;stroke:#000000;stroke-linecap:square;stroke-linejoin:miter;stroke-width:0.8;"/>
   </g>
   <g id="patch_5">
    <path d="M 57.6 307.584 
L 414.72 307.584 
" style="fill:none;stroke:#000000;stroke-linecap:square;stroke-linejoin:miter;stroke-width:0.8;"/>
   </g>
   <g id="patch_6">
    <path d="M 57.6 41.472 
L 414.72 41.472 
" style="fill:none;stroke:#000000;stroke-linecap:square;stroke-linejoin:miter;stroke-width:0.8;"/>
   </g>
   <g id="patch_7">
    <path d="M 379.617308 239.505152 
Q 381.447047 237.392203 383.276787 235.279254 
Q 383.869302 238.010815 384.461818 240.742376 
z
" style="stroke:#000000;stroke-linecap:round;"/>
   </g>
   <g id="text_21">
    <!--   -->
    <defs>
     <path id="LMRoman12-Regular-20"/>
    </defs>
    <g transform="translate(383.771938 233.340426)scale(0.1 -0.1)">
     <use xlink:href="#LMRoman12-Regular-20"/>
    </g>
   </g>
   <g id="patch_8">
    <path d="M 396.535582 237.934893 
Q 398.365321 235.821944 400.195061 233.708995 
Q 400.787576 236.440556 401.380091 239.172117 
z
" style="stroke:#000000;stroke-linecap:round;"/>
   </g>
   <g id="text_22">
    <!--   -->
    <g transform="translate(400.690212 231.770167)scale(0.1 -0.1)">
     <use xlink:href="#LMRoman12-Regular-20"/>
    </g>
   </g>
   <g id="patch_9">
    <path d="M 401.177791 237.508513 
Q 403.00753 235.395564 404.83727 233.282615 
Q 405.429785 236.014176 406.022301 238.745737 
z
" style="stroke:#000000;stroke-linecap:round;"/>
   </g>
   <g id="text_23">
    <!--   -->
    <g transform="translate(405.332421 231.343786)scale(0.1 -0.1)">
     <use xlink:href="#LMRoman12-Regular-20"/>
    </g>
   </g>
   <g id="patch_10">
    <path d="M 378.375666 242.328372 
Q 380.205406 240.215423 382.035145 238.102474 
Q 382.62766 240.834035 383.220176 243.565596 
z
" style="stroke:#000000;stroke-linecap:round;"/>
   </g>
   <g id="text_24">
    <!--   -->
    <g transform="translate(382.530296 236.163646)scale(0.1 -0.1)">
     <use xlink:href="#LMRoman12-Regular-20"/>
    </g>
   </g>
   <g id="patch_11">
    <path d="M 402.311599 240.085648 
Q 404.141339 237.972699 405.971079 235.85975 
Q 406.563594 238.591311 407.156109 241.322872 
z
" style="stroke:#000000;stroke-linecap:round;"/>
   </g>
   <g id="text_25">
    <!--   -->
    <g transform="translate(406.46623 233.920922)scale(0.1 -0.1)">
     <use xlink:href="#LMRoman12-Regular-20"/>
    </g>
   </g>
   <g id="patch_12">
    <path d="M 408.501927 239.514017 
Q 410.331667 237.401068 412.161406 235.288119 
Q 412.753922 238.01968 413.346437 240.751241 
z
" style="stroke:#000000;stroke-linecap:round;"/>
   </g>
   <g id="text_26">
    <!--   -->
    <g transform="translate(412.656557 233.349291)scale(0.1 -0.1)">
     <use xlink:href="#LMRoman12-Regular-20"/>
    </g>
   </g>
   <g id="patch_13">
    <path d="M 381.054731 245.560271 
Q 382.884471 243.447322 384.71421 241.334373 
Q 385.306726 244.065934 385.899241 246.797496 
z
" style="stroke:#000000;stroke-linecap:round;"/>
   </g>
   <g id="text_27">
    <!--   -->
    <g transform="translate(385.209361 239.395545)scale(0.1 -0.1)">
     <use xlink:href="#LMRoman12-Regular-20"/>
    </g>
   </g>
   <g id="patch_14">
    <path d="M 407.26348 243.077307 
Q 409.093219 240.964358 410.922959 238.851409 
Q 411.515474 241.58297 412.10799 244.314531 
z
" style="stroke:#000000;stroke-linecap:round;"/>
   </g>
   <g id="text_28">
    <!--   -->
    <g transform="translate(411.41811 236.912581)scale(0.1 -0.1)">
     <use xlink:href="#LMRoman12-Regular-20"/>
    </g>
   </g>
   <g id="patch_15">
    <path d="M 410.255817 242.797776 
Q 412.085557 240.684827 413.915297 238.571878 
Q 414.507812 241.303439 415.100327 244.035 
z
" style="stroke:#000000;stroke-linecap:round;"/>
   </g>
   <g id="text_29">
    <!--   -->
    <g transform="translate(414.410448 236.63305)scale(0.1 -0.1)">
     <use xlink:href="#LMRoman12-Regular-20"/>
    </g>
   </g>
   <g id="legend_1">
    <g id="patch_16">
     <path d="M 64.6 302.584 
L 138.509375 302.584 
Q 140.509375 302.584 140.509375 300.584 
L 140.509375 176.118375 
Q 140.509375 174.118375 138.509375 174.118375 
L 64.6 174.118375 
Q 62.6 174.118375 62.6 176.118375 
L 62.6 300.584 
Q 62.6 302.584 64.6 302.584 
z
" style="fill:#ffffff;opacity:0.8;stroke:#cccccc;stroke-linejoin:miter;"/>
    </g>
    <g id="line2d_46">
     <path d="M 66.6 181.618375 
L 86.6 181.618375 
" style="fill:none;stroke:#7d9aaa;stroke-dasharray:5.55,2.4;stroke-dashoffset:0;stroke-width:1.5;"/>
    </g>
    <g id="line2d_47">
     <g>
      <use style="fill:#7d9aaa;stroke:#7d9aaa;stroke-linejoin:bevel;" x="76.6" xlink:href="#m73c8016e96" y="181.618375"/>
     </g>
    </g>
    <g id="text_30">
     <!-- r=1 a=05 -->
     <defs>
      <path d="M 70.703125 34.203125 
C 70.703125 36.09375 69 36.09375 67.5 36.09375 
L 8.59375 36.09375 
C 7.203125 36.09375 5.40625 36.09375 5.40625 34.296875 
C 5.40625 32.40625 7.09375 32.40625 8.59375 32.40625 
L 67.5 32.40625 
C 68.90625 32.40625 70.703125 32.40625 70.703125 34.203125 
z
M 70.703125 15.59375 
C 70.703125 17.5 69 17.5 67.5 17.5 
L 8.59375 17.5 
C 7.203125 17.5 5.40625 17.5 5.40625 15.703125 
C 5.40625 13.796875 7.09375 13.796875 8.59375 13.796875 
L 67.5 13.796875 
C 68.90625 13.796875 70.703125 13.796875 70.703125 15.59375 
z
" id="LMRoman12-Regular-3d"/>
     </defs>
     <g transform="translate(94.6 185.118375)scale(0.1 -0.1)">
      <use xlink:href="#LMRoman12-Regular-72"/>
      <use x="38.099991" xlink:href="#LMRoman12-Regular-3d"/>
      <use x="114.299973" xlink:href="#LMRoman12-Regular-31"/>
      <use x="163.299957" xlink:href="#LMRoman12-Regular-20"/>
      <use x="195.899948" xlink:href="#LMRoman12-Regular-61"/>
      <use x="244.899933" xlink:href="#LMRoman12-Regular-3d"/>
      <use x="321.099915" xlink:href="#LMRoman12-Regular-30"/>
      <use x="370.099899" xlink:href="#LMRoman12-Regular-35"/>
     </g>
    </g>
    <g id="line2d_48">
     <path d="M 66.6 195.559 
L 86.6 195.559 
" style="fill:none;stroke:#7d9aaa;stroke-dasharray:5.55,2.4;stroke-dashoffset:0;stroke-width:1.5;"/>
    </g>
    <g id="line2d_49">
     <g>
      <use style="fill:#7d9aaa;stroke:#7d9aaa;" x="76.6" xlink:href="#m936e74c1d1" y="195.559"/>
     </g>
    </g>
    <g id="text_31">
     <!-- r=1 a=1 -->
     <g transform="translate(94.6 199.059)scale(0.1 -0.1)">
      <use xlink:href="#LMRoman12-Regular-72"/>
      <use x="38.099991" xlink:href="#LMRoman12-Regular-3d"/>
      <use x="114.299973" xlink:href="#LMRoman12-Regular-31"/>
      <use x="163.299957" xlink:href="#LMRoman12-Regular-20"/>
      <use x="195.899948" xlink:href="#LMRoman12-Regular-61"/>
      <use x="244.899933" xlink:href="#LMRoman12-Regular-3d"/>
      <use x="321.099915" xlink:href="#LMRoman12-Regular-31"/>
     </g>
    </g>
    <g id="line2d_50">
     <path d="M 66.6 209.499625 
L 86.6 209.499625 
" style="fill:none;stroke:#7d9aaa;stroke-dasharray:5.55,2.4;stroke-dashoffset:0;stroke-width:1.5;"/>
    </g>
    <g id="line2d_51">
     <g>
      <use style="fill:#7d9aaa;stroke:#7d9aaa;" x="76.6" xlink:href="#m7d56496416" y="209.499625"/>
     </g>
    </g>
    <g id="text_32">
     <!-- r=1 a=15 -->
     <g transform="translate(94.6 212.999625)scale(0.1 -0.1)">
      <use xlink:href="#LMRoman12-Regular-72"/>
      <use x="38.099991" xlink:href="#LMRoman12-Regular-3d"/>
      <use x="114.299973" xlink:href="#LMRoman12-Regular-31"/>
      <use x="163.299957" xlink:href="#LMRoman12-Regular-20"/>
      <use x="195.899948" xlink:href="#LMRoman12-Regular-61"/>
      <use x="244.899933" xlink:href="#LMRoman12-Regular-3d"/>
      <use x="321.099915" xlink:href="#LMRoman12-Regular-31"/>
      <use x="370.099899" xlink:href="#LMRoman12-Regular-35"/>
     </g>
    </g>
    <g id="line2d_52">
     <path d="M 66.6 223.44025 
L 86.6 223.44025 
" style="fill:none;stroke:#a9a280;stroke-dasharray:9.6,2.4,1.5,2.4;stroke-dashoffset:0;stroke-width:1.5;"/>
    </g>
    <g id="line2d_53">
     <g>
      <use style="fill:#a9a280;stroke:#a9a280;stroke-linejoin:bevel;" x="76.6" xlink:href="#m322e1fea4d" y="223.44025"/>
     </g>
    </g>
    <g id="text_33">
     <!-- r=2 a=05 -->
     <g transform="translate(94.6 226.94025)scale(0.1 -0.1)">
      <use xlink:href="#LMRoman12-Regular-72"/>
      <use x="38.099991" xlink:href="#LMRoman12-Regular-3d"/>
      <use x="114.299973" xlink:href="#LMRoman12-Regular-32"/>
      <use x="163.299957" xlink:href="#LMRoman12-Regular-20"/>
      <use x="195.899948" xlink:href="#LMRoman12-Regular-61"/>
      <use x="244.899933" xlink:href="#LMRoman12-Regular-3d"/>
      <use x="321.099915" xlink:href="#LMRoman12-Regular-30"/>
      <use x="370.099899" xlink:href="#LMRoman12-Regular-35"/>
     </g>
    </g>
    <g id="line2d_54">
     <path d="M 66.6 237.380875 
L 86.6 237.380875 
" style="fill:none;stroke:#a9a280;stroke-dasharray:9.6,2.4,1.5,2.4;stroke-dashoffset:0;stroke-width:1.5;"/>
    </g>
    <g id="line2d_55">
     <g>
      <use style="fill:#a9a280;stroke:#a9a280;" x="76.6" xlink:href="#m6c01057655" y="237.380875"/>
     </g>
    </g>
    <g id="text_34">
     <!-- r=2 a=1 -->
     <g transform="translate(94.6 240.880875)scale(0.1 -0.1)">
      <use xlink:href="#LMRoman12-Regular-72"/>
      <use x="38.099991" xlink:href="#LMRoman12-Regular-3d"/>
      <use x="114.299973" xlink:href="#LMRoman12-Regular-32"/>
      <use x="163.299957" xlink:href="#LMRoman12-Regular-20"/>
      <use x="195.899948" xlink:href="#LMRoman12-Regular-61"/>
      <use x="244.899933" xlink:href="#LMRoman12-Regular-3d"/>
      <use x="321.099915" xlink:href="#LMRoman12-Regular-31"/>
     </g>
    </g>
    <g id="line2d_56">
     <path d="M 66.6 251.3215 
L 86.6 251.3215 
" style="fill:none;stroke:#a9a280;stroke-dasharray:9.6,2.4,1.5,2.4;stroke-dashoffset:0;stroke-width:1.5;"/>
    </g>
    <g id="line2d_57">
     <g>
      <use style="fill:#a9a280;stroke:#a9a280;" x="76.6" xlink:href="#m42e542e54f" y="251.3215"/>
     </g>
    </g>
    <g id="text_35">
     <!-- r=2 a=15 -->
     <g transform="translate(94.6 254.8215)scale(0.1 -0.1)">
      <use xlink:href="#LMRoman12-Regular-72"/>
      <use x="38.099991" xlink:href="#LMRoman12-Regular-3d"/>
      <use x="114.299973" xlink:href="#LMRoman12-Regular-32"/>
      <use x="163.299957" xlink:href="#LMRoman12-Regular-20"/>
      <use x="195.899948" xlink:href="#LMRoman12-Regular-61"/>
      <use x="244.899933" xlink:href="#LMRoman12-Regular-3d"/>
      <use x="321.099915" xlink:href="#LMRoman12-Regular-31"/>
      <use x="370.099899" xlink:href="#LMRoman12-Regular-35"/>
     </g>
    </g>
    <g id="line2d_58">
     <path d="M 66.6 265.262125 
L 86.6 265.262125 
" style="fill:none;stroke:#56aa1c;stroke-dasharray:1.5,2.475;stroke-dashoffset:0;stroke-width:1.5;"/>
    </g>
    <g id="line2d_59">
     <g>
      <use style="fill:#56aa1c;stroke:#56aa1c;stroke-linejoin:bevel;" x="76.6" xlink:href="#ma7670f6f9b" y="265.262125"/>
     </g>
    </g>
    <g id="text_36">
     <!-- r=3 a=05 -->
     <defs>
      <path d="M 44.796875 17.09375 
C 44.796875 26.296875 37.40625 33.5 27.796875 35.203125 
C 36.5 37.703125 42.09375 45 42.09375 52.796875 
C 42.09375 60.703125 33.90625 66.5 24.203125 66.5 
C 14.203125 66.5 6.796875 60.40625 6.796875 53.09375 
C 6.796875 49.09375 9.90625 48.296875 11.40625 48.296875 
C 13.5 48.296875 15.90625 49.796875 15.90625 52.796875 
C 15.90625 56 13.5 57.40625 11.296875 57.40625 
C 10.703125 57.40625 10.5 57.40625 10.203125 57.296875 
C 14 64.09375 23.40625 64.09375 23.90625 64.09375 
C 27.203125 64.09375 33.703125 62.59375 33.703125 52.796875 
C 33.703125 50.90625 33.40625 45.296875 30.5 41 
C 27.5 36.59375 24.09375 36.296875 21.40625 36.203125 
L 18.40625 35.90625 
C 16.703125 35.796875 16.296875 35.703125 16.296875 34.796875 
C 16.296875 33.796875 16.796875 33.796875 18.59375 33.796875 
L 23.203125 33.796875 
C 31.703125 33.796875 35.5 26.796875 35.5 17.203125 
C 35.5 4.09375 28.703125 0.59375 23.796875 0.59375 
C 19 0.59375 10.796875 2.90625 7.90625 9.5 
C 11.09375 9 14 10.796875 14 14.40625 
C 14 17.296875 11.90625 19.296875 9.09375 19.296875 
C 6.703125 19.296875 4.09375 17.90625 4.09375 14.09375 
C 4.09375 5.203125 13 -2.09375 24.09375 -2.09375 
C 36 -2.09375 44.796875 7 44.796875 17.09375 
z
" id="LMRoman12-Regular-33"/>
     </defs>
     <g transform="translate(94.6 268.762125)scale(0.1 -0.1)">
      <use xlink:href="#LMRoman12-Regular-72"/>
      <use x="38.099991" xlink:href="#LMRoman12-Regular-3d"/>
      <use x="114.299973" xlink:href="#LMRoman12-Regular-33"/>
      <use x="163.299957" xlink:href="#LMRoman12-Regular-20"/>
      <use x="195.899948" xlink:href="#LMRoman12-Regular-61"/>
      <use x="244.899933" xlink:href="#LMRoman12-Regular-3d"/>
      <use x="321.099915" xlink:href="#LMRoman12-Regular-30"/>
      <use x="370.099899" xlink:href="#LMRoman12-Regular-35"/>
     </g>
    </g>
    <g id="line2d_60">
     <path d="M 66.6 279.20275 
L 86.6 279.20275 
" style="fill:none;stroke:#56aa1c;stroke-dasharray:1.5,2.475;stroke-dashoffset:0;stroke-width:1.5;"/>
    </g>
    <g id="line2d_61">
     <g>
      <use style="fill:#56aa1c;stroke:#56aa1c;" x="76.6" xlink:href="#m75ba276cff" y="279.20275"/>
     </g>
    </g>
    <g id="text_37">
     <!-- r=3 a=1 -->
     <g transform="translate(94.6 282.70275)scale(0.1 -0.1)">
      <use xlink:href="#LMRoman12-Regular-72"/>
      <use x="38.099991" xlink:href="#LMRoman12-Regular-3d"/>
      <use x="114.299973" xlink:href="#LMRoman12-Regular-33"/>
      <use x="163.299957" xlink:href="#LMRoman12-Regular-20"/>
      <use x="195.899948" xlink:href="#LMRoman12-Regular-61"/>
      <use x="244.899933" xlink:href="#LMRoman12-Regular-3d"/>
      <use x="321.099915" xlink:href="#LMRoman12-Regular-31"/>
     </g>
    </g>
    <g id="line2d_62">
     <path d="M 66.6 293.143375 
L 86.6 293.143375 
" style="fill:none;stroke:#56aa1c;stroke-dasharray:1.5,2.475;stroke-dashoffset:0;stroke-width:1.5;"/>
    </g>
    <g id="line2d_63">
     <g>
      <use style="fill:#56aa1c;stroke:#56aa1c;" x="76.6" xlink:href="#m9c452213da" y="293.143375"/>
     </g>
    </g>
    <g id="text_38">
     <!-- r=3 a=15 -->
     <g transform="translate(94.6 296.643375)scale(0.1 -0.1)">
      <use xlink:href="#LMRoman12-Regular-72"/>
      <use x="38.099991" xlink:href="#LMRoman12-Regular-3d"/>
      <use x="114.299973" xlink:href="#LMRoman12-Regular-33"/>
      <use x="163.299957" xlink:href="#LMRoman12-Regular-20"/>
      <use x="195.899948" xlink:href="#LMRoman12-Regular-61"/>
      <use x="244.899933" xlink:href="#LMRoman12-Regular-3d"/>
      <use x="321.099915" xlink:href="#LMRoman12-Regular-31"/>
      <use x="370.099899" xlink:href="#LMRoman12-Regular-35"/>
     </g>
    </g>
   </g>
  </g>
 </g>
 <defs>
  <clipPath id="p6dd80d123f">
   <rect height="266.112" width="357.12" x="57.6" y="41.472"/>
  </clipPath>
 </defs>
</svg>
