<?xml version="1.0" encoding="utf-8" standalone="no"?>
<!DOCTYPE svg PUBLIC "-//W3C//DTD SVG 1.1//EN"
  "http://www.w3.org/Graphics/SVG/1.1/DTD/svg11.dtd">
<!-- Created with matplotlib (http://matplotlib.org/) -->
<svg height="345pt" version="1.1" viewBox="0 0 460 345" width="460pt" xmlns="http://www.w3.org/2000/svg" xmlns:xlink="http://www.w3.org/1999/xlink">
 <defs>
  <style type="text/css">
*{stroke-linecap:butt;stroke-linejoin:round;}
  </style>
 </defs>
 <g id="figure_1">
  <g id="patch_1">
   <path d="M 0 345.6 
L 460.8 345.6 
L 460.8 0 
L 0 0 
z
" style="fill:#ffffff;"/>
  </g>
  <g id="axes_1">
   <g id="patch_2">
    <path d="M 57.6 307.584 
L 414.72 307.584 
L 414.72 41.472 
L 57.6 41.472 
z
" style="fill:#ffffff;"/>
   </g>
   <g id="matplotlib.axis_1">
    <g id="xtick_1">
     <g id="line2d_1">
      <path clip-path="url(#pd99eaa0744)" d="M 57.6 307.584 
L 57.6 41.472 
" style="fill:none;stroke:#b0b0b0;stroke-linecap:square;stroke-width:0.8;"/>
     </g>
     <g id="line2d_2">
      <defs>
       <path d="M 0 0 
L 0 3.5 
" id="mc61d8e1c3d" style="stroke:#000000;stroke-width:0.8;"/>
      </defs>
      <g>
       <use style="stroke:#000000;stroke-width:0.8;" x="57.6" xlink:href="#mc61d8e1c3d" y="307.584"/>
      </g>
     </g>
     <g id="text_1">
      <!-- 0.0 -->
      <defs>
       <path d="M 44.796875 32 
C 44.796875 40.296875 44.296875 48.40625 40.703125 56 
C 36.59375 64.296875 29.40625 66.5 24.5 66.5 
C 18.703125 66.5 11.59375 63.59375 7.90625 55.296875 
C 5.09375 49 4.09375 42.796875 4.09375 32 
C 4.09375 22.296875 4.796875 15 8.40625 7.90625 
C 12.296875 0.296875 19.203125 -2.09375 24.40625 -2.09375 
C 33.09375 -2.09375 38.09375 3.09375 41 8.90625 
C 44.59375 16.40625 44.796875 26.203125 44.796875 32 
z
M 37.203125 33.203125 
C 37.203125 26.5 37.203125 18.90625 36.09375 12.796875 
C 34.203125 1.796875 27.90625 -0.09375 24.40625 -0.09375 
C 21.203125 -0.09375 14.703125 1.703125 12.796875 12.59375 
C 11.703125 18.59375 11.703125 26.203125 11.703125 33.203125 
C 11.703125 41.40625 11.703125 48.796875 13.296875 54.703125 
C 15 61.40625 20.09375 64.5 24.40625 64.5 
C 28.203125 64.5 34 62.203125 35.90625 53.59375 
C 37.203125 47.90625 37.203125 40 37.203125 33.203125 
z
" id="LMRoman12-Regular-30"/>
       <path d="M 18.40625 4.90625 
C 18.40625 7.59375 16.09375 9.703125 13.59375 9.703125 
C 10.703125 9.703125 8.703125 7.40625 8.703125 4.90625 
C 8.703125 1.90625 11.203125 0 13.5 0 
C 16.203125 0 18.40625 2.09375 18.40625 4.90625 
z
" id="LMRoman12-Regular-2e"/>
      </defs>
      <g transform="translate(51.339844 321.524625)scale(0.1 -0.1)">
       <use xlink:href="#LMRoman12-Regular-30"/>
       <use x="48.999985" xlink:href="#LMRoman12-Regular-2e"/>
       <use x="76.199982" xlink:href="#LMRoman12-Regular-30"/>
      </g>
     </g>
    </g>
    <g id="xtick_2">
     <g id="line2d_3">
      <path clip-path="url(#pd99eaa0744)" d="M 129.024 307.584 
L 129.024 41.472 
" style="fill:none;stroke:#b0b0b0;stroke-linecap:square;stroke-width:0.8;"/>
     </g>
     <g id="line2d_4">
      <g>
       <use style="stroke:#000000;stroke-width:0.8;" x="129.024" xlink:href="#mc61d8e1c3d" y="307.584"/>
      </g>
     </g>
     <g id="text_2">
      <!-- 0.2 -->
      <defs>
       <path d="M 44 16.796875 
L 41.796875 16.796875 
C 41.5 15.09375 40.703125 9.59375 39.703125 8 
C 39 7.09375 33.296875 7.09375 30.296875 7.09375 
L 11.796875 7.09375 
C 14.5 9.40625 20.59375 15.796875 23.203125 18.203125 
C 38.40625 32.203125 44 37.40625 44 47.296875 
C 44 58.796875 34.90625 66.5 23.296875 66.5 
C 11.703125 66.5 4.90625 56.59375 4.90625 48 
C 4.90625 42.90625 9.296875 42.90625 9.59375 42.90625 
C 11.703125 42.90625 14.296875 44.40625 14.296875 47.59375 
C 14.296875 50.40625 12.40625 52.296875 9.59375 52.296875 
C 8.703125 52.296875 8.5 52.296875 8.203125 52.203125 
C 10.09375 59 15.5 63.59375 22 63.59375 
C 30.5 63.59375 35.703125 56.5 35.703125 47.296875 
C 35.703125 38.796875 30.796875 31.40625 25.09375 25 
L 4.90625 2.40625 
L 4.90625 0 
L 41.40625 0 
z
" id="LMRoman12-Regular-32"/>
      </defs>
      <g transform="translate(122.763844 321.524625)scale(0.1 -0.1)">
       <use xlink:href="#LMRoman12-Regular-30"/>
       <use x="48.999985" xlink:href="#LMRoman12-Regular-2e"/>
       <use x="76.199982" xlink:href="#LMRoman12-Regular-32"/>
      </g>
     </g>
    </g>
    <g id="xtick_3">
     <g id="line2d_5">
      <path clip-path="url(#pd99eaa0744)" d="M 200.448 307.584 
L 200.448 41.472 
" style="fill:none;stroke:#b0b0b0;stroke-linecap:square;stroke-width:0.8;"/>
     </g>
     <g id="line2d_6">
      <g>
       <use style="stroke:#000000;stroke-width:0.8;" x="200.448" xlink:href="#mc61d8e1c3d" y="307.584"/>
      </g>
     </g>
     <g id="text_3">
      <!-- 0.4 -->
      <defs>
       <path d="M 46.203125 16.703125 
L 46.203125 19.59375 
L 36.09375 19.59375 
L 36.09375 65.09375 
C 36.09375 67 36.09375 67.5 34.703125 67.5 
C 33.90625 67.5 33.59375 67.5 32.796875 66.296875 
L 2.703125 19.59375 
L 2.703125 16.703125 
L 29 16.703125 
L 29 7.59375 
C 29 3.90625 28.796875 2.90625 21.5 2.90625 
L 19.5 2.90625 
L 19.5 0 
C 21.796875 0.203125 29.703125 0.203125 32.5 0.203125 
C 35.296875 0.203125 43.296875 0.203125 45.59375 0 
L 45.59375 2.90625 
L 43.59375 2.90625 
C 36.40625 2.90625 36.09375 3.90625 36.09375 7.59375 
L 36.09375 16.703125 
z
M 29.5 19.59375 
L 5.203125 19.59375 
L 29.5 57.296875 
z
" id="LMRoman12-Regular-34"/>
      </defs>
      <g transform="translate(194.187844 321.524625)scale(0.1 -0.1)">
       <use xlink:href="#LMRoman12-Regular-30"/>
       <use x="48.999985" xlink:href="#LMRoman12-Regular-2e"/>
       <use x="76.199982" xlink:href="#LMRoman12-Regular-34"/>
      </g>
     </g>
    </g>
    <g id="xtick_4">
     <g id="line2d_7">
      <path clip-path="url(#pd99eaa0744)" d="M 271.872 307.584 
L 271.872 41.472 
" style="fill:none;stroke:#b0b0b0;stroke-linecap:square;stroke-width:0.8;"/>
     </g>
     <g id="line2d_8">
      <g>
       <use style="stroke:#000000;stroke-width:0.8;" x="271.872" xlink:href="#mc61d8e1c3d" y="307.584"/>
      </g>
     </g>
     <g id="text_4">
      <!-- 0.6 -->
      <defs>
       <path d="M 44.796875 20.40625 
C 44.796875 33.703125 35.5 42.59375 25.5 42.59375 
C 16.59375 42.59375 13.296875 34.90625 12.296875 32.09375 
L 12.296875 34.796875 
C 12.296875 60.09375 24.59375 64.09375 30 64.09375 
C 33.59375 64.09375 37.203125 63 39.09375 60 
C 37.90625 60 34.09375 60 34.09375 55.90625 
C 34.09375 53.703125 35.59375 51.796875 38.203125 51.796875 
C 40.703125 51.796875 42.40625 53.296875 42.40625 56.203125 
C 42.40625 61.40625 38.59375 66.5 29.90625 66.5 
C 17.296875 66.5 4.09375 53.59375 4.09375 31.59375 
C 4.09375 4.09375 16.09375 -2.09375 24.59375 -2.09375 
C 35.5 -2.09375 44.796875 7.40625 44.796875 20.40625 
z
M 36.59375 20.5 
C 36.59375 15.40625 36.59375 10.90625 34.703125 7.09375 
C 32.203125 2.296875 28.59375 0.59375 24.59375 0.59375 
C 18.296875 0.59375 15.296875 6.203125 14.40625 8.296875 
C 13.5 10.90625 12.5 15.796875 12.5 22.796875 
C 12.5 30.703125 16.09375 40.59375 25.09375 40.59375 
C 30.59375 40.59375 33.5 36.90625 35 33.5 
C 36.59375 29.796875 36.59375 24.796875 36.59375 20.5 
z
" id="LMRoman12-Regular-36"/>
      </defs>
      <g transform="translate(265.611844 321.524625)scale(0.1 -0.1)">
       <use xlink:href="#LMRoman12-Regular-30"/>
       <use x="48.999985" xlink:href="#LMRoman12-Regular-2e"/>
       <use x="76.199982" xlink:href="#LMRoman12-Regular-36"/>
      </g>
     </g>
    </g>
    <g id="xtick_5">
     <g id="line2d_9">
      <path clip-path="url(#pd99eaa0744)" d="M 343.296 307.584 
L 343.296 41.472 
" style="fill:none;stroke:#b0b0b0;stroke-linecap:square;stroke-width:0.8;"/>
     </g>
     <g id="line2d_10">
      <g>
       <use style="stroke:#000000;stroke-width:0.8;" x="343.296" xlink:href="#mc61d8e1c3d" y="307.584"/>
      </g>
     </g>
     <g id="text_5">
      <!-- 0.8 -->
      <defs>
       <path d="M 44.796875 16.59375 
C 44.796875 26.796875 37.59375 31.296875 29.796875 36.09375 
C 34.796875 38.796875 42.09375 43.40625 42.09375 51.796875 
C 42.09375 60.5 33.703125 66.5 24.5 66.5 
C 14.59375 66.5 6.796875 59.203125 6.796875 50.09375 
C 6.796875 46.703125 7.796875 43.296875 10.59375 39.90625 
C 11.703125 38.59375 11.796875 38.5 18.796875 33.59375 
C 9.09375 29.09375 4.09375 22.40625 4.09375 15.09375 
C 4.09375 4.5 14.203125 -2.09375 24.40625 -2.09375 
C 35.5 -2.09375 44.796875 6.09375 44.796875 16.59375 
z
M 38 51.703125 
C 38 45.59375 33.59375 40.703125 27.796875 37.5 
L 16.203125 45.09375 
C 14.90625 46 10.90625 48.59375 10.90625 53.5 
C 10.90625 60 17.703125 64.09375 24.40625 64.09375 
C 31.59375 64.09375 38 58.90625 38 51.703125 
z
M 40.203125 13.40625 
C 40.203125 5.796875 32.5 0.59375 24.5 0.59375 
C 16 0.59375 8.703125 6.796875 8.703125 15.09375 
C 8.703125 22.90625 14.40625 29.203125 20.90625 32.203125 
L 33 24.296875 
C 35.59375 22.59375 40.203125 19.5 40.203125 13.40625 
z
" id="LMRoman12-Regular-38"/>
      </defs>
      <g transform="translate(337.035844 321.524625)scale(0.1 -0.1)">
       <use xlink:href="#LMRoman12-Regular-30"/>
       <use x="48.999985" xlink:href="#LMRoman12-Regular-2e"/>
       <use x="76.199982" xlink:href="#LMRoman12-Regular-38"/>
      </g>
     </g>
    </g>
    <g id="xtick_6">
     <g id="line2d_11">
      <path clip-path="url(#pd99eaa0744)" d="M 414.72 307.584 
L 414.72 41.472 
" style="fill:none;stroke:#b0b0b0;stroke-linecap:square;stroke-width:0.8;"/>
     </g>
     <g id="line2d_12">
      <g>
       <use style="stroke:#000000;stroke-width:0.8;" x="414.72" xlink:href="#mc61d8e1c3d" y="307.584"/>
      </g>
     </g>
     <g id="text_6">
      <!-- 1.0 -->
      <defs>
       <path d="M 41 0 
L 41 2.90625 
L 37.90625 2.90625 
C 29.09375 2.90625 28.796875 4.09375 28.796875 7.703125 
L 28.796875 64.09375 
C 28.796875 66.40625 28.796875 66.5 26.796875 66.5 
C 24.40625 63.796875 19.40625 60.09375 9.09375 60.09375 
L 9.09375 57.203125 
C 11.40625 57.203125 16.40625 57.203125 21.90625 59.796875 
L 21.90625 7.703125 
C 21.90625 4.09375 21.59375 2.90625 12.796875 2.90625 
L 9.703125 2.90625 
L 9.703125 0 
C 12.40625 0.203125 22.09375 0.203125 25.40625 0.203125 
C 28.703125 0.203125 38.296875 0.203125 41 0 
z
" id="LMRoman12-Regular-31"/>
      </defs>
      <g transform="translate(408.459844 321.524625)scale(0.1 -0.1)">
       <use xlink:href="#LMRoman12-Regular-31"/>
       <use x="48.999985" xlink:href="#LMRoman12-Regular-2e"/>
       <use x="76.199982" xlink:href="#LMRoman12-Regular-30"/>
      </g>
     </g>
    </g>
    <g id="text_7">
     <!-- fp_rate/fall-out -->
     <defs>
      <path d="M 34.203125 63.796875 
C 34.203125 67.5 30.59375 70.40625 25.796875 70.40625 
C 18.796875 70.40625 10.90625 65 10.90625 54.796875 
L 10.90625 43.09375 
L 3.09375 43.09375 
L 3.09375 40.203125 
L 10.90625 40.203125 
L 10.90625 7.40625 
C 10.90625 2.90625 9.796875 2.90625 3.296875 2.90625 
L 3.296875 0 
C 6.09375 0.203125 11.59375 0.203125 14.59375 0.203125 
C 17.296875 0.203125 24.40625 0.203125 26.703125 0 
L 26.703125 2.90625 
L 24.703125 2.90625 
C 17.40625 2.90625 17.203125 4 17.203125 7.59375 
L 17.203125 40.203125 
L 28.5 40.203125 
L 28.5 43.09375 
L 17 43.09375 
L 17 54.796875 
C 17 63.796875 21.59375 68.40625 25.703125 68.40625 
C 26.5 68.40625 28 68.203125 29.203125 67.59375 
C 28.796875 67.5 26.296875 66.59375 26.296875 63.703125 
C 26.296875 61.40625 27.90625 59.796875 30.203125 59.796875 
C 32.59375 59.796875 34.203125 61.40625 34.203125 63.796875 
z
" id="LMRoman12-Regular-66"/>
      <path d="M 50.796875 21.59375 
C 50.796875 34.296875 41.40625 44.09375 30.5 44.09375 
C 21.703125 44.09375 17 37.796875 16.703125 37.40625 
L 16.703125 44.09375 
L 2.796875 43 
L 2.796875 40.09375 
C 9.796875 40.09375 10.40625 39.40625 10.40625 35 
L 10.40625 -12 
C 10.40625 -16.5 9.296875 -16.5 2.796875 -16.5 
L 2.796875 -19.40625 
C 5.40625 -19.203125 10.796875 -19.203125 13.59375 -19.203125 
C 16.5 -19.203125 21.90625 -19.203125 24.5 -19.40625 
L 24.5 -16.5 
C 18.09375 -16.5 16.90625 -16.5 16.90625 -12 
L 16.90625 5.40625 
C 18.703125 2.90625 22.796875 -1 29.203125 -1 
C 40.703125 -1 50.796875 8.703125 50.796875 21.59375 
z
M 43.203125 21.59375 
C 43.203125 9.703125 36.40625 1 28.703125 1 
C 25.59375 1 22.703125 2.296875 20.703125 4.203125 
C 18.40625 6.5 16.90625 8.5 16.90625 11.296875 
L 16.90625 31.90625 
C 16.90625 33.796875 16.90625 33.90625 18 35.5 
C 21 40 25.90625 41.90625 29.703125 41.90625 
C 37.203125 41.90625 43.203125 32.796875 43.203125 21.59375 
z
" id="LMRoman12-Regular-70"/>
      <path d="M 73.40625 -13.59375 
L 73.40625 -11.40625 
L 0 -11.40625 
L 0 -13.59375 
z
" id="LMRoman12-Regular-5f"/>
      <path d="M 35.296875 38.296875 
C 35.296875 41.296875 32.59375 44.09375 28.296875 44.09375 
C 19.796875 44.09375 16.90625 34.90625 16.296875 33 
L 16.203125 33 
L 16.203125 44.09375 
L 2.796875 43 
L 2.796875 40.09375 
C 9.59375 40.09375 10.40625 39.40625 10.40625 34.5 
L 10.40625 7.40625 
C 10.40625 2.90625 9.296875 2.90625 2.796875 2.90625 
L 2.796875 0 
C 5.59375 0.203125 11.09375 0.203125 14.09375 0.203125 
C 16.796875 0.203125 23.90625 0.203125 26.203125 0 
L 26.203125 2.90625 
L 24.203125 2.90625 
C 16.90625 2.90625 16.703125 4 16.703125 7.59375 
L 16.703125 23.296875 
C 16.703125 33 20.703125 42.09375 28.40625 42.09375 
C 29.203125 42.09375 29.40625 42.09375 29.796875 42 
C 29 41.59375 27.40625 41 27.40625 38.296875 
C 27.40625 35.40625 29.703125 34.296875 31.296875 34.296875 
C 33.296875 34.296875 35.296875 35.59375 35.296875 38.296875 
z
" id="LMRoman12-Regular-72"/>
      <path d="M 47.40625 8.90625 
L 47.40625 14.5 
L 45.203125 14.5 
L 45.203125 8.90625 
C 45.203125 3.203125 42.796875 2.40625 41.40625 2.40625 
C 37.59375 2.40625 37.59375 7.703125 37.59375 9.203125 
L 37.59375 26.703125 
C 37.59375 32.09375 37.59375 36.09375 33.203125 40 
C 29.703125 43.203125 25.203125 44.59375 20.796875 44.59375 
C 12.59375 44.59375 6.296875 39.203125 6.296875 32.703125 
C 6.296875 29.796875 8.203125 28.40625 10.5 28.40625 
C 12.90625 28.40625 14.59375 30.09375 14.59375 32.5 
C 14.59375 36.59375 11 36.59375 9.5 36.59375 
C 11.796875 40.796875 16.59375 42.59375 20.59375 42.59375 
C 25.203125 42.59375 31.09375 38.796875 31.09375 29.796875 
L 31.09375 25.796875 
C 11 25.5 3.40625 17.09375 3.40625 9.40625 
C 3.40625 1.5 12.59375 -1 18.703125 -1 
C 25.296875 -1 29.796875 3 31.703125 7.796875 
C 32.09375 3.09375 35.203125 -0.5 39.5 -0.5 
C 41.59375 -0.5 47.40625 0.90625 47.40625 8.90625 
z
M 31.09375 14.09375 
C 31.09375 4.296875 23.796875 1 19.5 1 
C 14.59375 1 10.5 4.59375 10.5 9.40625 
C 10.5 22.59375 27.5 23.796875 31.09375 24 
z
" id="LMRoman12-Regular-61"/>
      <path d="M 32.59375 12.40625 
L 32.59375 18.09375 
L 30.40625 18.09375 
L 30.40625 12.59375 
C 30.40625 5.40625 27.5 1.203125 23.59375 1.203125 
C 16.796875 1.203125 16.796875 10.5 16.796875 12.203125 
L 16.796875 40.203125 
L 30.90625 40.203125 
L 30.90625 43.09375 
L 16.796875 43.09375 
L 16.796875 61.5 
L 14.59375 61.5 
C 14.5 52.09375 10.90625 42.5 1.796875 42.203125 
L 1.796875 40.203125 
L 10.296875 40.203125 
L 10.296875 12.40625 
C 10.296875 1.296875 17.703125 -1 23 -1 
C 29.296875 -1 32.59375 5.203125 32.59375 12.40625 
z
" id="LMRoman12-Regular-74"/>
      <path d="M 40.703125 11.90625 
C 40.703125 12.5 40.203125 12.90625 39.59375 12.90625 
C 38.796875 12.90625 38.59375 12.40625 38.40625 11.90625 
C 35.796875 3.5 29.09375 1.203125 24.90625 1.203125 
C 20.703125 1.203125 10.59375 4 10.59375 21.296875 
L 10.59375 23.203125 
L 38.296875 23.203125 
C 40.5 23.203125 40.703125 23.203125 40.703125 25.09375 
C 40.703125 35.203125 35.296875 44.59375 23.203125 44.59375 
C 11.796875 44.59375 3 34.296875 3 21.90625 
C 3 8.703125 13.203125 -1 24.296875 -1 
C 36.203125 -1 40.703125 9.796875 40.703125 11.90625 
z
M 34.5 25.09375 
L 10.703125 25.09375 
C 11.5 40.796875 20.296875 42.59375 23.09375 42.59375 
C 33.796875 42.59375 34.40625 28.5 34.5 25.09375 
z
" id="LMRoman12-Regular-65"/>
      <path d="M 43.5 73.09375 
C 43.5 74.40625 42.5 75 41.703125 75 
C 40.40625 75 40.09375 74.09375 39.59375 72.796875 
L 5.90625 -21.40625 
C 5.40625 -22.703125 5.40625 -23.09375 5.40625 -23.09375 
C 5.40625 -24.203125 6.203125 -25 7.296875 -25 
C 8.59375 -25 8.90625 -24 9.296875 -22.90625 
L 43 71.40625 
C 43.5 72.703125 43.5 73.09375 43.5 73.09375 
z
" id="LMRoman12-Regular-2f"/>
      <path d="M 24.796875 0 
L 24.796875 2.90625 
C 18.40625 2.90625 17.203125 2.90625 17.203125 7.40625 
L 17.203125 69.40625 
L 3.296875 68.296875 
L 3.296875 65.40625 
C 10.09375 65.40625 10.90625 64.703125 10.90625 59.796875 
L 10.90625 7.40625 
C 10.90625 2.90625 9.796875 2.90625 3.296875 2.90625 
L 3.296875 0 
C 6.09375 0.203125 11 0.203125 14 0.203125 
C 17 0.203125 22 0.203125 24.796875 0 
z
" id="LMRoman12-Regular-6c"/>
      <path d="M 27.09375 18.90625 
L 27.09375 24.296875 
L 1.09375 24.296875 
L 1.09375 18.90625 
z
" id="LMRoman12-Regular-2d"/>
      <path d="M 45.90625 21.40625 
C 45.90625 34.296875 36.09375 44.59375 24.5 44.59375 
C 12.5 44.59375 3 34 3 21.40625 
C 3 8.59375 13 -1 24.40625 -1 
C 36.203125 -1 45.90625 8.796875 45.90625 21.40625 
z
M 38.296875 22.296875 
C 38.296875 18.796875 38.296875 12.59375 35.703125 7.90625 
C 32.90625 3.09375 28.296875 1.203125 24.5 1.203125 
C 20.796875 1.203125 16.296875 2.796875 13.40625 7.703125 
C 10.703125 12.203125 10.59375 18.09375 10.59375 22.296875 
C 10.59375 26.09375 10.59375 32.203125 13.703125 36.703125 
C 16.5 41 20.90625 42.59375 24.40625 42.59375 
C 28.296875 42.59375 32.5 40.796875 35.203125 36.90625 
C 38.296875 32.296875 38.296875 26 38.296875 22.296875 
z
" id="LMRoman12-Regular-6f"/>
      <path d="M 52.09375 0 
L 52.09375 2.90625 
C 45.296875 2.90625 44.5 3.59375 44.5 8.5 
L 44.5 44.09375 
L 30.40625 43 
L 30.40625 40.09375 
C 37.203125 40.09375 38 39.40625 38 34.5 
L 38 16.59375 
C 38 8.09375 33.5 1 26 1 
C 17.796875 1 17.296875 5.703125 17.296875 11 
L 17.296875 44.09375 
L 3.203125 43 
L 3.203125 40.09375 
C 10.796875 40.09375 10.796875 39.796875 10.796875 30.90625 
L 10.796875 15.90625 
C 10.796875 9.703125 10.796875 6.09375 13.796875 2.796875 
C 16.203125 0.203125 20.296875 -1 25.40625 -1 
C 27.09375 -1 30.296875 -1 33.703125 1.90625 
C 36.59375 4.203125 38.203125 8 38.203125 8 
L 38.203125 -1 
z
" id="LMRoman12-Regular-75"/>
     </defs>
     <g transform="translate(202.019375 334.96525)scale(0.1 -0.1)">
      <use xlink:href="#LMRoman12-Regular-66"/>
      <use x="29.899994" xlink:href="#LMRoman12-Regular-70"/>
      <use x="84.299988" xlink:href="#LMRoman12-Regular-5f"/>
      <use x="157.699982" xlink:href="#LMRoman12-Regular-72"/>
      <use x="195.799973" xlink:href="#LMRoman12-Regular-61"/>
      <use x="244.799957" xlink:href="#LMRoman12-Regular-74"/>
      <use x="282.899948" xlink:href="#LMRoman12-Regular-65"/>
      <use x="326.399933" xlink:href="#LMRoman12-Regular-2f"/>
      <use x="375.399918" xlink:href="#LMRoman12-Regular-66"/>
      <use x="405.299911" xlink:href="#LMRoman12-Regular-61"/>
      <use x="454.299896" xlink:href="#LMRoman12-Regular-6c"/>
      <use x="481.499893" xlink:href="#LMRoman12-Regular-6c"/>
      <use x="508.69989" xlink:href="#LMRoman12-Regular-2d"/>
      <use x="541.299881" xlink:href="#LMRoman12-Regular-6f"/>
      <use x="590.299866" xlink:href="#LMRoman12-Regular-75"/>
      <use x="644.69986" xlink:href="#LMRoman12-Regular-74"/>
     </g>
    </g>
   </g>
   <g id="matplotlib.axis_2">
    <g id="ytick_1">
     <g id="line2d_13">
      <path clip-path="url(#pd99eaa0744)" d="M 57.6 307.584 
L 414.72 307.584 
" style="fill:none;stroke:#b0b0b0;stroke-linecap:square;stroke-width:0.8;"/>
     </g>
     <g id="line2d_14">
      <defs>
       <path d="M 0 0 
L -3.5 0 
" id="mc999632be5" style="stroke:#000000;stroke-width:0.8;"/>
      </defs>
      <g>
       <use style="stroke:#000000;stroke-width:0.8;" x="57.6" xlink:href="#mc999632be5" y="307.584"/>
      </g>
     </g>
     <g id="text_8">
      <!-- 0.0 -->
      <g transform="translate(38.079687 311.054312)scale(0.1 -0.1)">
       <use xlink:href="#LMRoman12-Regular-30"/>
       <use x="48.999985" xlink:href="#LMRoman12-Regular-2e"/>
       <use x="76.199982" xlink:href="#LMRoman12-Regular-30"/>
      </g>
     </g>
    </g>
    <g id="ytick_2">
     <g id="line2d_15">
      <path clip-path="url(#pd99eaa0744)" d="M 57.6 254.3616 
L 414.72 254.3616 
" style="fill:none;stroke:#b0b0b0;stroke-linecap:square;stroke-width:0.8;"/>
     </g>
     <g id="line2d_16">
      <g>
       <use style="stroke:#000000;stroke-width:0.8;" x="57.6" xlink:href="#mc999632be5" y="254.3616"/>
      </g>
     </g>
     <g id="text_9">
      <!-- 0.2 -->
      <g transform="translate(38.079687 257.831912)scale(0.1 -0.1)">
       <use xlink:href="#LMRoman12-Regular-30"/>
       <use x="48.999985" xlink:href="#LMRoman12-Regular-2e"/>
       <use x="76.199982" xlink:href="#LMRoman12-Regular-32"/>
      </g>
     </g>
    </g>
    <g id="ytick_3">
     <g id="line2d_17">
      <path clip-path="url(#pd99eaa0744)" d="M 57.6 201.1392 
L 414.72 201.1392 
" style="fill:none;stroke:#b0b0b0;stroke-linecap:square;stroke-width:0.8;"/>
     </g>
     <g id="line2d_18">
      <g>
       <use style="stroke:#000000;stroke-width:0.8;" x="57.6" xlink:href="#mc999632be5" y="201.1392"/>
      </g>
     </g>
     <g id="text_10">
      <!-- 0.4 -->
      <g transform="translate(38.079687 204.609512)scale(0.1 -0.1)">
       <use xlink:href="#LMRoman12-Regular-30"/>
       <use x="48.999985" xlink:href="#LMRoman12-Regular-2e"/>
       <use x="76.199982" xlink:href="#LMRoman12-Regular-34"/>
      </g>
     </g>
    </g>
    <g id="ytick_4">
     <g id="line2d_19">
      <path clip-path="url(#pd99eaa0744)" d="M 57.6 147.9168 
L 414.72 147.9168 
" style="fill:none;stroke:#b0b0b0;stroke-linecap:square;stroke-width:0.8;"/>
     </g>
     <g id="line2d_20">
      <g>
       <use style="stroke:#000000;stroke-width:0.8;" x="57.6" xlink:href="#mc999632be5" y="147.9168"/>
      </g>
     </g>
     <g id="text_11">
      <!-- 0.6 -->
      <g transform="translate(38.079687 151.387112)scale(0.1 -0.1)">
       <use xlink:href="#LMRoman12-Regular-30"/>
       <use x="48.999985" xlink:href="#LMRoman12-Regular-2e"/>
       <use x="76.199982" xlink:href="#LMRoman12-Regular-36"/>
      </g>
     </g>
    </g>
    <g id="ytick_5">
     <g id="line2d_21">
      <path clip-path="url(#pd99eaa0744)" d="M 57.6 94.6944 
L 414.72 94.6944 
" style="fill:none;stroke:#b0b0b0;stroke-linecap:square;stroke-width:0.8;"/>
     </g>
     <g id="line2d_22">
      <g>
       <use style="stroke:#000000;stroke-width:0.8;" x="57.6" xlink:href="#mc999632be5" y="94.6944"/>
      </g>
     </g>
     <g id="text_12">
      <!-- 0.8 -->
      <g transform="translate(38.079687 98.164713)scale(0.1 -0.1)">
       <use xlink:href="#LMRoman12-Regular-30"/>
       <use x="48.999985" xlink:href="#LMRoman12-Regular-2e"/>
       <use x="76.199982" xlink:href="#LMRoman12-Regular-38"/>
      </g>
     </g>
    </g>
    <g id="ytick_6">
     <g id="line2d_23">
      <path clip-path="url(#pd99eaa0744)" d="M 57.6 41.472 
L 414.72 41.472 
" style="fill:none;stroke:#b0b0b0;stroke-linecap:square;stroke-width:0.8;"/>
     </g>
     <g id="line2d_24">
      <g>
       <use style="stroke:#000000;stroke-width:0.8;" x="57.6" xlink:href="#mc999632be5" y="41.472"/>
      </g>
     </g>
     <g id="text_13">
      <!-- 1.0 -->
      <g transform="translate(38.079687 44.942313)scale(0.1 -0.1)">
       <use xlink:href="#LMRoman12-Regular-31"/>
       <use x="48.999985" xlink:href="#LMRoman12-Regular-2e"/>
       <use x="76.199982" xlink:href="#LMRoman12-Regular-30"/>
      </g>
     </g>
    </g>
    <g id="text_14">
     <!-- tp_rate/recall -->
     <defs>
      <path d="M 40.59375 11.90625 
C 40.59375 12.796875 39.90625 12.796875 39.59375 12.796875 
C 38.703125 12.796875 38.59375 12.5 38.296875 11.296875 
C 36.09375 4.203125 30.703125 1.203125 25.296875 1.203125 
C 19.203125 1.203125 11.09375 6.5 11.09375 21.703125 
C 11.09375 38.296875 19.59375 42.40625 24.59375 42.40625 
C 28.40625 42.40625 33.90625 40.90625 36.203125 37 
C 35 37 31.296875 37 31.296875 32.90625 
C 31.296875 30.5 33 28.796875 35.40625 28.796875 
C 37.703125 28.796875 39.59375 30.203125 39.59375 33.09375 
C 39.59375 39.796875 32.59375 44.59375 24.5 44.59375 
C 12.796875 44.59375 3.5 34.203125 3.5 21.59375 
C 3.5 8.796875 13.09375 -1 24.40625 -1 
C 37.59375 -1 40.59375 11 40.59375 11.90625 
z
" id="LMRoman12-Regular-63"/>
     </defs>
     <g transform="translate(31.579687 205.132688)rotate(-90)scale(0.1 -0.1)">
      <use xlink:href="#LMRoman12-Regular-74"/>
      <use x="38.099991" xlink:href="#LMRoman12-Regular-70"/>
      <use x="92.499985" xlink:href="#LMRoman12-Regular-5f"/>
      <use x="165.899979" xlink:href="#LMRoman12-Regular-72"/>
      <use x="203.999969" xlink:href="#LMRoman12-Regular-61"/>
      <use x="252.999954" xlink:href="#LMRoman12-Regular-74"/>
      <use x="291.099945" xlink:href="#LMRoman12-Regular-65"/>
      <use x="334.59993" xlink:href="#LMRoman12-Regular-2f"/>
      <use x="383.599915" xlink:href="#LMRoman12-Regular-72"/>
      <use x="421.699905" xlink:href="#LMRoman12-Regular-65"/>
      <use x="465.19989" xlink:href="#LMRoman12-Regular-63"/>
      <use x="508.699875" xlink:href="#LMRoman12-Regular-61"/>
      <use x="557.69986" xlink:href="#LMRoman12-Regular-6c"/>
      <use x="584.899857" xlink:href="#LMRoman12-Regular-6c"/>
     </g>
    </g>
   </g>
   <g id="line2d_25">
    <path clip-path="url(#pd99eaa0744)" d="M 112.983237 47.085012 
L 88.100913 50.259585 
L 72.541743 57.758938 
L 66.861411 76.300282 
L 63.836017 123.596813 
L 62.292448 219.248066 
L 61.242822 279.840996 
" style="fill:none;stroke:#7d9aaa;stroke-dasharray:5.55,2.4;stroke-dashoffset:0;stroke-width:1.5;"/>
    <defs>
     <path d="M 0 -3 
L -0.673542 -0.927051 
L -2.85317 -0.927051 
L -1.089814 0.354102 
L -1.763356 2.427051 
L -0 1.145898 
L 1.763356 2.427051 
L 1.089814 0.354102 
L 2.85317 -0.927051 
L 0.673542 -0.927051 
z
" id="m7eee21faec" style="stroke:#7d9aaa;stroke-linejoin:bevel;"/>
    </defs>
    <g clip-path="url(#pd99eaa0744)">
     <use style="fill:#7d9aaa;stroke:#7d9aaa;stroke-linejoin:bevel;" x="112.983237" xlink:href="#m7eee21faec" y="47.085012"/>
     <use style="fill:#7d9aaa;stroke:#7d9aaa;stroke-linejoin:bevel;" x="88.100913" xlink:href="#m7eee21faec" y="50.259585"/>
     <use style="fill:#7d9aaa;stroke:#7d9aaa;stroke-linejoin:bevel;" x="72.541743" xlink:href="#m7eee21faec" y="57.758938"/>
     <use style="fill:#7d9aaa;stroke:#7d9aaa;stroke-linejoin:bevel;" x="66.861411" xlink:href="#m7eee21faec" y="76.300282"/>
     <use style="fill:#7d9aaa;stroke:#7d9aaa;stroke-linejoin:bevel;" x="63.836017" xlink:href="#m7eee21faec" y="123.596813"/>
     <use style="fill:#7d9aaa;stroke:#7d9aaa;stroke-linejoin:bevel;" x="62.292448" xlink:href="#m7eee21faec" y="219.248066"/>
     <use style="fill:#7d9aaa;stroke:#7d9aaa;stroke-linejoin:bevel;" x="61.242822" xlink:href="#m7eee21faec" y="279.840996"/>
    </g>
   </g>
   <g id="line2d_26">
    <path clip-path="url(#pd99eaa0744)" d="M 112.983237 43.864432 
L 88.100913 44.232498 
L 72.541743 45.014639 
L 66.861411 46.256863 
L 63.836017 48.78732 
L 62.292448 54.492349 
L 61.242822 71.193361 
" style="fill:none;stroke:#7d9aaa;stroke-dasharray:5.55,2.4;stroke-dashoffset:0;stroke-width:1.5;"/>
    <defs>
     <path d="M -3 3 
L 3 -3 
M -3 -3 
L 3 3 
" id="md898ba9195" style="stroke:#7d9aaa;"/>
    </defs>
    <g clip-path="url(#pd99eaa0744)">
     <use style="fill:#7d9aaa;stroke:#7d9aaa;" x="112.983237" xlink:href="#md898ba9195" y="43.864432"/>
     <use style="fill:#7d9aaa;stroke:#7d9aaa;" x="88.100913" xlink:href="#md898ba9195" y="44.232498"/>
     <use style="fill:#7d9aaa;stroke:#7d9aaa;" x="72.541743" xlink:href="#md898ba9195" y="45.014639"/>
     <use style="fill:#7d9aaa;stroke:#7d9aaa;" x="66.861411" xlink:href="#md898ba9195" y="46.256863"/>
     <use style="fill:#7d9aaa;stroke:#7d9aaa;" x="63.836017" xlink:href="#md898ba9195" y="48.78732"/>
     <use style="fill:#7d9aaa;stroke:#7d9aaa;" x="62.292448" xlink:href="#md898ba9195" y="54.492349"/>
     <use style="fill:#7d9aaa;stroke:#7d9aaa;" x="61.242822" xlink:href="#md898ba9195" y="71.193361"/>
    </g>
   </g>
   <g id="line2d_27">
    <path clip-path="url(#pd99eaa0744)" d="M 112.983237 42.990274 
L 88.100913 43.404349 
L 72.541743 43.772415 
L 66.861411 44.232498 
L 63.836017 44.738589 
L 62.292448 45.842788 
L 61.242822 48.373245 
" style="fill:none;stroke:#7d9aaa;stroke-dasharray:5.55,2.4;stroke-dashoffset:0;stroke-width:1.5;"/>
    <defs>
     <path d="M -3 0 
L 3 0 
M 0 3 
L 0 -3 
" id="m2b6a8ac66b" style="stroke:#7d9aaa;"/>
    </defs>
    <g clip-path="url(#pd99eaa0744)">
     <use style="fill:#7d9aaa;stroke:#7d9aaa;" x="112.983237" xlink:href="#m2b6a8ac66b" y="42.990274"/>
     <use style="fill:#7d9aaa;stroke:#7d9aaa;" x="88.100913" xlink:href="#m2b6a8ac66b" y="43.404349"/>
     <use style="fill:#7d9aaa;stroke:#7d9aaa;" x="72.541743" xlink:href="#m2b6a8ac66b" y="43.772415"/>
     <use style="fill:#7d9aaa;stroke:#7d9aaa;" x="66.861411" xlink:href="#m2b6a8ac66b" y="44.232498"/>
     <use style="fill:#7d9aaa;stroke:#7d9aaa;" x="63.836017" xlink:href="#m2b6a8ac66b" y="44.738589"/>
     <use style="fill:#7d9aaa;stroke:#7d9aaa;" x="62.292448" xlink:href="#m2b6a8ac66b" y="45.842788"/>
     <use style="fill:#7d9aaa;stroke:#7d9aaa;" x="61.242822" xlink:href="#m2b6a8ac66b" y="48.373245"/>
    </g>
   </g>
   <g id="line2d_28">
    <path clip-path="url(#pd99eaa0744)" d="M 118.190578 46.672736 
L 88.790868 49.986479 
L 72.361619 57.672523 
L 65.938153 77.693056 
L 62.355835 127.583303 
L 60.255856 217.836785 
L 58.897046 278.588746 
" style="fill:none;stroke:#a9a280;stroke-dasharray:9.6,2.4,1.5,2.4;stroke-dashoffset:0;stroke-width:1.5;"/>
    <defs>
     <path d="M 0 -3 
L -0.673542 -0.927051 
L -2.85317 -0.927051 
L -1.089814 0.354102 
L -1.763356 2.427051 
L -0 1.145898 
L 1.763356 2.427051 
L 1.089814 0.354102 
L 2.85317 -0.927051 
L 0.673542 -0.927051 
z
" id="md3b418be85" style="stroke:#a9a280;stroke-linejoin:bevel;"/>
    </defs>
    <g clip-path="url(#pd99eaa0744)">
     <use style="fill:#a9a280;stroke:#a9a280;stroke-linejoin:bevel;" x="118.190578" xlink:href="#md3b418be85" y="46.672736"/>
     <use style="fill:#a9a280;stroke:#a9a280;stroke-linejoin:bevel;" x="88.790868" xlink:href="#md3b418be85" y="49.986479"/>
     <use style="fill:#a9a280;stroke:#a9a280;stroke-linejoin:bevel;" x="72.361619" xlink:href="#md3b418be85" y="57.672523"/>
     <use style="fill:#a9a280;stroke:#a9a280;stroke-linejoin:bevel;" x="65.938153" xlink:href="#md3b418be85" y="77.693056"/>
     <use style="fill:#a9a280;stroke:#a9a280;stroke-linejoin:bevel;" x="62.355835" xlink:href="#md3b418be85" y="127.583303"/>
     <use style="fill:#a9a280;stroke:#a9a280;stroke-linejoin:bevel;" x="60.255856" xlink:href="#md3b418be85" y="217.836785"/>
     <use style="fill:#a9a280;stroke:#a9a280;stroke-linejoin:bevel;" x="58.897046" xlink:href="#md3b418be85" y="278.588746"/>
    </g>
   </g>
   <g id="line2d_29">
    <path clip-path="url(#pd99eaa0744)" d="M 118.190578 42.070315 
L 88.790868 42.484533 
L 72.361619 43.635138 
L 65.938153 45.430082 
L 62.355835 48.329608 
L 60.255856 54.03661 
L 58.897046 71.940029 
" style="fill:none;stroke:#a9a280;stroke-dasharray:9.6,2.4,1.5,2.4;stroke-dashoffset:0;stroke-width:1.5;"/>
    <defs>
     <path d="M -3 3 
L 3 -3 
M -3 -3 
L 3 3 
" id="mcf4abb7a59" style="stroke:#a9a280;"/>
    </defs>
    <g clip-path="url(#pd99eaa0744)">
     <use style="fill:#a9a280;stroke:#a9a280;" x="118.190578" xlink:href="#mcf4abb7a59" y="42.070315"/>
     <use style="fill:#a9a280;stroke:#a9a280;" x="88.790868" xlink:href="#mcf4abb7a59" y="42.484533"/>
     <use style="fill:#a9a280;stroke:#a9a280;" x="72.361619" xlink:href="#mcf4abb7a59" y="43.635138"/>
     <use style="fill:#a9a280;stroke:#a9a280;" x="65.938153" xlink:href="#mcf4abb7a59" y="45.430082"/>
     <use style="fill:#a9a280;stroke:#a9a280;" x="62.355835" xlink:href="#mcf4abb7a59" y="48.329608"/>
     <use style="fill:#a9a280;stroke:#a9a280;" x="60.255856" xlink:href="#mcf4abb7a59" y="54.03661"/>
     <use style="fill:#a9a280;stroke:#a9a280;" x="58.897046" xlink:href="#mcf4abb7a59" y="71.940029"/>
    </g>
   </g>
   <g id="line2d_30">
    <path clip-path="url(#pd99eaa0744)" d="M 118.190578 41.564048 
L 88.790868 41.564048 
L 72.361619 41.932242 
L 65.938153 42.254412 
L 62.355835 43.497065 
L 60.255856 45.061889 
L 58.897046 47.685269 
" style="fill:none;stroke:#a9a280;stroke-dasharray:9.6,2.4,1.5,2.4;stroke-dashoffset:0;stroke-width:1.5;"/>
    <defs>
     <path d="M -3 0 
L 3 0 
M 0 3 
L 0 -3 
" id="m86c869d0b0" style="stroke:#a9a280;"/>
    </defs>
    <g clip-path="url(#pd99eaa0744)">
     <use style="fill:#a9a280;stroke:#a9a280;" x="118.190578" xlink:href="#m86c869d0b0" y="41.564048"/>
     <use style="fill:#a9a280;stroke:#a9a280;" x="88.790868" xlink:href="#m86c869d0b0" y="41.564048"/>
     <use style="fill:#a9a280;stroke:#a9a280;" x="72.361619" xlink:href="#m86c869d0b0" y="41.932242"/>
     <use style="fill:#a9a280;stroke:#a9a280;" x="65.938153" xlink:href="#m86c869d0b0" y="42.254412"/>
     <use style="fill:#a9a280;stroke:#a9a280;" x="62.355835" xlink:href="#m86c869d0b0" y="43.497065"/>
     <use style="fill:#a9a280;stroke:#a9a280;" x="60.255856" xlink:href="#m86c869d0b0" y="45.061889"/>
     <use style="fill:#a9a280;stroke:#a9a280;" x="58.897046" xlink:href="#m86c869d0b0" y="47.685269"/>
    </g>
   </g>
   <g id="line2d_31">
    <path clip-path="url(#pd99eaa0744)" d="M 122.412955 44.234408 
L 88.492734 48.608221 
L 70.018879 57.540008 
L 63.222478 77.705589 
L 59.329993 129.408664 
L 58.27964 219.555255 
L 57.908927 277.56583 
" style="fill:none;stroke:#56aa1c;stroke-dasharray:1.5,2.475;stroke-dashoffset:0;stroke-width:1.5;"/>
    <defs>
     <path d="M 0 -3 
L -0.673542 -0.927051 
L -2.85317 -0.927051 
L -1.089814 0.354102 
L -1.763356 2.427051 
L -0 1.145898 
L 1.763356 2.427051 
L 1.089814 0.354102 
L 2.85317 -0.927051 
L 0.673542 -0.927051 
z
" id="m4e777f2d8c" style="stroke:#56aa1c;stroke-linejoin:bevel;"/>
    </defs>
    <g clip-path="url(#pd99eaa0744)">
     <use style="fill:#56aa1c;stroke:#56aa1c;stroke-linejoin:bevel;" x="122.412955" xlink:href="#m4e777f2d8c" y="44.234408"/>
     <use style="fill:#56aa1c;stroke:#56aa1c;stroke-linejoin:bevel;" x="88.492734" xlink:href="#m4e777f2d8c" y="48.608221"/>
     <use style="fill:#56aa1c;stroke:#56aa1c;stroke-linejoin:bevel;" x="70.018879" xlink:href="#m4e777f2d8c" y="57.540008"/>
     <use style="fill:#56aa1c;stroke:#56aa1c;stroke-linejoin:bevel;" x="63.222478" xlink:href="#m4e777f2d8c" y="77.705589"/>
     <use style="fill:#56aa1c;stroke:#56aa1c;stroke-linejoin:bevel;" x="59.329993" xlink:href="#m4e777f2d8c" y="129.408664"/>
     <use style="fill:#56aa1c;stroke:#56aa1c;stroke-linejoin:bevel;" x="58.27964" xlink:href="#m4e777f2d8c" y="219.555255"/>
     <use style="fill:#56aa1c;stroke:#56aa1c;stroke-linejoin:bevel;" x="57.908927" xlink:href="#m4e777f2d8c" y="277.56583"/>
    </g>
   </g>
   <g id="line2d_32">
    <path clip-path="url(#pd99eaa0744)" d="M 122.412955 41.656161 
L 88.492734 41.748241 
L 70.018879 41.978442 
L 63.222478 43.451726 
L 59.329993 46.214134 
L 58.27964 53.442436 
L 57.908927 72.917415 
" style="fill:none;stroke:#56aa1c;stroke-dasharray:1.5,2.475;stroke-dashoffset:0;stroke-width:1.5;"/>
    <defs>
     <path d="M -3 3 
L 3 -3 
M -3 -3 
L 3 3 
" id="m56894c13de" style="stroke:#56aa1c;"/>
    </defs>
    <g clip-path="url(#pd99eaa0744)">
     <use style="fill:#56aa1c;stroke:#56aa1c;" x="122.412955" xlink:href="#m56894c13de" y="41.656161"/>
     <use style="fill:#56aa1c;stroke:#56aa1c;" x="88.492734" xlink:href="#m56894c13de" y="41.748241"/>
     <use style="fill:#56aa1c;stroke:#56aa1c;" x="70.018879" xlink:href="#m56894c13de" y="41.978442"/>
     <use style="fill:#56aa1c;stroke:#56aa1c;" x="63.222478" xlink:href="#m56894c13de" y="43.451726"/>
     <use style="fill:#56aa1c;stroke:#56aa1c;" x="59.329993" xlink:href="#m56894c13de" y="46.214134"/>
     <use style="fill:#56aa1c;stroke:#56aa1c;" x="58.27964" xlink:href="#m56894c13de" y="53.442436"/>
     <use style="fill:#56aa1c;stroke:#56aa1c;" x="57.908927" xlink:href="#m56894c13de" y="72.917415"/>
    </g>
   </g>
   <g id="line2d_33">
    <path clip-path="url(#pd99eaa0744)" d="M 122.412955 41.472 
L 88.492734 41.51804 
L 70.018879 41.656161 
L 63.222478 41.702201 
L 59.329993 41.840321 
L 58.27964 42.991325 
L 57.908927 45.569572 
" style="fill:none;stroke:#56aa1c;stroke-dasharray:1.5,2.475;stroke-dashoffset:0;stroke-width:1.5;"/>
    <defs>
     <path d="M -3 0 
L 3 0 
M 0 3 
L 0 -3 
" id="me4356331cc" style="stroke:#56aa1c;"/>
    </defs>
    <g clip-path="url(#pd99eaa0744)">
     <use style="fill:#56aa1c;stroke:#56aa1c;" x="122.412955" xlink:href="#me4356331cc" y="41.472"/>
     <use style="fill:#56aa1c;stroke:#56aa1c;" x="88.492734" xlink:href="#me4356331cc" y="41.51804"/>
     <use style="fill:#56aa1c;stroke:#56aa1c;" x="70.018879" xlink:href="#me4356331cc" y="41.656161"/>
     <use style="fill:#56aa1c;stroke:#56aa1c;" x="63.222478" xlink:href="#me4356331cc" y="41.702201"/>
     <use style="fill:#56aa1c;stroke:#56aa1c;" x="59.329993" xlink:href="#me4356331cc" y="41.840321"/>
     <use style="fill:#56aa1c;stroke:#56aa1c;" x="58.27964" xlink:href="#me4356331cc" y="42.991325"/>
     <use style="fill:#56aa1c;stroke:#56aa1c;" x="57.908927" xlink:href="#me4356331cc" y="45.569572"/>
    </g>
   </g>
   <g id="patch_3">
    <path d="M 57.6 307.584 
L 57.6 41.472 
" style="fill:none;stroke:#000000;stroke-linecap:square;stroke-linejoin:miter;stroke-width:0.8;"/>
   </g>
   <g id="patch_4">
    <path d="M 414.72 307.584 
L 414.72 41.472 
" style="fill:none;stroke:#000000;stroke-linecap:square;stroke-linejoin:miter;stroke-width:0.8;"/>
   </g>
   <g id="patch_5">
    <path d="M 57.6 307.584 
L 414.72 307.584 
" style="fill:none;stroke:#000000;stroke-linecap:square;stroke-linejoin:miter;stroke-width:0.8;"/>
   </g>
   <g id="patch_6">
    <path d="M 57.6 41.472 
L 414.72 41.472 
" style="fill:none;stroke:#000000;stroke-linecap:square;stroke-linejoin:miter;stroke-width:0.8;"/>
   </g>
   <g id="patch_7">
    <path d="M 108.828606 53.249738 
Q 110.658346 51.13679 112.488085 49.023841 
Q 113.080601 51.755402 113.673116 54.486963 
z
" style="stroke:#000000;stroke-linecap:round;"/>
   </g>
   <g id="text_15">
    <!--   -->
    <defs>
     <path id="LMRoman12-Regular-20"/>
    </defs>
    <g transform="translate(112.983237 47.085012)scale(0.1 -0.1)">
     <use xlink:href="#LMRoman12-Regular-20"/>
    </g>
   </g>
   <g id="patch_8">
    <path d="M 108.828606 50.029158 
Q 110.658346 47.916209 112.488085 45.80326 
Q 113.080601 48.534821 113.673116 51.266382 
z
" style="stroke:#000000;stroke-linecap:round;"/>
   </g>
   <g id="text_16">
    <!--   -->
    <g transform="translate(112.983237 43.864432)scale(0.1 -0.1)">
     <use xlink:href="#LMRoman12-Regular-20"/>
    </g>
   </g>
   <g id="patch_9">
    <path d="M 108.828606 49.155 
Q 110.658346 47.042051 112.488085 44.929102 
Q 113.080601 47.660663 113.673116 50.392224 
z
" style="stroke:#000000;stroke-linecap:round;"/>
   </g>
   <g id="text_17">
    <!--   -->
    <g transform="translate(112.983237 42.990274)scale(0.1 -0.1)">
     <use xlink:href="#LMRoman12-Regular-20"/>
    </g>
   </g>
   <g id="patch_10">
    <path d="M 114.035947 52.837462 
Q 115.865687 50.724513 117.695426 48.611564 
Q 118.287942 51.343125 118.880457 54.074686 
z
" style="stroke:#000000;stroke-linecap:round;"/>
   </g>
   <g id="text_18">
    <!--   -->
    <g transform="translate(118.190578 46.672736)scale(0.1 -0.1)">
     <use xlink:href="#LMRoman12-Regular-20"/>
    </g>
   </g>
   <g id="patch_11">
    <path d="M 114.035947 48.235041 
Q 115.865687 46.122092 117.695426 44.009143 
Q 118.287942 46.740704 118.880457 49.472265 
z
" style="stroke:#000000;stroke-linecap:round;"/>
   </g>
   <g id="text_19">
    <!--   -->
    <g transform="translate(118.190578 42.070315)scale(0.1 -0.1)">
     <use xlink:href="#LMRoman12-Regular-20"/>
    </g>
   </g>
   <g id="patch_12">
    <path d="M 114.035947 47.728774 
Q 115.865687 45.615826 117.695426 43.502877 
Q 118.287942 46.234438 118.880457 48.965999 
z
" style="stroke:#000000;stroke-linecap:round;"/>
   </g>
   <g id="text_20">
    <!--   -->
    <g transform="translate(118.190578 41.564048)scale(0.1 -0.1)">
     <use xlink:href="#LMRoman12-Regular-20"/>
    </g>
   </g>
   <g id="patch_13">
    <path d="M 118.258325 50.399134 
Q 120.088064 48.286185 121.917804 46.173237 
Q 122.510319 48.904798 123.102834 51.636359 
z
" style="stroke:#000000;stroke-linecap:round;"/>
   </g>
   <g id="text_21">
    <!--   -->
    <g transform="translate(122.412955 44.234408)scale(0.1 -0.1)">
     <use xlink:href="#LMRoman12-Regular-20"/>
    </g>
   </g>
   <g id="patch_14">
    <path d="M 118.258325 47.820887 
Q 120.088064 45.707938 121.917804 43.594989 
Q 122.510319 46.32655 123.102834 49.058111 
z
" style="stroke:#000000;stroke-linecap:round;"/>
   </g>
   <g id="text_22">
    <!--   -->
    <g transform="translate(122.412955 41.656161)scale(0.1 -0.1)">
     <use xlink:href="#LMRoman12-Regular-20"/>
    </g>
   </g>
   <g id="patch_15">
    <path d="M 118.258325 47.636726 
Q 120.088064 45.523777 121.917804 43.410828 
Q 122.510319 46.142389 123.102834 48.87395 
z
" style="stroke:#000000;stroke-linecap:round;"/>
   </g>
   <g id="text_23">
    <!--   -->
    <g transform="translate(122.412955 41.472)scale(0.1 -0.1)">
     <use xlink:href="#LMRoman12-Regular-20"/>
    </g>
   </g>
   <g id="legend_1">
    <g id="patch_16">
     <path d="M 333.810625 174.937625 
L 407.72 174.937625 
Q 409.72 174.937625 409.72 172.937625 
L 409.72 48.472 
Q 409.72 46.472 407.72 46.472 
L 333.810625 46.472 
Q 331.810625 46.472 331.810625 48.472 
L 331.810625 172.937625 
Q 331.810625 174.937625 333.810625 174.937625 
z
" style="fill:#ffffff;opacity:0.8;stroke:#cccccc;stroke-linejoin:miter;"/>
    </g>
    <g id="line2d_34">
     <path d="M 335.810625 53.972 
L 355.810625 53.972 
" style="fill:none;stroke:#7d9aaa;stroke-dasharray:5.55,2.4;stroke-dashoffset:0;stroke-width:1.5;"/>
    </g>
    <g id="line2d_35">
     <g>
      <use style="fill:#7d9aaa;stroke:#7d9aaa;stroke-linejoin:bevel;" x="345.810625" xlink:href="#m7eee21faec" y="53.972"/>
     </g>
    </g>
    <g id="text_24">
     <!-- r=1 a=05 -->
     <defs>
      <path d="M 70.703125 34.203125 
C 70.703125 36.09375 69 36.09375 67.5 36.09375 
L 8.59375 36.09375 
C 7.203125 36.09375 5.40625 36.09375 5.40625 34.296875 
C 5.40625 32.40625 7.09375 32.40625 8.59375 32.40625 
L 67.5 32.40625 
C 68.90625 32.40625 70.703125 32.40625 70.703125 34.203125 
z
M 70.703125 15.59375 
C 70.703125 17.5 69 17.5 67.5 17.5 
L 8.59375 17.5 
C 7.203125 17.5 5.40625 17.5 5.40625 15.703125 
C 5.40625 13.796875 7.09375 13.796875 8.59375 13.796875 
L 67.5 13.796875 
C 68.90625 13.796875 70.703125 13.796875 70.703125 15.59375 
z
" id="LMRoman12-Regular-3d"/>
      <path d="M 44 20.09375 
C 44 32 36 41.90625 25.5 41.90625 
C 19.796875 41.90625 15.40625 39.40625 12.796875 36.59375 
L 12.796875 57.296875 
C 17.09375 55.90625 20.59375 55.796875 21.703125 55.796875 
C 33 55.796875 40.203125 64.09375 40.203125 65.5 
C 40.203125 65.90625 40 66.40625 39.40625 66.40625 
C 39.40625 66.40625 39 66.40625 38.09375 66 
C 32.5 63.59375 27.703125 63.296875 25.09375 63.296875 
C 18.5 63.296875 13.796875 65.296875 11.90625 66.09375 
C 11.203125 66.40625 10.90625 66.40625 10.90625 66.40625 
C 10.09375 66.40625 10.09375 65.796875 10.09375 64.203125 
L 10.09375 34.5 
C 10.09375 32.703125 10.09375 32.09375 11.296875 32.09375 
C 11.796875 32.09375 11.90625 32.203125 12.90625 33.40625 
C 15.703125 37.5 20.40625 39.90625 25.40625 39.90625 
C 30.703125 39.90625 33.296875 35 34.09375 33.296875 
C 35.796875 29.40625 35.90625 24.5 35.90625 20.703125 
C 35.90625 16.90625 35.90625 11.203125 33.09375 6.703125 
C 30.90625 3.09375 27 0.59375 22.59375 0.59375 
C 16 0.59375 9.5 5.09375 7.703125 12.40625 
C 8.203125 12.203125 8.796875 12.09375 9.296875 12.09375 
C 11 12.09375 13.703125 13.09375 13.703125 16.5 
C 13.703125 19.296875 11.796875 20.90625 9.296875 20.90625 
C 7.5 20.90625 4.90625 20 4.90625 16.09375 
C 4.90625 7.59375 11.703125 -2.09375 22.796875 -2.09375 
C 34.09375 -2.09375 44 7.40625 44 20.09375 
z
" id="LMRoman12-Regular-35"/>
     </defs>
     <g transform="translate(363.810625 57.472)scale(0.1 -0.1)">
      <use xlink:href="#LMRoman12-Regular-72"/>
      <use x="38.099991" xlink:href="#LMRoman12-Regular-3d"/>
      <use x="114.299973" xlink:href="#LMRoman12-Regular-31"/>
      <use x="163.299957" xlink:href="#LMRoman12-Regular-20"/>
      <use x="195.899948" xlink:href="#LMRoman12-Regular-61"/>
      <use x="244.899933" xlink:href="#LMRoman12-Regular-3d"/>
      <use x="321.099915" xlink:href="#LMRoman12-Regular-30"/>
      <use x="370.099899" xlink:href="#LMRoman12-Regular-35"/>
     </g>
    </g>
    <g id="line2d_36">
     <path d="M 335.810625 67.912625 
L 355.810625 67.912625 
" style="fill:none;stroke:#7d9aaa;stroke-dasharray:5.55,2.4;stroke-dashoffset:0;stroke-width:1.5;"/>
    </g>
    <g id="line2d_37">
     <g>
      <use style="fill:#7d9aaa;stroke:#7d9aaa;" x="345.810625" xlink:href="#md898ba9195" y="67.912625"/>
     </g>
    </g>
    <g id="text_25">
     <!-- r=1 a=1 -->
     <g transform="translate(363.810625 71.412625)scale(0.1 -0.1)">
      <use xlink:href="#LMRoman12-Regular-72"/>
      <use x="38.099991" xlink:href="#LMRoman12-Regular-3d"/>
      <use x="114.299973" xlink:href="#LMRoman12-Regular-31"/>
      <use x="163.299957" xlink:href="#LMRoman12-Regular-20"/>
      <use x="195.899948" xlink:href="#LMRoman12-Regular-61"/>
      <use x="244.899933" xlink:href="#LMRoman12-Regular-3d"/>
      <use x="321.099915" xlink:href="#LMRoman12-Regular-31"/>
     </g>
    </g>
    <g id="line2d_38">
     <path d="M 335.810625 81.85325 
L 355.810625 81.85325 
" style="fill:none;stroke:#7d9aaa;stroke-dasharray:5.55,2.4;stroke-dashoffset:0;stroke-width:1.5;"/>
    </g>
    <g id="line2d_39">
     <g>
      <use style="fill:#7d9aaa;stroke:#7d9aaa;" x="345.810625" xlink:href="#m2b6a8ac66b" y="81.85325"/>
     </g>
    </g>
    <g id="text_26">
     <!-- r=1 a=15 -->
     <g transform="translate(363.810625 85.35325)scale(0.1 -0.1)">
      <use xlink:href="#LMRoman12-Regular-72"/>
      <use x="38.099991" xlink:href="#LMRoman12-Regular-3d"/>
      <use x="114.299973" xlink:href="#LMRoman12-Regular-31"/>
      <use x="163.299957" xlink:href="#LMRoman12-Regular-20"/>
      <use x="195.899948" xlink:href="#LMRoman12-Regular-61"/>
      <use x="244.899933" xlink:href="#LMRoman12-Regular-3d"/>
      <use x="321.099915" xlink:href="#LMRoman12-Regular-31"/>
      <use x="370.099899" xlink:href="#LMRoman12-Regular-35"/>
     </g>
    </g>
    <g id="line2d_40">
     <path d="M 335.810625 95.793875 
L 355.810625 95.793875 
" style="fill:none;stroke:#a9a280;stroke-dasharray:9.6,2.4,1.5,2.4;stroke-dashoffset:0;stroke-width:1.5;"/>
    </g>
    <g id="line2d_41">
     <g>
      <use style="fill:#a9a280;stroke:#a9a280;stroke-linejoin:bevel;" x="345.810625" xlink:href="#md3b418be85" y="95.793875"/>
     </g>
    </g>
    <g id="text_27">
     <!-- r=2 a=05 -->
     <g transform="translate(363.810625 99.293875)scale(0.1 -0.1)">
      <use xlink:href="#LMRoman12-Regular-72"/>
      <use x="38.099991" xlink:href="#LMRoman12-Regular-3d"/>
      <use x="114.299973" xlink:href="#LMRoman12-Regular-32"/>
      <use x="163.299957" xlink:href="#LMRoman12-Regular-20"/>
      <use x="195.899948" xlink:href="#LMRoman12-Regular-61"/>
      <use x="244.899933" xlink:href="#LMRoman12-Regular-3d"/>
      <use x="321.099915" xlink:href="#LMRoman12-Regular-30"/>
      <use x="370.099899" xlink:href="#LMRoman12-Regular-35"/>
     </g>
    </g>
    <g id="line2d_42">
     <path d="M 335.810625 109.7345 
L 355.810625 109.7345 
" style="fill:none;stroke:#a9a280;stroke-dasharray:9.6,2.4,1.5,2.4;stroke-dashoffset:0;stroke-width:1.5;"/>
    </g>
    <g id="line2d_43">
     <g>
      <use style="fill:#a9a280;stroke:#a9a280;" x="345.810625" xlink:href="#mcf4abb7a59" y="109.7345"/>
     </g>
    </g>
    <g id="text_28">
     <!-- r=2 a=1 -->
     <g transform="translate(363.810625 113.2345)scale(0.1 -0.1)">
      <use xlink:href="#LMRoman12-Regular-72"/>
      <use x="38.099991" xlink:href="#LMRoman12-Regular-3d"/>
      <use x="114.299973" xlink:href="#LMRoman12-Regular-32"/>
      <use x="163.299957" xlink:href="#LMRoman12-Regular-20"/>
      <use x="195.899948" xlink:href="#LMRoman12-Regular-61"/>
      <use x="244.899933" xlink:href="#LMRoman12-Regular-3d"/>
      <use x="321.099915" xlink:href="#LMRoman12-Regular-31"/>
     </g>
    </g>
    <g id="line2d_44">
     <path d="M 335.810625 123.675125 
L 355.810625 123.675125 
" style="fill:none;stroke:#a9a280;stroke-dasharray:9.6,2.4,1.5,2.4;stroke-dashoffset:0;stroke-width:1.5;"/>
    </g>
    <g id="line2d_45">
     <g>
      <use style="fill:#a9a280;stroke:#a9a280;" x="345.810625" xlink:href="#m86c869d0b0" y="123.675125"/>
     </g>
    </g>
    <g id="text_29">
     <!-- r=2 a=15 -->
     <g transform="translate(363.810625 127.175125)scale(0.1 -0.1)">
      <use xlink:href="#LMRoman12-Regular-72"/>
      <use x="38.099991" xlink:href="#LMRoman12-Regular-3d"/>
      <use x="114.299973" xlink:href="#LMRoman12-Regular-32"/>
      <use x="163.299957" xlink:href="#LMRoman12-Regular-20"/>
      <use x="195.899948" xlink:href="#LMRoman12-Regular-61"/>
      <use x="244.899933" xlink:href="#LMRoman12-Regular-3d"/>
      <use x="321.099915" xlink:href="#LMRoman12-Regular-31"/>
      <use x="370.099899" xlink:href="#LMRoman12-Regular-35"/>
     </g>
    </g>
    <g id="line2d_46">
     <path d="M 335.810625 137.61575 
L 355.810625 137.61575 
" style="fill:none;stroke:#56aa1c;stroke-dasharray:1.5,2.475;stroke-dashoffset:0;stroke-width:1.5;"/>
    </g>
    <g id="line2d_47">
     <g>
      <use style="fill:#56aa1c;stroke:#56aa1c;stroke-linejoin:bevel;" x="345.810625" xlink:href="#m4e777f2d8c" y="137.61575"/>
     </g>
    </g>
    <g id="text_30">
     <!-- r=3 a=05 -->
     <defs>
      <path d="M 44.796875 17.09375 
C 44.796875 26.296875 37.40625 33.5 27.796875 35.203125 
C 36.5 37.703125 42.09375 45 42.09375 52.796875 
C 42.09375 60.703125 33.90625 66.5 24.203125 66.5 
C 14.203125 66.5 6.796875 60.40625 6.796875 53.09375 
C 6.796875 49.09375 9.90625 48.296875 11.40625 48.296875 
C 13.5 48.296875 15.90625 49.796875 15.90625 52.796875 
C 15.90625 56 13.5 57.40625 11.296875 57.40625 
C 10.703125 57.40625 10.5 57.40625 10.203125 57.296875 
C 14 64.09375 23.40625 64.09375 23.90625 64.09375 
C 27.203125 64.09375 33.703125 62.59375 33.703125 52.796875 
C 33.703125 50.90625 33.40625 45.296875 30.5 41 
C 27.5 36.59375 24.09375 36.296875 21.40625 36.203125 
L 18.40625 35.90625 
C 16.703125 35.796875 16.296875 35.703125 16.296875 34.796875 
C 16.296875 33.796875 16.796875 33.796875 18.59375 33.796875 
L 23.203125 33.796875 
C 31.703125 33.796875 35.5 26.796875 35.5 17.203125 
C 35.5 4.09375 28.703125 0.59375 23.796875 0.59375 
C 19 0.59375 10.796875 2.90625 7.90625 9.5 
C 11.09375 9 14 10.796875 14 14.40625 
C 14 17.296875 11.90625 19.296875 9.09375 19.296875 
C 6.703125 19.296875 4.09375 17.90625 4.09375 14.09375 
C 4.09375 5.203125 13 -2.09375 24.09375 -2.09375 
C 36 -2.09375 44.796875 7 44.796875 17.09375 
z
" id="LMRoman12-Regular-33"/>
     </defs>
     <g transform="translate(363.810625 141.11575)scale(0.1 -0.1)">
      <use xlink:href="#LMRoman12-Regular-72"/>
      <use x="38.099991" xlink:href="#LMRoman12-Regular-3d"/>
      <use x="114.299973" xlink:href="#LMRoman12-Regular-33"/>
      <use x="163.299957" xlink:href="#LMRoman12-Regular-20"/>
      <use x="195.899948" xlink:href="#LMRoman12-Regular-61"/>
      <use x="244.899933" xlink:href="#LMRoman12-Regular-3d"/>
      <use x="321.099915" xlink:href="#LMRoman12-Regular-30"/>
      <use x="370.099899" xlink:href="#LMRoman12-Regular-35"/>
     </g>
    </g>
    <g id="line2d_48">
     <path d="M 335.810625 151.556375 
L 355.810625 151.556375 
" style="fill:none;stroke:#56aa1c;stroke-dasharray:1.5,2.475;stroke-dashoffset:0;stroke-width:1.5;"/>
    </g>
    <g id="line2d_49">
     <g>
      <use style="fill:#56aa1c;stroke:#56aa1c;" x="345.810625" xlink:href="#m56894c13de" y="151.556375"/>
     </g>
    </g>
    <g id="text_31">
     <!-- r=3 a=1 -->
     <g transform="translate(363.810625 155.056375)scale(0.1 -0.1)">
      <use xlink:href="#LMRoman12-Regular-72"/>
      <use x="38.099991" xlink:href="#LMRoman12-Regular-3d"/>
      <use x="114.299973" xlink:href="#LMRoman12-Regular-33"/>
      <use x="163.299957" xlink:href="#LMRoman12-Regular-20"/>
      <use x="195.899948" xlink:href="#LMRoman12-Regular-61"/>
      <use x="244.899933" xlink:href="#LMRoman12-Regular-3d"/>
      <use x="321.099915" xlink:href="#LMRoman12-Regular-31"/>
     </g>
    </g>
    <g id="line2d_50">
     <path d="M 335.810625 165.497 
L 355.810625 165.497 
" style="fill:none;stroke:#56aa1c;stroke-dasharray:1.5,2.475;stroke-dashoffset:0;stroke-width:1.5;"/>
    </g>
    <g id="line2d_51">
     <g>
      <use style="fill:#56aa1c;stroke:#56aa1c;" x="345.810625" xlink:href="#me4356331cc" y="165.497"/>
     </g>
    </g>
    <g id="text_32">
     <!-- r=3 a=15 -->
     <g transform="translate(363.810625 168.997)scale(0.1 -0.1)">
      <use xlink:href="#LMRoman12-Regular-72"/>
      <use x="38.099991" xlink:href="#LMRoman12-Regular-3d"/>
      <use x="114.299973" xlink:href="#LMRoman12-Regular-33"/>
      <use x="163.299957" xlink:href="#LMRoman12-Regular-20"/>
      <use x="195.899948" xlink:href="#LMRoman12-Regular-61"/>
      <use x="244.899933" xlink:href="#LMRoman12-Regular-3d"/>
      <use x="321.099915" xlink:href="#LMRoman12-Regular-31"/>
      <use x="370.099899" xlink:href="#LMRoman12-Regular-35"/>
     </g>
    </g>
   </g>
  </g>
 </g>
 <defs>
  <clipPath id="pd99eaa0744">
   <rect height="266.112" width="357.12" x="57.6" y="41.472"/>
  </clipPath>
 </defs>
</svg>
