<?xml version="1.0" encoding="utf-8" standalone="no"?>
<!DOCTYPE svg PUBLIC "-//W3C//DTD SVG 1.1//EN"
  "http://www.w3.org/Graphics/SVG/1.1/DTD/svg11.dtd">
<!-- Created with matplotlib (http://matplotlib.org/) -->
<svg height="345pt" version="1.1" viewBox="0 0 460 345" width="460pt" xmlns="http://www.w3.org/2000/svg" xmlns:xlink="http://www.w3.org/1999/xlink">
 <defs>
  <style type="text/css">
*{stroke-linecap:butt;stroke-linejoin:round;}
  </style>
 </defs>
 <g id="figure_1">
  <g id="patch_1">
   <path d="M 0 345.6 
L 460.8 345.6 
L 460.8 0 
L 0 0 
z
" style="fill:#ffffff;"/>
  </g>
  <g id="axes_1">
   <g id="patch_2">
    <path d="M 57.6 307.584 
L 414.72 307.584 
L 414.72 41.472 
L 57.6 41.472 
z
" style="fill:#ffffff;"/>
   </g>
   <g id="matplotlib.axis_1">
    <g id="xtick_1">
     <g id="line2d_1">
      <path clip-path="url(#p58a2687243)" d="M 57.6 307.584 
L 57.6 41.472 
" style="fill:none;stroke:#b0b0b0;stroke-linecap:square;stroke-width:0.8;"/>
     </g>
     <g id="line2d_2">
      <defs>
       <path d="M 0 0 
L 0 3.5 
" id="m64f9d35893" style="stroke:#000000;stroke-width:0.8;"/>
      </defs>
      <g>
       <use style="stroke:#000000;stroke-width:0.8;" x="57.6" xlink:href="#m64f9d35893" y="307.584"/>
      </g>
     </g>
     <g id="text_1">
      <!-- 0.0 -->
      <defs>
       <path d="M 44.796875 32 
C 44.796875 40.296875 44.296875 48.40625 40.703125 56 
C 36.59375 64.296875 29.40625 66.5 24.5 66.5 
C 18.703125 66.5 11.59375 63.59375 7.90625 55.296875 
C 5.09375 49 4.09375 42.796875 4.09375 32 
C 4.09375 22.296875 4.796875 15 8.40625 7.90625 
C 12.296875 0.296875 19.203125 -2.09375 24.40625 -2.09375 
C 33.09375 -2.09375 38.09375 3.09375 41 8.90625 
C 44.59375 16.40625 44.796875 26.203125 44.796875 32 
z
M 37.203125 33.203125 
C 37.203125 26.5 37.203125 18.90625 36.09375 12.796875 
C 34.203125 1.796875 27.90625 -0.09375 24.40625 -0.09375 
C 21.203125 -0.09375 14.703125 1.703125 12.796875 12.59375 
C 11.703125 18.59375 11.703125 26.203125 11.703125 33.203125 
C 11.703125 41.40625 11.703125 48.796875 13.296875 54.703125 
C 15 61.40625 20.09375 64.5 24.40625 64.5 
C 28.203125 64.5 34 62.203125 35.90625 53.59375 
C 37.203125 47.90625 37.203125 40 37.203125 33.203125 
z
" id="LMRoman12-Regular-30"/>
       <path d="M 18.40625 4.90625 
C 18.40625 7.59375 16.09375 9.703125 13.59375 9.703125 
C 10.703125 9.703125 8.703125 7.40625 8.703125 4.90625 
C 8.703125 1.90625 11.203125 0 13.5 0 
C 16.203125 0 18.40625 2.09375 18.40625 4.90625 
z
" id="LMRoman12-Regular-2e"/>
      </defs>
      <g transform="translate(51.339844 321.524625)scale(0.1 -0.1)">
       <use xlink:href="#LMRoman12-Regular-30"/>
       <use x="48.999985" xlink:href="#LMRoman12-Regular-2e"/>
       <use x="76.199982" xlink:href="#LMRoman12-Regular-30"/>
      </g>
     </g>
    </g>
    <g id="xtick_2">
     <g id="line2d_3">
      <path clip-path="url(#p58a2687243)" d="M 129.024 307.584 
L 129.024 41.472 
" style="fill:none;stroke:#b0b0b0;stroke-linecap:square;stroke-width:0.8;"/>
     </g>
     <g id="line2d_4">
      <g>
       <use style="stroke:#000000;stroke-width:0.8;" x="129.024" xlink:href="#m64f9d35893" y="307.584"/>
      </g>
     </g>
     <g id="text_2">
      <!-- 0.2 -->
      <defs>
       <path d="M 44 16.796875 
L 41.796875 16.796875 
C 41.5 15.09375 40.703125 9.59375 39.703125 8 
C 39 7.09375 33.296875 7.09375 30.296875 7.09375 
L 11.796875 7.09375 
C 14.5 9.40625 20.59375 15.796875 23.203125 18.203125 
C 38.40625 32.203125 44 37.40625 44 47.296875 
C 44 58.796875 34.90625 66.5 23.296875 66.5 
C 11.703125 66.5 4.90625 56.59375 4.90625 48 
C 4.90625 42.90625 9.296875 42.90625 9.59375 42.90625 
C 11.703125 42.90625 14.296875 44.40625 14.296875 47.59375 
C 14.296875 50.40625 12.40625 52.296875 9.59375 52.296875 
C 8.703125 52.296875 8.5 52.296875 8.203125 52.203125 
C 10.09375 59 15.5 63.59375 22 63.59375 
C 30.5 63.59375 35.703125 56.5 35.703125 47.296875 
C 35.703125 38.796875 30.796875 31.40625 25.09375 25 
L 4.90625 2.40625 
L 4.90625 0 
L 41.40625 0 
z
" id="LMRoman12-Regular-32"/>
      </defs>
      <g transform="translate(122.763844 321.524625)scale(0.1 -0.1)">
       <use xlink:href="#LMRoman12-Regular-30"/>
       <use x="48.999985" xlink:href="#LMRoman12-Regular-2e"/>
       <use x="76.199982" xlink:href="#LMRoman12-Regular-32"/>
      </g>
     </g>
    </g>
    <g id="xtick_3">
     <g id="line2d_5">
      <path clip-path="url(#p58a2687243)" d="M 200.448 307.584 
L 200.448 41.472 
" style="fill:none;stroke:#b0b0b0;stroke-linecap:square;stroke-width:0.8;"/>
     </g>
     <g id="line2d_6">
      <g>
       <use style="stroke:#000000;stroke-width:0.8;" x="200.448" xlink:href="#m64f9d35893" y="307.584"/>
      </g>
     </g>
     <g id="text_3">
      <!-- 0.4 -->
      <defs>
       <path d="M 46.203125 16.703125 
L 46.203125 19.59375 
L 36.09375 19.59375 
L 36.09375 65.09375 
C 36.09375 67 36.09375 67.5 34.703125 67.5 
C 33.90625 67.5 33.59375 67.5 32.796875 66.296875 
L 2.703125 19.59375 
L 2.703125 16.703125 
L 29 16.703125 
L 29 7.59375 
C 29 3.90625 28.796875 2.90625 21.5 2.90625 
L 19.5 2.90625 
L 19.5 0 
C 21.796875 0.203125 29.703125 0.203125 32.5 0.203125 
C 35.296875 0.203125 43.296875 0.203125 45.59375 0 
L 45.59375 2.90625 
L 43.59375 2.90625 
C 36.40625 2.90625 36.09375 3.90625 36.09375 7.59375 
L 36.09375 16.703125 
z
M 29.5 19.59375 
L 5.203125 19.59375 
L 29.5 57.296875 
z
" id="LMRoman12-Regular-34"/>
      </defs>
      <g transform="translate(194.187844 321.524625)scale(0.1 -0.1)">
       <use xlink:href="#LMRoman12-Regular-30"/>
       <use x="48.999985" xlink:href="#LMRoman12-Regular-2e"/>
       <use x="76.199982" xlink:href="#LMRoman12-Regular-34"/>
      </g>
     </g>
    </g>
    <g id="xtick_4">
     <g id="line2d_7">
      <path clip-path="url(#p58a2687243)" d="M 271.872 307.584 
L 271.872 41.472 
" style="fill:none;stroke:#b0b0b0;stroke-linecap:square;stroke-width:0.8;"/>
     </g>
     <g id="line2d_8">
      <g>
       <use style="stroke:#000000;stroke-width:0.8;" x="271.872" xlink:href="#m64f9d35893" y="307.584"/>
      </g>
     </g>
     <g id="text_4">
      <!-- 0.6 -->
      <defs>
       <path d="M 44.796875 20.40625 
C 44.796875 33.703125 35.5 42.59375 25.5 42.59375 
C 16.59375 42.59375 13.296875 34.90625 12.296875 32.09375 
L 12.296875 34.796875 
C 12.296875 60.09375 24.59375 64.09375 30 64.09375 
C 33.59375 64.09375 37.203125 63 39.09375 60 
C 37.90625 60 34.09375 60 34.09375 55.90625 
C 34.09375 53.703125 35.59375 51.796875 38.203125 51.796875 
C 40.703125 51.796875 42.40625 53.296875 42.40625 56.203125 
C 42.40625 61.40625 38.59375 66.5 29.90625 66.5 
C 17.296875 66.5 4.09375 53.59375 4.09375 31.59375 
C 4.09375 4.09375 16.09375 -2.09375 24.59375 -2.09375 
C 35.5 -2.09375 44.796875 7.40625 44.796875 20.40625 
z
M 36.59375 20.5 
C 36.59375 15.40625 36.59375 10.90625 34.703125 7.09375 
C 32.203125 2.296875 28.59375 0.59375 24.59375 0.59375 
C 18.296875 0.59375 15.296875 6.203125 14.40625 8.296875 
C 13.5 10.90625 12.5 15.796875 12.5 22.796875 
C 12.5 30.703125 16.09375 40.59375 25.09375 40.59375 
C 30.59375 40.59375 33.5 36.90625 35 33.5 
C 36.59375 29.796875 36.59375 24.796875 36.59375 20.5 
z
" id="LMRoman12-Regular-36"/>
      </defs>
      <g transform="translate(265.611844 321.524625)scale(0.1 -0.1)">
       <use xlink:href="#LMRoman12-Regular-30"/>
       <use x="48.999985" xlink:href="#LMRoman12-Regular-2e"/>
       <use x="76.199982" xlink:href="#LMRoman12-Regular-36"/>
      </g>
     </g>
    </g>
    <g id="xtick_5">
     <g id="line2d_9">
      <path clip-path="url(#p58a2687243)" d="M 343.296 307.584 
L 343.296 41.472 
" style="fill:none;stroke:#b0b0b0;stroke-linecap:square;stroke-width:0.8;"/>
     </g>
     <g id="line2d_10">
      <g>
       <use style="stroke:#000000;stroke-width:0.8;" x="343.296" xlink:href="#m64f9d35893" y="307.584"/>
      </g>
     </g>
     <g id="text_5">
      <!-- 0.8 -->
      <defs>
       <path d="M 44.796875 16.59375 
C 44.796875 26.796875 37.59375 31.296875 29.796875 36.09375 
C 34.796875 38.796875 42.09375 43.40625 42.09375 51.796875 
C 42.09375 60.5 33.703125 66.5 24.5 66.5 
C 14.59375 66.5 6.796875 59.203125 6.796875 50.09375 
C 6.796875 46.703125 7.796875 43.296875 10.59375 39.90625 
C 11.703125 38.59375 11.796875 38.5 18.796875 33.59375 
C 9.09375 29.09375 4.09375 22.40625 4.09375 15.09375 
C 4.09375 4.5 14.203125 -2.09375 24.40625 -2.09375 
C 35.5 -2.09375 44.796875 6.09375 44.796875 16.59375 
z
M 38 51.703125 
C 38 45.59375 33.59375 40.703125 27.796875 37.5 
L 16.203125 45.09375 
C 14.90625 46 10.90625 48.59375 10.90625 53.5 
C 10.90625 60 17.703125 64.09375 24.40625 64.09375 
C 31.59375 64.09375 38 58.90625 38 51.703125 
z
M 40.203125 13.40625 
C 40.203125 5.796875 32.5 0.59375 24.5 0.59375 
C 16 0.59375 8.703125 6.796875 8.703125 15.09375 
C 8.703125 22.90625 14.40625 29.203125 20.90625 32.203125 
L 33 24.296875 
C 35.59375 22.59375 40.203125 19.5 40.203125 13.40625 
z
" id="LMRoman12-Regular-38"/>
      </defs>
      <g transform="translate(337.035844 321.524625)scale(0.1 -0.1)">
       <use xlink:href="#LMRoman12-Regular-30"/>
       <use x="48.999985" xlink:href="#LMRoman12-Regular-2e"/>
       <use x="76.199982" xlink:href="#LMRoman12-Regular-38"/>
      </g>
     </g>
    </g>
    <g id="xtick_6">
     <g id="line2d_11">
      <path clip-path="url(#p58a2687243)" d="M 414.72 307.584 
L 414.72 41.472 
" style="fill:none;stroke:#b0b0b0;stroke-linecap:square;stroke-width:0.8;"/>
     </g>
     <g id="line2d_12">
      <g>
       <use style="stroke:#000000;stroke-width:0.8;" x="414.72" xlink:href="#m64f9d35893" y="307.584"/>
      </g>
     </g>
     <g id="text_6">
      <!-- 1.0 -->
      <defs>
       <path d="M 41 0 
L 41 2.90625 
L 37.90625 2.90625 
C 29.09375 2.90625 28.796875 4.09375 28.796875 7.703125 
L 28.796875 64.09375 
C 28.796875 66.40625 28.796875 66.5 26.796875 66.5 
C 24.40625 63.796875 19.40625 60.09375 9.09375 60.09375 
L 9.09375 57.203125 
C 11.40625 57.203125 16.40625 57.203125 21.90625 59.796875 
L 21.90625 7.703125 
C 21.90625 4.09375 21.59375 2.90625 12.796875 2.90625 
L 9.703125 2.90625 
L 9.703125 0 
C 12.40625 0.203125 22.09375 0.203125 25.40625 0.203125 
C 28.703125 0.203125 38.296875 0.203125 41 0 
z
" id="LMRoman12-Regular-31"/>
      </defs>
      <g transform="translate(408.459844 321.524625)scale(0.1 -0.1)">
       <use xlink:href="#LMRoman12-Regular-31"/>
       <use x="48.999985" xlink:href="#LMRoman12-Regular-2e"/>
       <use x="76.199982" xlink:href="#LMRoman12-Regular-30"/>
      </g>
     </g>
    </g>
    <g id="text_7">
     <!-- TP rate / recall -->
     <defs>
      <path d="M 67.09375 45.5 
L 65.296875 67.796875 
L 5.296875 67.796875 
L 3.5 45.5 
L 5.703125 45.5 
C 7.09375 61.296875 8 64.90625 23.796875 64.90625 
C 25.59375 64.90625 28.40625 64.90625 29.203125 64.703125 
C 31.203125 64.40625 31.296875 63.203125 31.296875 60.90625 
L 31.296875 7.703125 
C 31.296875 4.296875 31.296875 2.90625 21.5 2.90625 
L 17.90625 2.90625 
L 17.90625 0 
C 21.09375 0.203125 31.40625 0.203125 35.296875 0.203125 
C 39.203125 0.203125 49.59375 0.203125 52.796875 0 
L 52.796875 2.90625 
L 49.203125 2.90625 
C 39.40625 2.90625 39.40625 4.296875 39.40625 7.703125 
L 39.40625 60.90625 
C 39.40625 63.40625 39.59375 64.296875 41.203125 64.703125 
C 42 64.90625 44.90625 64.90625 46.796875 64.90625 
C 62.59375 64.90625 63.5 61.296875 64.90625 45.5 
z
" id="LMRoman12-Regular-54"/>
      <path d="M 61.09375 49.796875 
C 61.09375 59.5 51.40625 68.296875 37.90625 68.296875 
L 4.203125 68.296875 
L 4.203125 65.40625 
L 6.203125 65.40625 
C 13.40625 65.40625 13.703125 64.40625 13.703125 60.703125 
L 13.703125 7.59375 
C 13.703125 3.90625 13.40625 2.90625 6.203125 2.90625 
L 4.203125 2.90625 
L 4.203125 0 
C 6.59375 0.203125 14.796875 0.203125 17.703125 0.203125 
C 20.703125 0.203125 28.90625 0.203125 31.296875 0 
L 31.296875 2.90625 
L 29.296875 2.90625 
C 22.09375 2.90625 21.796875 3.90625 21.796875 7.59375 
L 21.796875 31.796875 
L 38.703125 31.796875 
C 50.40625 31.796875 61.09375 39.703125 61.09375 49.796875 
z
M 51.796875 49.796875 
C 51.796875 45.59375 51.796875 34.203125 35.5 34.203125 
L 21.59375 34.203125 
L 21.59375 61.40625 
C 21.59375 64.703125 21.796875 65.40625 26.203125 65.40625 
L 35.59375 65.40625 
C 51.796875 65.40625 51.796875 54.09375 51.796875 49.796875 
z
" id="LMRoman12-Regular-50"/>
      <path id="LMRoman12-Regular-20"/>
      <path d="M 35.296875 38.296875 
C 35.296875 41.296875 32.59375 44.09375 28.296875 44.09375 
C 19.796875 44.09375 16.90625 34.90625 16.296875 33 
L 16.203125 33 
L 16.203125 44.09375 
L 2.796875 43 
L 2.796875 40.09375 
C 9.59375 40.09375 10.40625 39.40625 10.40625 34.5 
L 10.40625 7.40625 
C 10.40625 2.90625 9.296875 2.90625 2.796875 2.90625 
L 2.796875 0 
C 5.59375 0.203125 11.09375 0.203125 14.09375 0.203125 
C 16.796875 0.203125 23.90625 0.203125 26.203125 0 
L 26.203125 2.90625 
L 24.203125 2.90625 
C 16.90625 2.90625 16.703125 4 16.703125 7.59375 
L 16.703125 23.296875 
C 16.703125 33 20.703125 42.09375 28.40625 42.09375 
C 29.203125 42.09375 29.40625 42.09375 29.796875 42 
C 29 41.59375 27.40625 41 27.40625 38.296875 
C 27.40625 35.40625 29.703125 34.296875 31.296875 34.296875 
C 33.296875 34.296875 35.296875 35.59375 35.296875 38.296875 
z
" id="LMRoman12-Regular-72"/>
      <path d="M 47.40625 8.90625 
L 47.40625 14.5 
L 45.203125 14.5 
L 45.203125 8.90625 
C 45.203125 3.203125 42.796875 2.40625 41.40625 2.40625 
C 37.59375 2.40625 37.59375 7.703125 37.59375 9.203125 
L 37.59375 26.703125 
C 37.59375 32.09375 37.59375 36.09375 33.203125 40 
C 29.703125 43.203125 25.203125 44.59375 20.796875 44.59375 
C 12.59375 44.59375 6.296875 39.203125 6.296875 32.703125 
C 6.296875 29.796875 8.203125 28.40625 10.5 28.40625 
C 12.90625 28.40625 14.59375 30.09375 14.59375 32.5 
C 14.59375 36.59375 11 36.59375 9.5 36.59375 
C 11.796875 40.796875 16.59375 42.59375 20.59375 42.59375 
C 25.203125 42.59375 31.09375 38.796875 31.09375 29.796875 
L 31.09375 25.796875 
C 11 25.5 3.40625 17.09375 3.40625 9.40625 
C 3.40625 1.5 12.59375 -1 18.703125 -1 
C 25.296875 -1 29.796875 3 31.703125 7.796875 
C 32.09375 3.09375 35.203125 -0.5 39.5 -0.5 
C 41.59375 -0.5 47.40625 0.90625 47.40625 8.90625 
z
M 31.09375 14.09375 
C 31.09375 4.296875 23.796875 1 19.5 1 
C 14.59375 1 10.5 4.59375 10.5 9.40625 
C 10.5 22.59375 27.5 23.796875 31.09375 24 
z
" id="LMRoman12-Regular-61"/>
      <path d="M 32.59375 12.40625 
L 32.59375 18.09375 
L 30.40625 18.09375 
L 30.40625 12.59375 
C 30.40625 5.40625 27.5 1.203125 23.59375 1.203125 
C 16.796875 1.203125 16.796875 10.5 16.796875 12.203125 
L 16.796875 40.203125 
L 30.90625 40.203125 
L 30.90625 43.09375 
L 16.796875 43.09375 
L 16.796875 61.5 
L 14.59375 61.5 
C 14.5 52.09375 10.90625 42.5 1.796875 42.203125 
L 1.796875 40.203125 
L 10.296875 40.203125 
L 10.296875 12.40625 
C 10.296875 1.296875 17.703125 -1 23 -1 
C 29.296875 -1 32.59375 5.203125 32.59375 12.40625 
z
" id="LMRoman12-Regular-74"/>
      <path d="M 40.703125 11.90625 
C 40.703125 12.5 40.203125 12.90625 39.59375 12.90625 
C 38.796875 12.90625 38.59375 12.40625 38.40625 11.90625 
C 35.796875 3.5 29.09375 1.203125 24.90625 1.203125 
C 20.703125 1.203125 10.59375 4 10.59375 21.296875 
L 10.59375 23.203125 
L 38.296875 23.203125 
C 40.5 23.203125 40.703125 23.203125 40.703125 25.09375 
C 40.703125 35.203125 35.296875 44.59375 23.203125 44.59375 
C 11.796875 44.59375 3 34.296875 3 21.90625 
C 3 8.703125 13.203125 -1 24.296875 -1 
C 36.203125 -1 40.703125 9.796875 40.703125 11.90625 
z
M 34.5 25.09375 
L 10.703125 25.09375 
C 11.5 40.796875 20.296875 42.59375 23.09375 42.59375 
C 33.796875 42.59375 34.40625 28.5 34.5 25.09375 
z
" id="LMRoman12-Regular-65"/>
      <path d="M 43.5 73.09375 
C 43.5 74.40625 42.5 75 41.703125 75 
C 40.40625 75 40.09375 74.09375 39.59375 72.796875 
L 5.90625 -21.40625 
C 5.40625 -22.703125 5.40625 -23.09375 5.40625 -23.09375 
C 5.40625 -24.203125 6.203125 -25 7.296875 -25 
C 8.59375 -25 8.90625 -24 9.296875 -22.90625 
L 43 71.40625 
C 43.5 72.703125 43.5 73.09375 43.5 73.09375 
z
" id="LMRoman12-Regular-2f"/>
      <path d="M 40.59375 11.90625 
C 40.59375 12.796875 39.90625 12.796875 39.59375 12.796875 
C 38.703125 12.796875 38.59375 12.5 38.296875 11.296875 
C 36.09375 4.203125 30.703125 1.203125 25.296875 1.203125 
C 19.203125 1.203125 11.09375 6.5 11.09375 21.703125 
C 11.09375 38.296875 19.59375 42.40625 24.59375 42.40625 
C 28.40625 42.40625 33.90625 40.90625 36.203125 37 
C 35 37 31.296875 37 31.296875 32.90625 
C 31.296875 30.5 33 28.796875 35.40625 28.796875 
C 37.703125 28.796875 39.59375 30.203125 39.59375 33.09375 
C 39.59375 39.796875 32.59375 44.59375 24.5 44.59375 
C 12.796875 44.59375 3.5 34.203125 3.5 21.59375 
C 3.5 8.796875 13.09375 -1 24.40625 -1 
C 37.59375 -1 40.59375 11 40.59375 11.90625 
z
" id="LMRoman12-Regular-63"/>
      <path d="M 24.796875 0 
L 24.796875 2.90625 
C 18.40625 2.90625 17.203125 2.90625 17.203125 7.40625 
L 17.203125 69.40625 
L 3.296875 68.296875 
L 3.296875 65.40625 
C 10.09375 65.40625 10.90625 64.703125 10.90625 59.796875 
L 10.90625 7.40625 
C 10.90625 2.90625 9.796875 2.90625 3.296875 2.90625 
L 3.296875 0 
C 6.09375 0.203125 11 0.203125 14 0.203125 
C 17 0.203125 22 0.203125 24.796875 0 
z
" id="LMRoman12-Regular-6c"/>
     </defs>
     <g transform="translate(202.096719 334.96525)scale(0.1 -0.1)">
      <use xlink:href="#LMRoman12-Regular-54"/>
      <use x="70.699982" xlink:href="#LMRoman12-Regular-50"/>
      <use x="137.299973" xlink:href="#LMRoman12-Regular-20"/>
      <use x="169.899963" xlink:href="#LMRoman12-Regular-72"/>
      <use x="207.999954" xlink:href="#LMRoman12-Regular-61"/>
      <use x="256.999939" xlink:href="#LMRoman12-Regular-74"/>
      <use x="295.09993" xlink:href="#LMRoman12-Regular-65"/>
      <use x="338.599915" xlink:href="#LMRoman12-Regular-20"/>
      <use x="371.199905" xlink:href="#LMRoman12-Regular-2f"/>
      <use x="420.19989" xlink:href="#LMRoman12-Regular-20"/>
      <use x="452.799881" xlink:href="#LMRoman12-Regular-72"/>
      <use x="490.899872" xlink:href="#LMRoman12-Regular-65"/>
      <use x="534.399857" xlink:href="#LMRoman12-Regular-63"/>
      <use x="577.899841" xlink:href="#LMRoman12-Regular-61"/>
      <use x="626.899826" xlink:href="#LMRoman12-Regular-6c"/>
      <use x="654.099823" xlink:href="#LMRoman12-Regular-6c"/>
     </g>
    </g>
   </g>
   <g id="matplotlib.axis_2">
    <g id="ytick_1">
     <g id="line2d_13">
      <path clip-path="url(#p58a2687243)" d="M 57.6 307.584 
L 414.72 307.584 
" style="fill:none;stroke:#b0b0b0;stroke-linecap:square;stroke-width:0.8;"/>
     </g>
     <g id="line2d_14">
      <defs>
       <path d="M 0 0 
L -3.5 0 
" id="mf6687bd1b7" style="stroke:#000000;stroke-width:0.8;"/>
      </defs>
      <g>
       <use style="stroke:#000000;stroke-width:0.8;" x="57.6" xlink:href="#mf6687bd1b7" y="307.584"/>
      </g>
     </g>
     <g id="text_8">
      <!-- 0.0 -->
      <g transform="translate(38.079687 311.054312)scale(0.1 -0.1)">
       <use xlink:href="#LMRoman12-Regular-30"/>
       <use x="48.999985" xlink:href="#LMRoman12-Regular-2e"/>
       <use x="76.199982" xlink:href="#LMRoman12-Regular-30"/>
      </g>
     </g>
    </g>
    <g id="ytick_2">
     <g id="line2d_15">
      <path clip-path="url(#p58a2687243)" d="M 57.6 254.3616 
L 414.72 254.3616 
" style="fill:none;stroke:#b0b0b0;stroke-linecap:square;stroke-width:0.8;"/>
     </g>
     <g id="line2d_16">
      <g>
       <use style="stroke:#000000;stroke-width:0.8;" x="57.6" xlink:href="#mf6687bd1b7" y="254.3616"/>
      </g>
     </g>
     <g id="text_9">
      <!-- 0.2 -->
      <g transform="translate(38.079687 257.831912)scale(0.1 -0.1)">
       <use xlink:href="#LMRoman12-Regular-30"/>
       <use x="48.999985" xlink:href="#LMRoman12-Regular-2e"/>
       <use x="76.199982" xlink:href="#LMRoman12-Regular-32"/>
      </g>
     </g>
    </g>
    <g id="ytick_3">
     <g id="line2d_17">
      <path clip-path="url(#p58a2687243)" d="M 57.6 201.1392 
L 414.72 201.1392 
" style="fill:none;stroke:#b0b0b0;stroke-linecap:square;stroke-width:0.8;"/>
     </g>
     <g id="line2d_18">
      <g>
       <use style="stroke:#000000;stroke-width:0.8;" x="57.6" xlink:href="#mf6687bd1b7" y="201.1392"/>
      </g>
     </g>
     <g id="text_10">
      <!-- 0.4 -->
      <g transform="translate(38.079687 204.609512)scale(0.1 -0.1)">
       <use xlink:href="#LMRoman12-Regular-30"/>
       <use x="48.999985" xlink:href="#LMRoman12-Regular-2e"/>
       <use x="76.199982" xlink:href="#LMRoman12-Regular-34"/>
      </g>
     </g>
    </g>
    <g id="ytick_4">
     <g id="line2d_19">
      <path clip-path="url(#p58a2687243)" d="M 57.6 147.9168 
L 414.72 147.9168 
" style="fill:none;stroke:#b0b0b0;stroke-linecap:square;stroke-width:0.8;"/>
     </g>
     <g id="line2d_20">
      <g>
       <use style="stroke:#000000;stroke-width:0.8;" x="57.6" xlink:href="#mf6687bd1b7" y="147.9168"/>
      </g>
     </g>
     <g id="text_11">
      <!-- 0.6 -->
      <g transform="translate(38.079687 151.387112)scale(0.1 -0.1)">
       <use xlink:href="#LMRoman12-Regular-30"/>
       <use x="48.999985" xlink:href="#LMRoman12-Regular-2e"/>
       <use x="76.199982" xlink:href="#LMRoman12-Regular-36"/>
      </g>
     </g>
    </g>
    <g id="ytick_5">
     <g id="line2d_21">
      <path clip-path="url(#p58a2687243)" d="M 57.6 94.6944 
L 414.72 94.6944 
" style="fill:none;stroke:#b0b0b0;stroke-linecap:square;stroke-width:0.8;"/>
     </g>
     <g id="line2d_22">
      <g>
       <use style="stroke:#000000;stroke-width:0.8;" x="57.6" xlink:href="#mf6687bd1b7" y="94.6944"/>
      </g>
     </g>
     <g id="text_12">
      <!-- 0.8 -->
      <g transform="translate(38.079687 98.164713)scale(0.1 -0.1)">
       <use xlink:href="#LMRoman12-Regular-30"/>
       <use x="48.999985" xlink:href="#LMRoman12-Regular-2e"/>
       <use x="76.199982" xlink:href="#LMRoman12-Regular-38"/>
      </g>
     </g>
    </g>
    <g id="ytick_6">
     <g id="line2d_23">
      <path clip-path="url(#p58a2687243)" d="M 57.6 41.472 
L 414.72 41.472 
" style="fill:none;stroke:#b0b0b0;stroke-linecap:square;stroke-width:0.8;"/>
     </g>
     <g id="line2d_24">
      <g>
       <use style="stroke:#000000;stroke-width:0.8;" x="57.6" xlink:href="#mf6687bd1b7" y="41.472"/>
      </g>
     </g>
     <g id="text_13">
      <!-- 1.0 -->
      <g transform="translate(38.079687 44.942313)scale(0.1 -0.1)">
       <use xlink:href="#LMRoman12-Regular-31"/>
       <use x="48.999985" xlink:href="#LMRoman12-Regular-2e"/>
       <use x="76.199982" xlink:href="#LMRoman12-Regular-30"/>
      </g>
     </g>
    </g>
    <g id="text_14">
     <!-- precision -->
     <defs>
      <path d="M 50.796875 21.59375 
C 50.796875 34.296875 41.40625 44.09375 30.5 44.09375 
C 21.703125 44.09375 17 37.796875 16.703125 37.40625 
L 16.703125 44.09375 
L 2.796875 43 
L 2.796875 40.09375 
C 9.796875 40.09375 10.40625 39.40625 10.40625 35 
L 10.40625 -12 
C 10.40625 -16.5 9.296875 -16.5 2.796875 -16.5 
L 2.796875 -19.40625 
C 5.40625 -19.203125 10.796875 -19.203125 13.59375 -19.203125 
C 16.5 -19.203125 21.90625 -19.203125 24.5 -19.40625 
L 24.5 -16.5 
C 18.09375 -16.5 16.90625 -16.5 16.90625 -12 
L 16.90625 5.40625 
C 18.703125 2.90625 22.796875 -1 29.203125 -1 
C 40.703125 -1 50.796875 8.703125 50.796875 21.59375 
z
M 43.203125 21.59375 
C 43.203125 9.703125 36.40625 1 28.703125 1 
C 25.59375 1 22.703125 2.296875 20.703125 4.203125 
C 18.40625 6.5 16.90625 8.5 16.90625 11.296875 
L 16.90625 31.90625 
C 16.90625 33.796875 16.90625 33.90625 18 35.5 
C 21 40 25.90625 41.90625 29.703125 41.90625 
C 37.203125 41.90625 43.203125 32.796875 43.203125 21.59375 
z
" id="LMRoman12-Regular-70"/>
      <path d="M 24.09375 0 
L 24.09375 2.90625 
C 17.59375 2.90625 17.203125 3.40625 17.203125 7.296875 
L 17.203125 44.09375 
L 3.59375 43 
L 3.59375 40.09375 
C 10 40.09375 10.90625 39.5 10.90625 34.59375 
L 10.90625 7.40625 
C 10.90625 2.90625 9.796875 2.90625 3.296875 2.90625 
L 3.296875 0 
C 6.09375 0.203125 10.90625 0.203125 13.796875 0.203125 
C 14.90625 0.203125 20.703125 0.203125 24.09375 0 
z
M 18.5 60.40625 
C 18.5 63.40625 16.09375 65.296875 13.703125 65.296875 
C 10.90625 65.296875 8.796875 63.09375 8.796875 60.40625 
C 8.796875 57.796875 11 55.59375 13.59375 55.59375 
C 16.59375 55.59375 18.5 58 18.5 60.40625 
z
" id="LMRoman12-Regular-69"/>
      <path d="M 35.203125 12.703125 
C 35.203125 18.09375 31.90625 21.296875 31 22.203125 
C 27.40625 25.296875 24.703125 25.90625 18.09375 27.09375 
C 15.09375 27.703125 7.796875 29.09375 7.796875 35.09375 
C 7.796875 38.203125 9.90625 42.796875 18.90625 42.796875 
C 29.796875 42.796875 30.40625 33.5 30.59375 30.40625 
C 30.703125 29.59375 31.40625 29.59375 31.703125 29.59375 
C 32.796875 29.59375 32.796875 30.09375 32.796875 31.90625 
L 32.796875 42.296875 
C 32.796875 44.09375 32.796875 44.59375 31.796875 44.59375 
C 31 44.59375 29.09375 42.40625 28.40625 41.5 
C 25.296875 44 22.203125 44.59375 19 44.59375 
C 6.90625 44.59375 3.296875 38 3.296875 32.5 
C 3.296875 31.40625 3.296875 27.90625 7.09375 24.40625 
C 10.296875 21.59375 13.703125 20.90625 18.296875 20 
C 23.796875 18.90625 25.09375 18.59375 27.59375 16.59375 
C 29.40625 15.09375 30.703125 12.90625 30.703125 10.09375 
C 30.703125 5.796875 28.203125 1 19.40625 1 
C 12.796875 1 8 4.796875 5.796875 14.796875 
C 5.40625 16.59375 5.296875 16.796875 5.296875 16.796875 
C 5.09375 17.203125 4.703125 17.203125 4.40625 17.203125 
C 3.296875 17.203125 3.296875 16.703125 3.296875 14.90625 
L 3.296875 1.296875 
C 3.296875 -0.5 3.296875 -1 4.296875 -1 
C 4.796875 -1 4.90625 -0.90625 6.59375 1.203125 
C 7.09375 1.90625 7.09375 2.09375 8.59375 3.703125 
C 12.40625 -1 17.796875 -1 19.5 -1 
C 30 -1 35.203125 4.796875 35.203125 12.703125 
z
" id="LMRoman12-Regular-73"/>
      <path d="M 45.90625 21.40625 
C 45.90625 34.296875 36.09375 44.59375 24.5 44.59375 
C 12.5 44.59375 3 34 3 21.40625 
C 3 8.59375 13 -1 24.40625 -1 
C 36.203125 -1 45.90625 8.796875 45.90625 21.40625 
z
M 38.296875 22.296875 
C 38.296875 18.796875 38.296875 12.59375 35.703125 7.90625 
C 32.90625 3.09375 28.296875 1.203125 24.5 1.203125 
C 20.796875 1.203125 16.296875 2.796875 13.40625 7.703125 
C 10.703125 12.203125 10.59375 18.09375 10.59375 22.296875 
C 10.59375 26.09375 10.59375 32.203125 13.703125 36.703125 
C 16.5 41 20.90625 42.59375 24.40625 42.59375 
C 28.296875 42.59375 32.5 40.796875 35.203125 36.90625 
C 38.296875 32.296875 38.296875 26 38.296875 22.296875 
z
" id="LMRoman12-Regular-6f"/>
      <path d="M 52.09375 0 
L 52.09375 2.90625 
C 47.09375 2.90625 44.59375 2.90625 44.5 5.90625 
L 44.5 24.296875 
C 44.5 33.59375 44.5 36.40625 42.203125 39.59375 
C 39.296875 43.5 34.59375 44.09375 31.203125 44.09375 
C 21.5 44.09375 17.703125 35.796875 16.90625 33.796875 
L 16.796875 33.796875 
L 16.796875 44.09375 
L 3.203125 43 
L 3.203125 40.09375 
C 10 40.09375 10.796875 39.40625 10.796875 34.5 
L 10.796875 7.40625 
C 10.796875 2.90625 9.703125 2.90625 3.203125 2.90625 
L 3.203125 0 
C 5.796875 0.203125 11.203125 0.203125 14 0.203125 
C 16.90625 0.203125 22.296875 0.203125 24.90625 0 
L 24.90625 2.90625 
C 18.5 2.90625 17.296875 2.90625 17.296875 7.40625 
L 17.296875 26 
C 17.296875 36.5 24.203125 42.09375 30.40625 42.09375 
C 36.59375 42.09375 38 37 38 30.90625 
L 38 7.40625 
C 38 2.90625 36.90625 2.90625 30.40625 2.90625 
L 30.40625 0 
C 33 0.203125 38.40625 0.203125 41.203125 0.203125 
C 44.09375 0.203125 49.5 0.203125 52.09375 0 
z
" id="LMRoman12-Regular-6e"/>
     </defs>
     <g transform="translate(32.139062 193.323312)rotate(-90)scale(0.1 -0.1)">
      <use xlink:href="#LMRoman12-Regular-70"/>
      <use x="54.399994" xlink:href="#LMRoman12-Regular-72"/>
      <use x="92.499985" xlink:href="#LMRoman12-Regular-65"/>
      <use x="135.999969" xlink:href="#LMRoman12-Regular-63"/>
      <use x="179.499954" xlink:href="#LMRoman12-Regular-69"/>
      <use x="206.699951" xlink:href="#LMRoman12-Regular-73"/>
      <use x="245.299942" xlink:href="#LMRoman12-Regular-69"/>
      <use x="272.499939" xlink:href="#LMRoman12-Regular-6f"/>
      <use x="321.499924" xlink:href="#LMRoman12-Regular-6e"/>
     </g>
    </g>
   </g>
   <g id="line2d_25">
    <path clip-path="url(#p58a2687243)" d="M 90.860642 84.138348 
L 64.467257 125.728092 
L 60.719985 150.13786 
L 59.656681 150.58577 
L 58.967693 167.580456 
L 58.768195 168.785455 
" style="fill:none;stroke:#7d9aaa;stroke-dasharray:5.55,2.4;stroke-dashoffset:0;stroke-width:1.5;"/>
    <defs>
     <path d="M 0 -3 
L -0.673542 -0.927051 
L -2.85317 -0.927051 
L -1.089814 0.354102 
L -1.763356 2.427051 
L -0 1.145898 
L 1.763356 2.427051 
L 1.089814 0.354102 
L 2.85317 -0.927051 
L 0.673542 -0.927051 
z
" id="m0d5c415c9d" style="stroke:#7d9aaa;stroke-linejoin:bevel;"/>
    </defs>
    <g clip-path="url(#p58a2687243)">
     <use style="fill:#7d9aaa;stroke:#7d9aaa;stroke-linejoin:bevel;" x="90.860642" xlink:href="#m0d5c415c9d" y="84.138348"/>
     <use style="fill:#7d9aaa;stroke:#7d9aaa;stroke-linejoin:bevel;" x="64.467257" xlink:href="#m0d5c415c9d" y="125.728092"/>
     <use style="fill:#7d9aaa;stroke:#7d9aaa;stroke-linejoin:bevel;" x="60.719985" xlink:href="#m0d5c415c9d" y="150.13786"/>
     <use style="fill:#7d9aaa;stroke:#7d9aaa;stroke-linejoin:bevel;" x="59.656681" xlink:href="#m0d5c415c9d" y="150.58577"/>
     <use style="fill:#7d9aaa;stroke:#7d9aaa;stroke-linejoin:bevel;" x="58.967693" xlink:href="#m0d5c415c9d" y="167.580456"/>
     <use style="fill:#7d9aaa;stroke:#7d9aaa;stroke-linejoin:bevel;" x="58.768195" xlink:href="#m0d5c415c9d" y="168.785455"/>
    </g>
   </g>
   <g id="line2d_26">
    <path clip-path="url(#p58a2687243)" d="M 331.85016 47.495087 
L 143.328626 50.994907 
L 68.461331 85.501593 
L 61.328762 115.215158 
L 59.930219 133.504961 
L 58.973863 158.077847 
" style="fill:none;stroke:#7d9aaa;stroke-dasharray:5.55,2.4;stroke-dashoffset:0;stroke-width:1.5;"/>
    <defs>
     <path d="M -3 3 
L 3 -3 
M -3 -3 
L 3 3 
" id="m3ac4fa6f47" style="stroke:#7d9aaa;"/>
    </defs>
    <g clip-path="url(#p58a2687243)">
     <use style="fill:#7d9aaa;stroke:#7d9aaa;" x="331.85016" xlink:href="#m3ac4fa6f47" y="47.495087"/>
     <use style="fill:#7d9aaa;stroke:#7d9aaa;" x="143.328626" xlink:href="#m3ac4fa6f47" y="50.994907"/>
     <use style="fill:#7d9aaa;stroke:#7d9aaa;" x="68.461331" xlink:href="#m3ac4fa6f47" y="85.501593"/>
     <use style="fill:#7d9aaa;stroke:#7d9aaa;" x="61.328762" xlink:href="#m3ac4fa6f47" y="115.215158"/>
     <use style="fill:#7d9aaa;stroke:#7d9aaa;" x="59.930219" xlink:href="#m3ac4fa6f47" y="133.504961"/>
     <use style="fill:#7d9aaa;stroke:#7d9aaa;" x="58.973863" xlink:href="#m3ac4fa6f47" y="158.077847"/>
    </g>
   </g>
   <g id="line2d_27">
    <path clip-path="url(#p58a2687243)" d="M 405.183171 46.24714 
L 318.031322 44.683847 
L 146.187413 47.787033 
L 68.621752 72.021693 
L 61.250608 108.616519 
L 59.751288 129.94957 
" style="fill:none;stroke:#7d9aaa;stroke-dasharray:5.55,2.4;stroke-dashoffset:0;stroke-width:1.5;"/>
    <defs>
     <path d="M -3 0 
L 3 0 
M 0 3 
L 0 -3 
" id="m0da2e6110a" style="stroke:#7d9aaa;"/>
    </defs>
    <g clip-path="url(#p58a2687243)">
     <use style="fill:#7d9aaa;stroke:#7d9aaa;" x="405.183171" xlink:href="#m0da2e6110a" y="46.24714"/>
     <use style="fill:#7d9aaa;stroke:#7d9aaa;" x="318.031322" xlink:href="#m0da2e6110a" y="44.683847"/>
     <use style="fill:#7d9aaa;stroke:#7d9aaa;" x="146.187413" xlink:href="#m0da2e6110a" y="47.787033"/>
     <use style="fill:#7d9aaa;stroke:#7d9aaa;" x="68.621752" xlink:href="#m0da2e6110a" y="72.021693"/>
     <use style="fill:#7d9aaa;stroke:#7d9aaa;" x="61.250608" xlink:href="#m0da2e6110a" y="108.616519"/>
     <use style="fill:#7d9aaa;stroke:#7d9aaa;" x="59.751288" xlink:href="#m0da2e6110a" y="129.94957"/>
    </g>
   </g>
   <g id="line2d_28">
    <path clip-path="url(#p58a2687243)" d="M 412.544032 46.149854 
L 390.309255 43.992713 
L 265.271289 44.202999 
L 114.860051 47.953211 
L 65.106885 78.986965 
L 60.697361 109.870792 
" style="fill:none;stroke:#7d9aaa;stroke-dasharray:5.55,2.4;stroke-dashoffset:0;stroke-width:1.5;"/>
    <defs>
     <path d="M 0 -3 
L -3 3 
L 3 3 
z
" id="mf73d8cf35c" style="stroke:#7d9aaa;stroke-linejoin:miter;"/>
    </defs>
    <g clip-path="url(#p58a2687243)">
     <use style="fill:#7d9aaa;stroke:#7d9aaa;stroke-linejoin:miter;" x="412.544032" xlink:href="#mf73d8cf35c" y="46.149854"/>
     <use style="fill:#7d9aaa;stroke:#7d9aaa;stroke-linejoin:miter;" x="390.309255" xlink:href="#mf73d8cf35c" y="43.992713"/>
     <use style="fill:#7d9aaa;stroke:#7d9aaa;stroke-linejoin:miter;" x="265.271289" xlink:href="#mf73d8cf35c" y="44.202999"/>
     <use style="fill:#7d9aaa;stroke:#7d9aaa;stroke-linejoin:miter;" x="114.860051" xlink:href="#mf73d8cf35c" y="47.953211"/>
     <use style="fill:#7d9aaa;stroke:#7d9aaa;stroke-linejoin:miter;" x="65.106885" xlink:href="#mf73d8cf35c" y="78.986965"/>
     <use style="fill:#7d9aaa;stroke:#7d9aaa;stroke-linejoin:miter;" x="60.697361" xlink:href="#mf73d8cf35c" y="109.870792"/>
    </g>
   </g>
   <g id="line2d_29">
    <path clip-path="url(#p58a2687243)" d="M 413.704 46.134883 
L 408.233229 43.865016 
L 344.583071 43.45387 
L 190.724836 44.298954 
L 80.250226 55.199272 
L 62.155548 92.146105 
" style="fill:none;stroke:#7d9aaa;stroke-dasharray:5.55,2.4;stroke-dashoffset:0;stroke-width:1.5;"/>
    <defs>
     <path d="M 3 0 
L -3 -3 
L -3 3 
z
" id="mdf14732e79" style="stroke:#7d9aaa;stroke-linejoin:miter;"/>
    </defs>
    <g clip-path="url(#p58a2687243)">
     <use style="fill:#7d9aaa;stroke:#7d9aaa;stroke-linejoin:miter;" x="413.704" xlink:href="#mdf14732e79" y="46.134883"/>
     <use style="fill:#7d9aaa;stroke:#7d9aaa;stroke-linejoin:miter;" x="408.233229" xlink:href="#mdf14732e79" y="43.865016"/>
     <use style="fill:#7d9aaa;stroke:#7d9aaa;stroke-linejoin:miter;" x="344.583071" xlink:href="#mdf14732e79" y="43.45387"/>
     <use style="fill:#7d9aaa;stroke:#7d9aaa;stroke-linejoin:miter;" x="190.724836" xlink:href="#mdf14732e79" y="44.298954"/>
     <use style="fill:#7d9aaa;stroke:#7d9aaa;stroke-linejoin:miter;" x="80.250226" xlink:href="#mdf14732e79" y="55.199272"/>
     <use style="fill:#7d9aaa;stroke:#7d9aaa;stroke-linejoin:miter;" x="62.155548" xlink:href="#mdf14732e79" y="92.146105"/>
    </g>
   </g>
   <g id="line2d_30">
    <path clip-path="url(#p58a2687243)" d="M 86.334219 90.076789 
L 64.432372 128.159591 
L 60.892784 150.661233 
L 59.704009 150.677616 
L 58.980049 161.581423 
L 58.681827 160.859774 
" style="fill:none;stroke:#a9a280;stroke-dasharray:9.6,2.4,1.5,2.4;stroke-dashoffset:0;stroke-width:1.5;"/>
    <defs>
     <path d="M 0 -3 
L -0.673542 -0.927051 
L -2.85317 -0.927051 
L -1.089814 0.354102 
L -1.763356 2.427051 
L -0 1.145898 
L 1.763356 2.427051 
L 1.089814 0.354102 
L 2.85317 -0.927051 
L 0.673542 -0.927051 
z
" id="mc61e4c9e41" style="stroke:#a9a280;stroke-linejoin:bevel;"/>
    </defs>
    <g clip-path="url(#p58a2687243)">
     <use style="fill:#a9a280;stroke:#a9a280;stroke-linejoin:bevel;" x="86.334219" xlink:href="#mc61e4c9e41" y="90.076789"/>
     <use style="fill:#a9a280;stroke:#a9a280;stroke-linejoin:bevel;" x="64.432372" xlink:href="#mc61e4c9e41" y="128.159591"/>
     <use style="fill:#a9a280;stroke:#a9a280;stroke-linejoin:bevel;" x="60.892784" xlink:href="#mc61e4c9e41" y="150.661233"/>
     <use style="fill:#a9a280;stroke:#a9a280;stroke-linejoin:bevel;" x="59.704009" xlink:href="#mc61e4c9e41" y="150.677616"/>
     <use style="fill:#a9a280;stroke:#a9a280;stroke-linejoin:bevel;" x="58.980049" xlink:href="#mc61e4c9e41" y="161.581423"/>
     <use style="fill:#a9a280;stroke:#a9a280;stroke-linejoin:bevel;" x="58.681827" xlink:href="#mc61e4c9e41" y="160.859774"/>
    </g>
   </g>
   <g id="line2d_31">
    <path clip-path="url(#p58a2687243)" d="M 335.36 47.484764 
L 140.577743 51.653401 
L 67.94111 89.737837 
L 61.505682 114.038735 
L 59.998117 126.974808 
L 59.012956 143.620822 
" style="fill:none;stroke:#a9a280;stroke-dasharray:9.6,2.4,1.5,2.4;stroke-dashoffset:0;stroke-width:1.5;"/>
    <defs>
     <path d="M -3 3 
L 3 -3 
M -3 -3 
L 3 3 
" id="md6927b8a9d" style="stroke:#a9a280;"/>
    </defs>
    <g clip-path="url(#p58a2687243)">
     <use style="fill:#a9a280;stroke:#a9a280;" x="335.36" xlink:href="#md6927b8a9d" y="47.484764"/>
     <use style="fill:#a9a280;stroke:#a9a280;" x="140.577743" xlink:href="#md6927b8a9d" y="51.653401"/>
     <use style="fill:#a9a280;stroke:#a9a280;" x="67.94111" xlink:href="#md6927b8a9d" y="89.737837"/>
     <use style="fill:#a9a280;stroke:#a9a280;" x="61.505682" xlink:href="#md6927b8a9d" y="114.038735"/>
     <use style="fill:#a9a280;stroke:#a9a280;" x="59.998117" xlink:href="#md6927b8a9d" y="126.974808"/>
     <use style="fill:#a9a280;stroke:#a9a280;" x="59.012956" xlink:href="#md6927b8a9d" y="143.620822"/>
    </g>
   </g>
   <g id="line2d_32">
    <path clip-path="url(#p58a2687243)" d="M 406.155882 46.285591 
L 320.533217 44.771495 
L 144.738456 48.289735 
L 67.957564 74.435073 
L 61.450151 102.071762 
L 59.775993 118.117987 
" style="fill:none;stroke:#a9a280;stroke-dasharray:9.6,2.4,1.5,2.4;stroke-dashoffset:0;stroke-width:1.5;"/>
    <defs>
     <path d="M -3 0 
L 3 0 
M 0 3 
L 0 -3 
" id="m7809cc4634" style="stroke:#a9a280;"/>
    </defs>
    <g clip-path="url(#p58a2687243)">
     <use style="fill:#a9a280;stroke:#a9a280;" x="406.155882" xlink:href="#m7809cc4634" y="46.285591"/>
     <use style="fill:#a9a280;stroke:#a9a280;" x="320.533217" xlink:href="#m7809cc4634" y="44.771495"/>
     <use style="fill:#a9a280;stroke:#a9a280;" x="144.738456" xlink:href="#m7809cc4634" y="48.289735"/>
     <use style="fill:#a9a280;stroke:#a9a280;" x="67.957564" xlink:href="#m7809cc4634" y="74.435073"/>
     <use style="fill:#a9a280;stroke:#a9a280;" x="61.450151" xlink:href="#m7809cc4634" y="102.071762"/>
     <use style="fill:#a9a280;stroke:#a9a280;" x="59.775993" xlink:href="#m7809cc4634" y="118.117987"/>
    </g>
   </g>
   <g id="line2d_33">
    <path clip-path="url(#p58a2687243)" d="M 412.739394 46.197942 
L 392.009869 44.073156 
L 266.546781 44.358354 
L 112.423515 48.395113 
L 64.814919 77.652745 
L 60.843423 98.277953 
" style="fill:none;stroke:#a9a280;stroke-dasharray:9.6,2.4,1.5,2.4;stroke-dashoffset:0;stroke-width:1.5;"/>
    <defs>
     <path d="M 0 -3 
L -3 3 
L 3 3 
z
" id="m0c29a0772b" style="stroke:#a9a280;stroke-linejoin:miter;"/>
    </defs>
    <g clip-path="url(#p58a2687243)">
     <use style="fill:#a9a280;stroke:#a9a280;stroke-linejoin:miter;" x="412.739394" xlink:href="#m0c29a0772b" y="46.197942"/>
     <use style="fill:#a9a280;stroke:#a9a280;stroke-linejoin:miter;" x="392.009869" xlink:href="#m0c29a0772b" y="44.073156"/>
     <use style="fill:#a9a280;stroke:#a9a280;stroke-linejoin:miter;" x="266.546781" xlink:href="#m0c29a0772b" y="44.358354"/>
     <use style="fill:#a9a280;stroke:#a9a280;stroke-linejoin:miter;" x="112.423515" xlink:href="#m0c29a0772b" y="48.395113"/>
     <use style="fill:#a9a280;stroke:#a9a280;stroke-linejoin:miter;" x="64.814919" xlink:href="#m0c29a0772b" y="77.652745"/>
     <use style="fill:#a9a280;stroke:#a9a280;stroke-linejoin:miter;" x="60.843423" xlink:href="#m0c29a0772b" y="98.277953"/>
    </g>
   </g>
   <g id="line2d_34">
    <path clip-path="url(#p58a2687243)" d="M 413.786256 46.184298 
L 408.887186 43.949349 
L 346.525849 43.565653 
L 190.347936 44.375515 
L 78.152648 55.402187 
L 62.254322 83.796763 
" style="fill:none;stroke:#a9a280;stroke-dasharray:9.6,2.4,1.5,2.4;stroke-dashoffset:0;stroke-width:1.5;"/>
    <defs>
     <path d="M 3 0 
L -3 -3 
L -3 3 
z
" id="m07eb41fef4" style="stroke:#a9a280;stroke-linejoin:miter;"/>
    </defs>
    <g clip-path="url(#p58a2687243)">
     <use style="fill:#a9a280;stroke:#a9a280;stroke-linejoin:miter;" x="413.786256" xlink:href="#m07eb41fef4" y="46.184298"/>
     <use style="fill:#a9a280;stroke:#a9a280;stroke-linejoin:miter;" x="408.887186" xlink:href="#m07eb41fef4" y="43.949349"/>
     <use style="fill:#a9a280;stroke:#a9a280;stroke-linejoin:miter;" x="346.525849" xlink:href="#m07eb41fef4" y="43.565653"/>
     <use style="fill:#a9a280;stroke:#a9a280;stroke-linejoin:miter;" x="190.347936" xlink:href="#m07eb41fef4" y="44.375515"/>
     <use style="fill:#a9a280;stroke:#a9a280;stroke-linejoin:miter;" x="78.152648" xlink:href="#m07eb41fef4" y="55.402187"/>
     <use style="fill:#a9a280;stroke:#a9a280;stroke-linejoin:miter;" x="62.254322" xlink:href="#m07eb41fef4" y="83.796763"/>
    </g>
   </g>
   <g id="line2d_35">
    <path clip-path="url(#p58a2687243)" d="M 84.876329 93.161657 
L 64.617557 129.654519 
L 61.030623 149.677626 
L 59.761621 141.006447 
L 58.780562 161.133101 
L 58.459712 159.072897 
" style="fill:none;stroke:#56aa1c;stroke-dasharray:1.5,2.475;stroke-dashoffset:0;stroke-width:1.5;"/>
    <defs>
     <path d="M 0 -3 
L -0.673542 -0.927051 
L -2.85317 -0.927051 
L -1.089814 0.354102 
L -1.763356 2.427051 
L -0 1.145898 
L 1.763356 2.427051 
L 1.089814 0.354102 
L 2.85317 -0.927051 
L 0.673542 -0.927051 
z
" id="m7e437f72d7" style="stroke:#56aa1c;stroke-linejoin:bevel;"/>
    </defs>
    <g clip-path="url(#p58a2687243)">
     <use style="fill:#56aa1c;stroke:#56aa1c;stroke-linejoin:bevel;" x="84.876329" xlink:href="#m7e437f72d7" y="93.161657"/>
     <use style="fill:#56aa1c;stroke:#56aa1c;stroke-linejoin:bevel;" x="64.617557" xlink:href="#m7e437f72d7" y="129.654519"/>
     <use style="fill:#56aa1c;stroke:#56aa1c;stroke-linejoin:bevel;" x="61.030623" xlink:href="#m7e437f72d7" y="149.677626"/>
     <use style="fill:#56aa1c;stroke:#56aa1c;stroke-linejoin:bevel;" x="59.761621" xlink:href="#m7e437f72d7" y="141.006447"/>
     <use style="fill:#56aa1c;stroke:#56aa1c;stroke-linejoin:bevel;" x="58.780562" xlink:href="#m7e437f72d7" y="161.133101"/>
     <use style="fill:#56aa1c;stroke:#56aa1c;stroke-linejoin:bevel;" x="58.459712" xlink:href="#m7e437f72d7" y="159.072897"/>
    </g>
   </g>
   <g id="line2d_36">
    <path clip-path="url(#p58a2687243)" d="M 336.650711 47.598129 
L 139.254166 52.343555 
L 67.961797 90.681839 
L 61.657925 105.723571 
L 60.053677 116.566181 
L 58.858718 134.879287 
" style="fill:none;stroke:#56aa1c;stroke-dasharray:1.5,2.475;stroke-dashoffset:0;stroke-width:1.5;"/>
    <defs>
     <path d="M -3 3 
L 3 -3 
M -3 -3 
L 3 3 
" id="me36f3a1ef2" style="stroke:#56aa1c;"/>
    </defs>
    <g clip-path="url(#p58a2687243)">
     <use style="fill:#56aa1c;stroke:#56aa1c;" x="336.650711" xlink:href="#me36f3a1ef2" y="47.598129"/>
     <use style="fill:#56aa1c;stroke:#56aa1c;" x="139.254166" xlink:href="#me36f3a1ef2" y="52.343555"/>
     <use style="fill:#56aa1c;stroke:#56aa1c;" x="67.961797" xlink:href="#me36f3a1ef2" y="90.681839"/>
     <use style="fill:#56aa1c;stroke:#56aa1c;" x="61.657925" xlink:href="#me36f3a1ef2" y="105.723571"/>
     <use style="fill:#56aa1c;stroke:#56aa1c;" x="60.053677" xlink:href="#me36f3a1ef2" y="116.566181"/>
     <use style="fill:#56aa1c;stroke:#56aa1c;" x="58.858718" xlink:href="#me36f3a1ef2" y="134.879287"/>
    </g>
   </g>
   <g id="line2d_37">
    <path clip-path="url(#p58a2687243)" d="M 406.575356 46.393329 
L 321.414469 44.934568 
L 144.07308 48.514999 
L 67.922719 71.06618 
L 61.587996 93.301953 
L 59.845947 103.371559 
" style="fill:none;stroke:#56aa1c;stroke-dasharray:1.5,2.475;stroke-dashoffset:0;stroke-width:1.5;"/>
    <defs>
     <path d="M -3 0 
L 3 0 
M 0 3 
L 0 -3 
" id="mf2cac80b49" style="stroke:#56aa1c;"/>
    </defs>
    <g clip-path="url(#p58a2687243)">
     <use style="fill:#56aa1c;stroke:#56aa1c;" x="406.575356" xlink:href="#mf2cac80b49" y="46.393329"/>
     <use style="fill:#56aa1c;stroke:#56aa1c;" x="321.414469" xlink:href="#mf2cac80b49" y="44.934568"/>
     <use style="fill:#56aa1c;stroke:#56aa1c;" x="144.07308" xlink:href="#mf2cac80b49" y="48.514999"/>
     <use style="fill:#56aa1c;stroke:#56aa1c;" x="67.922719" xlink:href="#mf2cac80b49" y="71.06618"/>
     <use style="fill:#56aa1c;stroke:#56aa1c;" x="61.587996" xlink:href="#mf2cac80b49" y="93.301953"/>
     <use style="fill:#56aa1c;stroke:#56aa1c;" x="59.845947" xlink:href="#mf2cac80b49" y="103.371559"/>
    </g>
   </g>
   <g id="line2d_38">
    <path clip-path="url(#p58a2687243)" d="M 412.825753 46.30831 
L 392.678044 44.205723 
L 267.024292 44.426015 
L 111.753653 47.671211 
L 64.905499 72.510679 
L 60.917503 86.782222 
" style="fill:none;stroke:#56aa1c;stroke-dasharray:1.5,2.475;stroke-dashoffset:0;stroke-width:1.5;"/>
    <defs>
     <path d="M 0 -3 
L -3 3 
L 3 3 
z
" id="mab5a3a5fcc" style="stroke:#56aa1c;stroke-linejoin:miter;"/>
    </defs>
    <g clip-path="url(#p58a2687243)">
     <use style="fill:#56aa1c;stroke:#56aa1c;stroke-linejoin:miter;" x="412.825753" xlink:href="#mab5a3a5fcc" y="46.30831"/>
     <use style="fill:#56aa1c;stroke:#56aa1c;stroke-linejoin:miter;" x="392.678044" xlink:href="#mab5a3a5fcc" y="44.205723"/>
     <use style="fill:#56aa1c;stroke:#56aa1c;stroke-linejoin:miter;" x="267.024292" xlink:href="#mab5a3a5fcc" y="44.426015"/>
     <use style="fill:#56aa1c;stroke:#56aa1c;stroke-linejoin:miter;" x="111.753653" xlink:href="#mab5a3a5fcc" y="47.671211"/>
     <use style="fill:#56aa1c;stroke:#56aa1c;stroke-linejoin:miter;" x="64.905499" xlink:href="#mab5a3a5fcc" y="72.510679"/>
     <use style="fill:#56aa1c;stroke:#56aa1c;stroke-linejoin:miter;" x="60.917503" xlink:href="#mab5a3a5fcc" y="86.782222"/>
    </g>
   </g>
   <g id="line2d_39">
    <path clip-path="url(#p58a2687243)" d="M 413.819153 46.295067 
L 409.271727 44.077995 
L 347.401229 43.613305 
L 190.306273 44.037092 
L 77.43303 53.814418 
L 62.388063 74.59839 
" style="fill:none;stroke:#56aa1c;stroke-dasharray:1.5,2.475;stroke-dashoffset:0;stroke-width:1.5;"/>
    <defs>
     <path d="M 3 0 
L -3 -3 
L -3 3 
z
" id="ma1774bde0f" style="stroke:#56aa1c;stroke-linejoin:miter;"/>
    </defs>
    <g clip-path="url(#p58a2687243)">
     <use style="fill:#56aa1c;stroke:#56aa1c;stroke-linejoin:miter;" x="413.819153" xlink:href="#ma1774bde0f" y="46.295067"/>
     <use style="fill:#56aa1c;stroke:#56aa1c;stroke-linejoin:miter;" x="409.271727" xlink:href="#ma1774bde0f" y="44.077995"/>
     <use style="fill:#56aa1c;stroke:#56aa1c;stroke-linejoin:miter;" x="347.401229" xlink:href="#ma1774bde0f" y="43.613305"/>
     <use style="fill:#56aa1c;stroke:#56aa1c;stroke-linejoin:miter;" x="190.306273" xlink:href="#ma1774bde0f" y="44.037092"/>
     <use style="fill:#56aa1c;stroke:#56aa1c;stroke-linejoin:miter;" x="77.43303" xlink:href="#ma1774bde0f" y="53.814418"/>
     <use style="fill:#56aa1c;stroke:#56aa1c;stroke-linejoin:miter;" x="62.388063" xlink:href="#ma1774bde0f" y="74.59839"/>
    </g>
   </g>
   <g id="patch_3">
    <path d="M 57.6 307.584 
L 57.6 41.472 
" style="fill:none;stroke:#000000;stroke-linecap:square;stroke-linejoin:miter;stroke-width:0.8;"/>
   </g>
   <g id="patch_4">
    <path d="M 414.72 307.584 
L 414.72 41.472 
" style="fill:none;stroke:#000000;stroke-linecap:square;stroke-linejoin:miter;stroke-width:0.8;"/>
   </g>
   <g id="patch_5">
    <path d="M 57.6 307.584 
L 414.72 307.584 
" style="fill:none;stroke:#000000;stroke-linecap:square;stroke-linejoin:miter;stroke-width:0.8;"/>
   </g>
   <g id="patch_6">
    <path d="M 57.6 41.472 
L 414.72 41.472 
" style="fill:none;stroke:#000000;stroke-linecap:square;stroke-linejoin:miter;stroke-width:0.8;"/>
   </g>
   <g id="patch_7">
    <path d="M 86.706012 90.303074 
Q 88.535751 88.190125 90.365491 86.077176 
Q 90.958006 88.808737 91.550522 91.540298 
z
" style="stroke:#000000;stroke-linecap:round;"/>
   </g>
   <g id="text_15">
    <!--   -->
    <g transform="translate(90.860642 84.138348)scale(0.1 -0.1)">
     <use xlink:href="#LMRoman12-Regular-20"/>
    </g>
   </g>
   <g id="patch_8">
    <path d="M 327.695529 53.659813 
Q 329.525269 51.546864 331.355009 49.433915 
Q 331.947524 52.165476 332.540039 54.897037 
z
" style="stroke:#000000;stroke-linecap:round;"/>
   </g>
   <g id="text_16">
    <!--   -->
    <g transform="translate(331.85016 47.495087)scale(0.1 -0.1)">
     <use xlink:href="#LMRoman12-Regular-20"/>
    </g>
   </g>
   <g id="patch_9">
    <path d="M 401.028541 52.411866 
Q 402.85828 50.298917 404.68802 48.185968 
Q 405.280535 50.917529 405.87305 53.64909 
z
" style="stroke:#000000;stroke-linecap:round;"/>
   </g>
   <g id="text_17">
    <!--   -->
    <g transform="translate(405.183171 46.24714)scale(0.1 -0.1)">
     <use xlink:href="#LMRoman12-Regular-20"/>
    </g>
   </g>
   <g id="patch_10">
    <path d="M 408.389401 52.31458 
Q 410.219141 50.201631 412.04888 48.088682 
Q 412.641396 50.820243 413.233911 53.551804 
z
" style="stroke:#000000;stroke-linecap:round;"/>
   </g>
   <g id="text_18">
    <!--   -->
    <g transform="translate(412.544032 46.149854)scale(0.1 -0.1)">
     <use xlink:href="#LMRoman12-Regular-20"/>
    </g>
   </g>
   <g id="patch_11">
    <path d="M 409.549369 52.299609 
Q 411.379109 50.18666 413.208848 48.073711 
Q 413.801364 50.805272 414.393879 53.536833 
z
" style="stroke:#000000;stroke-linecap:round;"/>
   </g>
   <g id="text_19">
    <!--   -->
    <g transform="translate(413.704 46.134883)scale(0.1 -0.1)">
     <use xlink:href="#LMRoman12-Regular-20"/>
    </g>
   </g>
   <g id="patch_12">
    <path d="M 82.179588 96.241515 
Q 84.009328 94.128566 85.839067 92.015618 
Q 86.431583 94.747179 87.024098 97.47874 
z
" style="stroke:#000000;stroke-linecap:round;"/>
   </g>
   <g id="text_20">
    <!--   -->
    <g transform="translate(86.334219 90.076789)scale(0.1 -0.1)">
     <use xlink:href="#LMRoman12-Regular-20"/>
    </g>
   </g>
   <g id="patch_13">
    <path d="M 331.20537 53.64949 
Q 333.035109 51.536541 334.864849 49.423592 
Q 335.457364 52.155153 336.049879 54.886714 
z
" style="stroke:#000000;stroke-linecap:round;"/>
   </g>
   <g id="text_21">
    <!--   -->
    <g transform="translate(335.36 47.484764)scale(0.1 -0.1)">
     <use xlink:href="#LMRoman12-Regular-20"/>
    </g>
   </g>
   <g id="patch_14">
    <path d="M 402.001252 52.450317 
Q 403.830992 50.337368 405.660731 48.224419 
Q 406.253247 50.95598 406.845762 53.687541 
z
" style="stroke:#000000;stroke-linecap:round;"/>
   </g>
   <g id="text_22">
    <!--   -->
    <g transform="translate(406.155882 46.285591)scale(0.1 -0.1)">
     <use xlink:href="#LMRoman12-Regular-20"/>
    </g>
   </g>
   <g id="patch_15">
    <path d="M 408.584763 52.362668 
Q 410.414503 50.249719 412.244242 48.13677 
Q 412.836758 50.868331 413.429273 53.599892 
z
" style="stroke:#000000;stroke-linecap:round;"/>
   </g>
   <g id="text_23">
    <!--   -->
    <g transform="translate(412.739394 46.197942)scale(0.1 -0.1)">
     <use xlink:href="#LMRoman12-Regular-20"/>
    </g>
   </g>
   <g id="patch_16">
    <path d="M 409.631626 52.349024 
Q 411.461365 50.236075 413.291105 48.123126 
Q 413.88362 50.854687 414.476136 53.586248 
z
" style="stroke:#000000;stroke-linecap:round;"/>
   </g>
   <g id="text_24">
    <!--   -->
    <g transform="translate(413.786256 46.184298)scale(0.1 -0.1)">
     <use xlink:href="#LMRoman12-Regular-20"/>
    </g>
   </g>
   <g id="patch_17">
    <path d="M 80.721699 99.326383 
Q 82.551438 97.213434 84.381178 95.100485 
Q 84.973693 97.832046 85.566209 100.563607 
z
" style="stroke:#000000;stroke-linecap:round;"/>
   </g>
   <g id="text_25">
    <!--   -->
    <g transform="translate(84.876329 93.161657)scale(0.1 -0.1)">
     <use xlink:href="#LMRoman12-Regular-20"/>
    </g>
   </g>
   <g id="patch_18">
    <path d="M 332.496081 53.762855 
Q 334.32582 51.649906 336.15556 49.536957 
Q 336.748075 52.268518 337.340591 55.000079 
z
" style="stroke:#000000;stroke-linecap:round;"/>
   </g>
   <g id="text_26">
    <!--   -->
    <g transform="translate(336.650711 47.598129)scale(0.1 -0.1)">
     <use xlink:href="#LMRoman12-Regular-20"/>
    </g>
   </g>
   <g id="patch_19">
    <path d="M 402.420726 52.558055 
Q 404.250465 50.445107 406.080205 48.332158 
Q 406.67272 51.063719 407.265236 53.79528 
z
" style="stroke:#000000;stroke-linecap:round;"/>
   </g>
   <g id="text_27">
    <!--   -->
    <g transform="translate(406.575356 46.393329)scale(0.1 -0.1)">
     <use xlink:href="#LMRoman12-Regular-20"/>
    </g>
   </g>
   <g id="patch_20">
    <path d="M 408.671123 52.473036 
Q 410.500862 50.360087 412.330602 48.247138 
Q 412.923117 50.978699 413.515633 53.71026 
z
" style="stroke:#000000;stroke-linecap:round;"/>
   </g>
   <g id="text_28">
    <!--   -->
    <g transform="translate(412.825753 46.30831)scale(0.1 -0.1)">
     <use xlink:href="#LMRoman12-Regular-20"/>
    </g>
   </g>
   <g id="patch_21">
    <path d="M 409.664523 52.459793 
Q 411.494262 50.346844 413.324002 48.233895 
Q 413.916517 50.965456 414.509032 53.697017 
z
" style="stroke:#000000;stroke-linecap:round;"/>
   </g>
   <g id="text_29">
    <!--   -->
    <g transform="translate(413.819153 46.295067)scale(0.1 -0.1)">
     <use xlink:href="#LMRoman12-Regular-20"/>
    </g>
   </g>
   <g id="legend_1">
    <g id="patch_22">
     <path d="M 331.090313 302.584 
L 407.72 302.584 
Q 409.72 302.584 409.72 300.584 
L 409.72 92.474625 
Q 409.72 90.474625 407.72 90.474625 
L 331.090313 90.474625 
Q 329.090313 90.474625 329.090313 92.474625 
L 329.090313 300.584 
Q 329.090313 302.584 331.090313 302.584 
z
" style="fill:#ffffff;opacity:0.8;stroke:#cccccc;stroke-linejoin:miter;"/>
    </g>
    <g id="line2d_40">
     <path d="M 333.090313 97.974625 
L 353.090313 97.974625 
" style="fill:none;stroke:#7d9aaa;stroke-dasharray:5.55,2.4;stroke-dashoffset:0;stroke-width:1.5;"/>
    </g>
    <g id="line2d_41">
     <g>
      <use style="fill:#7d9aaa;stroke:#7d9aaa;stroke-linejoin:bevel;" x="343.090313" xlink:href="#m0d5c415c9d" y="97.974625"/>
     </g>
    </g>
    <g id="text_30">
     <!-- r=1 a=0.5 -->
     <defs>
      <path d="M 70.703125 34.203125 
C 70.703125 36.09375 69 36.09375 67.5 36.09375 
L 8.59375 36.09375 
C 7.203125 36.09375 5.40625 36.09375 5.40625 34.296875 
C 5.40625 32.40625 7.09375 32.40625 8.59375 32.40625 
L 67.5 32.40625 
C 68.90625 32.40625 70.703125 32.40625 70.703125 34.203125 
z
M 70.703125 15.59375 
C 70.703125 17.5 69 17.5 67.5 17.5 
L 8.59375 17.5 
C 7.203125 17.5 5.40625 17.5 5.40625 15.703125 
C 5.40625 13.796875 7.09375 13.796875 8.59375 13.796875 
L 67.5 13.796875 
C 68.90625 13.796875 70.703125 13.796875 70.703125 15.59375 
z
" id="LMRoman12-Regular-3d"/>
      <path d="M 44 20.09375 
C 44 32 36 41.90625 25.5 41.90625 
C 19.796875 41.90625 15.40625 39.40625 12.796875 36.59375 
L 12.796875 57.296875 
C 17.09375 55.90625 20.59375 55.796875 21.703125 55.796875 
C 33 55.796875 40.203125 64.09375 40.203125 65.5 
C 40.203125 65.90625 40 66.40625 39.40625 66.40625 
C 39.40625 66.40625 39 66.40625 38.09375 66 
C 32.5 63.59375 27.703125 63.296875 25.09375 63.296875 
C 18.5 63.296875 13.796875 65.296875 11.90625 66.09375 
C 11.203125 66.40625 10.90625 66.40625 10.90625 66.40625 
C 10.09375 66.40625 10.09375 65.796875 10.09375 64.203125 
L 10.09375 34.5 
C 10.09375 32.703125 10.09375 32.09375 11.296875 32.09375 
C 11.796875 32.09375 11.90625 32.203125 12.90625 33.40625 
C 15.703125 37.5 20.40625 39.90625 25.40625 39.90625 
C 30.703125 39.90625 33.296875 35 34.09375 33.296875 
C 35.796875 29.40625 35.90625 24.5 35.90625 20.703125 
C 35.90625 16.90625 35.90625 11.203125 33.09375 6.703125 
C 30.90625 3.09375 27 0.59375 22.59375 0.59375 
C 16 0.59375 9.5 5.09375 7.703125 12.40625 
C 8.203125 12.203125 8.796875 12.09375 9.296875 12.09375 
C 11 12.09375 13.703125 13.09375 13.703125 16.5 
C 13.703125 19.296875 11.796875 20.90625 9.296875 20.90625 
C 7.5 20.90625 4.90625 20 4.90625 16.09375 
C 4.90625 7.59375 11.703125 -2.09375 22.796875 -2.09375 
C 34.09375 -2.09375 44 7.40625 44 20.09375 
z
" id="LMRoman12-Regular-35"/>
     </defs>
     <g transform="translate(361.090313 101.474625)scale(0.1 -0.1)">
      <use xlink:href="#LMRoman12-Regular-72"/>
      <use x="38.099991" xlink:href="#LMRoman12-Regular-3d"/>
      <use x="114.299973" xlink:href="#LMRoman12-Regular-31"/>
      <use x="163.299957" xlink:href="#LMRoman12-Regular-20"/>
      <use x="195.899948" xlink:href="#LMRoman12-Regular-61"/>
      <use x="244.899933" xlink:href="#LMRoman12-Regular-3d"/>
      <use x="321.099915" xlink:href="#LMRoman12-Regular-30"/>
      <use x="370.099899" xlink:href="#LMRoman12-Regular-2e"/>
      <use x="397.299896" xlink:href="#LMRoman12-Regular-35"/>
     </g>
    </g>
    <g id="line2d_42">
     <path d="M 333.090313 111.91525 
L 353.090313 111.91525 
" style="fill:none;stroke:#7d9aaa;stroke-dasharray:5.55,2.4;stroke-dashoffset:0;stroke-width:1.5;"/>
    </g>
    <g id="line2d_43">
     <g>
      <use style="fill:#7d9aaa;stroke:#7d9aaa;" x="343.090313" xlink:href="#m3ac4fa6f47" y="111.91525"/>
     </g>
    </g>
    <g id="text_31">
     <!-- r=1 a=1   -->
     <g transform="translate(361.090313 115.41525)scale(0.1 -0.1)">
      <use xlink:href="#LMRoman12-Regular-72"/>
      <use x="38.099991" xlink:href="#LMRoman12-Regular-3d"/>
      <use x="114.299973" xlink:href="#LMRoman12-Regular-31"/>
      <use x="163.299957" xlink:href="#LMRoman12-Regular-20"/>
      <use x="195.899948" xlink:href="#LMRoman12-Regular-61"/>
      <use x="244.899933" xlink:href="#LMRoman12-Regular-3d"/>
      <use x="321.099915" xlink:href="#LMRoman12-Regular-31"/>
      <use x="370.099899" xlink:href="#LMRoman12-Regular-20"/>
      <use x="402.69989" xlink:href="#LMRoman12-Regular-20"/>
     </g>
    </g>
    <g id="line2d_44">
     <path d="M 333.090313 125.855875 
L 353.090313 125.855875 
" style="fill:none;stroke:#7d9aaa;stroke-dasharray:5.55,2.4;stroke-dashoffset:0;stroke-width:1.5;"/>
    </g>
    <g id="line2d_45">
     <g>
      <use style="fill:#7d9aaa;stroke:#7d9aaa;" x="343.090313" xlink:href="#m0da2e6110a" y="125.855875"/>
     </g>
    </g>
    <g id="text_32">
     <!-- r=1 a=1.5 -->
     <g transform="translate(361.090313 129.355875)scale(0.1 -0.1)">
      <use xlink:href="#LMRoman12-Regular-72"/>
      <use x="38.099991" xlink:href="#LMRoman12-Regular-3d"/>
      <use x="114.299973" xlink:href="#LMRoman12-Regular-31"/>
      <use x="163.299957" xlink:href="#LMRoman12-Regular-20"/>
      <use x="195.899948" xlink:href="#LMRoman12-Regular-61"/>
      <use x="244.899933" xlink:href="#LMRoman12-Regular-3d"/>
      <use x="321.099915" xlink:href="#LMRoman12-Regular-31"/>
      <use x="370.099899" xlink:href="#LMRoman12-Regular-2e"/>
      <use x="397.299896" xlink:href="#LMRoman12-Regular-35"/>
     </g>
    </g>
    <g id="line2d_46">
     <path d="M 333.090313 139.7965 
L 353.090313 139.7965 
" style="fill:none;stroke:#7d9aaa;stroke-dasharray:5.55,2.4;stroke-dashoffset:0;stroke-width:1.5;"/>
    </g>
    <g id="line2d_47">
     <g>
      <use style="fill:#7d9aaa;stroke:#7d9aaa;stroke-linejoin:miter;" x="343.090313" xlink:href="#mf73d8cf35c" y="139.7965"/>
     </g>
    </g>
    <g id="text_33">
     <!-- r=1 a=2   -->
     <g transform="translate(361.090313 143.2965)scale(0.1 -0.1)">
      <use xlink:href="#LMRoman12-Regular-72"/>
      <use x="38.099991" xlink:href="#LMRoman12-Regular-3d"/>
      <use x="114.299973" xlink:href="#LMRoman12-Regular-31"/>
      <use x="163.299957" xlink:href="#LMRoman12-Regular-20"/>
      <use x="195.899948" xlink:href="#LMRoman12-Regular-61"/>
      <use x="244.899933" xlink:href="#LMRoman12-Regular-3d"/>
      <use x="321.099915" xlink:href="#LMRoman12-Regular-32"/>
      <use x="370.099899" xlink:href="#LMRoman12-Regular-20"/>
      <use x="402.69989" xlink:href="#LMRoman12-Regular-20"/>
     </g>
    </g>
    <g id="line2d_48">
     <path d="M 333.090313 153.737125 
L 353.090313 153.737125 
" style="fill:none;stroke:#7d9aaa;stroke-dasharray:5.55,2.4;stroke-dashoffset:0;stroke-width:1.5;"/>
    </g>
    <g id="line2d_49">
     <g>
      <use style="fill:#7d9aaa;stroke:#7d9aaa;stroke-linejoin:miter;" x="343.090313" xlink:href="#mdf14732e79" y="153.737125"/>
     </g>
    </g>
    <g id="text_34">
     <!-- r=1 a=2.5 -->
     <g transform="translate(361.090313 157.237125)scale(0.1 -0.1)">
      <use xlink:href="#LMRoman12-Regular-72"/>
      <use x="38.099991" xlink:href="#LMRoman12-Regular-3d"/>
      <use x="114.299973" xlink:href="#LMRoman12-Regular-31"/>
      <use x="163.299957" xlink:href="#LMRoman12-Regular-20"/>
      <use x="195.899948" xlink:href="#LMRoman12-Regular-61"/>
      <use x="244.899933" xlink:href="#LMRoman12-Regular-3d"/>
      <use x="321.099915" xlink:href="#LMRoman12-Regular-32"/>
      <use x="370.099899" xlink:href="#LMRoman12-Regular-2e"/>
      <use x="397.299896" xlink:href="#LMRoman12-Regular-35"/>
     </g>
    </g>
    <g id="line2d_50">
     <path d="M 333.090313 167.67775 
L 353.090313 167.67775 
" style="fill:none;stroke:#a9a280;stroke-dasharray:9.6,2.4,1.5,2.4;stroke-dashoffset:0;stroke-width:1.5;"/>
    </g>
    <g id="line2d_51">
     <g>
      <use style="fill:#a9a280;stroke:#a9a280;stroke-linejoin:bevel;" x="343.090313" xlink:href="#mc61e4c9e41" y="167.67775"/>
     </g>
    </g>
    <g id="text_35">
     <!-- r=2 a=0.5 -->
     <g transform="translate(361.090313 171.17775)scale(0.1 -0.1)">
      <use xlink:href="#LMRoman12-Regular-72"/>
      <use x="38.099991" xlink:href="#LMRoman12-Regular-3d"/>
      <use x="114.299973" xlink:href="#LMRoman12-Regular-32"/>
      <use x="163.299957" xlink:href="#LMRoman12-Regular-20"/>
      <use x="195.899948" xlink:href="#LMRoman12-Regular-61"/>
      <use x="244.899933" xlink:href="#LMRoman12-Regular-3d"/>
      <use x="321.099915" xlink:href="#LMRoman12-Regular-30"/>
      <use x="370.099899" xlink:href="#LMRoman12-Regular-2e"/>
      <use x="397.299896" xlink:href="#LMRoman12-Regular-35"/>
     </g>
    </g>
    <g id="line2d_52">
     <path d="M 333.090313 181.618375 
L 353.090313 181.618375 
" style="fill:none;stroke:#a9a280;stroke-dasharray:9.6,2.4,1.5,2.4;stroke-dashoffset:0;stroke-width:1.5;"/>
    </g>
    <g id="line2d_53">
     <g>
      <use style="fill:#a9a280;stroke:#a9a280;" x="343.090313" xlink:href="#md6927b8a9d" y="181.618375"/>
     </g>
    </g>
    <g id="text_36">
     <!-- r=2 a=1   -->
     <g transform="translate(361.090313 185.118375)scale(0.1 -0.1)">
      <use xlink:href="#LMRoman12-Regular-72"/>
      <use x="38.099991" xlink:href="#LMRoman12-Regular-3d"/>
      <use x="114.299973" xlink:href="#LMRoman12-Regular-32"/>
      <use x="163.299957" xlink:href="#LMRoman12-Regular-20"/>
      <use x="195.899948" xlink:href="#LMRoman12-Regular-61"/>
      <use x="244.899933" xlink:href="#LMRoman12-Regular-3d"/>
      <use x="321.099915" xlink:href="#LMRoman12-Regular-31"/>
      <use x="370.099899" xlink:href="#LMRoman12-Regular-20"/>
      <use x="402.69989" xlink:href="#LMRoman12-Regular-20"/>
     </g>
    </g>
    <g id="line2d_54">
     <path d="M 333.090313 195.559 
L 353.090313 195.559 
" style="fill:none;stroke:#a9a280;stroke-dasharray:9.6,2.4,1.5,2.4;stroke-dashoffset:0;stroke-width:1.5;"/>
    </g>
    <g id="line2d_55">
     <g>
      <use style="fill:#a9a280;stroke:#a9a280;" x="343.090313" xlink:href="#m7809cc4634" y="195.559"/>
     </g>
    </g>
    <g id="text_37">
     <!-- r=2 a=1.5 -->
     <g transform="translate(361.090313 199.059)scale(0.1 -0.1)">
      <use xlink:href="#LMRoman12-Regular-72"/>
      <use x="38.099991" xlink:href="#LMRoman12-Regular-3d"/>
      <use x="114.299973" xlink:href="#LMRoman12-Regular-32"/>
      <use x="163.299957" xlink:href="#LMRoman12-Regular-20"/>
      <use x="195.899948" xlink:href="#LMRoman12-Regular-61"/>
      <use x="244.899933" xlink:href="#LMRoman12-Regular-3d"/>
      <use x="321.099915" xlink:href="#LMRoman12-Regular-31"/>
      <use x="370.099899" xlink:href="#LMRoman12-Regular-2e"/>
      <use x="397.299896" xlink:href="#LMRoman12-Regular-35"/>
     </g>
    </g>
    <g id="line2d_56">
     <path d="M 333.090313 209.499625 
L 353.090313 209.499625 
" style="fill:none;stroke:#a9a280;stroke-dasharray:9.6,2.4,1.5,2.4;stroke-dashoffset:0;stroke-width:1.5;"/>
    </g>
    <g id="line2d_57">
     <g>
      <use style="fill:#a9a280;stroke:#a9a280;stroke-linejoin:miter;" x="343.090313" xlink:href="#m0c29a0772b" y="209.499625"/>
     </g>
    </g>
    <g id="text_38">
     <!-- r=2 a=2   -->
     <g transform="translate(361.090313 212.999625)scale(0.1 -0.1)">
      <use xlink:href="#LMRoman12-Regular-72"/>
      <use x="38.099991" xlink:href="#LMRoman12-Regular-3d"/>
      <use x="114.299973" xlink:href="#LMRoman12-Regular-32"/>
      <use x="163.299957" xlink:href="#LMRoman12-Regular-20"/>
      <use x="195.899948" xlink:href="#LMRoman12-Regular-61"/>
      <use x="244.899933" xlink:href="#LMRoman12-Regular-3d"/>
      <use x="321.099915" xlink:href="#LMRoman12-Regular-32"/>
      <use x="370.099899" xlink:href="#LMRoman12-Regular-20"/>
      <use x="402.69989" xlink:href="#LMRoman12-Regular-20"/>
     </g>
    </g>
    <g id="line2d_58">
     <path d="M 333.090313 223.44025 
L 353.090313 223.44025 
" style="fill:none;stroke:#a9a280;stroke-dasharray:9.6,2.4,1.5,2.4;stroke-dashoffset:0;stroke-width:1.5;"/>
    </g>
    <g id="line2d_59">
     <g>
      <use style="fill:#a9a280;stroke:#a9a280;stroke-linejoin:miter;" x="343.090313" xlink:href="#m07eb41fef4" y="223.44025"/>
     </g>
    </g>
    <g id="text_39">
     <!-- r=2 a=2.5 -->
     <g transform="translate(361.090313 226.94025)scale(0.1 -0.1)">
      <use xlink:href="#LMRoman12-Regular-72"/>
      <use x="38.099991" xlink:href="#LMRoman12-Regular-3d"/>
      <use x="114.299973" xlink:href="#LMRoman12-Regular-32"/>
      <use x="163.299957" xlink:href="#LMRoman12-Regular-20"/>
      <use x="195.899948" xlink:href="#LMRoman12-Regular-61"/>
      <use x="244.899933" xlink:href="#LMRoman12-Regular-3d"/>
      <use x="321.099915" xlink:href="#LMRoman12-Regular-32"/>
      <use x="370.099899" xlink:href="#LMRoman12-Regular-2e"/>
      <use x="397.299896" xlink:href="#LMRoman12-Regular-35"/>
     </g>
    </g>
    <g id="line2d_60">
     <path d="M 333.090313 237.380875 
L 353.090313 237.380875 
" style="fill:none;stroke:#56aa1c;stroke-dasharray:1.5,2.475;stroke-dashoffset:0;stroke-width:1.5;"/>
    </g>
    <g id="line2d_61">
     <g>
      <use style="fill:#56aa1c;stroke:#56aa1c;stroke-linejoin:bevel;" x="343.090313" xlink:href="#m7e437f72d7" y="237.380875"/>
     </g>
    </g>
    <g id="text_40">
     <!-- r=3 a=0.5 -->
     <defs>
      <path d="M 44.796875 17.09375 
C 44.796875 26.296875 37.40625 33.5 27.796875 35.203125 
C 36.5 37.703125 42.09375 45 42.09375 52.796875 
C 42.09375 60.703125 33.90625 66.5 24.203125 66.5 
C 14.203125 66.5 6.796875 60.40625 6.796875 53.09375 
C 6.796875 49.09375 9.90625 48.296875 11.40625 48.296875 
C 13.5 48.296875 15.90625 49.796875 15.90625 52.796875 
C 15.90625 56 13.5 57.40625 11.296875 57.40625 
C 10.703125 57.40625 10.5 57.40625 10.203125 57.296875 
C 14 64.09375 23.40625 64.09375 23.90625 64.09375 
C 27.203125 64.09375 33.703125 62.59375 33.703125 52.796875 
C 33.703125 50.90625 33.40625 45.296875 30.5 41 
C 27.5 36.59375 24.09375 36.296875 21.40625 36.203125 
L 18.40625 35.90625 
C 16.703125 35.796875 16.296875 35.703125 16.296875 34.796875 
C 16.296875 33.796875 16.796875 33.796875 18.59375 33.796875 
L 23.203125 33.796875 
C 31.703125 33.796875 35.5 26.796875 35.5 17.203125 
C 35.5 4.09375 28.703125 0.59375 23.796875 0.59375 
C 19 0.59375 10.796875 2.90625 7.90625 9.5 
C 11.09375 9 14 10.796875 14 14.40625 
C 14 17.296875 11.90625 19.296875 9.09375 19.296875 
C 6.703125 19.296875 4.09375 17.90625 4.09375 14.09375 
C 4.09375 5.203125 13 -2.09375 24.09375 -2.09375 
C 36 -2.09375 44.796875 7 44.796875 17.09375 
z
" id="LMRoman12-Regular-33"/>
     </defs>
     <g transform="translate(361.090313 240.880875)scale(0.1 -0.1)">
      <use xlink:href="#LMRoman12-Regular-72"/>
      <use x="38.099991" xlink:href="#LMRoman12-Regular-3d"/>
      <use x="114.299973" xlink:href="#LMRoman12-Regular-33"/>
      <use x="163.299957" xlink:href="#LMRoman12-Regular-20"/>
      <use x="195.899948" xlink:href="#LMRoman12-Regular-61"/>
      <use x="244.899933" xlink:href="#LMRoman12-Regular-3d"/>
      <use x="321.099915" xlink:href="#LMRoman12-Regular-30"/>
      <use x="370.099899" xlink:href="#LMRoman12-Regular-2e"/>
      <use x="397.299896" xlink:href="#LMRoman12-Regular-35"/>
     </g>
    </g>
    <g id="line2d_62">
     <path d="M 333.090313 251.3215 
L 353.090313 251.3215 
" style="fill:none;stroke:#56aa1c;stroke-dasharray:1.5,2.475;stroke-dashoffset:0;stroke-width:1.5;"/>
    </g>
    <g id="line2d_63">
     <g>
      <use style="fill:#56aa1c;stroke:#56aa1c;" x="343.090313" xlink:href="#me36f3a1ef2" y="251.3215"/>
     </g>
    </g>
    <g id="text_41">
     <!-- r=3 a=1   -->
     <g transform="translate(361.090313 254.8215)scale(0.1 -0.1)">
      <use xlink:href="#LMRoman12-Regular-72"/>
      <use x="38.099991" xlink:href="#LMRoman12-Regular-3d"/>
      <use x="114.299973" xlink:href="#LMRoman12-Regular-33"/>
      <use x="163.299957" xlink:href="#LMRoman12-Regular-20"/>
      <use x="195.899948" xlink:href="#LMRoman12-Regular-61"/>
      <use x="244.899933" xlink:href="#LMRoman12-Regular-3d"/>
      <use x="321.099915" xlink:href="#LMRoman12-Regular-31"/>
      <use x="370.099899" xlink:href="#LMRoman12-Regular-20"/>
      <use x="402.69989" xlink:href="#LMRoman12-Regular-20"/>
     </g>
    </g>
    <g id="line2d_64">
     <path d="M 333.090313 265.262125 
L 353.090313 265.262125 
" style="fill:none;stroke:#56aa1c;stroke-dasharray:1.5,2.475;stroke-dashoffset:0;stroke-width:1.5;"/>
    </g>
    <g id="line2d_65">
     <g>
      <use style="fill:#56aa1c;stroke:#56aa1c;" x="343.090313" xlink:href="#mf2cac80b49" y="265.262125"/>
     </g>
    </g>
    <g id="text_42">
     <!-- r=3 a=1.5 -->
     <g transform="translate(361.090313 268.762125)scale(0.1 -0.1)">
      <use xlink:href="#LMRoman12-Regular-72"/>
      <use x="38.099991" xlink:href="#LMRoman12-Regular-3d"/>
      <use x="114.299973" xlink:href="#LMRoman12-Regular-33"/>
      <use x="163.299957" xlink:href="#LMRoman12-Regular-20"/>
      <use x="195.899948" xlink:href="#LMRoman12-Regular-61"/>
      <use x="244.899933" xlink:href="#LMRoman12-Regular-3d"/>
      <use x="321.099915" xlink:href="#LMRoman12-Regular-31"/>
      <use x="370.099899" xlink:href="#LMRoman12-Regular-2e"/>
      <use x="397.299896" xlink:href="#LMRoman12-Regular-35"/>
     </g>
    </g>
    <g id="line2d_66">
     <path d="M 333.090313 279.20275 
L 353.090313 279.20275 
" style="fill:none;stroke:#56aa1c;stroke-dasharray:1.5,2.475;stroke-dashoffset:0;stroke-width:1.5;"/>
    </g>
    <g id="line2d_67">
     <g>
      <use style="fill:#56aa1c;stroke:#56aa1c;stroke-linejoin:miter;" x="343.090313" xlink:href="#mab5a3a5fcc" y="279.20275"/>
     </g>
    </g>
    <g id="text_43">
     <!-- r=3 a=2   -->
     <g transform="translate(361.090313 282.70275)scale(0.1 -0.1)">
      <use xlink:href="#LMRoman12-Regular-72"/>
      <use x="38.099991" xlink:href="#LMRoman12-Regular-3d"/>
      <use x="114.299973" xlink:href="#LMRoman12-Regular-33"/>
      <use x="163.299957" xlink:href="#LMRoman12-Regular-20"/>
      <use x="195.899948" xlink:href="#LMRoman12-Regular-61"/>
      <use x="244.899933" xlink:href="#LMRoman12-Regular-3d"/>
      <use x="321.099915" xlink:href="#LMRoman12-Regular-32"/>
      <use x="370.099899" xlink:href="#LMRoman12-Regular-20"/>
      <use x="402.69989" xlink:href="#LMRoman12-Regular-20"/>
     </g>
    </g>
    <g id="line2d_68">
     <path d="M 333.090313 293.143375 
L 353.090313 293.143375 
" style="fill:none;stroke:#56aa1c;stroke-dasharray:1.5,2.475;stroke-dashoffset:0;stroke-width:1.5;"/>
    </g>
    <g id="line2d_69">
     <g>
      <use style="fill:#56aa1c;stroke:#56aa1c;stroke-linejoin:miter;" x="343.090313" xlink:href="#ma1774bde0f" y="293.143375"/>
     </g>
    </g>
    <g id="text_44">
     <!-- r=3 a=2.5 -->
     <g transform="translate(361.090313 296.643375)scale(0.1 -0.1)">
      <use xlink:href="#LMRoman12-Regular-72"/>
      <use x="38.099991" xlink:href="#LMRoman12-Regular-3d"/>
      <use x="114.299973" xlink:href="#LMRoman12-Regular-33"/>
      <use x="163.299957" xlink:href="#LMRoman12-Regular-20"/>
      <use x="195.899948" xlink:href="#LMRoman12-Regular-61"/>
      <use x="244.899933" xlink:href="#LMRoman12-Regular-3d"/>
      <use x="321.099915" xlink:href="#LMRoman12-Regular-32"/>
      <use x="370.099899" xlink:href="#LMRoman12-Regular-2e"/>
      <use x="397.299896" xlink:href="#LMRoman12-Regular-35"/>
     </g>
    </g>
   </g>
  </g>
 </g>
 <defs>
  <clipPath id="p58a2687243">
   <rect height="266.112" width="357.12" x="57.6" y="41.472"/>
  </clipPath>
 </defs>
</svg>
