<?xml version="1.0" encoding="utf-8" standalone="no"?>
<!DOCTYPE svg PUBLIC "-//W3C//DTD SVG 1.1//EN"
  "http://www.w3.org/Graphics/SVG/1.1/DTD/svg11.dtd">
<!-- Created with matplotlib (http://matplotlib.org/) -->
<svg height="345pt" version="1.1" viewBox="0 0 460 345" width="460pt" xmlns="http://www.w3.org/2000/svg" xmlns:xlink="http://www.w3.org/1999/xlink">
 <defs>
  <style type="text/css">
*{stroke-linecap:butt;stroke-linejoin:round;}
  </style>
 </defs>
 <g id="figure_1">
  <g id="patch_1">
   <path d="M 0 345.6 
L 460.8 345.6 
L 460.8 0 
L 0 0 
z
" style="fill:#ffffff;"/>
  </g>
  <g id="axes_1">
   <g id="patch_2">
    <path d="M 57.6 307.584 
L 414.72 307.584 
L 414.72 41.472 
L 57.6 41.472 
z
" style="fill:#ffffff;"/>
   </g>
   <g id="matplotlib.axis_1">
    <g id="xtick_1">
     <g id="line2d_1">
      <path clip-path="url(#p2b56e7a91d)" d="M 57.6 307.584 
L 57.6 41.472 
" style="fill:none;stroke:#b0b0b0;stroke-linecap:square;stroke-width:0.8;"/>
     </g>
     <g id="line2d_2">
      <defs>
       <path d="M 0 0 
L 0 3.5 
" id="mc1e0d131ee" style="stroke:#000000;stroke-width:0.8;"/>
      </defs>
      <g>
       <use style="stroke:#000000;stroke-width:0.8;" x="57.6" xlink:href="#mc1e0d131ee" y="307.584"/>
      </g>
     </g>
     <g id="text_1">
      <!-- 0.800 -->
      <defs>
       <path d="M 44.796875 32 
C 44.796875 40.296875 44.296875 48.40625 40.703125 56 
C 36.59375 64.296875 29.40625 66.5 24.5 66.5 
C 18.703125 66.5 11.59375 63.59375 7.90625 55.296875 
C 5.09375 49 4.09375 42.796875 4.09375 32 
C 4.09375 22.296875 4.796875 15 8.40625 7.90625 
C 12.296875 0.296875 19.203125 -2.09375 24.40625 -2.09375 
C 33.09375 -2.09375 38.09375 3.09375 41 8.90625 
C 44.59375 16.40625 44.796875 26.203125 44.796875 32 
z
M 37.203125 33.203125 
C 37.203125 26.5 37.203125 18.90625 36.09375 12.796875 
C 34.203125 1.796875 27.90625 -0.09375 24.40625 -0.09375 
C 21.203125 -0.09375 14.703125 1.703125 12.796875 12.59375 
C 11.703125 18.59375 11.703125 26.203125 11.703125 33.203125 
C 11.703125 41.40625 11.703125 48.796875 13.296875 54.703125 
C 15 61.40625 20.09375 64.5 24.40625 64.5 
C 28.203125 64.5 34 62.203125 35.90625 53.59375 
C 37.203125 47.90625 37.203125 40 37.203125 33.203125 
z
" id="LMRoman12-Regular-30"/>
       <path d="M 18.40625 4.90625 
C 18.40625 7.59375 16.09375 9.703125 13.59375 9.703125 
C 10.703125 9.703125 8.703125 7.40625 8.703125 4.90625 
C 8.703125 1.90625 11.203125 0 13.5 0 
C 16.203125 0 18.40625 2.09375 18.40625 4.90625 
z
" id="LMRoman12-Regular-2e"/>
       <path d="M 44.796875 16.59375 
C 44.796875 26.796875 37.59375 31.296875 29.796875 36.09375 
C 34.796875 38.796875 42.09375 43.40625 42.09375 51.796875 
C 42.09375 60.5 33.703125 66.5 24.5 66.5 
C 14.59375 66.5 6.796875 59.203125 6.796875 50.09375 
C 6.796875 46.703125 7.796875 43.296875 10.59375 39.90625 
C 11.703125 38.59375 11.796875 38.5 18.796875 33.59375 
C 9.09375 29.09375 4.09375 22.40625 4.09375 15.09375 
C 4.09375 4.5 14.203125 -2.09375 24.40625 -2.09375 
C 35.5 -2.09375 44.796875 6.09375 44.796875 16.59375 
z
M 38 51.703125 
C 38 45.59375 33.59375 40.703125 27.796875 37.5 
L 16.203125 45.09375 
C 14.90625 46 10.90625 48.59375 10.90625 53.5 
C 10.90625 60 17.703125 64.09375 24.40625 64.09375 
C 31.59375 64.09375 38 58.90625 38 51.703125 
z
M 40.203125 13.40625 
C 40.203125 5.796875 32.5 0.59375 24.5 0.59375 
C 16 0.59375 8.703125 6.796875 8.703125 15.09375 
C 8.703125 22.90625 14.40625 29.203125 20.90625 32.203125 
L 33 24.296875 
C 35.59375 22.59375 40.203125 19.5 40.203125 13.40625 
z
" id="LMRoman12-Regular-38"/>
      </defs>
      <g transform="translate(46.439844 321.524625)scale(0.1 -0.1)">
       <use xlink:href="#LMRoman12-Regular-30"/>
       <use x="48.999985" xlink:href="#LMRoman12-Regular-2e"/>
       <use x="76.199982" xlink:href="#LMRoman12-Regular-38"/>
       <use x="125.199966" xlink:href="#LMRoman12-Regular-30"/>
       <use x="174.199951" xlink:href="#LMRoman12-Regular-30"/>
      </g>
     </g>
    </g>
    <g id="xtick_2">
     <g id="line2d_3">
      <path clip-path="url(#p2b56e7a91d)" d="M 102.24 307.584 
L 102.24 41.472 
" style="fill:none;stroke:#b0b0b0;stroke-linecap:square;stroke-width:0.8;"/>
     </g>
     <g id="line2d_4">
      <g>
       <use style="stroke:#000000;stroke-width:0.8;" x="102.24" xlink:href="#mc1e0d131ee" y="307.584"/>
      </g>
     </g>
     <g id="text_2">
      <!-- 0.825 -->
      <defs>
       <path d="M 44 16.796875 
L 41.796875 16.796875 
C 41.5 15.09375 40.703125 9.59375 39.703125 8 
C 39 7.09375 33.296875 7.09375 30.296875 7.09375 
L 11.796875 7.09375 
C 14.5 9.40625 20.59375 15.796875 23.203125 18.203125 
C 38.40625 32.203125 44 37.40625 44 47.296875 
C 44 58.796875 34.90625 66.5 23.296875 66.5 
C 11.703125 66.5 4.90625 56.59375 4.90625 48 
C 4.90625 42.90625 9.296875 42.90625 9.59375 42.90625 
C 11.703125 42.90625 14.296875 44.40625 14.296875 47.59375 
C 14.296875 50.40625 12.40625 52.296875 9.59375 52.296875 
C 8.703125 52.296875 8.5 52.296875 8.203125 52.203125 
C 10.09375 59 15.5 63.59375 22 63.59375 
C 30.5 63.59375 35.703125 56.5 35.703125 47.296875 
C 35.703125 38.796875 30.796875 31.40625 25.09375 25 
L 4.90625 2.40625 
L 4.90625 0 
L 41.40625 0 
z
" id="LMRoman12-Regular-32"/>
       <path d="M 44 20.09375 
C 44 32 36 41.90625 25.5 41.90625 
C 19.796875 41.90625 15.40625 39.40625 12.796875 36.59375 
L 12.796875 57.296875 
C 17.09375 55.90625 20.59375 55.796875 21.703125 55.796875 
C 33 55.796875 40.203125 64.09375 40.203125 65.5 
C 40.203125 65.90625 40 66.40625 39.40625 66.40625 
C 39.40625 66.40625 39 66.40625 38.09375 66 
C 32.5 63.59375 27.703125 63.296875 25.09375 63.296875 
C 18.5 63.296875 13.796875 65.296875 11.90625 66.09375 
C 11.203125 66.40625 10.90625 66.40625 10.90625 66.40625 
C 10.09375 66.40625 10.09375 65.796875 10.09375 64.203125 
L 10.09375 34.5 
C 10.09375 32.703125 10.09375 32.09375 11.296875 32.09375 
C 11.796875 32.09375 11.90625 32.203125 12.90625 33.40625 
C 15.703125 37.5 20.40625 39.90625 25.40625 39.90625 
C 30.703125 39.90625 33.296875 35 34.09375 33.296875 
C 35.796875 29.40625 35.90625 24.5 35.90625 20.703125 
C 35.90625 16.90625 35.90625 11.203125 33.09375 6.703125 
C 30.90625 3.09375 27 0.59375 22.59375 0.59375 
C 16 0.59375 9.5 5.09375 7.703125 12.40625 
C 8.203125 12.203125 8.796875 12.09375 9.296875 12.09375 
C 11 12.09375 13.703125 13.09375 13.703125 16.5 
C 13.703125 19.296875 11.796875 20.90625 9.296875 20.90625 
C 7.5 20.90625 4.90625 20 4.90625 16.09375 
C 4.90625 7.59375 11.703125 -2.09375 22.796875 -2.09375 
C 34.09375 -2.09375 44 7.40625 44 20.09375 
z
" id="LMRoman12-Regular-35"/>
      </defs>
      <g transform="translate(91.079844 321.524625)scale(0.1 -0.1)">
       <use xlink:href="#LMRoman12-Regular-30"/>
       <use x="48.999985" xlink:href="#LMRoman12-Regular-2e"/>
       <use x="76.199982" xlink:href="#LMRoman12-Regular-38"/>
       <use x="125.199966" xlink:href="#LMRoman12-Regular-32"/>
       <use x="174.199951" xlink:href="#LMRoman12-Regular-35"/>
      </g>
     </g>
    </g>
    <g id="xtick_3">
     <g id="line2d_5">
      <path clip-path="url(#p2b56e7a91d)" d="M 146.88 307.584 
L 146.88 41.472 
" style="fill:none;stroke:#b0b0b0;stroke-linecap:square;stroke-width:0.8;"/>
     </g>
     <g id="line2d_6">
      <g>
       <use style="stroke:#000000;stroke-width:0.8;" x="146.88" xlink:href="#mc1e0d131ee" y="307.584"/>
      </g>
     </g>
     <g id="text_3">
      <!-- 0.850 -->
      <g transform="translate(135.719844 321.524625)scale(0.1 -0.1)">
       <use xlink:href="#LMRoman12-Regular-30"/>
       <use x="48.999985" xlink:href="#LMRoman12-Regular-2e"/>
       <use x="76.199982" xlink:href="#LMRoman12-Regular-38"/>
       <use x="125.199966" xlink:href="#LMRoman12-Regular-35"/>
       <use x="174.199951" xlink:href="#LMRoman12-Regular-30"/>
      </g>
     </g>
    </g>
    <g id="xtick_4">
     <g id="line2d_7">
      <path clip-path="url(#p2b56e7a91d)" d="M 191.52 307.584 
L 191.52 41.472 
" style="fill:none;stroke:#b0b0b0;stroke-linecap:square;stroke-width:0.8;"/>
     </g>
     <g id="line2d_8">
      <g>
       <use style="stroke:#000000;stroke-width:0.8;" x="191.52" xlink:href="#mc1e0d131ee" y="307.584"/>
      </g>
     </g>
     <g id="text_4">
      <!-- 0.875 -->
      <defs>
       <path d="M 47.5 62.09375 
L 47.5 64.40625 
L 23.40625 64.40625 
C 11.296875 64.40625 11.09375 65.703125 10.703125 67.59375 
L 8.5 67.59375 
L 5.40625 47.59375 
L 7.59375 47.59375 
C 7.90625 49.40625 8.796875 55.59375 10.09375 56.703125 
C 10.90625 57.296875 18.40625 57.296875 19.796875 57.296875 
L 41 57.296875 
L 30.40625 42.09375 
C 27.703125 38.203125 17.59375 21.796875 17.59375 3 
C 17.59375 1.90625 17.59375 -2.09375 21.703125 -2.09375 
C 25.90625 -2.09375 25.90625 1.796875 25.90625 3.09375 
L 25.90625 8.09375 
C 25.90625 23 28.296875 34.59375 33 41.296875 
z
" id="LMRoman12-Regular-37"/>
      </defs>
      <g transform="translate(180.359844 321.524625)scale(0.1 -0.1)">
       <use xlink:href="#LMRoman12-Regular-30"/>
       <use x="48.999985" xlink:href="#LMRoman12-Regular-2e"/>
       <use x="76.199982" xlink:href="#LMRoman12-Regular-38"/>
       <use x="125.199966" xlink:href="#LMRoman12-Regular-37"/>
       <use x="174.199951" xlink:href="#LMRoman12-Regular-35"/>
      </g>
     </g>
    </g>
    <g id="xtick_5">
     <g id="line2d_9">
      <path clip-path="url(#p2b56e7a91d)" d="M 236.16 307.584 
L 236.16 41.472 
" style="fill:none;stroke:#b0b0b0;stroke-linecap:square;stroke-width:0.8;"/>
     </g>
     <g id="line2d_10">
      <g>
       <use style="stroke:#000000;stroke-width:0.8;" x="236.16" xlink:href="#mc1e0d131ee" y="307.584"/>
      </g>
     </g>
     <g id="text_5">
      <!-- 0.900 -->
      <defs>
       <path d="M 44.796875 32.90625 
C 44.796875 59.796875 33.59375 66.5 24.796875 66.5 
C 13.796875 66.5 4.09375 57.296875 4.09375 44.09375 
C 4.09375 30.90625 13.40625 21.90625 23.40625 21.90625 
C 30.796875 21.90625 34.59375 27.296875 36.59375 32.40625 
L 36.59375 29.09375 
C 36.59375 5.5 26.09375 0.59375 20.09375 0.59375 
C 17.703125 0.59375 12.40625 0.90625 9.90625 4.40625 
L 10.5 4.40625 
C 11.203125 4.203125 14.796875 4.796875 14.796875 8.5 
C 14.796875 10.703125 13.296875 12.59375 10.703125 12.59375 
C 8.09375 12.59375 6.5 10.90625 6.5 8.296875 
C 6.5 2.09375 11.5 -2.09375 20.203125 -2.09375 
C 32.703125 -2.09375 44.796875 11.203125 44.796875 32.90625 
z
M 36.40625 41.90625 
C 36.40625 33.5 32.59375 23.90625 23.796875 23.90625 
C 17.5 23.90625 14.796875 29 13.90625 30.90625 
C 12.296875 34.703125 12.296875 39.5 12.296875 44 
C 12.296875 49.59375 12.296875 54.40625 14.90625 58.5 
C 16.703125 61.203125 19.40625 64.09375 24.796875 64.09375 
C 30.5 64.09375 33.40625 59.09375 34.40625 56.796875 
C 36.40625 51.90625 36.40625 43.40625 36.40625 41.90625 
z
" id="LMRoman12-Regular-39"/>
      </defs>
      <g transform="translate(224.999844 321.524625)scale(0.1 -0.1)">
       <use xlink:href="#LMRoman12-Regular-30"/>
       <use x="48.999985" xlink:href="#LMRoman12-Regular-2e"/>
       <use x="76.199982" xlink:href="#LMRoman12-Regular-39"/>
       <use x="125.199966" xlink:href="#LMRoman12-Regular-30"/>
       <use x="174.199951" xlink:href="#LMRoman12-Regular-30"/>
      </g>
     </g>
    </g>
    <g id="xtick_6">
     <g id="line2d_11">
      <path clip-path="url(#p2b56e7a91d)" d="M 280.8 307.584 
L 280.8 41.472 
" style="fill:none;stroke:#b0b0b0;stroke-linecap:square;stroke-width:0.8;"/>
     </g>
     <g id="line2d_12">
      <g>
       <use style="stroke:#000000;stroke-width:0.8;" x="280.8" xlink:href="#mc1e0d131ee" y="307.584"/>
      </g>
     </g>
     <g id="text_6">
      <!-- 0.925 -->
      <g transform="translate(269.639844 321.524625)scale(0.1 -0.1)">
       <use xlink:href="#LMRoman12-Regular-30"/>
       <use x="48.999985" xlink:href="#LMRoman12-Regular-2e"/>
       <use x="76.199982" xlink:href="#LMRoman12-Regular-39"/>
       <use x="125.199966" xlink:href="#LMRoman12-Regular-32"/>
       <use x="174.199951" xlink:href="#LMRoman12-Regular-35"/>
      </g>
     </g>
    </g>
    <g id="xtick_7">
     <g id="line2d_13">
      <path clip-path="url(#p2b56e7a91d)" d="M 325.44 307.584 
L 325.44 41.472 
" style="fill:none;stroke:#b0b0b0;stroke-linecap:square;stroke-width:0.8;"/>
     </g>
     <g id="line2d_14">
      <g>
       <use style="stroke:#000000;stroke-width:0.8;" x="325.44" xlink:href="#mc1e0d131ee" y="307.584"/>
      </g>
     </g>
     <g id="text_7">
      <!-- 0.950 -->
      <g transform="translate(314.279844 321.524625)scale(0.1 -0.1)">
       <use xlink:href="#LMRoman12-Regular-30"/>
       <use x="48.999985" xlink:href="#LMRoman12-Regular-2e"/>
       <use x="76.199982" xlink:href="#LMRoman12-Regular-39"/>
       <use x="125.199966" xlink:href="#LMRoman12-Regular-35"/>
       <use x="174.199951" xlink:href="#LMRoman12-Regular-30"/>
      </g>
     </g>
    </g>
    <g id="xtick_8">
     <g id="line2d_15">
      <path clip-path="url(#p2b56e7a91d)" d="M 370.08 307.584 
L 370.08 41.472 
" style="fill:none;stroke:#b0b0b0;stroke-linecap:square;stroke-width:0.8;"/>
     </g>
     <g id="line2d_16">
      <g>
       <use style="stroke:#000000;stroke-width:0.8;" x="370.08" xlink:href="#mc1e0d131ee" y="307.584"/>
      </g>
     </g>
     <g id="text_8">
      <!-- 0.975 -->
      <g transform="translate(358.919844 321.524625)scale(0.1 -0.1)">
       <use xlink:href="#LMRoman12-Regular-30"/>
       <use x="48.999985" xlink:href="#LMRoman12-Regular-2e"/>
       <use x="76.199982" xlink:href="#LMRoman12-Regular-39"/>
       <use x="125.199966" xlink:href="#LMRoman12-Regular-37"/>
       <use x="174.199951" xlink:href="#LMRoman12-Regular-35"/>
      </g>
     </g>
    </g>
    <g id="xtick_9">
     <g id="line2d_17">
      <path clip-path="url(#p2b56e7a91d)" d="M 414.72 307.584 
L 414.72 41.472 
" style="fill:none;stroke:#b0b0b0;stroke-linecap:square;stroke-width:0.8;"/>
     </g>
     <g id="line2d_18">
      <g>
       <use style="stroke:#000000;stroke-width:0.8;" x="414.72" xlink:href="#mc1e0d131ee" y="307.584"/>
      </g>
     </g>
     <g id="text_9">
      <!-- 1.000 -->
      <defs>
       <path d="M 41 0 
L 41 2.90625 
L 37.90625 2.90625 
C 29.09375 2.90625 28.796875 4.09375 28.796875 7.703125 
L 28.796875 64.09375 
C 28.796875 66.40625 28.796875 66.5 26.796875 66.5 
C 24.40625 63.796875 19.40625 60.09375 9.09375 60.09375 
L 9.09375 57.203125 
C 11.40625 57.203125 16.40625 57.203125 21.90625 59.796875 
L 21.90625 7.703125 
C 21.90625 4.09375 21.59375 2.90625 12.796875 2.90625 
L 9.703125 2.90625 
L 9.703125 0 
C 12.40625 0.203125 22.09375 0.203125 25.40625 0.203125 
C 28.703125 0.203125 38.296875 0.203125 41 0 
z
" id="LMRoman12-Regular-31"/>
      </defs>
      <g transform="translate(403.559844 321.524625)scale(0.1 -0.1)">
       <use xlink:href="#LMRoman12-Regular-31"/>
       <use x="48.999985" xlink:href="#LMRoman12-Regular-2e"/>
       <use x="76.199982" xlink:href="#LMRoman12-Regular-30"/>
       <use x="125.199966" xlink:href="#LMRoman12-Regular-30"/>
       <use x="174.199951" xlink:href="#LMRoman12-Regular-30"/>
      </g>
     </g>
    </g>
    <g id="text_10">
     <!-- TP rate / recall -->
     <defs>
      <path d="M 67.09375 45.5 
L 65.296875 67.796875 
L 5.296875 67.796875 
L 3.5 45.5 
L 5.703125 45.5 
C 7.09375 61.296875 8 64.90625 23.796875 64.90625 
C 25.59375 64.90625 28.40625 64.90625 29.203125 64.703125 
C 31.203125 64.40625 31.296875 63.203125 31.296875 60.90625 
L 31.296875 7.703125 
C 31.296875 4.296875 31.296875 2.90625 21.5 2.90625 
L 17.90625 2.90625 
L 17.90625 0 
C 21.09375 0.203125 31.40625 0.203125 35.296875 0.203125 
C 39.203125 0.203125 49.59375 0.203125 52.796875 0 
L 52.796875 2.90625 
L 49.203125 2.90625 
C 39.40625 2.90625 39.40625 4.296875 39.40625 7.703125 
L 39.40625 60.90625 
C 39.40625 63.40625 39.59375 64.296875 41.203125 64.703125 
C 42 64.90625 44.90625 64.90625 46.796875 64.90625 
C 62.59375 64.90625 63.5 61.296875 64.90625 45.5 
z
" id="LMRoman12-Regular-54"/>
      <path d="M 61.09375 49.796875 
C 61.09375 59.5 51.40625 68.296875 37.90625 68.296875 
L 4.203125 68.296875 
L 4.203125 65.40625 
L 6.203125 65.40625 
C 13.40625 65.40625 13.703125 64.40625 13.703125 60.703125 
L 13.703125 7.59375 
C 13.703125 3.90625 13.40625 2.90625 6.203125 2.90625 
L 4.203125 2.90625 
L 4.203125 0 
C 6.59375 0.203125 14.796875 0.203125 17.703125 0.203125 
C 20.703125 0.203125 28.90625 0.203125 31.296875 0 
L 31.296875 2.90625 
L 29.296875 2.90625 
C 22.09375 2.90625 21.796875 3.90625 21.796875 7.59375 
L 21.796875 31.796875 
L 38.703125 31.796875 
C 50.40625 31.796875 61.09375 39.703125 61.09375 49.796875 
z
M 51.796875 49.796875 
C 51.796875 45.59375 51.796875 34.203125 35.5 34.203125 
L 21.59375 34.203125 
L 21.59375 61.40625 
C 21.59375 64.703125 21.796875 65.40625 26.203125 65.40625 
L 35.59375 65.40625 
C 51.796875 65.40625 51.796875 54.09375 51.796875 49.796875 
z
" id="LMRoman12-Regular-50"/>
      <path id="LMRoman12-Regular-20"/>
      <path d="M 35.296875 38.296875 
C 35.296875 41.296875 32.59375 44.09375 28.296875 44.09375 
C 19.796875 44.09375 16.90625 34.90625 16.296875 33 
L 16.203125 33 
L 16.203125 44.09375 
L 2.796875 43 
L 2.796875 40.09375 
C 9.59375 40.09375 10.40625 39.40625 10.40625 34.5 
L 10.40625 7.40625 
C 10.40625 2.90625 9.296875 2.90625 2.796875 2.90625 
L 2.796875 0 
C 5.59375 0.203125 11.09375 0.203125 14.09375 0.203125 
C 16.796875 0.203125 23.90625 0.203125 26.203125 0 
L 26.203125 2.90625 
L 24.203125 2.90625 
C 16.90625 2.90625 16.703125 4 16.703125 7.59375 
L 16.703125 23.296875 
C 16.703125 33 20.703125 42.09375 28.40625 42.09375 
C 29.203125 42.09375 29.40625 42.09375 29.796875 42 
C 29 41.59375 27.40625 41 27.40625 38.296875 
C 27.40625 35.40625 29.703125 34.296875 31.296875 34.296875 
C 33.296875 34.296875 35.296875 35.59375 35.296875 38.296875 
z
" id="LMRoman12-Regular-72"/>
      <path d="M 47.40625 8.90625 
L 47.40625 14.5 
L 45.203125 14.5 
L 45.203125 8.90625 
C 45.203125 3.203125 42.796875 2.40625 41.40625 2.40625 
C 37.59375 2.40625 37.59375 7.703125 37.59375 9.203125 
L 37.59375 26.703125 
C 37.59375 32.09375 37.59375 36.09375 33.203125 40 
C 29.703125 43.203125 25.203125 44.59375 20.796875 44.59375 
C 12.59375 44.59375 6.296875 39.203125 6.296875 32.703125 
C 6.296875 29.796875 8.203125 28.40625 10.5 28.40625 
C 12.90625 28.40625 14.59375 30.09375 14.59375 32.5 
C 14.59375 36.59375 11 36.59375 9.5 36.59375 
C 11.796875 40.796875 16.59375 42.59375 20.59375 42.59375 
C 25.203125 42.59375 31.09375 38.796875 31.09375 29.796875 
L 31.09375 25.796875 
C 11 25.5 3.40625 17.09375 3.40625 9.40625 
C 3.40625 1.5 12.59375 -1 18.703125 -1 
C 25.296875 -1 29.796875 3 31.703125 7.796875 
C 32.09375 3.09375 35.203125 -0.5 39.5 -0.5 
C 41.59375 -0.5 47.40625 0.90625 47.40625 8.90625 
z
M 31.09375 14.09375 
C 31.09375 4.296875 23.796875 1 19.5 1 
C 14.59375 1 10.5 4.59375 10.5 9.40625 
C 10.5 22.59375 27.5 23.796875 31.09375 24 
z
" id="LMRoman12-Regular-61"/>
      <path d="M 32.59375 12.40625 
L 32.59375 18.09375 
L 30.40625 18.09375 
L 30.40625 12.59375 
C 30.40625 5.40625 27.5 1.203125 23.59375 1.203125 
C 16.796875 1.203125 16.796875 10.5 16.796875 12.203125 
L 16.796875 40.203125 
L 30.90625 40.203125 
L 30.90625 43.09375 
L 16.796875 43.09375 
L 16.796875 61.5 
L 14.59375 61.5 
C 14.5 52.09375 10.90625 42.5 1.796875 42.203125 
L 1.796875 40.203125 
L 10.296875 40.203125 
L 10.296875 12.40625 
C 10.296875 1.296875 17.703125 -1 23 -1 
C 29.296875 -1 32.59375 5.203125 32.59375 12.40625 
z
" id="LMRoman12-Regular-74"/>
      <path d="M 40.703125 11.90625 
C 40.703125 12.5 40.203125 12.90625 39.59375 12.90625 
C 38.796875 12.90625 38.59375 12.40625 38.40625 11.90625 
C 35.796875 3.5 29.09375 1.203125 24.90625 1.203125 
C 20.703125 1.203125 10.59375 4 10.59375 21.296875 
L 10.59375 23.203125 
L 38.296875 23.203125 
C 40.5 23.203125 40.703125 23.203125 40.703125 25.09375 
C 40.703125 35.203125 35.296875 44.59375 23.203125 44.59375 
C 11.796875 44.59375 3 34.296875 3 21.90625 
C 3 8.703125 13.203125 -1 24.296875 -1 
C 36.203125 -1 40.703125 9.796875 40.703125 11.90625 
z
M 34.5 25.09375 
L 10.703125 25.09375 
C 11.5 40.796875 20.296875 42.59375 23.09375 42.59375 
C 33.796875 42.59375 34.40625 28.5 34.5 25.09375 
z
" id="LMRoman12-Regular-65"/>
      <path d="M 43.5 73.09375 
C 43.5 74.40625 42.5 75 41.703125 75 
C 40.40625 75 40.09375 74.09375 39.59375 72.796875 
L 5.90625 -21.40625 
C 5.40625 -22.703125 5.40625 -23.09375 5.40625 -23.09375 
C 5.40625 -24.203125 6.203125 -25 7.296875 -25 
C 8.59375 -25 8.90625 -24 9.296875 -22.90625 
L 43 71.40625 
C 43.5 72.703125 43.5 73.09375 43.5 73.09375 
z
" id="LMRoman12-Regular-2f"/>
      <path d="M 40.59375 11.90625 
C 40.59375 12.796875 39.90625 12.796875 39.59375 12.796875 
C 38.703125 12.796875 38.59375 12.5 38.296875 11.296875 
C 36.09375 4.203125 30.703125 1.203125 25.296875 1.203125 
C 19.203125 1.203125 11.09375 6.5 11.09375 21.703125 
C 11.09375 38.296875 19.59375 42.40625 24.59375 42.40625 
C 28.40625 42.40625 33.90625 40.90625 36.203125 37 
C 35 37 31.296875 37 31.296875 32.90625 
C 31.296875 30.5 33 28.796875 35.40625 28.796875 
C 37.703125 28.796875 39.59375 30.203125 39.59375 33.09375 
C 39.59375 39.796875 32.59375 44.59375 24.5 44.59375 
C 12.796875 44.59375 3.5 34.203125 3.5 21.59375 
C 3.5 8.796875 13.09375 -1 24.40625 -1 
C 37.59375 -1 40.59375 11 40.59375 11.90625 
z
" id="LMRoman12-Regular-63"/>
      <path d="M 24.796875 0 
L 24.796875 2.90625 
C 18.40625 2.90625 17.203125 2.90625 17.203125 7.40625 
L 17.203125 69.40625 
L 3.296875 68.296875 
L 3.296875 65.40625 
C 10.09375 65.40625 10.90625 64.703125 10.90625 59.796875 
L 10.90625 7.40625 
C 10.90625 2.90625 9.796875 2.90625 3.296875 2.90625 
L 3.296875 0 
C 6.09375 0.203125 11 0.203125 14 0.203125 
C 17 0.203125 22 0.203125 24.796875 0 
z
" id="LMRoman12-Regular-6c"/>
     </defs>
     <g transform="translate(202.096719 334.96525)scale(0.1 -0.1)">
      <use xlink:href="#LMRoman12-Regular-54"/>
      <use x="70.699982" xlink:href="#LMRoman12-Regular-50"/>
      <use x="137.299973" xlink:href="#LMRoman12-Regular-20"/>
      <use x="169.899963" xlink:href="#LMRoman12-Regular-72"/>
      <use x="207.999954" xlink:href="#LMRoman12-Regular-61"/>
      <use x="256.999939" xlink:href="#LMRoman12-Regular-74"/>
      <use x="295.09993" xlink:href="#LMRoman12-Regular-65"/>
      <use x="338.599915" xlink:href="#LMRoman12-Regular-20"/>
      <use x="371.199905" xlink:href="#LMRoman12-Regular-2f"/>
      <use x="420.19989" xlink:href="#LMRoman12-Regular-20"/>
      <use x="452.799881" xlink:href="#LMRoman12-Regular-72"/>
      <use x="490.899872" xlink:href="#LMRoman12-Regular-65"/>
      <use x="534.399857" xlink:href="#LMRoman12-Regular-63"/>
      <use x="577.899841" xlink:href="#LMRoman12-Regular-61"/>
      <use x="626.899826" xlink:href="#LMRoman12-Regular-6c"/>
      <use x="654.099823" xlink:href="#LMRoman12-Regular-6c"/>
     </g>
    </g>
   </g>
   <g id="matplotlib.axis_2">
    <g id="ytick_1">
     <g id="line2d_19">
      <path clip-path="url(#p2b56e7a91d)" d="M 57.6 307.584 
L 414.72 307.584 
" style="fill:none;stroke:#b0b0b0;stroke-linecap:square;stroke-width:0.8;"/>
     </g>
     <g id="line2d_20">
      <defs>
       <path d="M 0 0 
L -3.5 0 
" id="m08bf93fd28" style="stroke:#000000;stroke-width:0.8;"/>
      </defs>
      <g>
       <use style="stroke:#000000;stroke-width:0.8;" x="57.6" xlink:href="#m08bf93fd28" y="307.584"/>
      </g>
     </g>
     <g id="text_11">
      <!-- 0.800 -->
      <g transform="translate(28.279688 311.054312)scale(0.1 -0.1)">
       <use xlink:href="#LMRoman12-Regular-30"/>
       <use x="48.999985" xlink:href="#LMRoman12-Regular-2e"/>
       <use x="76.199982" xlink:href="#LMRoman12-Regular-38"/>
       <use x="125.199966" xlink:href="#LMRoman12-Regular-30"/>
       <use x="174.199951" xlink:href="#LMRoman12-Regular-30"/>
      </g>
     </g>
    </g>
    <g id="ytick_2">
     <g id="line2d_21">
      <path clip-path="url(#p2b56e7a91d)" d="M 57.6 274.32 
L 414.72 274.32 
" style="fill:none;stroke:#b0b0b0;stroke-linecap:square;stroke-width:0.8;"/>
     </g>
     <g id="line2d_22">
      <g>
       <use style="stroke:#000000;stroke-width:0.8;" x="57.6" xlink:href="#m08bf93fd28" y="274.32"/>
      </g>
     </g>
     <g id="text_12">
      <!-- 0.825 -->
      <g transform="translate(28.279688 277.790312)scale(0.1 -0.1)">
       <use xlink:href="#LMRoman12-Regular-30"/>
       <use x="48.999985" xlink:href="#LMRoman12-Regular-2e"/>
       <use x="76.199982" xlink:href="#LMRoman12-Regular-38"/>
       <use x="125.199966" xlink:href="#LMRoman12-Regular-32"/>
       <use x="174.199951" xlink:href="#LMRoman12-Regular-35"/>
      </g>
     </g>
    </g>
    <g id="ytick_3">
     <g id="line2d_23">
      <path clip-path="url(#p2b56e7a91d)" d="M 57.6 241.056 
L 414.72 241.056 
" style="fill:none;stroke:#b0b0b0;stroke-linecap:square;stroke-width:0.8;"/>
     </g>
     <g id="line2d_24">
      <g>
       <use style="stroke:#000000;stroke-width:0.8;" x="57.6" xlink:href="#m08bf93fd28" y="241.056"/>
      </g>
     </g>
     <g id="text_13">
      <!-- 0.850 -->
      <g transform="translate(28.279688 244.526312)scale(0.1 -0.1)">
       <use xlink:href="#LMRoman12-Regular-30"/>
       <use x="48.999985" xlink:href="#LMRoman12-Regular-2e"/>
       <use x="76.199982" xlink:href="#LMRoman12-Regular-38"/>
       <use x="125.199966" xlink:href="#LMRoman12-Regular-35"/>
       <use x="174.199951" xlink:href="#LMRoman12-Regular-30"/>
      </g>
     </g>
    </g>
    <g id="ytick_4">
     <g id="line2d_25">
      <path clip-path="url(#p2b56e7a91d)" d="M 57.6 207.792 
L 414.72 207.792 
" style="fill:none;stroke:#b0b0b0;stroke-linecap:square;stroke-width:0.8;"/>
     </g>
     <g id="line2d_26">
      <g>
       <use style="stroke:#000000;stroke-width:0.8;" x="57.6" xlink:href="#m08bf93fd28" y="207.792"/>
      </g>
     </g>
     <g id="text_14">
      <!-- 0.875 -->
      <g transform="translate(28.279688 211.262312)scale(0.1 -0.1)">
       <use xlink:href="#LMRoman12-Regular-30"/>
       <use x="48.999985" xlink:href="#LMRoman12-Regular-2e"/>
       <use x="76.199982" xlink:href="#LMRoman12-Regular-38"/>
       <use x="125.199966" xlink:href="#LMRoman12-Regular-37"/>
       <use x="174.199951" xlink:href="#LMRoman12-Regular-35"/>
      </g>
     </g>
    </g>
    <g id="ytick_5">
     <g id="line2d_27">
      <path clip-path="url(#p2b56e7a91d)" d="M 57.6 174.528 
L 414.72 174.528 
" style="fill:none;stroke:#b0b0b0;stroke-linecap:square;stroke-width:0.8;"/>
     </g>
     <g id="line2d_28">
      <g>
       <use style="stroke:#000000;stroke-width:0.8;" x="57.6" xlink:href="#m08bf93fd28" y="174.528"/>
      </g>
     </g>
     <g id="text_15">
      <!-- 0.900 -->
      <g transform="translate(28.279688 177.998312)scale(0.1 -0.1)">
       <use xlink:href="#LMRoman12-Regular-30"/>
       <use x="48.999985" xlink:href="#LMRoman12-Regular-2e"/>
       <use x="76.199982" xlink:href="#LMRoman12-Regular-39"/>
       <use x="125.199966" xlink:href="#LMRoman12-Regular-30"/>
       <use x="174.199951" xlink:href="#LMRoman12-Regular-30"/>
      </g>
     </g>
    </g>
    <g id="ytick_6">
     <g id="line2d_29">
      <path clip-path="url(#p2b56e7a91d)" d="M 57.6 141.264 
L 414.72 141.264 
" style="fill:none;stroke:#b0b0b0;stroke-linecap:square;stroke-width:0.8;"/>
     </g>
     <g id="line2d_30">
      <g>
       <use style="stroke:#000000;stroke-width:0.8;" x="57.6" xlink:href="#m08bf93fd28" y="141.264"/>
      </g>
     </g>
     <g id="text_16">
      <!-- 0.925 -->
      <g transform="translate(28.279688 144.734312)scale(0.1 -0.1)">
       <use xlink:href="#LMRoman12-Regular-30"/>
       <use x="48.999985" xlink:href="#LMRoman12-Regular-2e"/>
       <use x="76.199982" xlink:href="#LMRoman12-Regular-39"/>
       <use x="125.199966" xlink:href="#LMRoman12-Regular-32"/>
       <use x="174.199951" xlink:href="#LMRoman12-Regular-35"/>
      </g>
     </g>
    </g>
    <g id="ytick_7">
     <g id="line2d_31">
      <path clip-path="url(#p2b56e7a91d)" d="M 57.6 108 
L 414.72 108 
" style="fill:none;stroke:#b0b0b0;stroke-linecap:square;stroke-width:0.8;"/>
     </g>
     <g id="line2d_32">
      <g>
       <use style="stroke:#000000;stroke-width:0.8;" x="57.6" xlink:href="#m08bf93fd28" y="108"/>
      </g>
     </g>
     <g id="text_17">
      <!-- 0.950 -->
      <g transform="translate(28.279688 111.470312)scale(0.1 -0.1)">
       <use xlink:href="#LMRoman12-Regular-30"/>
       <use x="48.999985" xlink:href="#LMRoman12-Regular-2e"/>
       <use x="76.199982" xlink:href="#LMRoman12-Regular-39"/>
       <use x="125.199966" xlink:href="#LMRoman12-Regular-35"/>
       <use x="174.199951" xlink:href="#LMRoman12-Regular-30"/>
      </g>
     </g>
    </g>
    <g id="ytick_8">
     <g id="line2d_33">
      <path clip-path="url(#p2b56e7a91d)" d="M 57.6 74.736 
L 414.72 74.736 
" style="fill:none;stroke:#b0b0b0;stroke-linecap:square;stroke-width:0.8;"/>
     </g>
     <g id="line2d_34">
      <g>
       <use style="stroke:#000000;stroke-width:0.8;" x="57.6" xlink:href="#m08bf93fd28" y="74.736"/>
      </g>
     </g>
     <g id="text_18">
      <!-- 0.975 -->
      <g transform="translate(28.279688 78.206312)scale(0.1 -0.1)">
       <use xlink:href="#LMRoman12-Regular-30"/>
       <use x="48.999985" xlink:href="#LMRoman12-Regular-2e"/>
       <use x="76.199982" xlink:href="#LMRoman12-Regular-39"/>
       <use x="125.199966" xlink:href="#LMRoman12-Regular-37"/>
       <use x="174.199951" xlink:href="#LMRoman12-Regular-35"/>
      </g>
     </g>
    </g>
    <g id="ytick_9">
     <g id="line2d_35">
      <path clip-path="url(#p2b56e7a91d)" d="M 57.6 41.472 
L 414.72 41.472 
" style="fill:none;stroke:#b0b0b0;stroke-linecap:square;stroke-width:0.8;"/>
     </g>
     <g id="line2d_36">
      <g>
       <use style="stroke:#000000;stroke-width:0.8;" x="57.6" xlink:href="#m08bf93fd28" y="41.472"/>
      </g>
     </g>
     <g id="text_19">
      <!-- 1.000 -->
      <g transform="translate(28.279688 44.942312)scale(0.1 -0.1)">
       <use xlink:href="#LMRoman12-Regular-31"/>
       <use x="48.999985" xlink:href="#LMRoman12-Regular-2e"/>
       <use x="76.199982" xlink:href="#LMRoman12-Regular-30"/>
       <use x="125.199966" xlink:href="#LMRoman12-Regular-30"/>
       <use x="174.199951" xlink:href="#LMRoman12-Regular-30"/>
      </g>
     </g>
    </g>
    <g id="text_20">
     <!-- precision -->
     <defs>
      <path d="M 50.796875 21.59375 
C 50.796875 34.296875 41.40625 44.09375 30.5 44.09375 
C 21.703125 44.09375 17 37.796875 16.703125 37.40625 
L 16.703125 44.09375 
L 2.796875 43 
L 2.796875 40.09375 
C 9.796875 40.09375 10.40625 39.40625 10.40625 35 
L 10.40625 -12 
C 10.40625 -16.5 9.296875 -16.5 2.796875 -16.5 
L 2.796875 -19.40625 
C 5.40625 -19.203125 10.796875 -19.203125 13.59375 -19.203125 
C 16.5 -19.203125 21.90625 -19.203125 24.5 -19.40625 
L 24.5 -16.5 
C 18.09375 -16.5 16.90625 -16.5 16.90625 -12 
L 16.90625 5.40625 
C 18.703125 2.90625 22.796875 -1 29.203125 -1 
C 40.703125 -1 50.796875 8.703125 50.796875 21.59375 
z
M 43.203125 21.59375 
C 43.203125 9.703125 36.40625 1 28.703125 1 
C 25.59375 1 22.703125 2.296875 20.703125 4.203125 
C 18.40625 6.5 16.90625 8.5 16.90625 11.296875 
L 16.90625 31.90625 
C 16.90625 33.796875 16.90625 33.90625 18 35.5 
C 21 40 25.90625 41.90625 29.703125 41.90625 
C 37.203125 41.90625 43.203125 32.796875 43.203125 21.59375 
z
" id="LMRoman12-Regular-70"/>
      <path d="M 24.09375 0 
L 24.09375 2.90625 
C 17.59375 2.90625 17.203125 3.40625 17.203125 7.296875 
L 17.203125 44.09375 
L 3.59375 43 
L 3.59375 40.09375 
C 10 40.09375 10.90625 39.5 10.90625 34.59375 
L 10.90625 7.40625 
C 10.90625 2.90625 9.796875 2.90625 3.296875 2.90625 
L 3.296875 0 
C 6.09375 0.203125 10.90625 0.203125 13.796875 0.203125 
C 14.90625 0.203125 20.703125 0.203125 24.09375 0 
z
M 18.5 60.40625 
C 18.5 63.40625 16.09375 65.296875 13.703125 65.296875 
C 10.90625 65.296875 8.796875 63.09375 8.796875 60.40625 
C 8.796875 57.796875 11 55.59375 13.59375 55.59375 
C 16.59375 55.59375 18.5 58 18.5 60.40625 
z
" id="LMRoman12-Regular-69"/>
      <path d="M 35.203125 12.703125 
C 35.203125 18.09375 31.90625 21.296875 31 22.203125 
C 27.40625 25.296875 24.703125 25.90625 18.09375 27.09375 
C 15.09375 27.703125 7.796875 29.09375 7.796875 35.09375 
C 7.796875 38.203125 9.90625 42.796875 18.90625 42.796875 
C 29.796875 42.796875 30.40625 33.5 30.59375 30.40625 
C 30.703125 29.59375 31.40625 29.59375 31.703125 29.59375 
C 32.796875 29.59375 32.796875 30.09375 32.796875 31.90625 
L 32.796875 42.296875 
C 32.796875 44.09375 32.796875 44.59375 31.796875 44.59375 
C 31 44.59375 29.09375 42.40625 28.40625 41.5 
C 25.296875 44 22.203125 44.59375 19 44.59375 
C 6.90625 44.59375 3.296875 38 3.296875 32.5 
C 3.296875 31.40625 3.296875 27.90625 7.09375 24.40625 
C 10.296875 21.59375 13.703125 20.90625 18.296875 20 
C 23.796875 18.90625 25.09375 18.59375 27.59375 16.59375 
C 29.40625 15.09375 30.703125 12.90625 30.703125 10.09375 
C 30.703125 5.796875 28.203125 1 19.40625 1 
C 12.796875 1 8 4.796875 5.796875 14.796875 
C 5.40625 16.59375 5.296875 16.796875 5.296875 16.796875 
C 5.09375 17.203125 4.703125 17.203125 4.40625 17.203125 
C 3.296875 17.203125 3.296875 16.703125 3.296875 14.90625 
L 3.296875 1.296875 
C 3.296875 -0.5 3.296875 -1 4.296875 -1 
C 4.796875 -1 4.90625 -0.90625 6.59375 1.203125 
C 7.09375 1.90625 7.09375 2.09375 8.59375 3.703125 
C 12.40625 -1 17.796875 -1 19.5 -1 
C 30 -1 35.203125 4.796875 35.203125 12.703125 
z
" id="LMRoman12-Regular-73"/>
      <path d="M 45.90625 21.40625 
C 45.90625 34.296875 36.09375 44.59375 24.5 44.59375 
C 12.5 44.59375 3 34 3 21.40625 
C 3 8.59375 13 -1 24.40625 -1 
C 36.203125 -1 45.90625 8.796875 45.90625 21.40625 
z
M 38.296875 22.296875 
C 38.296875 18.796875 38.296875 12.59375 35.703125 7.90625 
C 32.90625 3.09375 28.296875 1.203125 24.5 1.203125 
C 20.796875 1.203125 16.296875 2.796875 13.40625 7.703125 
C 10.703125 12.203125 10.59375 18.09375 10.59375 22.296875 
C 10.59375 26.09375 10.59375 32.203125 13.703125 36.703125 
C 16.5 41 20.90625 42.59375 24.40625 42.59375 
C 28.296875 42.59375 32.5 40.796875 35.203125 36.90625 
C 38.296875 32.296875 38.296875 26 38.296875 22.296875 
z
" id="LMRoman12-Regular-6f"/>
      <path d="M 52.09375 0 
L 52.09375 2.90625 
C 47.09375 2.90625 44.59375 2.90625 44.5 5.90625 
L 44.5 24.296875 
C 44.5 33.59375 44.5 36.40625 42.203125 39.59375 
C 39.296875 43.5 34.59375 44.09375 31.203125 44.09375 
C 21.5 44.09375 17.703125 35.796875 16.90625 33.796875 
L 16.796875 33.796875 
L 16.796875 44.09375 
L 3.203125 43 
L 3.203125 40.09375 
C 10 40.09375 10.796875 39.40625 10.796875 34.5 
L 10.796875 7.40625 
C 10.796875 2.90625 9.703125 2.90625 3.203125 2.90625 
L 3.203125 0 
C 5.796875 0.203125 11.203125 0.203125 14 0.203125 
C 16.90625 0.203125 22.296875 0.203125 24.90625 0 
L 24.90625 2.90625 
C 18.5 2.90625 17.296875 2.90625 17.296875 7.40625 
L 17.296875 26 
C 17.296875 36.5 24.203125 42.09375 30.40625 42.09375 
C 36.59375 42.09375 38 37 38 30.90625 
L 38 7.40625 
C 38 2.90625 36.90625 2.90625 30.40625 2.90625 
L 30.40625 0 
C 33 0.203125 38.40625 0.203125 41.203125 0.203125 
C 44.09375 0.203125 49.5 0.203125 52.09375 0 
z
" id="LMRoman12-Regular-6e"/>
     </defs>
     <g transform="translate(22.339062 193.323312)rotate(-90)scale(0.1 -0.1)">
      <use xlink:href="#LMRoman12-Regular-70"/>
      <use x="54.399994" xlink:href="#LMRoman12-Regular-72"/>
      <use x="92.499985" xlink:href="#LMRoman12-Regular-65"/>
      <use x="135.999969" xlink:href="#LMRoman12-Regular-63"/>
      <use x="179.499954" xlink:href="#LMRoman12-Regular-69"/>
      <use x="206.699951" xlink:href="#LMRoman12-Regular-73"/>
      <use x="245.299942" xlink:href="#LMRoman12-Regular-69"/>
      <use x="272.499939" xlink:href="#LMRoman12-Regular-6f"/>
      <use x="321.499924" xlink:href="#LMRoman12-Regular-6e"/>
     </g>
    </g>
   </g>
   <g id="line2d_37">
    <path clip-path="url(#p2b56e7a91d)" d="M 325.193029 156.518758 
L 204.794689 119.27822 
L -1 115.662716 
" style="fill:none;stroke:#7d9aaa;stroke-dasharray:5.55,2.4;stroke-dashoffset:0;stroke-width:1.5;"/>
    <defs>
     <path d="M 0 -3 
L -0.673542 -0.927051 
L -2.85317 -0.927051 
L -1.089814 0.354102 
L -1.763356 2.427051 
L -0 1.145898 
L 1.763356 2.427051 
L 1.089814 0.354102 
L 2.85317 -0.927051 
L 0.673542 -0.927051 
z
" id="m4c022506b9" style="stroke:#7d9aaa;stroke-linejoin:bevel;"/>
    </defs>
    <g clip-path="url(#p2b56e7a91d)">
     <use style="fill:#7d9aaa;stroke:#7d9aaa;stroke-linejoin:bevel;" x="325.193029" xlink:href="#m4c022506b9" y="156.518758"/>
     <use style="fill:#7d9aaa;stroke:#7d9aaa;stroke-linejoin:bevel;" x="204.794689" xlink:href="#m4c022506b9" y="119.27822"/>
     <use style="fill:#7d9aaa;stroke:#7d9aaa;stroke-linejoin:bevel;" x="-1" xlink:href="#m4c022506b9" y="115.662716"/>
    </g>
   </g>
   <g id="line2d_38">
    <path clip-path="url(#p2b56e7a91d)" d="M 406.076017 151.715977 
L 398.975602 111.188945 
L 382.613776 86.729143 
L 337.85029 72.69368 
L 133.481826 68.227681 
L -1 69.315371 
" style="fill:none;stroke:#7d9aaa;stroke-dasharray:5.55,2.4;stroke-dashoffset:0;stroke-width:1.5;"/>
    <defs>
     <path d="M -3 3 
L 3 -3 
M -3 -3 
L 3 3 
" id="m409ce3f380" style="stroke:#7d9aaa;"/>
    </defs>
    <g clip-path="url(#p2b56e7a91d)">
     <use style="fill:#7d9aaa;stroke:#7d9aaa;" x="406.076017" xlink:href="#m409ce3f380" y="151.715977"/>
     <use style="fill:#7d9aaa;stroke:#7d9aaa;" x="398.975602" xlink:href="#m409ce3f380" y="111.188945"/>
     <use style="fill:#7d9aaa;stroke:#7d9aaa;" x="382.613776" xlink:href="#m409ce3f380" y="86.729143"/>
     <use style="fill:#7d9aaa;stroke:#7d9aaa;" x="337.85029" xlink:href="#m409ce3f380" y="72.69368"/>
     <use style="fill:#7d9aaa;stroke:#7d9aaa;" x="133.481826" xlink:href="#m409ce3f380" y="68.227681"/>
     <use style="fill:#7d9aaa;stroke:#7d9aaa;" x="-1" xlink:href="#m409ce3f380" y="69.315371"/>
    </g>
   </g>
   <g id="line2d_39">
    <path clip-path="url(#p2b56e7a91d)" d="M 414.411286 151.243728 
L 412.559004 110.685574 
L 408.85444 86.084238 
L 402.371452 71.583363 
L 388.170622 64.420603 
L 331.98473 60.259174 
" style="fill:none;stroke:#7d9aaa;stroke-dasharray:5.55,2.4;stroke-dashoffset:0;stroke-width:1.5;"/>
    <defs>
     <path d="M -3 0 
L 3 0 
M 0 3 
L 0 -3 
" id="m37402212c2" style="stroke:#7d9aaa;"/>
    </defs>
    <g clip-path="url(#p2b56e7a91d)">
     <use style="fill:#7d9aaa;stroke:#7d9aaa;" x="414.411286" xlink:href="#m37402212c2" y="151.243728"/>
     <use style="fill:#7d9aaa;stroke:#7d9aaa;" x="412.559004" xlink:href="#m37402212c2" y="110.685574"/>
     <use style="fill:#7d9aaa;stroke:#7d9aaa;" x="408.85444" xlink:href="#m37402212c2" y="86.084238"/>
     <use style="fill:#7d9aaa;stroke:#7d9aaa;" x="402.371452" xlink:href="#m37402212c2" y="71.583363"/>
     <use style="fill:#7d9aaa;stroke:#7d9aaa;" x="388.170622" xlink:href="#m37402212c2" y="64.420603"/>
     <use style="fill:#7d9aaa;stroke:#7d9aaa;" x="331.98473" xlink:href="#m37402212c2" y="60.259174"/>
    </g>
   </g>
   <g id="line2d_40">
    <path clip-path="url(#p2b56e7a91d)" d="M 414.72 151.226315 
L 414.72 110.606162 
L 414.102573 85.957456 
L 411.632863 71.430436 
L 407.619585 64.173928 
L 399.284315 59.554615 
" style="fill:none;stroke:#7d9aaa;stroke-dasharray:5.55,2.4;stroke-dashoffset:0;stroke-width:1.5;"/>
    <defs>
     <path d="M 0 -3 
L -3 3 
L 3 3 
z
" id="mcbe16bba59" style="stroke:#7d9aaa;stroke-linejoin:miter;"/>
    </defs>
    <g clip-path="url(#p2b56e7a91d)">
     <use style="fill:#7d9aaa;stroke:#7d9aaa;stroke-linejoin:miter;" x="414.72" xlink:href="#mcbe16bba59" y="151.226315"/>
     <use style="fill:#7d9aaa;stroke:#7d9aaa;stroke-linejoin:miter;" x="414.72" xlink:href="#mcbe16bba59" y="110.606162"/>
     <use style="fill:#7d9aaa;stroke:#7d9aaa;stroke-linejoin:miter;" x="414.102573" xlink:href="#mcbe16bba59" y="85.957456"/>
     <use style="fill:#7d9aaa;stroke:#7d9aaa;stroke-linejoin:miter;" x="411.632863" xlink:href="#mcbe16bba59" y="71.430436"/>
     <use style="fill:#7d9aaa;stroke:#7d9aaa;stroke-linejoin:miter;" x="407.619585" xlink:href="#mcbe16bba59" y="64.173928"/>
     <use style="fill:#7d9aaa;stroke:#7d9aaa;stroke-linejoin:miter;" x="399.284315" xlink:href="#mcbe16bba59" y="59.554615"/>
    </g>
   </g>
   <g id="line2d_41">
    <path clip-path="url(#p2b56e7a91d)" d="M 414.72 151.226315 
L 414.72 110.606162 
L 414.72 85.942588 
L 414.102573 71.389917 
L 411.941577 64.11983 
L 409.471867 59.452541 
" style="fill:none;stroke:#7d9aaa;stroke-dasharray:5.55,2.4;stroke-dashoffset:0;stroke-width:1.5;"/>
    <defs>
     <path d="M 3 0 
L -3 -3 
L -3 3 
z
" id="mb4237a994e" style="stroke:#7d9aaa;stroke-linejoin:miter;"/>
    </defs>
    <g clip-path="url(#p2b56e7a91d)">
     <use style="fill:#7d9aaa;stroke:#7d9aaa;stroke-linejoin:miter;" x="414.72" xlink:href="#mb4237a994e" y="151.226315"/>
     <use style="fill:#7d9aaa;stroke:#7d9aaa;stroke-linejoin:miter;" x="414.72" xlink:href="#mb4237a994e" y="110.606162"/>
     <use style="fill:#7d9aaa;stroke:#7d9aaa;stroke-linejoin:miter;" x="414.72" xlink:href="#mb4237a994e" y="85.942588"/>
     <use style="fill:#7d9aaa;stroke:#7d9aaa;stroke-linejoin:miter;" x="414.102573" xlink:href="#mb4237a994e" y="71.389917"/>
     <use style="fill:#7d9aaa;stroke:#7d9aaa;stroke-linejoin:miter;" x="411.941577" xlink:href="#mb4237a994e" y="64.11983"/>
     <use style="fill:#7d9aaa;stroke:#7d9aaa;stroke-linejoin:miter;" x="409.471867" xlink:href="#mb4237a994e" y="59.452541"/>
    </g>
   </g>
   <g id="line2d_42">
    <path clip-path="url(#p2b56e7a91d)" d="M 333.191394 162.073187 
L 187.119308 121.300642 
L -1 115.193211 
" style="fill:none;stroke:#a9a280;stroke-dasharray:9.6,2.4,1.5,2.4;stroke-dashoffset:0;stroke-width:1.5;"/>
    <defs>
     <path d="M 0 -3 
L -0.673542 -0.927051 
L -2.85317 -0.927051 
L -1.089814 0.354102 
L -1.763356 2.427051 
L -0 1.145898 
L 1.763356 2.427051 
L 1.089814 0.354102 
L 2.85317 -0.927051 
L 0.673542 -0.927051 
z
" id="m82f79bb2fd" style="stroke:#a9a280;stroke-linejoin:bevel;"/>
    </defs>
    <g clip-path="url(#p2b56e7a91d)">
     <use style="fill:#a9a280;stroke:#a9a280;stroke-linejoin:bevel;" x="333.191394" xlink:href="#m82f79bb2fd" y="162.073187"/>
     <use style="fill:#a9a280;stroke:#a9a280;stroke-linejoin:bevel;" x="187.119308" xlink:href="#m82f79bb2fd" y="121.300642"/>
     <use style="fill:#a9a280;stroke:#a9a280;stroke-linejoin:bevel;" x="-1" xlink:href="#m82f79bb2fd" y="115.193211"/>
    </g>
   </g>
   <g id="line2d_43">
    <path clip-path="url(#p2b56e7a91d)" d="M 414.41118 157.063218 
L 409.161231 111.869686 
L 393.411387 83.425579 
L 349.8677 68.60719 
L 137.090391 53.88948 
L -1 51.661787 
" style="fill:none;stroke:#a9a280;stroke-dasharray:9.6,2.4,1.5,2.4;stroke-dashoffset:0;stroke-width:1.5;"/>
    <defs>
     <path d="M -3 3 
L 3 -3 
M -3 -3 
L 3 3 
" id="m1d58700abc" style="stroke:#a9a280;"/>
    </defs>
    <g clip-path="url(#p2b56e7a91d)">
     <use style="fill:#a9a280;stroke:#a9a280;" x="414.41118" xlink:href="#m1d58700abc" y="157.063218"/>
     <use style="fill:#a9a280;stroke:#a9a280;" x="409.161231" xlink:href="#m1d58700abc" y="111.869686"/>
     <use style="fill:#a9a280;stroke:#a9a280;" x="393.411387" xlink:href="#m1d58700abc" y="83.425579"/>
     <use style="fill:#a9a280;stroke:#a9a280;" x="349.8677" xlink:href="#m1d58700abc" y="68.60719"/>
     <use style="fill:#a9a280;stroke:#a9a280;" x="137.090391" xlink:href="#m1d58700abc" y="53.88948"/>
     <use style="fill:#a9a280;stroke:#a9a280;" x="-1" xlink:href="#m1d58700abc" y="51.661787"/>
    </g>
   </g>
   <g id="line2d_44">
    <path clip-path="url(#p2b56e7a91d)" d="M 414.72 157.044963 
L 414.72 111.662092 
L 414.72 82.940525 
L 410.396513 67.703298 
L 398.043694 52.072236 
L 340.603085 44.585822 
" style="fill:none;stroke:#a9a280;stroke-dasharray:9.6,2.4,1.5,2.4;stroke-dashoffset:0;stroke-width:1.5;"/>
    <defs>
     <path d="M -3 0 
L 3 0 
M 0 3 
L 0 -3 
" id="m9c7619cd1c" style="stroke:#a9a280;"/>
    </defs>
    <g clip-path="url(#p2b56e7a91d)">
     <use style="fill:#a9a280;stroke:#a9a280;" x="414.72" xlink:href="#m9c7619cd1c" y="157.044963"/>
     <use style="fill:#a9a280;stroke:#a9a280;" x="414.72" xlink:href="#m9c7619cd1c" y="111.662092"/>
     <use style="fill:#a9a280;stroke:#a9a280;" x="414.72" xlink:href="#m9c7619cd1c" y="82.940525"/>
     <use style="fill:#a9a280;stroke:#a9a280;" x="410.396513" xlink:href="#m9c7619cd1c" y="67.703298"/>
     <use style="fill:#a9a280;stroke:#a9a280;" x="398.043694" xlink:href="#m9c7619cd1c" y="52.072236"/>
     <use style="fill:#a9a280;stroke:#a9a280;" x="340.603085" xlink:href="#m9c7619cd1c" y="44.585822"/>
    </g>
   </g>
   <g id="line2d_45">
    <path clip-path="url(#p2b56e7a91d)" d="M 414.72 157.044963 
L 414.72 111.662092 
L 414.72 82.940525 
L 414.72 67.641034 
L 414.72 51.974018 
L 407.925949 44.468238 
" style="fill:none;stroke:#a9a280;stroke-dasharray:9.6,2.4,1.5,2.4;stroke-dashoffset:0;stroke-width:1.5;"/>
    <defs>
     <path d="M 0 -3 
L -3 3 
L 3 3 
z
" id="m0d0b4f1138" style="stroke:#a9a280;stroke-linejoin:miter;"/>
    </defs>
    <g clip-path="url(#p2b56e7a91d)">
     <use style="fill:#a9a280;stroke:#a9a280;stroke-linejoin:miter;" x="414.72" xlink:href="#m0d0b4f1138" y="157.044963"/>
     <use style="fill:#a9a280;stroke:#a9a280;stroke-linejoin:miter;" x="414.72" xlink:href="#m0d0b4f1138" y="111.662092"/>
     <use style="fill:#a9a280;stroke:#a9a280;stroke-linejoin:miter;" x="414.72" xlink:href="#m0d0b4f1138" y="82.940525"/>
     <use style="fill:#a9a280;stroke:#a9a280;stroke-linejoin:miter;" x="414.72" xlink:href="#m0d0b4f1138" y="67.641034"/>
     <use style="fill:#a9a280;stroke:#a9a280;stroke-linejoin:miter;" x="414.72" xlink:href="#m0d0b4f1138" y="51.974018"/>
     <use style="fill:#a9a280;stroke:#a9a280;stroke-linejoin:miter;" x="407.925949" xlink:href="#m0d0b4f1138" y="44.468238"/>
    </g>
   </g>
   <g id="line2d_46">
    <path clip-path="url(#p2b56e7a91d)" d="M 414.72 157.044963 
L 414.72 111.662092 
L 414.72 82.940525 
L 414.72 67.641034 
L 414.72 51.974018 
L 414.72 44.456863 
" style="fill:none;stroke:#a9a280;stroke-dasharray:9.6,2.4,1.5,2.4;stroke-dashoffset:0;stroke-width:1.5;"/>
    <defs>
     <path d="M 3 0 
L -3 -3 
L -3 3 
z
" id="m4e1072ad4e" style="stroke:#a9a280;stroke-linejoin:miter;"/>
    </defs>
    <g clip-path="url(#p2b56e7a91d)">
     <use style="fill:#a9a280;stroke:#a9a280;stroke-linejoin:miter;" x="414.72" xlink:href="#m4e1072ad4e" y="157.044963"/>
     <use style="fill:#a9a280;stroke:#a9a280;stroke-linejoin:miter;" x="414.72" xlink:href="#m4e1072ad4e" y="111.662092"/>
     <use style="fill:#a9a280;stroke:#a9a280;stroke-linejoin:miter;" x="414.72" xlink:href="#m4e1072ad4e" y="82.940525"/>
     <use style="fill:#a9a280;stroke:#a9a280;stroke-linejoin:miter;" x="414.72" xlink:href="#m4e1072ad4e" y="67.641034"/>
     <use style="fill:#a9a280;stroke:#a9a280;stroke-linejoin:miter;" x="414.72" xlink:href="#m4e1072ad4e" y="51.974018"/>
     <use style="fill:#a9a280;stroke:#a9a280;stroke-linejoin:miter;" x="414.72" xlink:href="#m4e1072ad4e" y="44.456863"/>
    </g>
   </g>
   <g id="line2d_47">
    <path clip-path="url(#p2b56e7a91d)" d="M 343.357785 164.232648 
L 187.040554 117.823761 
L -1 103.647393 
" style="fill:none;stroke:#56aa1c;stroke-dasharray:1.5,2.475;stroke-dashoffset:0;stroke-width:1.5;"/>
    <defs>
     <path d="M 0 -3 
L -0.673542 -0.927051 
L -2.85317 -0.927051 
L -1.089814 0.354102 
L -1.763356 2.427051 
L -0 1.145898 
L 1.763356 2.427051 
L 1.089814 0.354102 
L 2.85317 -0.927051 
L 0.673542 -0.927051 
z
" id="ma983692f75" style="stroke:#56aa1c;stroke-linejoin:bevel;"/>
    </defs>
    <g clip-path="url(#p2b56e7a91d)">
     <use style="fill:#56aa1c;stroke:#56aa1c;stroke-linejoin:bevel;" x="343.357785" xlink:href="#ma983692f75" y="164.232648"/>
     <use style="fill:#56aa1c;stroke:#56aa1c;stroke-linejoin:bevel;" x="187.040554" xlink:href="#ma983692f75" y="117.823761"/>
     <use style="fill:#56aa1c;stroke:#56aa1c;stroke-linejoin:bevel;" x="-1" xlink:href="#ma983692f75" y="103.647393"/>
    </g>
   </g>
   <g id="line2d_48">
    <path clip-path="url(#p2b56e7a91d)" d="M 414.72 159.762643 
L 413.484291 108.623392 
L 403.289689 68.92728 
L 356.641661 50.687386 
L 139.156817 44.730514 
L -1 44.193749 
" style="fill:none;stroke:#56aa1c;stroke-dasharray:1.5,2.475;stroke-dashoffset:0;stroke-width:1.5;"/>
    <defs>
     <path d="M -3 3 
L 3 -3 
M -3 -3 
L 3 3 
" id="m7c157f5007" style="stroke:#56aa1c;"/>
    </defs>
    <g clip-path="url(#p2b56e7a91d)">
     <use style="fill:#56aa1c;stroke:#56aa1c;" x="414.72" xlink:href="#m7c157f5007" y="159.762643"/>
     <use style="fill:#56aa1c;stroke:#56aa1c;" x="413.484291" xlink:href="#m7c157f5007" y="108.623392"/>
     <use style="fill:#56aa1c;stroke:#56aa1c;" x="403.289689" xlink:href="#m7c157f5007" y="68.92728"/>
     <use style="fill:#56aa1c;stroke:#56aa1c;" x="356.641661" xlink:href="#m7c157f5007" y="50.687386"/>
     <use style="fill:#56aa1c;stroke:#56aa1c;" x="139.156817" xlink:href="#m7c157f5007" y="44.730514"/>
     <use style="fill:#56aa1c;stroke:#56aa1c;" x="-1" xlink:href="#m7c157f5007" y="44.193749"/>
    </g>
   </g>
   <g id="line2d_49">
    <path clip-path="url(#p2b56e7a91d)" d="M 414.72 159.762643 
L 414.72 108.579265 
L 414.72 68.755132 
L 414.411073 50.391189 
L 402.980761 44.246891 
L 348.918478 42.427347 
" style="fill:none;stroke:#56aa1c;stroke-dasharray:1.5,2.475;stroke-dashoffset:0;stroke-width:1.5;"/>
    <defs>
     <path d="M -3 0 
L 3 0 
M 0 3 
L 0 -3 
" id="m5dbd366180" style="stroke:#56aa1c;"/>
    </defs>
    <g clip-path="url(#p2b56e7a91d)">
     <use style="fill:#56aa1c;stroke:#56aa1c;" x="414.72" xlink:href="#m5dbd366180" y="159.762643"/>
     <use style="fill:#56aa1c;stroke:#56aa1c;" x="414.72" xlink:href="#m5dbd366180" y="108.579265"/>
     <use style="fill:#56aa1c;stroke:#56aa1c;" x="414.72" xlink:href="#m5dbd366180" y="68.755132"/>
     <use style="fill:#56aa1c;stroke:#56aa1c;" x="414.411073" xlink:href="#m5dbd366180" y="50.391189"/>
     <use style="fill:#56aa1c;stroke:#56aa1c;" x="402.980761" xlink:href="#m5dbd366180" y="44.246891"/>
     <use style="fill:#56aa1c;stroke:#56aa1c;" x="348.918478" xlink:href="#m5dbd366180" y="42.427347"/>
    </g>
   </g>
   <g id="line2d_50">
    <path clip-path="url(#p2b56e7a91d)" d="M 414.72 159.762643 
L 414.72 108.579265 
L 414.72 68.755132 
L 414.72 50.389656 
L 414.72 44.228685 
L 410.395017 42.394399 
" style="fill:none;stroke:#56aa1c;stroke-dasharray:1.5,2.475;stroke-dashoffset:0;stroke-width:1.5;"/>
    <defs>
     <path d="M 0 -3 
L -3 3 
L 3 3 
z
" id="me764a2562f" style="stroke:#56aa1c;stroke-linejoin:miter;"/>
    </defs>
    <g clip-path="url(#p2b56e7a91d)">
     <use style="fill:#56aa1c;stroke:#56aa1c;stroke-linejoin:miter;" x="414.72" xlink:href="#me764a2562f" y="159.762643"/>
     <use style="fill:#56aa1c;stroke:#56aa1c;stroke-linejoin:miter;" x="414.72" xlink:href="#me764a2562f" y="108.579265"/>
     <use style="fill:#56aa1c;stroke:#56aa1c;stroke-linejoin:miter;" x="414.72" xlink:href="#me764a2562f" y="68.755132"/>
     <use style="fill:#56aa1c;stroke:#56aa1c;stroke-linejoin:miter;" x="414.72" xlink:href="#me764a2562f" y="50.389656"/>
     <use style="fill:#56aa1c;stroke:#56aa1c;stroke-linejoin:miter;" x="414.72" xlink:href="#me764a2562f" y="44.228685"/>
     <use style="fill:#56aa1c;stroke:#56aa1c;stroke-linejoin:miter;" x="410.395017" xlink:href="#me764a2562f" y="42.394399"/>
    </g>
   </g>
   <g id="line2d_51">
    <path clip-path="url(#p2b56e7a91d)" d="M 414.72 159.762643 
L 414.72 108.579265 
L 414.72 68.755132 
L 414.72 50.389656 
L 414.72 44.228685 
L 414.72 42.392166 
" style="fill:none;stroke:#56aa1c;stroke-dasharray:1.5,2.475;stroke-dashoffset:0;stroke-width:1.5;"/>
    <defs>
     <path d="M 3 0 
L -3 -3 
L -3 3 
z
" id="m2d84a15a67" style="stroke:#56aa1c;stroke-linejoin:miter;"/>
    </defs>
    <g clip-path="url(#p2b56e7a91d)">
     <use style="fill:#56aa1c;stroke:#56aa1c;stroke-linejoin:miter;" x="414.72" xlink:href="#m2d84a15a67" y="159.762643"/>
     <use style="fill:#56aa1c;stroke:#56aa1c;stroke-linejoin:miter;" x="414.72" xlink:href="#m2d84a15a67" y="108.579265"/>
     <use style="fill:#56aa1c;stroke:#56aa1c;stroke-linejoin:miter;" x="414.72" xlink:href="#m2d84a15a67" y="68.755132"/>
     <use style="fill:#56aa1c;stroke:#56aa1c;stroke-linejoin:miter;" x="414.72" xlink:href="#m2d84a15a67" y="50.389656"/>
     <use style="fill:#56aa1c;stroke:#56aa1c;stroke-linejoin:miter;" x="414.72" xlink:href="#m2d84a15a67" y="44.228685"/>
     <use style="fill:#56aa1c;stroke:#56aa1c;stroke-linejoin:miter;" x="414.72" xlink:href="#m2d84a15a67" y="42.392166"/>
    </g>
   </g>
   <g id="patch_3">
    <path d="M 57.6 307.584 
L 57.6 41.472 
" style="fill:none;stroke:#000000;stroke-linecap:square;stroke-linejoin:miter;stroke-width:0.8;"/>
   </g>
   <g id="patch_4">
    <path d="M 414.72 307.584 
L 414.72 41.472 
" style="fill:none;stroke:#000000;stroke-linecap:square;stroke-linejoin:miter;stroke-width:0.8;"/>
   </g>
   <g id="patch_5">
    <path d="M 57.6 307.584 
L 414.72 307.584 
" style="fill:none;stroke:#000000;stroke-linecap:square;stroke-linejoin:miter;stroke-width:0.8;"/>
   </g>
   <g id="patch_6">
    <path d="M 57.6 41.472 
L 414.72 41.472 
" style="fill:none;stroke:#000000;stroke-linecap:square;stroke-linejoin:miter;stroke-width:0.8;"/>
   </g>
   <g id="patch_7">
    <path d="M 321.038399 162.683484 
Q 322.868138 160.570535 324.697878 158.457586 
Q 325.290393 161.189147 325.882908 163.920708 
z
" style="stroke:#000000;stroke-linecap:round;"/>
   </g>
   <g id="text_21">
    <!--   -->
    <g transform="translate(325.193029 156.518758)scale(0.1 -0.1)">
     <use xlink:href="#LMRoman12-Regular-20"/>
    </g>
   </g>
   <g id="patch_8">
    <path d="M 401.921386 157.880703 
Q 403.751126 155.767754 405.580865 153.654805 
Q 406.173381 156.386366 406.765896 159.117927 
z
" style="stroke:#000000;stroke-linecap:round;"/>
   </g>
   <g id="text_22">
    <!--   -->
    <g transform="translate(406.076017 151.715977)scale(0.1 -0.1)">
     <use xlink:href="#LMRoman12-Regular-20"/>
    </g>
   </g>
   <g id="patch_9">
    <path d="M 410.256656 157.408454 
Q 412.086395 155.295505 413.916135 153.182556 
Q 414.50865 155.914117 415.101166 158.645678 
z
" style="stroke:#000000;stroke-linecap:round;"/>
   </g>
   <g id="text_23">
    <!--   -->
    <g transform="translate(414.411286 151.243728)scale(0.1 -0.1)">
     <use xlink:href="#LMRoman12-Regular-20"/>
    </g>
   </g>
   <g id="patch_10">
    <path d="M 410.56537 157.391041 
Q 412.395109 155.278092 414.224849 153.165143 
Q 414.817364 155.896704 415.409879 158.628265 
z
" style="stroke:#000000;stroke-linecap:round;"/>
   </g>
   <g id="text_24">
    <!--   -->
    <g transform="translate(414.72 151.226315)scale(0.1 -0.1)">
     <use xlink:href="#LMRoman12-Regular-20"/>
    </g>
   </g>
   <g id="patch_11">
    <path d="M 410.56537 157.391041 
Q 412.395109 155.278092 414.224849 153.165143 
Q 414.817364 155.896704 415.409879 158.628265 
z
" style="stroke:#000000;stroke-linecap:round;"/>
   </g>
   <g id="text_25">
    <!--   -->
    <g transform="translate(414.72 151.226315)scale(0.1 -0.1)">
     <use xlink:href="#LMRoman12-Regular-20"/>
    </g>
   </g>
   <g id="patch_12">
    <path d="M 329.036763 168.237913 
Q 330.866503 166.124964 332.696243 164.012015 
Q 333.288758 166.743576 333.881273 169.475137 
z
" style="stroke:#000000;stroke-linecap:round;"/>
   </g>
   <g id="text_26">
    <!--   -->
    <g transform="translate(333.191394 162.073187)scale(0.1 -0.1)">
     <use xlink:href="#LMRoman12-Regular-20"/>
    </g>
   </g>
   <g id="patch_13">
    <path d="M 410.256549 163.227944 
Q 412.086289 161.114995 413.916028 159.002046 
Q 414.508544 161.733607 415.101059 164.465168 
z
" style="stroke:#000000;stroke-linecap:round;"/>
   </g>
   <g id="text_27">
    <!--   -->
    <g transform="translate(414.41118 157.063218)scale(0.1 -0.1)">
     <use xlink:href="#LMRoman12-Regular-20"/>
    </g>
   </g>
   <g id="patch_14">
    <path d="M 410.56537 163.209689 
Q 412.395109 161.09674 414.224849 158.983791 
Q 414.817364 161.715352 415.409879 164.446913 
z
" style="stroke:#000000;stroke-linecap:round;"/>
   </g>
   <g id="text_28">
    <!--   -->
    <g transform="translate(414.72 157.044963)scale(0.1 -0.1)">
     <use xlink:href="#LMRoman12-Regular-20"/>
    </g>
   </g>
   <g id="patch_15">
    <path d="M 410.56537 163.209689 
Q 412.395109 161.09674 414.224849 158.983791 
Q 414.817364 161.715352 415.409879 164.446913 
z
" style="stroke:#000000;stroke-linecap:round;"/>
   </g>
   <g id="text_29">
    <!--   -->
    <g transform="translate(414.72 157.044963)scale(0.1 -0.1)">
     <use xlink:href="#LMRoman12-Regular-20"/>
    </g>
   </g>
   <g id="patch_16">
    <path d="M 410.56537 163.209689 
Q 412.395109 161.09674 414.224849 158.983791 
Q 414.817364 161.715352 415.409879 164.446913 
z
" style="stroke:#000000;stroke-linecap:round;"/>
   </g>
   <g id="text_30">
    <!--   -->
    <g transform="translate(414.72 157.044963)scale(0.1 -0.1)">
     <use xlink:href="#LMRoman12-Regular-20"/>
    </g>
   </g>
   <g id="patch_17">
    <path d="M 339.203155 170.397374 
Q 341.032895 168.284425 342.862634 166.171476 
Q 343.45515 168.903037 344.047665 171.634598 
z
" style="stroke:#000000;stroke-linecap:round;"/>
   </g>
   <g id="text_31">
    <!--   -->
    <g transform="translate(343.357785 164.232648)scale(0.1 -0.1)">
     <use xlink:href="#LMRoman12-Regular-20"/>
    </g>
   </g>
   <g id="patch_18">
    <path d="M 410.56537 165.927369 
Q 412.395109 163.81442 414.224849 161.701471 
Q 414.817364 164.433032 415.409879 167.164593 
z
" style="stroke:#000000;stroke-linecap:round;"/>
   </g>
   <g id="text_32">
    <!--   -->
    <g transform="translate(414.72 159.762643)scale(0.1 -0.1)">
     <use xlink:href="#LMRoman12-Regular-20"/>
    </g>
   </g>
   <g id="patch_19">
    <path d="M 410.56537 165.927369 
Q 412.395109 163.81442 414.224849 161.701471 
Q 414.817364 164.433032 415.409879 167.164593 
z
" style="stroke:#000000;stroke-linecap:round;"/>
   </g>
   <g id="text_33">
    <!--   -->
    <g transform="translate(414.72 159.762643)scale(0.1 -0.1)">
     <use xlink:href="#LMRoman12-Regular-20"/>
    </g>
   </g>
   <g id="patch_20">
    <path d="M 410.56537 165.927369 
Q 412.395109 163.81442 414.224849 161.701471 
Q 414.817364 164.433032 415.409879 167.164593 
z
" style="stroke:#000000;stroke-linecap:round;"/>
   </g>
   <g id="text_34">
    <!--   -->
    <g transform="translate(414.72 159.762643)scale(0.1 -0.1)">
     <use xlink:href="#LMRoman12-Regular-20"/>
    </g>
   </g>
   <g id="patch_21">
    <path d="M 410.56537 165.927369 
Q 412.395109 163.81442 414.224849 161.701471 
Q 414.817364 164.433032 415.409879 167.164593 
z
" style="stroke:#000000;stroke-linecap:round;"/>
   </g>
   <g id="text_35">
    <!--   -->
    <g transform="translate(414.72 159.762643)scale(0.1 -0.1)">
     <use xlink:href="#LMRoman12-Regular-20"/>
    </g>
   </g>
   <g id="legend_1">
    <g id="patch_22">
     <path d="M 64.6 302.584 
L 141.770312 302.584 
Q 143.770312 302.584 143.770312 300.584 
L 143.770312 92.474625 
Q 143.770312 90.474625 141.770312 90.474625 
L 64.6 90.474625 
Q 62.6 90.474625 62.6 92.474625 
L 62.6 300.584 
Q 62.6 302.584 64.6 302.584 
z
" style="fill:#ffffff;opacity:0.8;stroke:#cccccc;stroke-linejoin:miter;"/>
    </g>
    <g id="line2d_52">
     <path d="M 66.6 97.974625 
L 86.6 97.974625 
" style="fill:none;stroke:#7d9aaa;stroke-dasharray:5.55,2.4;stroke-dashoffset:0;stroke-width:1.5;"/>
    </g>
    <g id="line2d_53">
     <g>
      <use style="fill:#7d9aaa;stroke:#7d9aaa;stroke-linejoin:bevel;" x="76.6" xlink:href="#m4c022506b9" y="97.974625"/>
     </g>
    </g>
    <g id="text_36">
     <!-- e=1 a=0.5 -->
     <defs>
      <path d="M 70.703125 34.203125 
C 70.703125 36.09375 69 36.09375 67.5 36.09375 
L 8.59375 36.09375 
C 7.203125 36.09375 5.40625 36.09375 5.40625 34.296875 
C 5.40625 32.40625 7.09375 32.40625 8.59375 32.40625 
L 67.5 32.40625 
C 68.90625 32.40625 70.703125 32.40625 70.703125 34.203125 
z
M 70.703125 15.59375 
C 70.703125 17.5 69 17.5 67.5 17.5 
L 8.59375 17.5 
C 7.203125 17.5 5.40625 17.5 5.40625 15.703125 
C 5.40625 13.796875 7.09375 13.796875 8.59375 13.796875 
L 67.5 13.796875 
C 68.90625 13.796875 70.703125 13.796875 70.703125 15.59375 
z
" id="LMRoman12-Regular-3d"/>
     </defs>
     <g transform="translate(94.6 101.474625)scale(0.1 -0.1)">
      <use xlink:href="#LMRoman12-Regular-65"/>
      <use x="43.499985" xlink:href="#LMRoman12-Regular-3d"/>
      <use x="119.699966" xlink:href="#LMRoman12-Regular-31"/>
      <use x="168.699951" xlink:href="#LMRoman12-Regular-20"/>
      <use x="201.299942" xlink:href="#LMRoman12-Regular-61"/>
      <use x="250.299927" xlink:href="#LMRoman12-Regular-3d"/>
      <use x="326.499908" xlink:href="#LMRoman12-Regular-30"/>
      <use x="375.499893" xlink:href="#LMRoman12-Regular-2e"/>
      <use x="402.69989" xlink:href="#LMRoman12-Regular-35"/>
     </g>
    </g>
    <g id="line2d_54">
     <path d="M 66.6 111.91525 
L 86.6 111.91525 
" style="fill:none;stroke:#7d9aaa;stroke-dasharray:5.55,2.4;stroke-dashoffset:0;stroke-width:1.5;"/>
    </g>
    <g id="line2d_55">
     <g>
      <use style="fill:#7d9aaa;stroke:#7d9aaa;" x="76.6" xlink:href="#m409ce3f380" y="111.91525"/>
     </g>
    </g>
    <g id="text_37">
     <!-- e=1 a=1   -->
     <g transform="translate(94.6 115.41525)scale(0.1 -0.1)">
      <use xlink:href="#LMRoman12-Regular-65"/>
      <use x="43.499985" xlink:href="#LMRoman12-Regular-3d"/>
      <use x="119.699966" xlink:href="#LMRoman12-Regular-31"/>
      <use x="168.699951" xlink:href="#LMRoman12-Regular-20"/>
      <use x="201.299942" xlink:href="#LMRoman12-Regular-61"/>
      <use x="250.299927" xlink:href="#LMRoman12-Regular-3d"/>
      <use x="326.499908" xlink:href="#LMRoman12-Regular-31"/>
      <use x="375.499893" xlink:href="#LMRoman12-Regular-20"/>
      <use x="408.099884" xlink:href="#LMRoman12-Regular-20"/>
     </g>
    </g>
    <g id="line2d_56">
     <path d="M 66.6 125.855875 
L 86.6 125.855875 
" style="fill:none;stroke:#7d9aaa;stroke-dasharray:5.55,2.4;stroke-dashoffset:0;stroke-width:1.5;"/>
    </g>
    <g id="line2d_57">
     <g>
      <use style="fill:#7d9aaa;stroke:#7d9aaa;" x="76.6" xlink:href="#m37402212c2" y="125.855875"/>
     </g>
    </g>
    <g id="text_38">
     <!-- e=1 a=1.5 -->
     <g transform="translate(94.6 129.355875)scale(0.1 -0.1)">
      <use xlink:href="#LMRoman12-Regular-65"/>
      <use x="43.499985" xlink:href="#LMRoman12-Regular-3d"/>
      <use x="119.699966" xlink:href="#LMRoman12-Regular-31"/>
      <use x="168.699951" xlink:href="#LMRoman12-Regular-20"/>
      <use x="201.299942" xlink:href="#LMRoman12-Regular-61"/>
      <use x="250.299927" xlink:href="#LMRoman12-Regular-3d"/>
      <use x="326.499908" xlink:href="#LMRoman12-Regular-31"/>
      <use x="375.499893" xlink:href="#LMRoman12-Regular-2e"/>
      <use x="402.69989" xlink:href="#LMRoman12-Regular-35"/>
     </g>
    </g>
    <g id="line2d_58">
     <path d="M 66.6 139.7965 
L 86.6 139.7965 
" style="fill:none;stroke:#7d9aaa;stroke-dasharray:5.55,2.4;stroke-dashoffset:0;stroke-width:1.5;"/>
    </g>
    <g id="line2d_59">
     <g>
      <use style="fill:#7d9aaa;stroke:#7d9aaa;stroke-linejoin:miter;" x="76.6" xlink:href="#mcbe16bba59" y="139.7965"/>
     </g>
    </g>
    <g id="text_39">
     <!-- e=1 a=2   -->
     <g transform="translate(94.6 143.2965)scale(0.1 -0.1)">
      <use xlink:href="#LMRoman12-Regular-65"/>
      <use x="43.499985" xlink:href="#LMRoman12-Regular-3d"/>
      <use x="119.699966" xlink:href="#LMRoman12-Regular-31"/>
      <use x="168.699951" xlink:href="#LMRoman12-Regular-20"/>
      <use x="201.299942" xlink:href="#LMRoman12-Regular-61"/>
      <use x="250.299927" xlink:href="#LMRoman12-Regular-3d"/>
      <use x="326.499908" xlink:href="#LMRoman12-Regular-32"/>
      <use x="375.499893" xlink:href="#LMRoman12-Regular-20"/>
      <use x="408.099884" xlink:href="#LMRoman12-Regular-20"/>
     </g>
    </g>
    <g id="line2d_60">
     <path d="M 66.6 153.737125 
L 86.6 153.737125 
" style="fill:none;stroke:#7d9aaa;stroke-dasharray:5.55,2.4;stroke-dashoffset:0;stroke-width:1.5;"/>
    </g>
    <g id="line2d_61">
     <g>
      <use style="fill:#7d9aaa;stroke:#7d9aaa;stroke-linejoin:miter;" x="76.6" xlink:href="#mb4237a994e" y="153.737125"/>
     </g>
    </g>
    <g id="text_40">
     <!-- e=1 a=2.5 -->
     <g transform="translate(94.6 157.237125)scale(0.1 -0.1)">
      <use xlink:href="#LMRoman12-Regular-65"/>
      <use x="43.499985" xlink:href="#LMRoman12-Regular-3d"/>
      <use x="119.699966" xlink:href="#LMRoman12-Regular-31"/>
      <use x="168.699951" xlink:href="#LMRoman12-Regular-20"/>
      <use x="201.299942" xlink:href="#LMRoman12-Regular-61"/>
      <use x="250.299927" xlink:href="#LMRoman12-Regular-3d"/>
      <use x="326.499908" xlink:href="#LMRoman12-Regular-32"/>
      <use x="375.499893" xlink:href="#LMRoman12-Regular-2e"/>
      <use x="402.69989" xlink:href="#LMRoman12-Regular-35"/>
     </g>
    </g>
    <g id="line2d_62">
     <path d="M 66.6 167.67775 
L 86.6 167.67775 
" style="fill:none;stroke:#a9a280;stroke-dasharray:9.6,2.4,1.5,2.4;stroke-dashoffset:0;stroke-width:1.5;"/>
    </g>
    <g id="line2d_63">
     <g>
      <use style="fill:#a9a280;stroke:#a9a280;stroke-linejoin:bevel;" x="76.6" xlink:href="#m82f79bb2fd" y="167.67775"/>
     </g>
    </g>
    <g id="text_41">
     <!-- e=2 a=0.5 -->
     <g transform="translate(94.6 171.17775)scale(0.1 -0.1)">
      <use xlink:href="#LMRoman12-Regular-65"/>
      <use x="43.499985" xlink:href="#LMRoman12-Regular-3d"/>
      <use x="119.699966" xlink:href="#LMRoman12-Regular-32"/>
      <use x="168.699951" xlink:href="#LMRoman12-Regular-20"/>
      <use x="201.299942" xlink:href="#LMRoman12-Regular-61"/>
      <use x="250.299927" xlink:href="#LMRoman12-Regular-3d"/>
      <use x="326.499908" xlink:href="#LMRoman12-Regular-30"/>
      <use x="375.499893" xlink:href="#LMRoman12-Regular-2e"/>
      <use x="402.69989" xlink:href="#LMRoman12-Regular-35"/>
     </g>
    </g>
    <g id="line2d_64">
     <path d="M 66.6 181.618375 
L 86.6 181.618375 
" style="fill:none;stroke:#a9a280;stroke-dasharray:9.6,2.4,1.5,2.4;stroke-dashoffset:0;stroke-width:1.5;"/>
    </g>
    <g id="line2d_65">
     <g>
      <use style="fill:#a9a280;stroke:#a9a280;" x="76.6" xlink:href="#m1d58700abc" y="181.618375"/>
     </g>
    </g>
    <g id="text_42">
     <!-- e=2 a=1   -->
     <g transform="translate(94.6 185.118375)scale(0.1 -0.1)">
      <use xlink:href="#LMRoman12-Regular-65"/>
      <use x="43.499985" xlink:href="#LMRoman12-Regular-3d"/>
      <use x="119.699966" xlink:href="#LMRoman12-Regular-32"/>
      <use x="168.699951" xlink:href="#LMRoman12-Regular-20"/>
      <use x="201.299942" xlink:href="#LMRoman12-Regular-61"/>
      <use x="250.299927" xlink:href="#LMRoman12-Regular-3d"/>
      <use x="326.499908" xlink:href="#LMRoman12-Regular-31"/>
      <use x="375.499893" xlink:href="#LMRoman12-Regular-20"/>
      <use x="408.099884" xlink:href="#LMRoman12-Regular-20"/>
     </g>
    </g>
    <g id="line2d_66">
     <path d="M 66.6 195.559 
L 86.6 195.559 
" style="fill:none;stroke:#a9a280;stroke-dasharray:9.6,2.4,1.5,2.4;stroke-dashoffset:0;stroke-width:1.5;"/>
    </g>
    <g id="line2d_67">
     <g>
      <use style="fill:#a9a280;stroke:#a9a280;" x="76.6" xlink:href="#m9c7619cd1c" y="195.559"/>
     </g>
    </g>
    <g id="text_43">
     <!-- e=2 a=1.5 -->
     <g transform="translate(94.6 199.059)scale(0.1 -0.1)">
      <use xlink:href="#LMRoman12-Regular-65"/>
      <use x="43.499985" xlink:href="#LMRoman12-Regular-3d"/>
      <use x="119.699966" xlink:href="#LMRoman12-Regular-32"/>
      <use x="168.699951" xlink:href="#LMRoman12-Regular-20"/>
      <use x="201.299942" xlink:href="#LMRoman12-Regular-61"/>
      <use x="250.299927" xlink:href="#LMRoman12-Regular-3d"/>
      <use x="326.499908" xlink:href="#LMRoman12-Regular-31"/>
      <use x="375.499893" xlink:href="#LMRoman12-Regular-2e"/>
      <use x="402.69989" xlink:href="#LMRoman12-Regular-35"/>
     </g>
    </g>
    <g id="line2d_68">
     <path d="M 66.6 209.499625 
L 86.6 209.499625 
" style="fill:none;stroke:#a9a280;stroke-dasharray:9.6,2.4,1.5,2.4;stroke-dashoffset:0;stroke-width:1.5;"/>
    </g>
    <g id="line2d_69">
     <g>
      <use style="fill:#a9a280;stroke:#a9a280;stroke-linejoin:miter;" x="76.6" xlink:href="#m0d0b4f1138" y="209.499625"/>
     </g>
    </g>
    <g id="text_44">
     <!-- e=2 a=2   -->
     <g transform="translate(94.6 212.999625)scale(0.1 -0.1)">
      <use xlink:href="#LMRoman12-Regular-65"/>
      <use x="43.499985" xlink:href="#LMRoman12-Regular-3d"/>
      <use x="119.699966" xlink:href="#LMRoman12-Regular-32"/>
      <use x="168.699951" xlink:href="#LMRoman12-Regular-20"/>
      <use x="201.299942" xlink:href="#LMRoman12-Regular-61"/>
      <use x="250.299927" xlink:href="#LMRoman12-Regular-3d"/>
      <use x="326.499908" xlink:href="#LMRoman12-Regular-32"/>
      <use x="375.499893" xlink:href="#LMRoman12-Regular-20"/>
      <use x="408.099884" xlink:href="#LMRoman12-Regular-20"/>
     </g>
    </g>
    <g id="line2d_70">
     <path d="M 66.6 223.44025 
L 86.6 223.44025 
" style="fill:none;stroke:#a9a280;stroke-dasharray:9.6,2.4,1.5,2.4;stroke-dashoffset:0;stroke-width:1.5;"/>
    </g>
    <g id="line2d_71">
     <g>
      <use style="fill:#a9a280;stroke:#a9a280;stroke-linejoin:miter;" x="76.6" xlink:href="#m4e1072ad4e" y="223.44025"/>
     </g>
    </g>
    <g id="text_45">
     <!-- e=2 a=2.5 -->
     <g transform="translate(94.6 226.94025)scale(0.1 -0.1)">
      <use xlink:href="#LMRoman12-Regular-65"/>
      <use x="43.499985" xlink:href="#LMRoman12-Regular-3d"/>
      <use x="119.699966" xlink:href="#LMRoman12-Regular-32"/>
      <use x="168.699951" xlink:href="#LMRoman12-Regular-20"/>
      <use x="201.299942" xlink:href="#LMRoman12-Regular-61"/>
      <use x="250.299927" xlink:href="#LMRoman12-Regular-3d"/>
      <use x="326.499908" xlink:href="#LMRoman12-Regular-32"/>
      <use x="375.499893" xlink:href="#LMRoman12-Regular-2e"/>
      <use x="402.69989" xlink:href="#LMRoman12-Regular-35"/>
     </g>
    </g>
    <g id="line2d_72">
     <path d="M 66.6 237.380875 
L 86.6 237.380875 
" style="fill:none;stroke:#56aa1c;stroke-dasharray:1.5,2.475;stroke-dashoffset:0;stroke-width:1.5;"/>
    </g>
    <g id="line2d_73">
     <g>
      <use style="fill:#56aa1c;stroke:#56aa1c;stroke-linejoin:bevel;" x="76.6" xlink:href="#ma983692f75" y="237.380875"/>
     </g>
    </g>
    <g id="text_46">
     <!-- e=3 a=0.5 -->
     <defs>
      <path d="M 44.796875 17.09375 
C 44.796875 26.296875 37.40625 33.5 27.796875 35.203125 
C 36.5 37.703125 42.09375 45 42.09375 52.796875 
C 42.09375 60.703125 33.90625 66.5 24.203125 66.5 
C 14.203125 66.5 6.796875 60.40625 6.796875 53.09375 
C 6.796875 49.09375 9.90625 48.296875 11.40625 48.296875 
C 13.5 48.296875 15.90625 49.796875 15.90625 52.796875 
C 15.90625 56 13.5 57.40625 11.296875 57.40625 
C 10.703125 57.40625 10.5 57.40625 10.203125 57.296875 
C 14 64.09375 23.40625 64.09375 23.90625 64.09375 
C 27.203125 64.09375 33.703125 62.59375 33.703125 52.796875 
C 33.703125 50.90625 33.40625 45.296875 30.5 41 
C 27.5 36.59375 24.09375 36.296875 21.40625 36.203125 
L 18.40625 35.90625 
C 16.703125 35.796875 16.296875 35.703125 16.296875 34.796875 
C 16.296875 33.796875 16.796875 33.796875 18.59375 33.796875 
L 23.203125 33.796875 
C 31.703125 33.796875 35.5 26.796875 35.5 17.203125 
C 35.5 4.09375 28.703125 0.59375 23.796875 0.59375 
C 19 0.59375 10.796875 2.90625 7.90625 9.5 
C 11.09375 9 14 10.796875 14 14.40625 
C 14 17.296875 11.90625 19.296875 9.09375 19.296875 
C 6.703125 19.296875 4.09375 17.90625 4.09375 14.09375 
C 4.09375 5.203125 13 -2.09375 24.09375 -2.09375 
C 36 -2.09375 44.796875 7 44.796875 17.09375 
z
" id="LMRoman12-Regular-33"/>
     </defs>
     <g transform="translate(94.6 240.880875)scale(0.1 -0.1)">
      <use xlink:href="#LMRoman12-Regular-65"/>
      <use x="43.499985" xlink:href="#LMRoman12-Regular-3d"/>
      <use x="119.699966" xlink:href="#LMRoman12-Regular-33"/>
      <use x="168.699951" xlink:href="#LMRoman12-Regular-20"/>
      <use x="201.299942" xlink:href="#LMRoman12-Regular-61"/>
      <use x="250.299927" xlink:href="#LMRoman12-Regular-3d"/>
      <use x="326.499908" xlink:href="#LMRoman12-Regular-30"/>
      <use x="375.499893" xlink:href="#LMRoman12-Regular-2e"/>
      <use x="402.69989" xlink:href="#LMRoman12-Regular-35"/>
     </g>
    </g>
    <g id="line2d_74">
     <path d="M 66.6 251.3215 
L 86.6 251.3215 
" style="fill:none;stroke:#56aa1c;stroke-dasharray:1.5,2.475;stroke-dashoffset:0;stroke-width:1.5;"/>
    </g>
    <g id="line2d_75">
     <g>
      <use style="fill:#56aa1c;stroke:#56aa1c;" x="76.6" xlink:href="#m7c157f5007" y="251.3215"/>
     </g>
    </g>
    <g id="text_47">
     <!-- e=3 a=1   -->
     <g transform="translate(94.6 254.8215)scale(0.1 -0.1)">
      <use xlink:href="#LMRoman12-Regular-65"/>
      <use x="43.499985" xlink:href="#LMRoman12-Regular-3d"/>
      <use x="119.699966" xlink:href="#LMRoman12-Regular-33"/>
      <use x="168.699951" xlink:href="#LMRoman12-Regular-20"/>
      <use x="201.299942" xlink:href="#LMRoman12-Regular-61"/>
      <use x="250.299927" xlink:href="#LMRoman12-Regular-3d"/>
      <use x="326.499908" xlink:href="#LMRoman12-Regular-31"/>
      <use x="375.499893" xlink:href="#LMRoman12-Regular-20"/>
      <use x="408.099884" xlink:href="#LMRoman12-Regular-20"/>
     </g>
    </g>
    <g id="line2d_76">
     <path d="M 66.6 265.262125 
L 86.6 265.262125 
" style="fill:none;stroke:#56aa1c;stroke-dasharray:1.5,2.475;stroke-dashoffset:0;stroke-width:1.5;"/>
    </g>
    <g id="line2d_77">
     <g>
      <use style="fill:#56aa1c;stroke:#56aa1c;" x="76.6" xlink:href="#m5dbd366180" y="265.262125"/>
     </g>
    </g>
    <g id="text_48">
     <!-- e=3 a=1.5 -->
     <g transform="translate(94.6 268.762125)scale(0.1 -0.1)">
      <use xlink:href="#LMRoman12-Regular-65"/>
      <use x="43.499985" xlink:href="#LMRoman12-Regular-3d"/>
      <use x="119.699966" xlink:href="#LMRoman12-Regular-33"/>
      <use x="168.699951" xlink:href="#LMRoman12-Regular-20"/>
      <use x="201.299942" xlink:href="#LMRoman12-Regular-61"/>
      <use x="250.299927" xlink:href="#LMRoman12-Regular-3d"/>
      <use x="326.499908" xlink:href="#LMRoman12-Regular-31"/>
      <use x="375.499893" xlink:href="#LMRoman12-Regular-2e"/>
      <use x="402.69989" xlink:href="#LMRoman12-Regular-35"/>
     </g>
    </g>
    <g id="line2d_78">
     <path d="M 66.6 279.20275 
L 86.6 279.20275 
" style="fill:none;stroke:#56aa1c;stroke-dasharray:1.5,2.475;stroke-dashoffset:0;stroke-width:1.5;"/>
    </g>
    <g id="line2d_79">
     <g>
      <use style="fill:#56aa1c;stroke:#56aa1c;stroke-linejoin:miter;" x="76.6" xlink:href="#me764a2562f" y="279.20275"/>
     </g>
    </g>
    <g id="text_49">
     <!-- e=3 a=2   -->
     <g transform="translate(94.6 282.70275)scale(0.1 -0.1)">
      <use xlink:href="#LMRoman12-Regular-65"/>
      <use x="43.499985" xlink:href="#LMRoman12-Regular-3d"/>
      <use x="119.699966" xlink:href="#LMRoman12-Regular-33"/>
      <use x="168.699951" xlink:href="#LMRoman12-Regular-20"/>
      <use x="201.299942" xlink:href="#LMRoman12-Regular-61"/>
      <use x="250.299927" xlink:href="#LMRoman12-Regular-3d"/>
      <use x="326.499908" xlink:href="#LMRoman12-Regular-32"/>
      <use x="375.499893" xlink:href="#LMRoman12-Regular-20"/>
      <use x="408.099884" xlink:href="#LMRoman12-Regular-20"/>
     </g>
    </g>
    <g id="line2d_80">
     <path d="M 66.6 293.143375 
L 86.6 293.143375 
" style="fill:none;stroke:#56aa1c;stroke-dasharray:1.5,2.475;stroke-dashoffset:0;stroke-width:1.5;"/>
    </g>
    <g id="line2d_81">
     <g>
      <use style="fill:#56aa1c;stroke:#56aa1c;stroke-linejoin:miter;" x="76.6" xlink:href="#m2d84a15a67" y="293.143375"/>
     </g>
    </g>
    <g id="text_50">
     <!-- e=3 a=2.5 -->
     <g transform="translate(94.6 296.643375)scale(0.1 -0.1)">
      <use xlink:href="#LMRoman12-Regular-65"/>
      <use x="43.499985" xlink:href="#LMRoman12-Regular-3d"/>
      <use x="119.699966" xlink:href="#LMRoman12-Regular-33"/>
      <use x="168.699951" xlink:href="#LMRoman12-Regular-20"/>
      <use x="201.299942" xlink:href="#LMRoman12-Regular-61"/>
      <use x="250.299927" xlink:href="#LMRoman12-Regular-3d"/>
      <use x="326.499908" xlink:href="#LMRoman12-Regular-32"/>
      <use x="375.499893" xlink:href="#LMRoman12-Regular-2e"/>
      <use x="402.69989" xlink:href="#LMRoman12-Regular-35"/>
     </g>
    </g>
   </g>
  </g>
 </g>
 <defs>
  <clipPath id="p2b56e7a91d">
   <rect height="266.112" width="357.12" x="57.6" y="41.472"/>
  </clipPath>
 </defs>
</svg>
