<?xml version="1.0" encoding="utf-8" standalone="no"?>
<!DOCTYPE svg PUBLIC "-//W3C//DTD SVG 1.1//EN"
  "http://www.w3.org/Graphics/SVG/1.1/DTD/svg11.dtd">
<!-- Created with matplotlib (http://matplotlib.org/) -->
<svg height="345pt" version="1.1" viewBox="0 0 460 345" width="460pt" xmlns="http://www.w3.org/2000/svg" xmlns:xlink="http://www.w3.org/1999/xlink">
 <defs>
  <style type="text/css">
*{stroke-linecap:butt;stroke-linejoin:round;}
  </style>
 </defs>
 <g id="figure_1">
  <g id="patch_1">
   <path d="M 0 345.6 
L 460.8 345.6 
L 460.8 0 
L 0 0 
z
" style="fill:#ffffff;"/>
  </g>
  <g id="axes_1">
   <g id="patch_2">
    <path d="M 57.6 307.584 
L 414.72 307.584 
L 414.72 41.472 
L 57.6 41.472 
z
" style="fill:#ffffff;"/>
   </g>
   <g id="matplotlib.axis_1">
    <g id="xtick_1">
     <g id="line2d_1">
      <path clip-path="url(#p3adde0e88f)" d="M 57.6 307.584 
L 57.6 41.472 
" style="fill:none;stroke:#b0b0b0;stroke-linecap:square;stroke-width:0.8;"/>
     </g>
     <g id="line2d_2">
      <defs>
       <path d="M 0 0 
L 0 3.5 
" id="m618e051bad" style="stroke:#000000;stroke-width:0.8;"/>
      </defs>
      <g>
       <use style="stroke:#000000;stroke-width:0.8;" x="57.6" xlink:href="#m618e051bad" y="307.584"/>
      </g>
     </g>
     <g id="text_1">
      <!-- 0.0 -->
      <defs>
       <path d="M 44.796875 32 
C 44.796875 40.296875 44.296875 48.40625 40.703125 56 
C 36.59375 64.296875 29.40625 66.5 24.5 66.5 
C 18.703125 66.5 11.59375 63.59375 7.90625 55.296875 
C 5.09375 49 4.09375 42.796875 4.09375 32 
C 4.09375 22.296875 4.796875 15 8.40625 7.90625 
C 12.296875 0.296875 19.203125 -2.09375 24.40625 -2.09375 
C 33.09375 -2.09375 38.09375 3.09375 41 8.90625 
C 44.59375 16.40625 44.796875 26.203125 44.796875 32 
z
M 37.203125 33.203125 
C 37.203125 26.5 37.203125 18.90625 36.09375 12.796875 
C 34.203125 1.796875 27.90625 -0.09375 24.40625 -0.09375 
C 21.203125 -0.09375 14.703125 1.703125 12.796875 12.59375 
C 11.703125 18.59375 11.703125 26.203125 11.703125 33.203125 
C 11.703125 41.40625 11.703125 48.796875 13.296875 54.703125 
C 15 61.40625 20.09375 64.5 24.40625 64.5 
C 28.203125 64.5 34 62.203125 35.90625 53.59375 
C 37.203125 47.90625 37.203125 40 37.203125 33.203125 
z
" id="LMRoman12-Regular-30"/>
       <path d="M 18.40625 4.90625 
C 18.40625 7.59375 16.09375 9.703125 13.59375 9.703125 
C 10.703125 9.703125 8.703125 7.40625 8.703125 4.90625 
C 8.703125 1.90625 11.203125 0 13.5 0 
C 16.203125 0 18.40625 2.09375 18.40625 4.90625 
z
" id="LMRoman12-Regular-2e"/>
      </defs>
      <g transform="translate(51.339844 321.524625)scale(0.1 -0.1)">
       <use xlink:href="#LMRoman12-Regular-30"/>
       <use x="48.999985" xlink:href="#LMRoman12-Regular-2e"/>
       <use x="76.199982" xlink:href="#LMRoman12-Regular-30"/>
      </g>
     </g>
    </g>
    <g id="xtick_2">
     <g id="line2d_3">
      <path clip-path="url(#p3adde0e88f)" d="M 129.024 307.584 
L 129.024 41.472 
" style="fill:none;stroke:#b0b0b0;stroke-linecap:square;stroke-width:0.8;"/>
     </g>
     <g id="line2d_4">
      <g>
       <use style="stroke:#000000;stroke-width:0.8;" x="129.024" xlink:href="#m618e051bad" y="307.584"/>
      </g>
     </g>
     <g id="text_2">
      <!-- 0.2 -->
      <defs>
       <path d="M 44 16.796875 
L 41.796875 16.796875 
C 41.5 15.09375 40.703125 9.59375 39.703125 8 
C 39 7.09375 33.296875 7.09375 30.296875 7.09375 
L 11.796875 7.09375 
C 14.5 9.40625 20.59375 15.796875 23.203125 18.203125 
C 38.40625 32.203125 44 37.40625 44 47.296875 
C 44 58.796875 34.90625 66.5 23.296875 66.5 
C 11.703125 66.5 4.90625 56.59375 4.90625 48 
C 4.90625 42.90625 9.296875 42.90625 9.59375 42.90625 
C 11.703125 42.90625 14.296875 44.40625 14.296875 47.59375 
C 14.296875 50.40625 12.40625 52.296875 9.59375 52.296875 
C 8.703125 52.296875 8.5 52.296875 8.203125 52.203125 
C 10.09375 59 15.5 63.59375 22 63.59375 
C 30.5 63.59375 35.703125 56.5 35.703125 47.296875 
C 35.703125 38.796875 30.796875 31.40625 25.09375 25 
L 4.90625 2.40625 
L 4.90625 0 
L 41.40625 0 
z
" id="LMRoman12-Regular-32"/>
      </defs>
      <g transform="translate(122.763844 321.524625)scale(0.1 -0.1)">
       <use xlink:href="#LMRoman12-Regular-30"/>
       <use x="48.999985" xlink:href="#LMRoman12-Regular-2e"/>
       <use x="76.199982" xlink:href="#LMRoman12-Regular-32"/>
      </g>
     </g>
    </g>
    <g id="xtick_3">
     <g id="line2d_5">
      <path clip-path="url(#p3adde0e88f)" d="M 200.448 307.584 
L 200.448 41.472 
" style="fill:none;stroke:#b0b0b0;stroke-linecap:square;stroke-width:0.8;"/>
     </g>
     <g id="line2d_6">
      <g>
       <use style="stroke:#000000;stroke-width:0.8;" x="200.448" xlink:href="#m618e051bad" y="307.584"/>
      </g>
     </g>
     <g id="text_3">
      <!-- 0.4 -->
      <defs>
       <path d="M 46.203125 16.703125 
L 46.203125 19.59375 
L 36.09375 19.59375 
L 36.09375 65.09375 
C 36.09375 67 36.09375 67.5 34.703125 67.5 
C 33.90625 67.5 33.59375 67.5 32.796875 66.296875 
L 2.703125 19.59375 
L 2.703125 16.703125 
L 29 16.703125 
L 29 7.59375 
C 29 3.90625 28.796875 2.90625 21.5 2.90625 
L 19.5 2.90625 
L 19.5 0 
C 21.796875 0.203125 29.703125 0.203125 32.5 0.203125 
C 35.296875 0.203125 43.296875 0.203125 45.59375 0 
L 45.59375 2.90625 
L 43.59375 2.90625 
C 36.40625 2.90625 36.09375 3.90625 36.09375 7.59375 
L 36.09375 16.703125 
z
M 29.5 19.59375 
L 5.203125 19.59375 
L 29.5 57.296875 
z
" id="LMRoman12-Regular-34"/>
      </defs>
      <g transform="translate(194.187844 321.524625)scale(0.1 -0.1)">
       <use xlink:href="#LMRoman12-Regular-30"/>
       <use x="48.999985" xlink:href="#LMRoman12-Regular-2e"/>
       <use x="76.199982" xlink:href="#LMRoman12-Regular-34"/>
      </g>
     </g>
    </g>
    <g id="xtick_4">
     <g id="line2d_7">
      <path clip-path="url(#p3adde0e88f)" d="M 271.872 307.584 
L 271.872 41.472 
" style="fill:none;stroke:#b0b0b0;stroke-linecap:square;stroke-width:0.8;"/>
     </g>
     <g id="line2d_8">
      <g>
       <use style="stroke:#000000;stroke-width:0.8;" x="271.872" xlink:href="#m618e051bad" y="307.584"/>
      </g>
     </g>
     <g id="text_4">
      <!-- 0.6 -->
      <defs>
       <path d="M 44.796875 20.40625 
C 44.796875 33.703125 35.5 42.59375 25.5 42.59375 
C 16.59375 42.59375 13.296875 34.90625 12.296875 32.09375 
L 12.296875 34.796875 
C 12.296875 60.09375 24.59375 64.09375 30 64.09375 
C 33.59375 64.09375 37.203125 63 39.09375 60 
C 37.90625 60 34.09375 60 34.09375 55.90625 
C 34.09375 53.703125 35.59375 51.796875 38.203125 51.796875 
C 40.703125 51.796875 42.40625 53.296875 42.40625 56.203125 
C 42.40625 61.40625 38.59375 66.5 29.90625 66.5 
C 17.296875 66.5 4.09375 53.59375 4.09375 31.59375 
C 4.09375 4.09375 16.09375 -2.09375 24.59375 -2.09375 
C 35.5 -2.09375 44.796875 7.40625 44.796875 20.40625 
z
M 36.59375 20.5 
C 36.59375 15.40625 36.59375 10.90625 34.703125 7.09375 
C 32.203125 2.296875 28.59375 0.59375 24.59375 0.59375 
C 18.296875 0.59375 15.296875 6.203125 14.40625 8.296875 
C 13.5 10.90625 12.5 15.796875 12.5 22.796875 
C 12.5 30.703125 16.09375 40.59375 25.09375 40.59375 
C 30.59375 40.59375 33.5 36.90625 35 33.5 
C 36.59375 29.796875 36.59375 24.796875 36.59375 20.5 
z
" id="LMRoman12-Regular-36"/>
      </defs>
      <g transform="translate(265.611844 321.524625)scale(0.1 -0.1)">
       <use xlink:href="#LMRoman12-Regular-30"/>
       <use x="48.999985" xlink:href="#LMRoman12-Regular-2e"/>
       <use x="76.199982" xlink:href="#LMRoman12-Regular-36"/>
      </g>
     </g>
    </g>
    <g id="xtick_5">
     <g id="line2d_9">
      <path clip-path="url(#p3adde0e88f)" d="M 343.296 307.584 
L 343.296 41.472 
" style="fill:none;stroke:#b0b0b0;stroke-linecap:square;stroke-width:0.8;"/>
     </g>
     <g id="line2d_10">
      <g>
       <use style="stroke:#000000;stroke-width:0.8;" x="343.296" xlink:href="#m618e051bad" y="307.584"/>
      </g>
     </g>
     <g id="text_5">
      <!-- 0.8 -->
      <defs>
       <path d="M 44.796875 16.59375 
C 44.796875 26.796875 37.59375 31.296875 29.796875 36.09375 
C 34.796875 38.796875 42.09375 43.40625 42.09375 51.796875 
C 42.09375 60.5 33.703125 66.5 24.5 66.5 
C 14.59375 66.5 6.796875 59.203125 6.796875 50.09375 
C 6.796875 46.703125 7.796875 43.296875 10.59375 39.90625 
C 11.703125 38.59375 11.796875 38.5 18.796875 33.59375 
C 9.09375 29.09375 4.09375 22.40625 4.09375 15.09375 
C 4.09375 4.5 14.203125 -2.09375 24.40625 -2.09375 
C 35.5 -2.09375 44.796875 6.09375 44.796875 16.59375 
z
M 38 51.703125 
C 38 45.59375 33.59375 40.703125 27.796875 37.5 
L 16.203125 45.09375 
C 14.90625 46 10.90625 48.59375 10.90625 53.5 
C 10.90625 60 17.703125 64.09375 24.40625 64.09375 
C 31.59375 64.09375 38 58.90625 38 51.703125 
z
M 40.203125 13.40625 
C 40.203125 5.796875 32.5 0.59375 24.5 0.59375 
C 16 0.59375 8.703125 6.796875 8.703125 15.09375 
C 8.703125 22.90625 14.40625 29.203125 20.90625 32.203125 
L 33 24.296875 
C 35.59375 22.59375 40.203125 19.5 40.203125 13.40625 
z
" id="LMRoman12-Regular-38"/>
      </defs>
      <g transform="translate(337.035844 321.524625)scale(0.1 -0.1)">
       <use xlink:href="#LMRoman12-Regular-30"/>
       <use x="48.999985" xlink:href="#LMRoman12-Regular-2e"/>
       <use x="76.199982" xlink:href="#LMRoman12-Regular-38"/>
      </g>
     </g>
    </g>
    <g id="xtick_6">
     <g id="line2d_11">
      <path clip-path="url(#p3adde0e88f)" d="M 414.72 307.584 
L 414.72 41.472 
" style="fill:none;stroke:#b0b0b0;stroke-linecap:square;stroke-width:0.8;"/>
     </g>
     <g id="line2d_12">
      <g>
       <use style="stroke:#000000;stroke-width:0.8;" x="414.72" xlink:href="#m618e051bad" y="307.584"/>
      </g>
     </g>
     <g id="text_6">
      <!-- 1.0 -->
      <defs>
       <path d="M 41 0 
L 41 2.90625 
L 37.90625 2.90625 
C 29.09375 2.90625 28.796875 4.09375 28.796875 7.703125 
L 28.796875 64.09375 
C 28.796875 66.40625 28.796875 66.5 26.796875 66.5 
C 24.40625 63.796875 19.40625 60.09375 9.09375 60.09375 
L 9.09375 57.203125 
C 11.40625 57.203125 16.40625 57.203125 21.90625 59.796875 
L 21.90625 7.703125 
C 21.90625 4.09375 21.59375 2.90625 12.796875 2.90625 
L 9.703125 2.90625 
L 9.703125 0 
C 12.40625 0.203125 22.09375 0.203125 25.40625 0.203125 
C 28.703125 0.203125 38.296875 0.203125 41 0 
z
" id="LMRoman12-Regular-31"/>
      </defs>
      <g transform="translate(408.459844 321.524625)scale(0.1 -0.1)">
       <use xlink:href="#LMRoman12-Regular-31"/>
       <use x="48.999985" xlink:href="#LMRoman12-Regular-2e"/>
       <use x="76.199982" xlink:href="#LMRoman12-Regular-30"/>
      </g>
     </g>
    </g>
    <g id="text_7">
     <!-- TP rate / recall -->
     <defs>
      <path d="M 67.09375 45.5 
L 65.296875 67.796875 
L 5.296875 67.796875 
L 3.5 45.5 
L 5.703125 45.5 
C 7.09375 61.296875 8 64.90625 23.796875 64.90625 
C 25.59375 64.90625 28.40625 64.90625 29.203125 64.703125 
C 31.203125 64.40625 31.296875 63.203125 31.296875 60.90625 
L 31.296875 7.703125 
C 31.296875 4.296875 31.296875 2.90625 21.5 2.90625 
L 17.90625 2.90625 
L 17.90625 0 
C 21.09375 0.203125 31.40625 0.203125 35.296875 0.203125 
C 39.203125 0.203125 49.59375 0.203125 52.796875 0 
L 52.796875 2.90625 
L 49.203125 2.90625 
C 39.40625 2.90625 39.40625 4.296875 39.40625 7.703125 
L 39.40625 60.90625 
C 39.40625 63.40625 39.59375 64.296875 41.203125 64.703125 
C 42 64.90625 44.90625 64.90625 46.796875 64.90625 
C 62.59375 64.90625 63.5 61.296875 64.90625 45.5 
z
" id="LMRoman12-Regular-54"/>
      <path d="M 61.09375 49.796875 
C 61.09375 59.5 51.40625 68.296875 37.90625 68.296875 
L 4.203125 68.296875 
L 4.203125 65.40625 
L 6.203125 65.40625 
C 13.40625 65.40625 13.703125 64.40625 13.703125 60.703125 
L 13.703125 7.59375 
C 13.703125 3.90625 13.40625 2.90625 6.203125 2.90625 
L 4.203125 2.90625 
L 4.203125 0 
C 6.59375 0.203125 14.796875 0.203125 17.703125 0.203125 
C 20.703125 0.203125 28.90625 0.203125 31.296875 0 
L 31.296875 2.90625 
L 29.296875 2.90625 
C 22.09375 2.90625 21.796875 3.90625 21.796875 7.59375 
L 21.796875 31.796875 
L 38.703125 31.796875 
C 50.40625 31.796875 61.09375 39.703125 61.09375 49.796875 
z
M 51.796875 49.796875 
C 51.796875 45.59375 51.796875 34.203125 35.5 34.203125 
L 21.59375 34.203125 
L 21.59375 61.40625 
C 21.59375 64.703125 21.796875 65.40625 26.203125 65.40625 
L 35.59375 65.40625 
C 51.796875 65.40625 51.796875 54.09375 51.796875 49.796875 
z
" id="LMRoman12-Regular-50"/>
      <path id="LMRoman12-Regular-20"/>
      <path d="M 35.296875 38.296875 
C 35.296875 41.296875 32.59375 44.09375 28.296875 44.09375 
C 19.796875 44.09375 16.90625 34.90625 16.296875 33 
L 16.203125 33 
L 16.203125 44.09375 
L 2.796875 43 
L 2.796875 40.09375 
C 9.59375 40.09375 10.40625 39.40625 10.40625 34.5 
L 10.40625 7.40625 
C 10.40625 2.90625 9.296875 2.90625 2.796875 2.90625 
L 2.796875 0 
C 5.59375 0.203125 11.09375 0.203125 14.09375 0.203125 
C 16.796875 0.203125 23.90625 0.203125 26.203125 0 
L 26.203125 2.90625 
L 24.203125 2.90625 
C 16.90625 2.90625 16.703125 4 16.703125 7.59375 
L 16.703125 23.296875 
C 16.703125 33 20.703125 42.09375 28.40625 42.09375 
C 29.203125 42.09375 29.40625 42.09375 29.796875 42 
C 29 41.59375 27.40625 41 27.40625 38.296875 
C 27.40625 35.40625 29.703125 34.296875 31.296875 34.296875 
C 33.296875 34.296875 35.296875 35.59375 35.296875 38.296875 
z
" id="LMRoman12-Regular-72"/>
      <path d="M 47.40625 8.90625 
L 47.40625 14.5 
L 45.203125 14.5 
L 45.203125 8.90625 
C 45.203125 3.203125 42.796875 2.40625 41.40625 2.40625 
C 37.59375 2.40625 37.59375 7.703125 37.59375 9.203125 
L 37.59375 26.703125 
C 37.59375 32.09375 37.59375 36.09375 33.203125 40 
C 29.703125 43.203125 25.203125 44.59375 20.796875 44.59375 
C 12.59375 44.59375 6.296875 39.203125 6.296875 32.703125 
C 6.296875 29.796875 8.203125 28.40625 10.5 28.40625 
C 12.90625 28.40625 14.59375 30.09375 14.59375 32.5 
C 14.59375 36.59375 11 36.59375 9.5 36.59375 
C 11.796875 40.796875 16.59375 42.59375 20.59375 42.59375 
C 25.203125 42.59375 31.09375 38.796875 31.09375 29.796875 
L 31.09375 25.796875 
C 11 25.5 3.40625 17.09375 3.40625 9.40625 
C 3.40625 1.5 12.59375 -1 18.703125 -1 
C 25.296875 -1 29.796875 3 31.703125 7.796875 
C 32.09375 3.09375 35.203125 -0.5 39.5 -0.5 
C 41.59375 -0.5 47.40625 0.90625 47.40625 8.90625 
z
M 31.09375 14.09375 
C 31.09375 4.296875 23.796875 1 19.5 1 
C 14.59375 1 10.5 4.59375 10.5 9.40625 
C 10.5 22.59375 27.5 23.796875 31.09375 24 
z
" id="LMRoman12-Regular-61"/>
      <path d="M 32.59375 12.40625 
L 32.59375 18.09375 
L 30.40625 18.09375 
L 30.40625 12.59375 
C 30.40625 5.40625 27.5 1.203125 23.59375 1.203125 
C 16.796875 1.203125 16.796875 10.5 16.796875 12.203125 
L 16.796875 40.203125 
L 30.90625 40.203125 
L 30.90625 43.09375 
L 16.796875 43.09375 
L 16.796875 61.5 
L 14.59375 61.5 
C 14.5 52.09375 10.90625 42.5 1.796875 42.203125 
L 1.796875 40.203125 
L 10.296875 40.203125 
L 10.296875 12.40625 
C 10.296875 1.296875 17.703125 -1 23 -1 
C 29.296875 -1 32.59375 5.203125 32.59375 12.40625 
z
" id="LMRoman12-Regular-74"/>
      <path d="M 40.703125 11.90625 
C 40.703125 12.5 40.203125 12.90625 39.59375 12.90625 
C 38.796875 12.90625 38.59375 12.40625 38.40625 11.90625 
C 35.796875 3.5 29.09375 1.203125 24.90625 1.203125 
C 20.703125 1.203125 10.59375 4 10.59375 21.296875 
L 10.59375 23.203125 
L 38.296875 23.203125 
C 40.5 23.203125 40.703125 23.203125 40.703125 25.09375 
C 40.703125 35.203125 35.296875 44.59375 23.203125 44.59375 
C 11.796875 44.59375 3 34.296875 3 21.90625 
C 3 8.703125 13.203125 -1 24.296875 -1 
C 36.203125 -1 40.703125 9.796875 40.703125 11.90625 
z
M 34.5 25.09375 
L 10.703125 25.09375 
C 11.5 40.796875 20.296875 42.59375 23.09375 42.59375 
C 33.796875 42.59375 34.40625 28.5 34.5 25.09375 
z
" id="LMRoman12-Regular-65"/>
      <path d="M 43.5 73.09375 
C 43.5 74.40625 42.5 75 41.703125 75 
C 40.40625 75 40.09375 74.09375 39.59375 72.796875 
L 5.90625 -21.40625 
C 5.40625 -22.703125 5.40625 -23.09375 5.40625 -23.09375 
C 5.40625 -24.203125 6.203125 -25 7.296875 -25 
C 8.59375 -25 8.90625 -24 9.296875 -22.90625 
L 43 71.40625 
C 43.5 72.703125 43.5 73.09375 43.5 73.09375 
z
" id="LMRoman12-Regular-2f"/>
      <path d="M 40.59375 11.90625 
C 40.59375 12.796875 39.90625 12.796875 39.59375 12.796875 
C 38.703125 12.796875 38.59375 12.5 38.296875 11.296875 
C 36.09375 4.203125 30.703125 1.203125 25.296875 1.203125 
C 19.203125 1.203125 11.09375 6.5 11.09375 21.703125 
C 11.09375 38.296875 19.59375 42.40625 24.59375 42.40625 
C 28.40625 42.40625 33.90625 40.90625 36.203125 37 
C 35 37 31.296875 37 31.296875 32.90625 
C 31.296875 30.5 33 28.796875 35.40625 28.796875 
C 37.703125 28.796875 39.59375 30.203125 39.59375 33.09375 
C 39.59375 39.796875 32.59375 44.59375 24.5 44.59375 
C 12.796875 44.59375 3.5 34.203125 3.5 21.59375 
C 3.5 8.796875 13.09375 -1 24.40625 -1 
C 37.59375 -1 40.59375 11 40.59375 11.90625 
z
" id="LMRoman12-Regular-63"/>
      <path d="M 24.796875 0 
L 24.796875 2.90625 
C 18.40625 2.90625 17.203125 2.90625 17.203125 7.40625 
L 17.203125 69.40625 
L 3.296875 68.296875 
L 3.296875 65.40625 
C 10.09375 65.40625 10.90625 64.703125 10.90625 59.796875 
L 10.90625 7.40625 
C 10.90625 2.90625 9.796875 2.90625 3.296875 2.90625 
L 3.296875 0 
C 6.09375 0.203125 11 0.203125 14 0.203125 
C 17 0.203125 22 0.203125 24.796875 0 
z
" id="LMRoman12-Regular-6c"/>
     </defs>
     <g transform="translate(202.096719 334.96525)scale(0.1 -0.1)">
      <use xlink:href="#LMRoman12-Regular-54"/>
      <use x="70.699982" xlink:href="#LMRoman12-Regular-50"/>
      <use x="137.299973" xlink:href="#LMRoman12-Regular-20"/>
      <use x="169.899963" xlink:href="#LMRoman12-Regular-72"/>
      <use x="207.999954" xlink:href="#LMRoman12-Regular-61"/>
      <use x="256.999939" xlink:href="#LMRoman12-Regular-74"/>
      <use x="295.09993" xlink:href="#LMRoman12-Regular-65"/>
      <use x="338.599915" xlink:href="#LMRoman12-Regular-20"/>
      <use x="371.199905" xlink:href="#LMRoman12-Regular-2f"/>
      <use x="420.19989" xlink:href="#LMRoman12-Regular-20"/>
      <use x="452.799881" xlink:href="#LMRoman12-Regular-72"/>
      <use x="490.899872" xlink:href="#LMRoman12-Regular-65"/>
      <use x="534.399857" xlink:href="#LMRoman12-Regular-63"/>
      <use x="577.899841" xlink:href="#LMRoman12-Regular-61"/>
      <use x="626.899826" xlink:href="#LMRoman12-Regular-6c"/>
      <use x="654.099823" xlink:href="#LMRoman12-Regular-6c"/>
     </g>
    </g>
   </g>
   <g id="matplotlib.axis_2">
    <g id="ytick_1">
     <g id="line2d_13">
      <path clip-path="url(#p3adde0e88f)" d="M 57.6 307.584 
L 414.72 307.584 
" style="fill:none;stroke:#b0b0b0;stroke-linecap:square;stroke-width:0.8;"/>
     </g>
     <g id="line2d_14">
      <defs>
       <path d="M 0 0 
L -3.5 0 
" id="m6ac59eedfb" style="stroke:#000000;stroke-width:0.8;"/>
      </defs>
      <g>
       <use style="stroke:#000000;stroke-width:0.8;" x="57.6" xlink:href="#m6ac59eedfb" y="307.584"/>
      </g>
     </g>
     <g id="text_8">
      <!-- 0.0 -->
      <g transform="translate(38.079687 311.054312)scale(0.1 -0.1)">
       <use xlink:href="#LMRoman12-Regular-30"/>
       <use x="48.999985" xlink:href="#LMRoman12-Regular-2e"/>
       <use x="76.199982" xlink:href="#LMRoman12-Regular-30"/>
      </g>
     </g>
    </g>
    <g id="ytick_2">
     <g id="line2d_15">
      <path clip-path="url(#p3adde0e88f)" d="M 57.6 254.3616 
L 414.72 254.3616 
" style="fill:none;stroke:#b0b0b0;stroke-linecap:square;stroke-width:0.8;"/>
     </g>
     <g id="line2d_16">
      <g>
       <use style="stroke:#000000;stroke-width:0.8;" x="57.6" xlink:href="#m6ac59eedfb" y="254.3616"/>
      </g>
     </g>
     <g id="text_9">
      <!-- 0.2 -->
      <g transform="translate(38.079687 257.831912)scale(0.1 -0.1)">
       <use xlink:href="#LMRoman12-Regular-30"/>
       <use x="48.999985" xlink:href="#LMRoman12-Regular-2e"/>
       <use x="76.199982" xlink:href="#LMRoman12-Regular-32"/>
      </g>
     </g>
    </g>
    <g id="ytick_3">
     <g id="line2d_17">
      <path clip-path="url(#p3adde0e88f)" d="M 57.6 201.1392 
L 414.72 201.1392 
" style="fill:none;stroke:#b0b0b0;stroke-linecap:square;stroke-width:0.8;"/>
     </g>
     <g id="line2d_18">
      <g>
       <use style="stroke:#000000;stroke-width:0.8;" x="57.6" xlink:href="#m6ac59eedfb" y="201.1392"/>
      </g>
     </g>
     <g id="text_10">
      <!-- 0.4 -->
      <g transform="translate(38.079687 204.609512)scale(0.1 -0.1)">
       <use xlink:href="#LMRoman12-Regular-30"/>
       <use x="48.999985" xlink:href="#LMRoman12-Regular-2e"/>
       <use x="76.199982" xlink:href="#LMRoman12-Regular-34"/>
      </g>
     </g>
    </g>
    <g id="ytick_4">
     <g id="line2d_19">
      <path clip-path="url(#p3adde0e88f)" d="M 57.6 147.9168 
L 414.72 147.9168 
" style="fill:none;stroke:#b0b0b0;stroke-linecap:square;stroke-width:0.8;"/>
     </g>
     <g id="line2d_20">
      <g>
       <use style="stroke:#000000;stroke-width:0.8;" x="57.6" xlink:href="#m6ac59eedfb" y="147.9168"/>
      </g>
     </g>
     <g id="text_11">
      <!-- 0.6 -->
      <g transform="translate(38.079687 151.387112)scale(0.1 -0.1)">
       <use xlink:href="#LMRoman12-Regular-30"/>
       <use x="48.999985" xlink:href="#LMRoman12-Regular-2e"/>
       <use x="76.199982" xlink:href="#LMRoman12-Regular-36"/>
      </g>
     </g>
    </g>
    <g id="ytick_5">
     <g id="line2d_21">
      <path clip-path="url(#p3adde0e88f)" d="M 57.6 94.6944 
L 414.72 94.6944 
" style="fill:none;stroke:#b0b0b0;stroke-linecap:square;stroke-width:0.8;"/>
     </g>
     <g id="line2d_22">
      <g>
       <use style="stroke:#000000;stroke-width:0.8;" x="57.6" xlink:href="#m6ac59eedfb" y="94.6944"/>
      </g>
     </g>
     <g id="text_12">
      <!-- 0.8 -->
      <g transform="translate(38.079687 98.164713)scale(0.1 -0.1)">
       <use xlink:href="#LMRoman12-Regular-30"/>
       <use x="48.999985" xlink:href="#LMRoman12-Regular-2e"/>
       <use x="76.199982" xlink:href="#LMRoman12-Regular-38"/>
      </g>
     </g>
    </g>
    <g id="ytick_6">
     <g id="line2d_23">
      <path clip-path="url(#p3adde0e88f)" d="M 57.6 41.472 
L 414.72 41.472 
" style="fill:none;stroke:#b0b0b0;stroke-linecap:square;stroke-width:0.8;"/>
     </g>
     <g id="line2d_24">
      <g>
       <use style="stroke:#000000;stroke-width:0.8;" x="57.6" xlink:href="#m6ac59eedfb" y="41.472"/>
      </g>
     </g>
     <g id="text_13">
      <!-- 1.0 -->
      <g transform="translate(38.079687 44.942313)scale(0.1 -0.1)">
       <use xlink:href="#LMRoman12-Regular-31"/>
       <use x="48.999985" xlink:href="#LMRoman12-Regular-2e"/>
       <use x="76.199982" xlink:href="#LMRoman12-Regular-30"/>
      </g>
     </g>
    </g>
    <g id="text_14">
     <!-- precision -->
     <defs>
      <path d="M 50.796875 21.59375 
C 50.796875 34.296875 41.40625 44.09375 30.5 44.09375 
C 21.703125 44.09375 17 37.796875 16.703125 37.40625 
L 16.703125 44.09375 
L 2.796875 43 
L 2.796875 40.09375 
C 9.796875 40.09375 10.40625 39.40625 10.40625 35 
L 10.40625 -12 
C 10.40625 -16.5 9.296875 -16.5 2.796875 -16.5 
L 2.796875 -19.40625 
C 5.40625 -19.203125 10.796875 -19.203125 13.59375 -19.203125 
C 16.5 -19.203125 21.90625 -19.203125 24.5 -19.40625 
L 24.5 -16.5 
C 18.09375 -16.5 16.90625 -16.5 16.90625 -12 
L 16.90625 5.40625 
C 18.703125 2.90625 22.796875 -1 29.203125 -1 
C 40.703125 -1 50.796875 8.703125 50.796875 21.59375 
z
M 43.203125 21.59375 
C 43.203125 9.703125 36.40625 1 28.703125 1 
C 25.59375 1 22.703125 2.296875 20.703125 4.203125 
C 18.40625 6.5 16.90625 8.5 16.90625 11.296875 
L 16.90625 31.90625 
C 16.90625 33.796875 16.90625 33.90625 18 35.5 
C 21 40 25.90625 41.90625 29.703125 41.90625 
C 37.203125 41.90625 43.203125 32.796875 43.203125 21.59375 
z
" id="LMRoman12-Regular-70"/>
      <path d="M 24.09375 0 
L 24.09375 2.90625 
C 17.59375 2.90625 17.203125 3.40625 17.203125 7.296875 
L 17.203125 44.09375 
L 3.59375 43 
L 3.59375 40.09375 
C 10 40.09375 10.90625 39.5 10.90625 34.59375 
L 10.90625 7.40625 
C 10.90625 2.90625 9.796875 2.90625 3.296875 2.90625 
L 3.296875 0 
C 6.09375 0.203125 10.90625 0.203125 13.796875 0.203125 
C 14.90625 0.203125 20.703125 0.203125 24.09375 0 
z
M 18.5 60.40625 
C 18.5 63.40625 16.09375 65.296875 13.703125 65.296875 
C 10.90625 65.296875 8.796875 63.09375 8.796875 60.40625 
C 8.796875 57.796875 11 55.59375 13.59375 55.59375 
C 16.59375 55.59375 18.5 58 18.5 60.40625 
z
" id="LMRoman12-Regular-69"/>
      <path d="M 35.203125 12.703125 
C 35.203125 18.09375 31.90625 21.296875 31 22.203125 
C 27.40625 25.296875 24.703125 25.90625 18.09375 27.09375 
C 15.09375 27.703125 7.796875 29.09375 7.796875 35.09375 
C 7.796875 38.203125 9.90625 42.796875 18.90625 42.796875 
C 29.796875 42.796875 30.40625 33.5 30.59375 30.40625 
C 30.703125 29.59375 31.40625 29.59375 31.703125 29.59375 
C 32.796875 29.59375 32.796875 30.09375 32.796875 31.90625 
L 32.796875 42.296875 
C 32.796875 44.09375 32.796875 44.59375 31.796875 44.59375 
C 31 44.59375 29.09375 42.40625 28.40625 41.5 
C 25.296875 44 22.203125 44.59375 19 44.59375 
C 6.90625 44.59375 3.296875 38 3.296875 32.5 
C 3.296875 31.40625 3.296875 27.90625 7.09375 24.40625 
C 10.296875 21.59375 13.703125 20.90625 18.296875 20 
C 23.796875 18.90625 25.09375 18.59375 27.59375 16.59375 
C 29.40625 15.09375 30.703125 12.90625 30.703125 10.09375 
C 30.703125 5.796875 28.203125 1 19.40625 1 
C 12.796875 1 8 4.796875 5.796875 14.796875 
C 5.40625 16.59375 5.296875 16.796875 5.296875 16.796875 
C 5.09375 17.203125 4.703125 17.203125 4.40625 17.203125 
C 3.296875 17.203125 3.296875 16.703125 3.296875 14.90625 
L 3.296875 1.296875 
C 3.296875 -0.5 3.296875 -1 4.296875 -1 
C 4.796875 -1 4.90625 -0.90625 6.59375 1.203125 
C 7.09375 1.90625 7.09375 2.09375 8.59375 3.703125 
C 12.40625 -1 17.796875 -1 19.5 -1 
C 30 -1 35.203125 4.796875 35.203125 12.703125 
z
" id="LMRoman12-Regular-73"/>
      <path d="M 45.90625 21.40625 
C 45.90625 34.296875 36.09375 44.59375 24.5 44.59375 
C 12.5 44.59375 3 34 3 21.40625 
C 3 8.59375 13 -1 24.40625 -1 
C 36.203125 -1 45.90625 8.796875 45.90625 21.40625 
z
M 38.296875 22.296875 
C 38.296875 18.796875 38.296875 12.59375 35.703125 7.90625 
C 32.90625 3.09375 28.296875 1.203125 24.5 1.203125 
C 20.796875 1.203125 16.296875 2.796875 13.40625 7.703125 
C 10.703125 12.203125 10.59375 18.09375 10.59375 22.296875 
C 10.59375 26.09375 10.59375 32.203125 13.703125 36.703125 
C 16.5 41 20.90625 42.59375 24.40625 42.59375 
C 28.296875 42.59375 32.5 40.796875 35.203125 36.90625 
C 38.296875 32.296875 38.296875 26 38.296875 22.296875 
z
" id="LMRoman12-Regular-6f"/>
      <path d="M 52.09375 0 
L 52.09375 2.90625 
C 47.09375 2.90625 44.59375 2.90625 44.5 5.90625 
L 44.5 24.296875 
C 44.5 33.59375 44.5 36.40625 42.203125 39.59375 
C 39.296875 43.5 34.59375 44.09375 31.203125 44.09375 
C 21.5 44.09375 17.703125 35.796875 16.90625 33.796875 
L 16.796875 33.796875 
L 16.796875 44.09375 
L 3.203125 43 
L 3.203125 40.09375 
C 10 40.09375 10.796875 39.40625 10.796875 34.5 
L 10.796875 7.40625 
C 10.796875 2.90625 9.703125 2.90625 3.203125 2.90625 
L 3.203125 0 
C 5.796875 0.203125 11.203125 0.203125 14 0.203125 
C 16.90625 0.203125 22.296875 0.203125 24.90625 0 
L 24.90625 2.90625 
C 18.5 2.90625 17.296875 2.90625 17.296875 7.40625 
L 17.296875 26 
C 17.296875 36.5 24.203125 42.09375 30.40625 42.09375 
C 36.59375 42.09375 38 37 38 30.90625 
L 38 7.40625 
C 38 2.90625 36.90625 2.90625 30.40625 2.90625 
L 30.40625 0 
C 33 0.203125 38.40625 0.203125 41.203125 0.203125 
C 44.09375 0.203125 49.5 0.203125 52.09375 0 
z
" id="LMRoman12-Regular-6e"/>
     </defs>
     <g transform="translate(32.139062 193.323312)rotate(-90)scale(0.1 -0.1)">
      <use xlink:href="#LMRoman12-Regular-70"/>
      <use x="54.399994" xlink:href="#LMRoman12-Regular-72"/>
      <use x="92.499985" xlink:href="#LMRoman12-Regular-65"/>
      <use x="135.999969" xlink:href="#LMRoman12-Regular-63"/>
      <use x="179.499954" xlink:href="#LMRoman12-Regular-69"/>
      <use x="206.699951" xlink:href="#LMRoman12-Regular-73"/>
      <use x="245.299942" xlink:href="#LMRoman12-Regular-69"/>
      <use x="272.499939" xlink:href="#LMRoman12-Regular-6f"/>
      <use x="321.499924" xlink:href="#LMRoman12-Regular-6e"/>
     </g>
    </g>
   </g>
   <g id="line2d_25">
    <path clip-path="url(#p3adde0e88f)" d="M 277.038159 81.028327 
L 170.439785 85.398123 
L 105.8628 97.6512 
L 82.318463 108.992955 
L 71.071563 121.0489 
L 66.684035 130.577376 
" style="fill:none;stroke:#7d9aaa;stroke-dasharray:5.55,2.4;stroke-dashoffset:0;stroke-width:1.5;"/>
    <defs>
     <path d="M 0 -3 
L -0.673542 -0.927051 
L -2.85317 -0.927051 
L -1.089814 0.354102 
L -1.763356 2.427051 
L -0 1.145898 
L 1.763356 2.427051 
L 1.089814 0.354102 
L 2.85317 -0.927051 
L 0.673542 -0.927051 
z
" id="md5527b705f" style="stroke:#7d9aaa;stroke-linejoin:bevel;"/>
    </defs>
    <g clip-path="url(#p3adde0e88f)">
     <use style="fill:#7d9aaa;stroke:#7d9aaa;stroke-linejoin:bevel;" x="277.038159" xlink:href="#md5527b705f" y="81.028327"/>
     <use style="fill:#7d9aaa;stroke:#7d9aaa;stroke-linejoin:bevel;" x="170.439785" xlink:href="#md5527b705f" y="85.398123"/>
     <use style="fill:#7d9aaa;stroke:#7d9aaa;stroke-linejoin:bevel;" x="105.8628" xlink:href="#md5527b705f" y="97.6512"/>
     <use style="fill:#7d9aaa;stroke:#7d9aaa;stroke-linejoin:bevel;" x="82.318463" xlink:href="#md5527b705f" y="108.992955"/>
     <use style="fill:#7d9aaa;stroke:#7d9aaa;stroke-linejoin:bevel;" x="71.071563" xlink:href="#md5527b705f" y="121.0489"/>
     <use style="fill:#7d9aaa;stroke:#7d9aaa;stroke-linejoin:bevel;" x="66.684035" xlink:href="#md5527b705f" y="130.577376"/>
    </g>
   </g>
   <g id="line2d_26">
    <path clip-path="url(#p3adde0e88f)" d="M 394.945229 68.612885 
L 353.850784 60.107583 
L 263.134023 57.205354 
L 176.495809 59.040559 
L 111.239066 67.224774 
L 80.27919 86.125714 
" style="fill:none;stroke:#7d9aaa;stroke-dasharray:5.55,2.4;stroke-dashoffset:0;stroke-width:1.5;"/>
    <defs>
     <path d="M -3 3 
L 3 -3 
M -3 -3 
L 3 3 
" id="m4fdd5f4aa2" style="stroke:#7d9aaa;"/>
    </defs>
    <g clip-path="url(#p3adde0e88f)">
     <use style="fill:#7d9aaa;stroke:#7d9aaa;" x="394.945229" xlink:href="#m4fdd5f4aa2" y="68.612885"/>
     <use style="fill:#7d9aaa;stroke:#7d9aaa;" x="353.850784" xlink:href="#m4fdd5f4aa2" y="60.107583"/>
     <use style="fill:#7d9aaa;stroke:#7d9aaa;" x="263.134023" xlink:href="#m4fdd5f4aa2" y="57.205354"/>
     <use style="fill:#7d9aaa;stroke:#7d9aaa;" x="176.495809" xlink:href="#m4fdd5f4aa2" y="59.040559"/>
     <use style="fill:#7d9aaa;stroke:#7d9aaa;" x="111.239066" xlink:href="#m4fdd5f4aa2" y="67.224774"/>
     <use style="fill:#7d9aaa;stroke:#7d9aaa;" x="80.27919" xlink:href="#m4fdd5f4aa2" y="86.125714"/>
    </g>
   </g>
   <g id="line2d_27">
    <path clip-path="url(#p3adde0e88f)" d="M 410.147084 67.557287 
L 401.989991 57.661153 
L 369.299823 52.059742 
L 291.313071 50.70917 
L 204.489469 51.491602 
L 140.159668 55.438162 
" style="fill:none;stroke:#7d9aaa;stroke-dasharray:5.55,2.4;stroke-dashoffset:0;stroke-width:1.5;"/>
    <defs>
     <path d="M -3 0 
L 3 0 
M 0 3 
L 0 -3 
" id="m582f24e4fd" style="stroke:#7d9aaa;"/>
    </defs>
    <g clip-path="url(#p3adde0e88f)">
     <use style="fill:#7d9aaa;stroke:#7d9aaa;" x="410.147084" xlink:href="#m582f24e4fd" y="67.557287"/>
     <use style="fill:#7d9aaa;stroke:#7d9aaa;" x="401.989991" xlink:href="#m582f24e4fd" y="57.661153"/>
     <use style="fill:#7d9aaa;stroke:#7d9aaa;" x="369.299823" xlink:href="#m582f24e4fd" y="52.059742"/>
     <use style="fill:#7d9aaa;stroke:#7d9aaa;" x="291.313071" xlink:href="#m582f24e4fd" y="50.70917"/>
     <use style="fill:#7d9aaa;stroke:#7d9aaa;" x="204.489469" xlink:href="#m582f24e4fd" y="51.491602"/>
     <use style="fill:#7d9aaa;stroke:#7d9aaa;" x="140.159668" xlink:href="#m582f24e4fd" y="55.438162"/>
    </g>
   </g>
   <g id="line2d_28">
    <path clip-path="url(#p3adde0e88f)" d="M 413.484077 67.336468 
L 410.888638 57.277599 
L 402.113584 51.087734 
L 363.985354 48.576678 
L 284.453698 48.047031 
L 201.585049 49.663468 
" style="fill:none;stroke:#7d9aaa;stroke-dasharray:5.55,2.4;stroke-dashoffset:0;stroke-width:1.5;"/>
    <defs>
     <path d="M 0 -3 
L -3 3 
L 3 3 
z
" id="m89bc0e38bc" style="stroke:#7d9aaa;stroke-linejoin:miter;"/>
    </defs>
    <g clip-path="url(#p3adde0e88f)">
     <use style="fill:#7d9aaa;stroke:#7d9aaa;stroke-linejoin:miter;" x="413.484077" xlink:href="#m89bc0e38bc" y="67.336468"/>
     <use style="fill:#7d9aaa;stroke:#7d9aaa;stroke-linejoin:miter;" x="410.888638" xlink:href="#m89bc0e38bc" y="57.277599"/>
     <use style="fill:#7d9aaa;stroke:#7d9aaa;stroke-linejoin:miter;" x="402.113584" xlink:href="#m89bc0e38bc" y="51.087734"/>
     <use style="fill:#7d9aaa;stroke:#7d9aaa;stroke-linejoin:miter;" x="363.985354" xlink:href="#m89bc0e38bc" y="48.576678"/>
     <use style="fill:#7d9aaa;stroke:#7d9aaa;stroke-linejoin:miter;" x="284.453698" xlink:href="#m89bc0e38bc" y="48.047031"/>
     <use style="fill:#7d9aaa;stroke:#7d9aaa;stroke-linejoin:miter;" x="201.585049" xlink:href="#m89bc0e38bc" y="49.663468"/>
    </g>
   </g>
   <g id="line2d_29">
    <path clip-path="url(#p3adde0e88f)" d="M 413.978446 67.304071 
L 413.484077 57.169129 
L 409.652715 50.889103 
L 395.501395 47.930107 
L 341.429756 46.753352 
L 256.521834 47.452045 
" style="fill:none;stroke:#7d9aaa;stroke-dasharray:5.55,2.4;stroke-dashoffset:0;stroke-width:1.5;"/>
    <defs>
     <path d="M 3 0 
L -3 -3 
L -3 3 
z
" id="m9ad6274919" style="stroke:#7d9aaa;stroke-linejoin:miter;"/>
    </defs>
    <g clip-path="url(#p3adde0e88f)">
     <use style="fill:#7d9aaa;stroke:#7d9aaa;stroke-linejoin:miter;" x="413.978446" xlink:href="#m9ad6274919" y="67.304071"/>
     <use style="fill:#7d9aaa;stroke:#7d9aaa;stroke-linejoin:miter;" x="413.484077" xlink:href="#m9ad6274919" y="57.169129"/>
     <use style="fill:#7d9aaa;stroke:#7d9aaa;stroke-linejoin:miter;" x="409.652715" xlink:href="#m9ad6274919" y="50.889103"/>
     <use style="fill:#7d9aaa;stroke:#7d9aaa;stroke-linejoin:miter;" x="395.501395" xlink:href="#m9ad6274919" y="47.930107"/>
     <use style="fill:#7d9aaa;stroke:#7d9aaa;stroke-linejoin:miter;" x="341.429756" xlink:href="#m9ad6274919" y="46.753352"/>
     <use style="fill:#7d9aaa;stroke:#7d9aaa;stroke-linejoin:miter;" x="256.521834" xlink:href="#m9ad6274919" y="47.452045"/>
    </g>
   </g>
   <g id="line2d_30">
    <path clip-path="url(#p3adde0e88f)" d="M 276.866858 81.174966 
L 174.929714 81.496007 
L 107.301312 89.040539 
L 80.905217 96.375107 
L 70.025328 86.557091 
L 64.276296 61.942154 
" style="fill:none;stroke:#a9a280;stroke-dasharray:9.6,2.4,1.5,2.4;stroke-dashoffset:0;stroke-width:1.5;"/>
    <defs>
     <path d="M 0 -3 
L -0.673542 -0.927051 
L -2.85317 -0.927051 
L -1.089814 0.354102 
L -1.763356 2.427051 
L -0 1.145898 
L 1.763356 2.427051 
L 1.089814 0.354102 
L 2.85317 -0.927051 
L 0.673542 -0.927051 
z
" id="m65638e9b3c" style="stroke:#a9a280;stroke-linejoin:bevel;"/>
    </defs>
    <g clip-path="url(#p3adde0e88f)">
     <use style="fill:#a9a280;stroke:#a9a280;stroke-linejoin:bevel;" x="276.866858" xlink:href="#m65638e9b3c" y="81.174966"/>
     <use style="fill:#a9a280;stroke:#a9a280;stroke-linejoin:bevel;" x="174.929714" xlink:href="#m65638e9b3c" y="81.496007"/>
     <use style="fill:#a9a280;stroke:#a9a280;stroke-linejoin:bevel;" x="107.301312" xlink:href="#m65638e9b3c" y="89.040539"/>
     <use style="fill:#a9a280;stroke:#a9a280;stroke-linejoin:bevel;" x="80.905217" xlink:href="#m65638e9b3c" y="96.375107"/>
     <use style="fill:#a9a280;stroke:#a9a280;stroke-linejoin:bevel;" x="70.025328" xlink:href="#m65638e9b3c" y="86.557091"/>
     <use style="fill:#a9a280;stroke:#a9a280;stroke-linejoin:bevel;" x="64.276296" xlink:href="#m65638e9b3c" y="61.942154"/>
    </g>
   </g>
   <g id="line2d_31">
    <path clip-path="url(#p3adde0e88f)" d="M 397.411085 68.522444 
L 354.818792 58.854121 
L 266.481509 54.575433 
L 181.667828 53.861062 
L 110.083102 53.731092 
L 80.163407 47.875765 
" style="fill:none;stroke:#a9a280;stroke-dasharray:9.6,2.4,1.5,2.4;stroke-dashoffset:0;stroke-width:1.5;"/>
    <defs>
     <path d="M -3 3 
L 3 -3 
M -3 -3 
L 3 3 
" id="m7a4ed9fe03" style="stroke:#a9a280;"/>
    </defs>
    <g clip-path="url(#p3adde0e88f)">
     <use style="fill:#a9a280;stroke:#a9a280;" x="397.411085" xlink:href="#m7a4ed9fe03" y="68.522444"/>
     <use style="fill:#a9a280;stroke:#a9a280;" x="354.818792" xlink:href="#m7a4ed9fe03" y="58.854121"/>
     <use style="fill:#a9a280;stroke:#a9a280;" x="266.481509" xlink:href="#m7a4ed9fe03" y="54.575433"/>
     <use style="fill:#a9a280;stroke:#a9a280;" x="181.667828" xlink:href="#m7a4ed9fe03" y="53.861062"/>
     <use style="fill:#a9a280;stroke:#a9a280;" x="110.083102" xlink:href="#m7a4ed9fe03" y="53.731092"/>
     <use style="fill:#a9a280;stroke:#a9a280;" x="80.163407" xlink:href="#m7a4ed9fe03" y="47.875765"/>
    </g>
   </g>
   <g id="line2d_32">
    <path clip-path="url(#p3adde0e88f)" d="M 412.803656 67.464724 
L 404.643739 56.499501 
L 372.065889 50.322171 
L 293.557597 48.133297 
L 207.816652 45.887456 
L 143.279128 43.188852 
" style="fill:none;stroke:#a9a280;stroke-dasharray:9.6,2.4,1.5,2.4;stroke-dashoffset:0;stroke-width:1.5;"/>
    <defs>
     <path d="M -3 0 
L 3 0 
M 0 3 
L 0 -3 
" id="m3fa2355647" style="stroke:#a9a280;"/>
    </defs>
    <g clip-path="url(#p3adde0e88f)">
     <use style="fill:#a9a280;stroke:#a9a280;" x="412.803656" xlink:href="#m3fa2355647" y="67.464724"/>
     <use style="fill:#a9a280;stroke:#a9a280;" x="404.643739" xlink:href="#m3fa2355647" y="56.499501"/>
     <use style="fill:#a9a280;stroke:#a9a280;" x="372.065889" xlink:href="#m3fa2355647" y="50.322171"/>
     <use style="fill:#a9a280;stroke:#a9a280;" x="293.557597" xlink:href="#m3fa2355647" y="48.133297"/>
     <use style="fill:#a9a280;stroke:#a9a280;" x="207.816652" xlink:href="#m3fa2355647" y="45.887456"/>
     <use style="fill:#a9a280;stroke:#a9a280;" x="143.279128" xlink:href="#m3fa2355647" y="43.188852"/>
    </g>
   </g>
   <g id="line2d_33">
    <path clip-path="url(#p3adde0e88f)" d="M 414.72 67.338802 
L 412.803656 56.173354 
L 404.025563 49.530418 
L 366.255039 46.594565 
L 287.004937 44.37994 
L 206.642119 42.461673 
" style="fill:none;stroke:#a9a280;stroke-dasharray:9.6,2.4,1.5,2.4;stroke-dashoffset:0;stroke-width:1.5;"/>
    <defs>
     <path d="M 0 -3 
L -3 3 
L 3 3 
z
" id="m7fa577d6f7" style="stroke:#a9a280;stroke-linejoin:miter;"/>
    </defs>
    <g clip-path="url(#p3adde0e88f)">
     <use style="fill:#a9a280;stroke:#a9a280;stroke-linejoin:miter;" x="414.72" xlink:href="#m7fa577d6f7" y="67.338802"/>
     <use style="fill:#a9a280;stroke:#a9a280;stroke-linejoin:miter;" x="412.803656" xlink:href="#m7fa577d6f7" y="56.173354"/>
     <use style="fill:#a9a280;stroke:#a9a280;stroke-linejoin:miter;" x="404.025563" xlink:href="#m7fa577d6f7" y="49.530418"/>
     <use style="fill:#a9a280;stroke:#a9a280;stroke-linejoin:miter;" x="366.255039" xlink:href="#m7fa577d6f7" y="46.594565"/>
     <use style="fill:#a9a280;stroke:#a9a280;stroke-linejoin:miter;" x="287.004937" xlink:href="#m7fa577d6f7" y="44.37994"/>
     <use style="fill:#a9a280;stroke:#a9a280;stroke-linejoin:miter;" x="206.642119" xlink:href="#m7fa577d6f7" y="42.461673"/>
    </g>
   </g>
   <g id="line2d_34">
    <path clip-path="url(#p3adde0e88f)" d="M 414.72 67.338802 
L 414.658182 56.101194 
L 411.44367 49.366491 
L 396.978362 46.138961 
L 343.50618 43.810318 
L 261.536105 42.196005 
" style="fill:none;stroke:#a9a280;stroke-dasharray:9.6,2.4,1.5,2.4;stroke-dashoffset:0;stroke-width:1.5;"/>
    <defs>
     <path d="M 3 0 
L -3 -3 
L -3 3 
z
" id="mbf82fd8826" style="stroke:#a9a280;stroke-linejoin:miter;"/>
    </defs>
    <g clip-path="url(#p3adde0e88f)">
     <use style="fill:#a9a280;stroke:#a9a280;stroke-linejoin:miter;" x="414.72" xlink:href="#mbf82fd8826" y="67.338802"/>
     <use style="fill:#a9a280;stroke:#a9a280;stroke-linejoin:miter;" x="414.658182" xlink:href="#mbf82fd8826" y="56.101194"/>
     <use style="fill:#a9a280;stroke:#a9a280;stroke-linejoin:miter;" x="411.44367" xlink:href="#mbf82fd8826" y="49.366491"/>
     <use style="fill:#a9a280;stroke:#a9a280;stroke-linejoin:miter;" x="396.978362" xlink:href="#mbf82fd8826" y="46.138961"/>
     <use style="fill:#a9a280;stroke:#a9a280;stroke-linejoin:miter;" x="343.50618" xlink:href="#mbf82fd8826" y="43.810318"/>
     <use style="fill:#a9a280;stroke:#a9a280;stroke-linejoin:miter;" x="261.536105" xlink:href="#mbf82fd8826" y="42.196005"/>
    </g>
   </g>
   <g id="line2d_35">
    <path clip-path="url(#p3adde0e88f)" d="M 277.870379 80.978467 
L 177.25839 77.706 
L 107.627719 72.300275 
L 80.047543 66.689596 
L 64.896997 64.163721 
L 59.949881 48.295385 
" style="fill:none;stroke:#56aa1c;stroke-dasharray:1.5,2.475;stroke-dashoffset:0;stroke-width:1.5;"/>
    <defs>
     <path d="M 0 -3 
L -0.673542 -0.927051 
L -2.85317 -0.927051 
L -1.089814 0.354102 
L -1.763356 2.427051 
L -0 1.145898 
L 1.763356 2.427051 
L 1.089814 0.354102 
L 2.85317 -0.927051 
L 0.673542 -0.927051 
z
" id="mea73439e32" style="stroke:#56aa1c;stroke-linejoin:bevel;"/>
    </defs>
    <g clip-path="url(#p3adde0e88f)">
     <use style="fill:#56aa1c;stroke:#56aa1c;stroke-linejoin:bevel;" x="277.870379" xlink:href="#mea73439e32" y="80.978467"/>
     <use style="fill:#56aa1c;stroke:#56aa1c;stroke-linejoin:bevel;" x="177.25839" xlink:href="#mea73439e32" y="77.706"/>
     <use style="fill:#56aa1c;stroke:#56aa1c;stroke-linejoin:bevel;" x="107.627719" xlink:href="#mea73439e32" y="72.300275"/>
     <use style="fill:#56aa1c;stroke:#56aa1c;stroke-linejoin:bevel;" x="80.047543" xlink:href="#mea73439e32" y="66.689596"/>
     <use style="fill:#56aa1c;stroke:#56aa1c;stroke-linejoin:bevel;" x="64.896997" xlink:href="#mea73439e32" y="64.163721"/>
     <use style="fill:#56aa1c;stroke:#56aa1c;stroke-linejoin:bevel;" x="59.949881" xlink:href="#mea73439e32" y="48.295385"/>
    </g>
   </g>
   <g id="line2d_36">
    <path clip-path="url(#p3adde0e88f)" d="M 400.002327 68.307913 
L 356.096665 57.287308 
L 269.954992 49.440325 
L 184.740904 46.301158 
L 109.9776 44.883692 
L 78.810764 42.245581 
" style="fill:none;stroke:#56aa1c;stroke-dasharray:1.5,2.475;stroke-dashoffset:0;stroke-width:1.5;"/>
    <defs>
     <path d="M -3 3 
L 3 -3 
M -3 -3 
L 3 3 
" id="md89d39c748" style="stroke:#56aa1c;"/>
    </defs>
    <g clip-path="url(#p3adde0e88f)">
     <use style="fill:#56aa1c;stroke:#56aa1c;" x="400.002327" xlink:href="#md89d39c748" y="68.307913"/>
     <use style="fill:#56aa1c;stroke:#56aa1c;" x="356.096665" xlink:href="#md89d39c748" y="57.287308"/>
     <use style="fill:#56aa1c;stroke:#56aa1c;" x="269.954992" xlink:href="#md89d39c748" y="49.440325"/>
     <use style="fill:#56aa1c;stroke:#56aa1c;" x="184.740904" xlink:href="#md89d39c748" y="46.301158"/>
     <use style="fill:#56aa1c;stroke:#56aa1c;" x="109.9776" xlink:href="#md89d39c748" y="44.883692"/>
     <use style="fill:#56aa1c;stroke:#56aa1c;" x="78.810764" xlink:href="#md89d39c748" y="42.245581"/>
    </g>
   </g>
   <g id="line2d_37">
    <path clip-path="url(#p3adde0e88f)" d="M 413.792416 67.370065 
L 407.237486 55.092433 
L 374.710192 46.861353 
L 296.731262 44.061566 
L 210.404073 42.651384 
L 142.814088 41.664975 
" style="fill:none;stroke:#56aa1c;stroke-dasharray:1.5,2.475;stroke-dashoffset:0;stroke-width:1.5;"/>
    <defs>
     <path d="M -3 0 
L 3 0 
M 0 3 
L 0 -3 
" id="mda1a17468f" style="stroke:#56aa1c;"/>
    </defs>
    <g clip-path="url(#p3adde0e88f)">
     <use style="fill:#56aa1c;stroke:#56aa1c;" x="413.792416" xlink:href="#mda1a17468f" y="67.370065"/>
     <use style="fill:#56aa1c;stroke:#56aa1c;" x="407.237486" xlink:href="#mda1a17468f" y="55.092433"/>
     <use style="fill:#56aa1c;stroke:#56aa1c;" x="374.710192" xlink:href="#mda1a17468f" y="46.861353"/>
     <use style="fill:#56aa1c;stroke:#56aa1c;" x="296.731262" xlink:href="#mda1a17468f" y="44.061566"/>
     <use style="fill:#56aa1c;stroke:#56aa1c;" x="210.404073" xlink:href="#mda1a17468f" y="42.651384"/>
     <use style="fill:#56aa1c;stroke:#56aa1c;" x="142.814088" xlink:href="#mda1a17468f" y="41.664975"/>
    </g>
   </g>
   <g id="line2d_38">
    <path clip-path="url(#p3adde0e88f)" d="M 414.72 67.309328 
L 413.54506 54.863216 
L 406.186223 46.383696 
L 369.577558 43.461427 
L 291.413112 42.243949 
L 209.723844 41.580132 
" style="fill:none;stroke:#56aa1c;stroke-dasharray:1.5,2.475;stroke-dashoffset:0;stroke-width:1.5;"/>
    <defs>
     <path d="M 0 -3 
L -3 3 
L 3 3 
z
" id="meb0fdd7b56" style="stroke:#56aa1c;stroke-linejoin:miter;"/>
    </defs>
    <g clip-path="url(#p3adde0e88f)">
     <use style="fill:#56aa1c;stroke:#56aa1c;stroke-linejoin:miter;" x="414.72" xlink:href="#meb0fdd7b56" y="67.309328"/>
     <use style="fill:#56aa1c;stroke:#56aa1c;stroke-linejoin:miter;" x="413.54506" xlink:href="#meb0fdd7b56" y="54.863216"/>
     <use style="fill:#56aa1c;stroke:#56aa1c;stroke-linejoin:miter;" x="406.186223" xlink:href="#meb0fdd7b56" y="46.383696"/>
     <use style="fill:#56aa1c;stroke:#56aa1c;stroke-linejoin:miter;" x="369.577558" xlink:href="#meb0fdd7b56" y="43.461427"/>
     <use style="fill:#56aa1c;stroke:#56aa1c;stroke-linejoin:miter;" x="291.413112" xlink:href="#meb0fdd7b56" y="42.243949"/>
     <use style="fill:#56aa1c;stroke:#56aa1c;stroke-linejoin:miter;" x="209.723844" xlink:href="#meb0fdd7b56" y="41.580132"/>
    </g>
   </g>
   <g id="line2d_39">
    <path clip-path="url(#p3adde0e88f)" d="M 414.72 67.309328 
L 414.72 54.821368 
L 412.617475 46.296332 
L 398.394514 43.294356 
L 346.944499 42.096143 
L 263.461901 41.551914 
" style="fill:none;stroke:#56aa1c;stroke-dasharray:1.5,2.475;stroke-dashoffset:0;stroke-width:1.5;"/>
    <defs>
     <path d="M 3 0 
L -3 -3 
L -3 3 
z
" id="m0819b00815" style="stroke:#56aa1c;stroke-linejoin:miter;"/>
    </defs>
    <g clip-path="url(#p3adde0e88f)">
     <use style="fill:#56aa1c;stroke:#56aa1c;stroke-linejoin:miter;" x="414.72" xlink:href="#m0819b00815" y="67.309328"/>
     <use style="fill:#56aa1c;stroke:#56aa1c;stroke-linejoin:miter;" x="414.72" xlink:href="#m0819b00815" y="54.821368"/>
     <use style="fill:#56aa1c;stroke:#56aa1c;stroke-linejoin:miter;" x="412.617475" xlink:href="#m0819b00815" y="46.296332"/>
     <use style="fill:#56aa1c;stroke:#56aa1c;stroke-linejoin:miter;" x="398.394514" xlink:href="#m0819b00815" y="43.294356"/>
     <use style="fill:#56aa1c;stroke:#56aa1c;stroke-linejoin:miter;" x="346.944499" xlink:href="#m0819b00815" y="42.096143"/>
     <use style="fill:#56aa1c;stroke:#56aa1c;stroke-linejoin:miter;" x="263.461901" xlink:href="#m0819b00815" y="41.551914"/>
    </g>
   </g>
   <g id="patch_3">
    <path d="M 57.6 307.584 
L 57.6 41.472 
" style="fill:none;stroke:#000000;stroke-linecap:square;stroke-linejoin:miter;stroke-width:0.8;"/>
   </g>
   <g id="patch_4">
    <path d="M 414.72 307.584 
L 414.72 41.472 
" style="fill:none;stroke:#000000;stroke-linecap:square;stroke-linejoin:miter;stroke-width:0.8;"/>
   </g>
   <g id="patch_5">
    <path d="M 57.6 307.584 
L 414.72 307.584 
" style="fill:none;stroke:#000000;stroke-linecap:square;stroke-linejoin:miter;stroke-width:0.8;"/>
   </g>
   <g id="patch_6">
    <path d="M 57.6 41.472 
L 414.72 41.472 
" style="fill:none;stroke:#000000;stroke-linecap:square;stroke-linejoin:miter;stroke-width:0.8;"/>
   </g>
   <g id="patch_7">
    <path d="M 272.883528 87.193053 
Q 274.713268 85.080104 276.543008 82.967155 
Q 277.135523 85.698716 277.728038 88.430277 
z
" style="stroke:#000000;stroke-linecap:round;"/>
   </g>
   <g id="text_15">
    <!--   -->
    <g transform="translate(277.038159 81.028327)scale(0.1 -0.1)">
     <use xlink:href="#LMRoman12-Regular-20"/>
    </g>
   </g>
   <g id="patch_8">
    <path d="M 390.790599 74.777611 
Q 392.620338 72.664662 394.450078 70.551713 
Q 395.042593 73.283274 395.635109 76.014835 
z
" style="stroke:#000000;stroke-linecap:round;"/>
   </g>
   <g id="text_16">
    <!--   -->
    <g transform="translate(394.945229 68.612885)scale(0.1 -0.1)">
     <use xlink:href="#LMRoman12-Regular-20"/>
    </g>
   </g>
   <g id="patch_9">
    <path d="M 405.992454 73.722013 
Q 407.822193 71.609064 409.651933 69.496115 
Q 410.244448 72.227676 410.836964 74.959237 
z
" style="stroke:#000000;stroke-linecap:round;"/>
   </g>
   <g id="text_17">
    <!--   -->
    <g transform="translate(410.147084 67.557287)scale(0.1 -0.1)">
     <use xlink:href="#LMRoman12-Regular-20"/>
    </g>
   </g>
   <g id="patch_10">
    <path d="M 409.329446 73.501194 
Q 411.159186 71.388245 412.988926 69.275296 
Q 413.581441 72.006857 414.173956 74.738418 
z
" style="stroke:#000000;stroke-linecap:round;"/>
   </g>
   <g id="text_18">
    <!--   -->
    <g transform="translate(413.484077 67.336468)scale(0.1 -0.1)">
     <use xlink:href="#LMRoman12-Regular-20"/>
    </g>
   </g>
   <g id="patch_11">
    <path d="M 409.823816 73.468797 
Q 411.653555 71.355849 413.483295 69.2429 
Q 414.07581 71.974461 414.668326 74.706022 
z
" style="stroke:#000000;stroke-linecap:round;"/>
   </g>
   <g id="text_19">
    <!--   -->
    <g transform="translate(413.978446 67.304071)scale(0.1 -0.1)">
     <use xlink:href="#LMRoman12-Regular-20"/>
    </g>
   </g>
   <g id="patch_12">
    <path d="M 272.712228 87.339692 
Q 274.541967 85.226743 276.371707 83.113794 
Q 276.964222 85.845355 277.556738 88.576916 
z
" style="stroke:#000000;stroke-linecap:round;"/>
   </g>
   <g id="text_20">
    <!--   -->
    <g transform="translate(276.866858 81.174966)scale(0.1 -0.1)">
     <use xlink:href="#LMRoman12-Regular-20"/>
    </g>
   </g>
   <g id="patch_13">
    <path d="M 393.256455 74.68717 
Q 395.086194 72.574221 396.915934 70.461272 
Q 397.508449 73.192833 398.100965 75.924394 
z
" style="stroke:#000000;stroke-linecap:round;"/>
   </g>
   <g id="text_21">
    <!--   -->
    <g transform="translate(397.411085 68.522444)scale(0.1 -0.1)">
     <use xlink:href="#LMRoman12-Regular-20"/>
    </g>
   </g>
   <g id="patch_14">
    <path d="M 408.649025 73.62945 
Q 410.478765 71.516501 412.308505 69.403552 
Q 412.90102 72.135113 413.493535 74.866674 
z
" style="stroke:#000000;stroke-linecap:round;"/>
   </g>
   <g id="text_22">
    <!--   -->
    <g transform="translate(412.803656 67.464724)scale(0.1 -0.1)">
     <use xlink:href="#LMRoman12-Regular-20"/>
    </g>
   </g>
   <g id="patch_15">
    <path d="M 410.56537 73.503528 
Q 412.395109 71.390579 414.224849 69.27763 
Q 414.817364 72.009191 415.409879 74.740752 
z
" style="stroke:#000000;stroke-linecap:round;"/>
   </g>
   <g id="text_23">
    <!--   -->
    <g transform="translate(414.72 67.338802)scale(0.1 -0.1)">
     <use xlink:href="#LMRoman12-Regular-20"/>
    </g>
   </g>
   <g id="patch_16">
    <path d="M 410.56537 73.503528 
Q 412.395109 71.390579 414.224849 69.27763 
Q 414.817364 72.009191 415.409879 74.740752 
z
" style="stroke:#000000;stroke-linecap:round;"/>
   </g>
   <g id="text_24">
    <!--   -->
    <g transform="translate(414.72 67.338802)scale(0.1 -0.1)">
     <use xlink:href="#LMRoman12-Regular-20"/>
    </g>
   </g>
   <g id="patch_17">
    <path d="M 273.715749 87.143193 
Q 275.545488 85.030244 277.375228 82.917295 
Q 277.967743 85.648856 278.560259 88.380417 
z
" style="stroke:#000000;stroke-linecap:round;"/>
   </g>
   <g id="text_25">
    <!--   -->
    <g transform="translate(277.870379 80.978467)scale(0.1 -0.1)">
     <use xlink:href="#LMRoman12-Regular-20"/>
    </g>
   </g>
   <g id="patch_18">
    <path d="M 395.847697 74.472639 
Q 397.677436 72.35969 399.507176 70.246741 
Q 400.099691 72.978302 400.692207 75.709863 
z
" style="stroke:#000000;stroke-linecap:round;"/>
   </g>
   <g id="text_26">
    <!--   -->
    <g transform="translate(400.002327 68.307913)scale(0.1 -0.1)">
     <use xlink:href="#LMRoman12-Regular-20"/>
    </g>
   </g>
   <g id="patch_19">
    <path d="M 409.637785 73.534791 
Q 411.467525 71.421842 413.297264 69.308893 
Q 413.88978 72.040454 414.482295 74.772015 
z
" style="stroke:#000000;stroke-linecap:round;"/>
   </g>
   <g id="text_27">
    <!--   -->
    <g transform="translate(413.792416 67.370065)scale(0.1 -0.1)">
     <use xlink:href="#LMRoman12-Regular-20"/>
    </g>
   </g>
   <g id="patch_20">
    <path d="M 410.56537 73.474054 
Q 412.395109 71.361105 414.224849 69.248157 
Q 414.817364 71.979718 415.409879 74.711279 
z
" style="stroke:#000000;stroke-linecap:round;"/>
   </g>
   <g id="text_28">
    <!--   -->
    <g transform="translate(414.72 67.309328)scale(0.1 -0.1)">
     <use xlink:href="#LMRoman12-Regular-20"/>
    </g>
   </g>
   <g id="patch_21">
    <path d="M 410.56537 73.474054 
Q 412.395109 71.361105 414.224849 69.248157 
Q 414.817364 71.979718 415.409879 74.711279 
z
" style="stroke:#000000;stroke-linecap:round;"/>
   </g>
   <g id="text_29">
    <!--   -->
    <g transform="translate(414.72 67.309328)scale(0.1 -0.1)">
     <use xlink:href="#LMRoman12-Regular-20"/>
    </g>
   </g>
   <g id="legend_1">
    <g id="patch_22">
     <path d="M 330.549688 302.584 
L 407.72 302.584 
Q 409.72 302.584 409.72 300.584 
L 409.72 92.474625 
Q 409.72 90.474625 407.72 90.474625 
L 330.549688 90.474625 
Q 328.549688 90.474625 328.549688 92.474625 
L 328.549688 300.584 
Q 328.549688 302.584 330.549688 302.584 
z
" style="fill:#ffffff;opacity:0.8;stroke:#cccccc;stroke-linejoin:miter;"/>
    </g>
    <g id="line2d_40">
     <path d="M 332.549688 97.974625 
L 352.549688 97.974625 
" style="fill:none;stroke:#7d9aaa;stroke-dasharray:5.55,2.4;stroke-dashoffset:0;stroke-width:1.5;"/>
    </g>
    <g id="line2d_41">
     <g>
      <use style="fill:#7d9aaa;stroke:#7d9aaa;stroke-linejoin:bevel;" x="342.549688" xlink:href="#md5527b705f" y="97.974625"/>
     </g>
    </g>
    <g id="text_30">
     <!-- e=1 a=0.5 -->
     <defs>
      <path d="M 70.703125 34.203125 
C 70.703125 36.09375 69 36.09375 67.5 36.09375 
L 8.59375 36.09375 
C 7.203125 36.09375 5.40625 36.09375 5.40625 34.296875 
C 5.40625 32.40625 7.09375 32.40625 8.59375 32.40625 
L 67.5 32.40625 
C 68.90625 32.40625 70.703125 32.40625 70.703125 34.203125 
z
M 70.703125 15.59375 
C 70.703125 17.5 69 17.5 67.5 17.5 
L 8.59375 17.5 
C 7.203125 17.5 5.40625 17.5 5.40625 15.703125 
C 5.40625 13.796875 7.09375 13.796875 8.59375 13.796875 
L 67.5 13.796875 
C 68.90625 13.796875 70.703125 13.796875 70.703125 15.59375 
z
" id="LMRoman12-Regular-3d"/>
      <path d="M 44 20.09375 
C 44 32 36 41.90625 25.5 41.90625 
C 19.796875 41.90625 15.40625 39.40625 12.796875 36.59375 
L 12.796875 57.296875 
C 17.09375 55.90625 20.59375 55.796875 21.703125 55.796875 
C 33 55.796875 40.203125 64.09375 40.203125 65.5 
C 40.203125 65.90625 40 66.40625 39.40625 66.40625 
C 39.40625 66.40625 39 66.40625 38.09375 66 
C 32.5 63.59375 27.703125 63.296875 25.09375 63.296875 
C 18.5 63.296875 13.796875 65.296875 11.90625 66.09375 
C 11.203125 66.40625 10.90625 66.40625 10.90625 66.40625 
C 10.09375 66.40625 10.09375 65.796875 10.09375 64.203125 
L 10.09375 34.5 
C 10.09375 32.703125 10.09375 32.09375 11.296875 32.09375 
C 11.796875 32.09375 11.90625 32.203125 12.90625 33.40625 
C 15.703125 37.5 20.40625 39.90625 25.40625 39.90625 
C 30.703125 39.90625 33.296875 35 34.09375 33.296875 
C 35.796875 29.40625 35.90625 24.5 35.90625 20.703125 
C 35.90625 16.90625 35.90625 11.203125 33.09375 6.703125 
C 30.90625 3.09375 27 0.59375 22.59375 0.59375 
C 16 0.59375 9.5 5.09375 7.703125 12.40625 
C 8.203125 12.203125 8.796875 12.09375 9.296875 12.09375 
C 11 12.09375 13.703125 13.09375 13.703125 16.5 
C 13.703125 19.296875 11.796875 20.90625 9.296875 20.90625 
C 7.5 20.90625 4.90625 20 4.90625 16.09375 
C 4.90625 7.59375 11.703125 -2.09375 22.796875 -2.09375 
C 34.09375 -2.09375 44 7.40625 44 20.09375 
z
" id="LMRoman12-Regular-35"/>
     </defs>
     <g transform="translate(360.549688 101.474625)scale(0.1 -0.1)">
      <use xlink:href="#LMRoman12-Regular-65"/>
      <use x="43.499985" xlink:href="#LMRoman12-Regular-3d"/>
      <use x="119.699966" xlink:href="#LMRoman12-Regular-31"/>
      <use x="168.699951" xlink:href="#LMRoman12-Regular-20"/>
      <use x="201.299942" xlink:href="#LMRoman12-Regular-61"/>
      <use x="250.299927" xlink:href="#LMRoman12-Regular-3d"/>
      <use x="326.499908" xlink:href="#LMRoman12-Regular-30"/>
      <use x="375.499893" xlink:href="#LMRoman12-Regular-2e"/>
      <use x="402.69989" xlink:href="#LMRoman12-Regular-35"/>
     </g>
    </g>
    <g id="line2d_42">
     <path d="M 332.549688 111.91525 
L 352.549688 111.91525 
" style="fill:none;stroke:#7d9aaa;stroke-dasharray:5.55,2.4;stroke-dashoffset:0;stroke-width:1.5;"/>
    </g>
    <g id="line2d_43">
     <g>
      <use style="fill:#7d9aaa;stroke:#7d9aaa;" x="342.549688" xlink:href="#m4fdd5f4aa2" y="111.91525"/>
     </g>
    </g>
    <g id="text_31">
     <!-- e=1 a=1   -->
     <g transform="translate(360.549688 115.41525)scale(0.1 -0.1)">
      <use xlink:href="#LMRoman12-Regular-65"/>
      <use x="43.499985" xlink:href="#LMRoman12-Regular-3d"/>
      <use x="119.699966" xlink:href="#LMRoman12-Regular-31"/>
      <use x="168.699951" xlink:href="#LMRoman12-Regular-20"/>
      <use x="201.299942" xlink:href="#LMRoman12-Regular-61"/>
      <use x="250.299927" xlink:href="#LMRoman12-Regular-3d"/>
      <use x="326.499908" xlink:href="#LMRoman12-Regular-31"/>
      <use x="375.499893" xlink:href="#LMRoman12-Regular-20"/>
      <use x="408.099884" xlink:href="#LMRoman12-Regular-20"/>
     </g>
    </g>
    <g id="line2d_44">
     <path d="M 332.549688 125.855875 
L 352.549688 125.855875 
" style="fill:none;stroke:#7d9aaa;stroke-dasharray:5.55,2.4;stroke-dashoffset:0;stroke-width:1.5;"/>
    </g>
    <g id="line2d_45">
     <g>
      <use style="fill:#7d9aaa;stroke:#7d9aaa;" x="342.549688" xlink:href="#m582f24e4fd" y="125.855875"/>
     </g>
    </g>
    <g id="text_32">
     <!-- e=1 a=1.5 -->
     <g transform="translate(360.549688 129.355875)scale(0.1 -0.1)">
      <use xlink:href="#LMRoman12-Regular-65"/>
      <use x="43.499985" xlink:href="#LMRoman12-Regular-3d"/>
      <use x="119.699966" xlink:href="#LMRoman12-Regular-31"/>
      <use x="168.699951" xlink:href="#LMRoman12-Regular-20"/>
      <use x="201.299942" xlink:href="#LMRoman12-Regular-61"/>
      <use x="250.299927" xlink:href="#LMRoman12-Regular-3d"/>
      <use x="326.499908" xlink:href="#LMRoman12-Regular-31"/>
      <use x="375.499893" xlink:href="#LMRoman12-Regular-2e"/>
      <use x="402.69989" xlink:href="#LMRoman12-Regular-35"/>
     </g>
    </g>
    <g id="line2d_46">
     <path d="M 332.549688 139.7965 
L 352.549688 139.7965 
" style="fill:none;stroke:#7d9aaa;stroke-dasharray:5.55,2.4;stroke-dashoffset:0;stroke-width:1.5;"/>
    </g>
    <g id="line2d_47">
     <g>
      <use style="fill:#7d9aaa;stroke:#7d9aaa;stroke-linejoin:miter;" x="342.549688" xlink:href="#m89bc0e38bc" y="139.7965"/>
     </g>
    </g>
    <g id="text_33">
     <!-- e=1 a=2   -->
     <g transform="translate(360.549688 143.2965)scale(0.1 -0.1)">
      <use xlink:href="#LMRoman12-Regular-65"/>
      <use x="43.499985" xlink:href="#LMRoman12-Regular-3d"/>
      <use x="119.699966" xlink:href="#LMRoman12-Regular-31"/>
      <use x="168.699951" xlink:href="#LMRoman12-Regular-20"/>
      <use x="201.299942" xlink:href="#LMRoman12-Regular-61"/>
      <use x="250.299927" xlink:href="#LMRoman12-Regular-3d"/>
      <use x="326.499908" xlink:href="#LMRoman12-Regular-32"/>
      <use x="375.499893" xlink:href="#LMRoman12-Regular-20"/>
      <use x="408.099884" xlink:href="#LMRoman12-Regular-20"/>
     </g>
    </g>
    <g id="line2d_48">
     <path d="M 332.549688 153.737125 
L 352.549688 153.737125 
" style="fill:none;stroke:#7d9aaa;stroke-dasharray:5.55,2.4;stroke-dashoffset:0;stroke-width:1.5;"/>
    </g>
    <g id="line2d_49">
     <g>
      <use style="fill:#7d9aaa;stroke:#7d9aaa;stroke-linejoin:miter;" x="342.549688" xlink:href="#m9ad6274919" y="153.737125"/>
     </g>
    </g>
    <g id="text_34">
     <!-- e=1 a=2.5 -->
     <g transform="translate(360.549688 157.237125)scale(0.1 -0.1)">
      <use xlink:href="#LMRoman12-Regular-65"/>
      <use x="43.499985" xlink:href="#LMRoman12-Regular-3d"/>
      <use x="119.699966" xlink:href="#LMRoman12-Regular-31"/>
      <use x="168.699951" xlink:href="#LMRoman12-Regular-20"/>
      <use x="201.299942" xlink:href="#LMRoman12-Regular-61"/>
      <use x="250.299927" xlink:href="#LMRoman12-Regular-3d"/>
      <use x="326.499908" xlink:href="#LMRoman12-Regular-32"/>
      <use x="375.499893" xlink:href="#LMRoman12-Regular-2e"/>
      <use x="402.69989" xlink:href="#LMRoman12-Regular-35"/>
     </g>
    </g>
    <g id="line2d_50">
     <path d="M 332.549688 167.67775 
L 352.549688 167.67775 
" style="fill:none;stroke:#a9a280;stroke-dasharray:9.6,2.4,1.5,2.4;stroke-dashoffset:0;stroke-width:1.5;"/>
    </g>
    <g id="line2d_51">
     <g>
      <use style="fill:#a9a280;stroke:#a9a280;stroke-linejoin:bevel;" x="342.549688" xlink:href="#m65638e9b3c" y="167.67775"/>
     </g>
    </g>
    <g id="text_35">
     <!-- e=2 a=0.5 -->
     <g transform="translate(360.549688 171.17775)scale(0.1 -0.1)">
      <use xlink:href="#LMRoman12-Regular-65"/>
      <use x="43.499985" xlink:href="#LMRoman12-Regular-3d"/>
      <use x="119.699966" xlink:href="#LMRoman12-Regular-32"/>
      <use x="168.699951" xlink:href="#LMRoman12-Regular-20"/>
      <use x="201.299942" xlink:href="#LMRoman12-Regular-61"/>
      <use x="250.299927" xlink:href="#LMRoman12-Regular-3d"/>
      <use x="326.499908" xlink:href="#LMRoman12-Regular-30"/>
      <use x="375.499893" xlink:href="#LMRoman12-Regular-2e"/>
      <use x="402.69989" xlink:href="#LMRoman12-Regular-35"/>
     </g>
    </g>
    <g id="line2d_52">
     <path d="M 332.549688 181.618375 
L 352.549688 181.618375 
" style="fill:none;stroke:#a9a280;stroke-dasharray:9.6,2.4,1.5,2.4;stroke-dashoffset:0;stroke-width:1.5;"/>
    </g>
    <g id="line2d_53">
     <g>
      <use style="fill:#a9a280;stroke:#a9a280;" x="342.549688" xlink:href="#m7a4ed9fe03" y="181.618375"/>
     </g>
    </g>
    <g id="text_36">
     <!-- e=2 a=1   -->
     <g transform="translate(360.549688 185.118375)scale(0.1 -0.1)">
      <use xlink:href="#LMRoman12-Regular-65"/>
      <use x="43.499985" xlink:href="#LMRoman12-Regular-3d"/>
      <use x="119.699966" xlink:href="#LMRoman12-Regular-32"/>
      <use x="168.699951" xlink:href="#LMRoman12-Regular-20"/>
      <use x="201.299942" xlink:href="#LMRoman12-Regular-61"/>
      <use x="250.299927" xlink:href="#LMRoman12-Regular-3d"/>
      <use x="326.499908" xlink:href="#LMRoman12-Regular-31"/>
      <use x="375.499893" xlink:href="#LMRoman12-Regular-20"/>
      <use x="408.099884" xlink:href="#LMRoman12-Regular-20"/>
     </g>
    </g>
    <g id="line2d_54">
     <path d="M 332.549688 195.559 
L 352.549688 195.559 
" style="fill:none;stroke:#a9a280;stroke-dasharray:9.6,2.4,1.5,2.4;stroke-dashoffset:0;stroke-width:1.5;"/>
    </g>
    <g id="line2d_55">
     <g>
      <use style="fill:#a9a280;stroke:#a9a280;" x="342.549688" xlink:href="#m3fa2355647" y="195.559"/>
     </g>
    </g>
    <g id="text_37">
     <!-- e=2 a=1.5 -->
     <g transform="translate(360.549688 199.059)scale(0.1 -0.1)">
      <use xlink:href="#LMRoman12-Regular-65"/>
      <use x="43.499985" xlink:href="#LMRoman12-Regular-3d"/>
      <use x="119.699966" xlink:href="#LMRoman12-Regular-32"/>
      <use x="168.699951" xlink:href="#LMRoman12-Regular-20"/>
      <use x="201.299942" xlink:href="#LMRoman12-Regular-61"/>
      <use x="250.299927" xlink:href="#LMRoman12-Regular-3d"/>
      <use x="326.499908" xlink:href="#LMRoman12-Regular-31"/>
      <use x="375.499893" xlink:href="#LMRoman12-Regular-2e"/>
      <use x="402.69989" xlink:href="#LMRoman12-Regular-35"/>
     </g>
    </g>
    <g id="line2d_56">
     <path d="M 332.549688 209.499625 
L 352.549688 209.499625 
" style="fill:none;stroke:#a9a280;stroke-dasharray:9.6,2.4,1.5,2.4;stroke-dashoffset:0;stroke-width:1.5;"/>
    </g>
    <g id="line2d_57">
     <g>
      <use style="fill:#a9a280;stroke:#a9a280;stroke-linejoin:miter;" x="342.549688" xlink:href="#m7fa577d6f7" y="209.499625"/>
     </g>
    </g>
    <g id="text_38">
     <!-- e=2 a=2   -->
     <g transform="translate(360.549688 212.999625)scale(0.1 -0.1)">
      <use xlink:href="#LMRoman12-Regular-65"/>
      <use x="43.499985" xlink:href="#LMRoman12-Regular-3d"/>
      <use x="119.699966" xlink:href="#LMRoman12-Regular-32"/>
      <use x="168.699951" xlink:href="#LMRoman12-Regular-20"/>
      <use x="201.299942" xlink:href="#LMRoman12-Regular-61"/>
      <use x="250.299927" xlink:href="#LMRoman12-Regular-3d"/>
      <use x="326.499908" xlink:href="#LMRoman12-Regular-32"/>
      <use x="375.499893" xlink:href="#LMRoman12-Regular-20"/>
      <use x="408.099884" xlink:href="#LMRoman12-Regular-20"/>
     </g>
    </g>
    <g id="line2d_58">
     <path d="M 332.549688 223.44025 
L 352.549688 223.44025 
" style="fill:none;stroke:#a9a280;stroke-dasharray:9.6,2.4,1.5,2.4;stroke-dashoffset:0;stroke-width:1.5;"/>
    </g>
    <g id="line2d_59">
     <g>
      <use style="fill:#a9a280;stroke:#a9a280;stroke-linejoin:miter;" x="342.549688" xlink:href="#mbf82fd8826" y="223.44025"/>
     </g>
    </g>
    <g id="text_39">
     <!-- e=2 a=2.5 -->
     <g transform="translate(360.549688 226.94025)scale(0.1 -0.1)">
      <use xlink:href="#LMRoman12-Regular-65"/>
      <use x="43.499985" xlink:href="#LMRoman12-Regular-3d"/>
      <use x="119.699966" xlink:href="#LMRoman12-Regular-32"/>
      <use x="168.699951" xlink:href="#LMRoman12-Regular-20"/>
      <use x="201.299942" xlink:href="#LMRoman12-Regular-61"/>
      <use x="250.299927" xlink:href="#LMRoman12-Regular-3d"/>
      <use x="326.499908" xlink:href="#LMRoman12-Regular-32"/>
      <use x="375.499893" xlink:href="#LMRoman12-Regular-2e"/>
      <use x="402.69989" xlink:href="#LMRoman12-Regular-35"/>
     </g>
    </g>
    <g id="line2d_60">
     <path d="M 332.549688 237.380875 
L 352.549688 237.380875 
" style="fill:none;stroke:#56aa1c;stroke-dasharray:1.5,2.475;stroke-dashoffset:0;stroke-width:1.5;"/>
    </g>
    <g id="line2d_61">
     <g>
      <use style="fill:#56aa1c;stroke:#56aa1c;stroke-linejoin:bevel;" x="342.549688" xlink:href="#mea73439e32" y="237.380875"/>
     </g>
    </g>
    <g id="text_40">
     <!-- e=3 a=0.5 -->
     <defs>
      <path d="M 44.796875 17.09375 
C 44.796875 26.296875 37.40625 33.5 27.796875 35.203125 
C 36.5 37.703125 42.09375 45 42.09375 52.796875 
C 42.09375 60.703125 33.90625 66.5 24.203125 66.5 
C 14.203125 66.5 6.796875 60.40625 6.796875 53.09375 
C 6.796875 49.09375 9.90625 48.296875 11.40625 48.296875 
C 13.5 48.296875 15.90625 49.796875 15.90625 52.796875 
C 15.90625 56 13.5 57.40625 11.296875 57.40625 
C 10.703125 57.40625 10.5 57.40625 10.203125 57.296875 
C 14 64.09375 23.40625 64.09375 23.90625 64.09375 
C 27.203125 64.09375 33.703125 62.59375 33.703125 52.796875 
C 33.703125 50.90625 33.40625 45.296875 30.5 41 
C 27.5 36.59375 24.09375 36.296875 21.40625 36.203125 
L 18.40625 35.90625 
C 16.703125 35.796875 16.296875 35.703125 16.296875 34.796875 
C 16.296875 33.796875 16.796875 33.796875 18.59375 33.796875 
L 23.203125 33.796875 
C 31.703125 33.796875 35.5 26.796875 35.5 17.203125 
C 35.5 4.09375 28.703125 0.59375 23.796875 0.59375 
C 19 0.59375 10.796875 2.90625 7.90625 9.5 
C 11.09375 9 14 10.796875 14 14.40625 
C 14 17.296875 11.90625 19.296875 9.09375 19.296875 
C 6.703125 19.296875 4.09375 17.90625 4.09375 14.09375 
C 4.09375 5.203125 13 -2.09375 24.09375 -2.09375 
C 36 -2.09375 44.796875 7 44.796875 17.09375 
z
" id="LMRoman12-Regular-33"/>
     </defs>
     <g transform="translate(360.549688 240.880875)scale(0.1 -0.1)">
      <use xlink:href="#LMRoman12-Regular-65"/>
      <use x="43.499985" xlink:href="#LMRoman12-Regular-3d"/>
      <use x="119.699966" xlink:href="#LMRoman12-Regular-33"/>
      <use x="168.699951" xlink:href="#LMRoman12-Regular-20"/>
      <use x="201.299942" xlink:href="#LMRoman12-Regular-61"/>
      <use x="250.299927" xlink:href="#LMRoman12-Regular-3d"/>
      <use x="326.499908" xlink:href="#LMRoman12-Regular-30"/>
      <use x="375.499893" xlink:href="#LMRoman12-Regular-2e"/>
      <use x="402.69989" xlink:href="#LMRoman12-Regular-35"/>
     </g>
    </g>
    <g id="line2d_62">
     <path d="M 332.549688 251.3215 
L 352.549688 251.3215 
" style="fill:none;stroke:#56aa1c;stroke-dasharray:1.5,2.475;stroke-dashoffset:0;stroke-width:1.5;"/>
    </g>
    <g id="line2d_63">
     <g>
      <use style="fill:#56aa1c;stroke:#56aa1c;" x="342.549688" xlink:href="#md89d39c748" y="251.3215"/>
     </g>
    </g>
    <g id="text_41">
     <!-- e=3 a=1   -->
     <g transform="translate(360.549688 254.8215)scale(0.1 -0.1)">
      <use xlink:href="#LMRoman12-Regular-65"/>
      <use x="43.499985" xlink:href="#LMRoman12-Regular-3d"/>
      <use x="119.699966" xlink:href="#LMRoman12-Regular-33"/>
      <use x="168.699951" xlink:href="#LMRoman12-Regular-20"/>
      <use x="201.299942" xlink:href="#LMRoman12-Regular-61"/>
      <use x="250.299927" xlink:href="#LMRoman12-Regular-3d"/>
      <use x="326.499908" xlink:href="#LMRoman12-Regular-31"/>
      <use x="375.499893" xlink:href="#LMRoman12-Regular-20"/>
      <use x="408.099884" xlink:href="#LMRoman12-Regular-20"/>
     </g>
    </g>
    <g id="line2d_64">
     <path d="M 332.549688 265.262125 
L 352.549688 265.262125 
" style="fill:none;stroke:#56aa1c;stroke-dasharray:1.5,2.475;stroke-dashoffset:0;stroke-width:1.5;"/>
    </g>
    <g id="line2d_65">
     <g>
      <use style="fill:#56aa1c;stroke:#56aa1c;" x="342.549688" xlink:href="#mda1a17468f" y="265.262125"/>
     </g>
    </g>
    <g id="text_42">
     <!-- e=3 a=1.5 -->
     <g transform="translate(360.549688 268.762125)scale(0.1 -0.1)">
      <use xlink:href="#LMRoman12-Regular-65"/>
      <use x="43.499985" xlink:href="#LMRoman12-Regular-3d"/>
      <use x="119.699966" xlink:href="#LMRoman12-Regular-33"/>
      <use x="168.699951" xlink:href="#LMRoman12-Regular-20"/>
      <use x="201.299942" xlink:href="#LMRoman12-Regular-61"/>
      <use x="250.299927" xlink:href="#LMRoman12-Regular-3d"/>
      <use x="326.499908" xlink:href="#LMRoman12-Regular-31"/>
      <use x="375.499893" xlink:href="#LMRoman12-Regular-2e"/>
      <use x="402.69989" xlink:href="#LMRoman12-Regular-35"/>
     </g>
    </g>
    <g id="line2d_66">
     <path d="M 332.549688 279.20275 
L 352.549688 279.20275 
" style="fill:none;stroke:#56aa1c;stroke-dasharray:1.5,2.475;stroke-dashoffset:0;stroke-width:1.5;"/>
    </g>
    <g id="line2d_67">
     <g>
      <use style="fill:#56aa1c;stroke:#56aa1c;stroke-linejoin:miter;" x="342.549688" xlink:href="#meb0fdd7b56" y="279.20275"/>
     </g>
    </g>
    <g id="text_43">
     <!-- e=3 a=2   -->
     <g transform="translate(360.549688 282.70275)scale(0.1 -0.1)">
      <use xlink:href="#LMRoman12-Regular-65"/>
      <use x="43.499985" xlink:href="#LMRoman12-Regular-3d"/>
      <use x="119.699966" xlink:href="#LMRoman12-Regular-33"/>
      <use x="168.699951" xlink:href="#LMRoman12-Regular-20"/>
      <use x="201.299942" xlink:href="#LMRoman12-Regular-61"/>
      <use x="250.299927" xlink:href="#LMRoman12-Regular-3d"/>
      <use x="326.499908" xlink:href="#LMRoman12-Regular-32"/>
      <use x="375.499893" xlink:href="#LMRoman12-Regular-20"/>
      <use x="408.099884" xlink:href="#LMRoman12-Regular-20"/>
     </g>
    </g>
    <g id="line2d_68">
     <path d="M 332.549688 293.143375 
L 352.549688 293.143375 
" style="fill:none;stroke:#56aa1c;stroke-dasharray:1.5,2.475;stroke-dashoffset:0;stroke-width:1.5;"/>
    </g>
    <g id="line2d_69">
     <g>
      <use style="fill:#56aa1c;stroke:#56aa1c;stroke-linejoin:miter;" x="342.549688" xlink:href="#m0819b00815" y="293.143375"/>
     </g>
    </g>
    <g id="text_44">
     <!-- e=3 a=2.5 -->
     <g transform="translate(360.549688 296.643375)scale(0.1 -0.1)">
      <use xlink:href="#LMRoman12-Regular-65"/>
      <use x="43.499985" xlink:href="#LMRoman12-Regular-3d"/>
      <use x="119.699966" xlink:href="#LMRoman12-Regular-33"/>
      <use x="168.699951" xlink:href="#LMRoman12-Regular-20"/>
      <use x="201.299942" xlink:href="#LMRoman12-Regular-61"/>
      <use x="250.299927" xlink:href="#LMRoman12-Regular-3d"/>
      <use x="326.499908" xlink:href="#LMRoman12-Regular-32"/>
      <use x="375.499893" xlink:href="#LMRoman12-Regular-2e"/>
      <use x="402.69989" xlink:href="#LMRoman12-Regular-35"/>
     </g>
    </g>
   </g>
  </g>
 </g>
 <defs>
  <clipPath id="p3adde0e88f">
   <rect height="266.112" width="357.12" x="57.6" y="41.472"/>
  </clipPath>
 </defs>
</svg>
