<?xml version="1.0" encoding="utf-8" standalone="no"?>
<!DOCTYPE svg PUBLIC "-//W3C//DTD SVG 1.1//EN"
  "http://www.w3.org/Graphics/SVG/1.1/DTD/svg11.dtd">
<!-- Created with matplotlib (http://matplotlib.org/) -->
<svg height="345pt" version="1.1" viewBox="0 0 460 345" width="460pt" xmlns="http://www.w3.org/2000/svg" xmlns:xlink="http://www.w3.org/1999/xlink">
 <defs>
  <style type="text/css">
*{stroke-linecap:butt;stroke-linejoin:round;}
  </style>
 </defs>
 <g id="figure_1">
  <g id="patch_1">
   <path d="M 0 345.6 
L 460.8 345.6 
L 460.8 0 
L 0 0 
z
" style="fill:#ffffff;"/>
  </g>
  <g id="axes_1">
   <g id="patch_2">
    <path d="M 57.6 307.584 
L 414.72 307.584 
L 414.72 41.472 
L 57.6 41.472 
z
" style="fill:#ffffff;"/>
   </g>
   <g id="matplotlib.axis_1">
    <g id="xtick_1">
     <g id="line2d_1">
      <path clip-path="url(#pfc697214a7)" d="M 57.6 307.584 
L 57.6 41.472 
" style="fill:none;stroke:#b0b0b0;stroke-linecap:square;stroke-width:0.8;"/>
     </g>
     <g id="line2d_2">
      <defs>
       <path d="M 0 0 
L 0 3.5 
" id="mb485f583f1" style="stroke:#000000;stroke-width:0.8;"/>
      </defs>
      <g>
       <use style="stroke:#000000;stroke-width:0.8;" x="57.6" xlink:href="#mb485f583f1" y="307.584"/>
      </g>
     </g>
     <g id="text_1">
      <!-- 0.0 -->
      <defs>
       <path d="M 44.796875 32 
C 44.796875 40.296875 44.296875 48.40625 40.703125 56 
C 36.59375 64.296875 29.40625 66.5 24.5 66.5 
C 18.703125 66.5 11.59375 63.59375 7.90625 55.296875 
C 5.09375 49 4.09375 42.796875 4.09375 32 
C 4.09375 22.296875 4.796875 15 8.40625 7.90625 
C 12.296875 0.296875 19.203125 -2.09375 24.40625 -2.09375 
C 33.09375 -2.09375 38.09375 3.09375 41 8.90625 
C 44.59375 16.40625 44.796875 26.203125 44.796875 32 
z
M 37.203125 33.203125 
C 37.203125 26.5 37.203125 18.90625 36.09375 12.796875 
C 34.203125 1.796875 27.90625 -0.09375 24.40625 -0.09375 
C 21.203125 -0.09375 14.703125 1.703125 12.796875 12.59375 
C 11.703125 18.59375 11.703125 26.203125 11.703125 33.203125 
C 11.703125 41.40625 11.703125 48.796875 13.296875 54.703125 
C 15 61.40625 20.09375 64.5 24.40625 64.5 
C 28.203125 64.5 34 62.203125 35.90625 53.59375 
C 37.203125 47.90625 37.203125 40 37.203125 33.203125 
z
" id="LMRoman12-Regular-30"/>
       <path d="M 18.40625 4.90625 
C 18.40625 7.59375 16.09375 9.703125 13.59375 9.703125 
C 10.703125 9.703125 8.703125 7.40625 8.703125 4.90625 
C 8.703125 1.90625 11.203125 0 13.5 0 
C 16.203125 0 18.40625 2.09375 18.40625 4.90625 
z
" id="LMRoman12-Regular-2e"/>
      </defs>
      <g transform="translate(51.339844 321.524625)scale(0.1 -0.1)">
       <use xlink:href="#LMRoman12-Regular-30"/>
       <use x="48.999985" xlink:href="#LMRoman12-Regular-2e"/>
       <use x="76.199982" xlink:href="#LMRoman12-Regular-30"/>
      </g>
     </g>
    </g>
    <g id="xtick_2">
     <g id="line2d_3">
      <path clip-path="url(#pfc697214a7)" d="M 129.024 307.584 
L 129.024 41.472 
" style="fill:none;stroke:#b0b0b0;stroke-linecap:square;stroke-width:0.8;"/>
     </g>
     <g id="line2d_4">
      <g>
       <use style="stroke:#000000;stroke-width:0.8;" x="129.024" xlink:href="#mb485f583f1" y="307.584"/>
      </g>
     </g>
     <g id="text_2">
      <!-- 0.2 -->
      <defs>
       <path d="M 44 16.796875 
L 41.796875 16.796875 
C 41.5 15.09375 40.703125 9.59375 39.703125 8 
C 39 7.09375 33.296875 7.09375 30.296875 7.09375 
L 11.796875 7.09375 
C 14.5 9.40625 20.59375 15.796875 23.203125 18.203125 
C 38.40625 32.203125 44 37.40625 44 47.296875 
C 44 58.796875 34.90625 66.5 23.296875 66.5 
C 11.703125 66.5 4.90625 56.59375 4.90625 48 
C 4.90625 42.90625 9.296875 42.90625 9.59375 42.90625 
C 11.703125 42.90625 14.296875 44.40625 14.296875 47.59375 
C 14.296875 50.40625 12.40625 52.296875 9.59375 52.296875 
C 8.703125 52.296875 8.5 52.296875 8.203125 52.203125 
C 10.09375 59 15.5 63.59375 22 63.59375 
C 30.5 63.59375 35.703125 56.5 35.703125 47.296875 
C 35.703125 38.796875 30.796875 31.40625 25.09375 25 
L 4.90625 2.40625 
L 4.90625 0 
L 41.40625 0 
z
" id="LMRoman12-Regular-32"/>
      </defs>
      <g transform="translate(122.763844 321.524625)scale(0.1 -0.1)">
       <use xlink:href="#LMRoman12-Regular-30"/>
       <use x="48.999985" xlink:href="#LMRoman12-Regular-2e"/>
       <use x="76.199982" xlink:href="#LMRoman12-Regular-32"/>
      </g>
     </g>
    </g>
    <g id="xtick_3">
     <g id="line2d_5">
      <path clip-path="url(#pfc697214a7)" d="M 200.448 307.584 
L 200.448 41.472 
" style="fill:none;stroke:#b0b0b0;stroke-linecap:square;stroke-width:0.8;"/>
     </g>
     <g id="line2d_6">
      <g>
       <use style="stroke:#000000;stroke-width:0.8;" x="200.448" xlink:href="#mb485f583f1" y="307.584"/>
      </g>
     </g>
     <g id="text_3">
      <!-- 0.4 -->
      <defs>
       <path d="M 46.203125 16.703125 
L 46.203125 19.59375 
L 36.09375 19.59375 
L 36.09375 65.09375 
C 36.09375 67 36.09375 67.5 34.703125 67.5 
C 33.90625 67.5 33.59375 67.5 32.796875 66.296875 
L 2.703125 19.59375 
L 2.703125 16.703125 
L 29 16.703125 
L 29 7.59375 
C 29 3.90625 28.796875 2.90625 21.5 2.90625 
L 19.5 2.90625 
L 19.5 0 
C 21.796875 0.203125 29.703125 0.203125 32.5 0.203125 
C 35.296875 0.203125 43.296875 0.203125 45.59375 0 
L 45.59375 2.90625 
L 43.59375 2.90625 
C 36.40625 2.90625 36.09375 3.90625 36.09375 7.59375 
L 36.09375 16.703125 
z
M 29.5 19.59375 
L 5.203125 19.59375 
L 29.5 57.296875 
z
" id="LMRoman12-Regular-34"/>
      </defs>
      <g transform="translate(194.187844 321.524625)scale(0.1 -0.1)">
       <use xlink:href="#LMRoman12-Regular-30"/>
       <use x="48.999985" xlink:href="#LMRoman12-Regular-2e"/>
       <use x="76.199982" xlink:href="#LMRoman12-Regular-34"/>
      </g>
     </g>
    </g>
    <g id="xtick_4">
     <g id="line2d_7">
      <path clip-path="url(#pfc697214a7)" d="M 271.872 307.584 
L 271.872 41.472 
" style="fill:none;stroke:#b0b0b0;stroke-linecap:square;stroke-width:0.8;"/>
     </g>
     <g id="line2d_8">
      <g>
       <use style="stroke:#000000;stroke-width:0.8;" x="271.872" xlink:href="#mb485f583f1" y="307.584"/>
      </g>
     </g>
     <g id="text_4">
      <!-- 0.6 -->
      <defs>
       <path d="M 44.796875 20.40625 
C 44.796875 33.703125 35.5 42.59375 25.5 42.59375 
C 16.59375 42.59375 13.296875 34.90625 12.296875 32.09375 
L 12.296875 34.796875 
C 12.296875 60.09375 24.59375 64.09375 30 64.09375 
C 33.59375 64.09375 37.203125 63 39.09375 60 
C 37.90625 60 34.09375 60 34.09375 55.90625 
C 34.09375 53.703125 35.59375 51.796875 38.203125 51.796875 
C 40.703125 51.796875 42.40625 53.296875 42.40625 56.203125 
C 42.40625 61.40625 38.59375 66.5 29.90625 66.5 
C 17.296875 66.5 4.09375 53.59375 4.09375 31.59375 
C 4.09375 4.09375 16.09375 -2.09375 24.59375 -2.09375 
C 35.5 -2.09375 44.796875 7.40625 44.796875 20.40625 
z
M 36.59375 20.5 
C 36.59375 15.40625 36.59375 10.90625 34.703125 7.09375 
C 32.203125 2.296875 28.59375 0.59375 24.59375 0.59375 
C 18.296875 0.59375 15.296875 6.203125 14.40625 8.296875 
C 13.5 10.90625 12.5 15.796875 12.5 22.796875 
C 12.5 30.703125 16.09375 40.59375 25.09375 40.59375 
C 30.59375 40.59375 33.5 36.90625 35 33.5 
C 36.59375 29.796875 36.59375 24.796875 36.59375 20.5 
z
" id="LMRoman12-Regular-36"/>
      </defs>
      <g transform="translate(265.611844 321.524625)scale(0.1 -0.1)">
       <use xlink:href="#LMRoman12-Regular-30"/>
       <use x="48.999985" xlink:href="#LMRoman12-Regular-2e"/>
       <use x="76.199982" xlink:href="#LMRoman12-Regular-36"/>
      </g>
     </g>
    </g>
    <g id="xtick_5">
     <g id="line2d_9">
      <path clip-path="url(#pfc697214a7)" d="M 343.296 307.584 
L 343.296 41.472 
" style="fill:none;stroke:#b0b0b0;stroke-linecap:square;stroke-width:0.8;"/>
     </g>
     <g id="line2d_10">
      <g>
       <use style="stroke:#000000;stroke-width:0.8;" x="343.296" xlink:href="#mb485f583f1" y="307.584"/>
      </g>
     </g>
     <g id="text_5">
      <!-- 0.8 -->
      <defs>
       <path d="M 44.796875 16.59375 
C 44.796875 26.796875 37.59375 31.296875 29.796875 36.09375 
C 34.796875 38.796875 42.09375 43.40625 42.09375 51.796875 
C 42.09375 60.5 33.703125 66.5 24.5 66.5 
C 14.59375 66.5 6.796875 59.203125 6.796875 50.09375 
C 6.796875 46.703125 7.796875 43.296875 10.59375 39.90625 
C 11.703125 38.59375 11.796875 38.5 18.796875 33.59375 
C 9.09375 29.09375 4.09375 22.40625 4.09375 15.09375 
C 4.09375 4.5 14.203125 -2.09375 24.40625 -2.09375 
C 35.5 -2.09375 44.796875 6.09375 44.796875 16.59375 
z
M 38 51.703125 
C 38 45.59375 33.59375 40.703125 27.796875 37.5 
L 16.203125 45.09375 
C 14.90625 46 10.90625 48.59375 10.90625 53.5 
C 10.90625 60 17.703125 64.09375 24.40625 64.09375 
C 31.59375 64.09375 38 58.90625 38 51.703125 
z
M 40.203125 13.40625 
C 40.203125 5.796875 32.5 0.59375 24.5 0.59375 
C 16 0.59375 8.703125 6.796875 8.703125 15.09375 
C 8.703125 22.90625 14.40625 29.203125 20.90625 32.203125 
L 33 24.296875 
C 35.59375 22.59375 40.203125 19.5 40.203125 13.40625 
z
" id="LMRoman12-Regular-38"/>
      </defs>
      <g transform="translate(337.035844 321.524625)scale(0.1 -0.1)">
       <use xlink:href="#LMRoman12-Regular-30"/>
       <use x="48.999985" xlink:href="#LMRoman12-Regular-2e"/>
       <use x="76.199982" xlink:href="#LMRoman12-Regular-38"/>
      </g>
     </g>
    </g>
    <g id="xtick_6">
     <g id="line2d_11">
      <path clip-path="url(#pfc697214a7)" d="M 414.72 307.584 
L 414.72 41.472 
" style="fill:none;stroke:#b0b0b0;stroke-linecap:square;stroke-width:0.8;"/>
     </g>
     <g id="line2d_12">
      <g>
       <use style="stroke:#000000;stroke-width:0.8;" x="414.72" xlink:href="#mb485f583f1" y="307.584"/>
      </g>
     </g>
     <g id="text_6">
      <!-- 1.0 -->
      <defs>
       <path d="M 41 0 
L 41 2.90625 
L 37.90625 2.90625 
C 29.09375 2.90625 28.796875 4.09375 28.796875 7.703125 
L 28.796875 64.09375 
C 28.796875 66.40625 28.796875 66.5 26.796875 66.5 
C 24.40625 63.796875 19.40625 60.09375 9.09375 60.09375 
L 9.09375 57.203125 
C 11.40625 57.203125 16.40625 57.203125 21.90625 59.796875 
L 21.90625 7.703125 
C 21.90625 4.09375 21.59375 2.90625 12.796875 2.90625 
L 9.703125 2.90625 
L 9.703125 0 
C 12.40625 0.203125 22.09375 0.203125 25.40625 0.203125 
C 28.703125 0.203125 38.296875 0.203125 41 0 
z
" id="LMRoman12-Regular-31"/>
      </defs>
      <g transform="translate(408.459844 321.524625)scale(0.1 -0.1)">
       <use xlink:href="#LMRoman12-Regular-31"/>
       <use x="48.999985" xlink:href="#LMRoman12-Regular-2e"/>
       <use x="76.199982" xlink:href="#LMRoman12-Regular-30"/>
      </g>
     </g>
    </g>
    <g id="text_7">
     <!-- TP rate / recall -->
     <defs>
      <path d="M 67.09375 45.5 
L 65.296875 67.796875 
L 5.296875 67.796875 
L 3.5 45.5 
L 5.703125 45.5 
C 7.09375 61.296875 8 64.90625 23.796875 64.90625 
C 25.59375 64.90625 28.40625 64.90625 29.203125 64.703125 
C 31.203125 64.40625 31.296875 63.203125 31.296875 60.90625 
L 31.296875 7.703125 
C 31.296875 4.296875 31.296875 2.90625 21.5 2.90625 
L 17.90625 2.90625 
L 17.90625 0 
C 21.09375 0.203125 31.40625 0.203125 35.296875 0.203125 
C 39.203125 0.203125 49.59375 0.203125 52.796875 0 
L 52.796875 2.90625 
L 49.203125 2.90625 
C 39.40625 2.90625 39.40625 4.296875 39.40625 7.703125 
L 39.40625 60.90625 
C 39.40625 63.40625 39.59375 64.296875 41.203125 64.703125 
C 42 64.90625 44.90625 64.90625 46.796875 64.90625 
C 62.59375 64.90625 63.5 61.296875 64.90625 45.5 
z
" id="LMRoman12-Regular-54"/>
      <path d="M 61.09375 49.796875 
C 61.09375 59.5 51.40625 68.296875 37.90625 68.296875 
L 4.203125 68.296875 
L 4.203125 65.40625 
L 6.203125 65.40625 
C 13.40625 65.40625 13.703125 64.40625 13.703125 60.703125 
L 13.703125 7.59375 
C 13.703125 3.90625 13.40625 2.90625 6.203125 2.90625 
L 4.203125 2.90625 
L 4.203125 0 
C 6.59375 0.203125 14.796875 0.203125 17.703125 0.203125 
C 20.703125 0.203125 28.90625 0.203125 31.296875 0 
L 31.296875 2.90625 
L 29.296875 2.90625 
C 22.09375 2.90625 21.796875 3.90625 21.796875 7.59375 
L 21.796875 31.796875 
L 38.703125 31.796875 
C 50.40625 31.796875 61.09375 39.703125 61.09375 49.796875 
z
M 51.796875 49.796875 
C 51.796875 45.59375 51.796875 34.203125 35.5 34.203125 
L 21.59375 34.203125 
L 21.59375 61.40625 
C 21.59375 64.703125 21.796875 65.40625 26.203125 65.40625 
L 35.59375 65.40625 
C 51.796875 65.40625 51.796875 54.09375 51.796875 49.796875 
z
" id="LMRoman12-Regular-50"/>
      <path id="LMRoman12-Regular-20"/>
      <path d="M 35.296875 38.296875 
C 35.296875 41.296875 32.59375 44.09375 28.296875 44.09375 
C 19.796875 44.09375 16.90625 34.90625 16.296875 33 
L 16.203125 33 
L 16.203125 44.09375 
L 2.796875 43 
L 2.796875 40.09375 
C 9.59375 40.09375 10.40625 39.40625 10.40625 34.5 
L 10.40625 7.40625 
C 10.40625 2.90625 9.296875 2.90625 2.796875 2.90625 
L 2.796875 0 
C 5.59375 0.203125 11.09375 0.203125 14.09375 0.203125 
C 16.796875 0.203125 23.90625 0.203125 26.203125 0 
L 26.203125 2.90625 
L 24.203125 2.90625 
C 16.90625 2.90625 16.703125 4 16.703125 7.59375 
L 16.703125 23.296875 
C 16.703125 33 20.703125 42.09375 28.40625 42.09375 
C 29.203125 42.09375 29.40625 42.09375 29.796875 42 
C 29 41.59375 27.40625 41 27.40625 38.296875 
C 27.40625 35.40625 29.703125 34.296875 31.296875 34.296875 
C 33.296875 34.296875 35.296875 35.59375 35.296875 38.296875 
z
" id="LMRoman12-Regular-72"/>
      <path d="M 47.40625 8.90625 
L 47.40625 14.5 
L 45.203125 14.5 
L 45.203125 8.90625 
C 45.203125 3.203125 42.796875 2.40625 41.40625 2.40625 
C 37.59375 2.40625 37.59375 7.703125 37.59375 9.203125 
L 37.59375 26.703125 
C 37.59375 32.09375 37.59375 36.09375 33.203125 40 
C 29.703125 43.203125 25.203125 44.59375 20.796875 44.59375 
C 12.59375 44.59375 6.296875 39.203125 6.296875 32.703125 
C 6.296875 29.796875 8.203125 28.40625 10.5 28.40625 
C 12.90625 28.40625 14.59375 30.09375 14.59375 32.5 
C 14.59375 36.59375 11 36.59375 9.5 36.59375 
C 11.796875 40.796875 16.59375 42.59375 20.59375 42.59375 
C 25.203125 42.59375 31.09375 38.796875 31.09375 29.796875 
L 31.09375 25.796875 
C 11 25.5 3.40625 17.09375 3.40625 9.40625 
C 3.40625 1.5 12.59375 -1 18.703125 -1 
C 25.296875 -1 29.796875 3 31.703125 7.796875 
C 32.09375 3.09375 35.203125 -0.5 39.5 -0.5 
C 41.59375 -0.5 47.40625 0.90625 47.40625 8.90625 
z
M 31.09375 14.09375 
C 31.09375 4.296875 23.796875 1 19.5 1 
C 14.59375 1 10.5 4.59375 10.5 9.40625 
C 10.5 22.59375 27.5 23.796875 31.09375 24 
z
" id="LMRoman12-Regular-61"/>
      <path d="M 32.59375 12.40625 
L 32.59375 18.09375 
L 30.40625 18.09375 
L 30.40625 12.59375 
C 30.40625 5.40625 27.5 1.203125 23.59375 1.203125 
C 16.796875 1.203125 16.796875 10.5 16.796875 12.203125 
L 16.796875 40.203125 
L 30.90625 40.203125 
L 30.90625 43.09375 
L 16.796875 43.09375 
L 16.796875 61.5 
L 14.59375 61.5 
C 14.5 52.09375 10.90625 42.5 1.796875 42.203125 
L 1.796875 40.203125 
L 10.296875 40.203125 
L 10.296875 12.40625 
C 10.296875 1.296875 17.703125 -1 23 -1 
C 29.296875 -1 32.59375 5.203125 32.59375 12.40625 
z
" id="LMRoman12-Regular-74"/>
      <path d="M 40.703125 11.90625 
C 40.703125 12.5 40.203125 12.90625 39.59375 12.90625 
C 38.796875 12.90625 38.59375 12.40625 38.40625 11.90625 
C 35.796875 3.5 29.09375 1.203125 24.90625 1.203125 
C 20.703125 1.203125 10.59375 4 10.59375 21.296875 
L 10.59375 23.203125 
L 38.296875 23.203125 
C 40.5 23.203125 40.703125 23.203125 40.703125 25.09375 
C 40.703125 35.203125 35.296875 44.59375 23.203125 44.59375 
C 11.796875 44.59375 3 34.296875 3 21.90625 
C 3 8.703125 13.203125 -1 24.296875 -1 
C 36.203125 -1 40.703125 9.796875 40.703125 11.90625 
z
M 34.5 25.09375 
L 10.703125 25.09375 
C 11.5 40.796875 20.296875 42.59375 23.09375 42.59375 
C 33.796875 42.59375 34.40625 28.5 34.5 25.09375 
z
" id="LMRoman12-Regular-65"/>
      <path d="M 43.5 73.09375 
C 43.5 74.40625 42.5 75 41.703125 75 
C 40.40625 75 40.09375 74.09375 39.59375 72.796875 
L 5.90625 -21.40625 
C 5.40625 -22.703125 5.40625 -23.09375 5.40625 -23.09375 
C 5.40625 -24.203125 6.203125 -25 7.296875 -25 
C 8.59375 -25 8.90625 -24 9.296875 -22.90625 
L 43 71.40625 
C 43.5 72.703125 43.5 73.09375 43.5 73.09375 
z
" id="LMRoman12-Regular-2f"/>
      <path d="M 40.59375 11.90625 
C 40.59375 12.796875 39.90625 12.796875 39.59375 12.796875 
C 38.703125 12.796875 38.59375 12.5 38.296875 11.296875 
C 36.09375 4.203125 30.703125 1.203125 25.296875 1.203125 
C 19.203125 1.203125 11.09375 6.5 11.09375 21.703125 
C 11.09375 38.296875 19.59375 42.40625 24.59375 42.40625 
C 28.40625 42.40625 33.90625 40.90625 36.203125 37 
C 35 37 31.296875 37 31.296875 32.90625 
C 31.296875 30.5 33 28.796875 35.40625 28.796875 
C 37.703125 28.796875 39.59375 30.203125 39.59375 33.09375 
C 39.59375 39.796875 32.59375 44.59375 24.5 44.59375 
C 12.796875 44.59375 3.5 34.203125 3.5 21.59375 
C 3.5 8.796875 13.09375 -1 24.40625 -1 
C 37.59375 -1 40.59375 11 40.59375 11.90625 
z
" id="LMRoman12-Regular-63"/>
      <path d="M 24.796875 0 
L 24.796875 2.90625 
C 18.40625 2.90625 17.203125 2.90625 17.203125 7.40625 
L 17.203125 69.40625 
L 3.296875 68.296875 
L 3.296875 65.40625 
C 10.09375 65.40625 10.90625 64.703125 10.90625 59.796875 
L 10.90625 7.40625 
C 10.90625 2.90625 9.796875 2.90625 3.296875 2.90625 
L 3.296875 0 
C 6.09375 0.203125 11 0.203125 14 0.203125 
C 17 0.203125 22 0.203125 24.796875 0 
z
" id="LMRoman12-Regular-6c"/>
     </defs>
     <g transform="translate(202.096719 334.96525)scale(0.1 -0.1)">
      <use xlink:href="#LMRoman12-Regular-54"/>
      <use x="70.699982" xlink:href="#LMRoman12-Regular-50"/>
      <use x="137.299973" xlink:href="#LMRoman12-Regular-20"/>
      <use x="169.899963" xlink:href="#LMRoman12-Regular-72"/>
      <use x="207.999954" xlink:href="#LMRoman12-Regular-61"/>
      <use x="256.999939" xlink:href="#LMRoman12-Regular-74"/>
      <use x="295.09993" xlink:href="#LMRoman12-Regular-65"/>
      <use x="338.599915" xlink:href="#LMRoman12-Regular-20"/>
      <use x="371.199905" xlink:href="#LMRoman12-Regular-2f"/>
      <use x="420.19989" xlink:href="#LMRoman12-Regular-20"/>
      <use x="452.799881" xlink:href="#LMRoman12-Regular-72"/>
      <use x="490.899872" xlink:href="#LMRoman12-Regular-65"/>
      <use x="534.399857" xlink:href="#LMRoman12-Regular-63"/>
      <use x="577.899841" xlink:href="#LMRoman12-Regular-61"/>
      <use x="626.899826" xlink:href="#LMRoman12-Regular-6c"/>
      <use x="654.099823" xlink:href="#LMRoman12-Regular-6c"/>
     </g>
    </g>
   </g>
   <g id="matplotlib.axis_2">
    <g id="ytick_1">
     <g id="line2d_13">
      <path clip-path="url(#pfc697214a7)" d="M 57.6 307.584 
L 414.72 307.584 
" style="fill:none;stroke:#b0b0b0;stroke-linecap:square;stroke-width:0.8;"/>
     </g>
     <g id="line2d_14">
      <defs>
       <path d="M 0 0 
L -3.5 0 
" id="m46950827eb" style="stroke:#000000;stroke-width:0.8;"/>
      </defs>
      <g>
       <use style="stroke:#000000;stroke-width:0.8;" x="57.6" xlink:href="#m46950827eb" y="307.584"/>
      </g>
     </g>
     <g id="text_8">
      <!-- 0.0 -->
      <g transform="translate(38.079687 311.054312)scale(0.1 -0.1)">
       <use xlink:href="#LMRoman12-Regular-30"/>
       <use x="48.999985" xlink:href="#LMRoman12-Regular-2e"/>
       <use x="76.199982" xlink:href="#LMRoman12-Regular-30"/>
      </g>
     </g>
    </g>
    <g id="ytick_2">
     <g id="line2d_15">
      <path clip-path="url(#pfc697214a7)" d="M 57.6 254.3616 
L 414.72 254.3616 
" style="fill:none;stroke:#b0b0b0;stroke-linecap:square;stroke-width:0.8;"/>
     </g>
     <g id="line2d_16">
      <g>
       <use style="stroke:#000000;stroke-width:0.8;" x="57.6" xlink:href="#m46950827eb" y="254.3616"/>
      </g>
     </g>
     <g id="text_9">
      <!-- 0.2 -->
      <g transform="translate(38.079687 257.831912)scale(0.1 -0.1)">
       <use xlink:href="#LMRoman12-Regular-30"/>
       <use x="48.999985" xlink:href="#LMRoman12-Regular-2e"/>
       <use x="76.199982" xlink:href="#LMRoman12-Regular-32"/>
      </g>
     </g>
    </g>
    <g id="ytick_3">
     <g id="line2d_17">
      <path clip-path="url(#pfc697214a7)" d="M 57.6 201.1392 
L 414.72 201.1392 
" style="fill:none;stroke:#b0b0b0;stroke-linecap:square;stroke-width:0.8;"/>
     </g>
     <g id="line2d_18">
      <g>
       <use style="stroke:#000000;stroke-width:0.8;" x="57.6" xlink:href="#m46950827eb" y="201.1392"/>
      </g>
     </g>
     <g id="text_10">
      <!-- 0.4 -->
      <g transform="translate(38.079687 204.609512)scale(0.1 -0.1)">
       <use xlink:href="#LMRoman12-Regular-30"/>
       <use x="48.999985" xlink:href="#LMRoman12-Regular-2e"/>
       <use x="76.199982" xlink:href="#LMRoman12-Regular-34"/>
      </g>
     </g>
    </g>
    <g id="ytick_4">
     <g id="line2d_19">
      <path clip-path="url(#pfc697214a7)" d="M 57.6 147.9168 
L 414.72 147.9168 
" style="fill:none;stroke:#b0b0b0;stroke-linecap:square;stroke-width:0.8;"/>
     </g>
     <g id="line2d_20">
      <g>
       <use style="stroke:#000000;stroke-width:0.8;" x="57.6" xlink:href="#m46950827eb" y="147.9168"/>
      </g>
     </g>
     <g id="text_11">
      <!-- 0.6 -->
      <g transform="translate(38.079687 151.387112)scale(0.1 -0.1)">
       <use xlink:href="#LMRoman12-Regular-30"/>
       <use x="48.999985" xlink:href="#LMRoman12-Regular-2e"/>
       <use x="76.199982" xlink:href="#LMRoman12-Regular-36"/>
      </g>
     </g>
    </g>
    <g id="ytick_5">
     <g id="line2d_21">
      <path clip-path="url(#pfc697214a7)" d="M 57.6 94.6944 
L 414.72 94.6944 
" style="fill:none;stroke:#b0b0b0;stroke-linecap:square;stroke-width:0.8;"/>
     </g>
     <g id="line2d_22">
      <g>
       <use style="stroke:#000000;stroke-width:0.8;" x="57.6" xlink:href="#m46950827eb" y="94.6944"/>
      </g>
     </g>
     <g id="text_12">
      <!-- 0.8 -->
      <g transform="translate(38.079687 98.164713)scale(0.1 -0.1)">
       <use xlink:href="#LMRoman12-Regular-30"/>
       <use x="48.999985" xlink:href="#LMRoman12-Regular-2e"/>
       <use x="76.199982" xlink:href="#LMRoman12-Regular-38"/>
      </g>
     </g>
    </g>
    <g id="ytick_6">
     <g id="line2d_23">
      <path clip-path="url(#pfc697214a7)" d="M 57.6 41.472 
L 414.72 41.472 
" style="fill:none;stroke:#b0b0b0;stroke-linecap:square;stroke-width:0.8;"/>
     </g>
     <g id="line2d_24">
      <g>
       <use style="stroke:#000000;stroke-width:0.8;" x="57.6" xlink:href="#m46950827eb" y="41.472"/>
      </g>
     </g>
     <g id="text_13">
      <!-- 1.0 -->
      <g transform="translate(38.079687 44.942313)scale(0.1 -0.1)">
       <use xlink:href="#LMRoman12-Regular-31"/>
       <use x="48.999985" xlink:href="#LMRoman12-Regular-2e"/>
       <use x="76.199982" xlink:href="#LMRoman12-Regular-30"/>
      </g>
     </g>
    </g>
    <g id="text_14">
     <!-- precision -->
     <defs>
      <path d="M 50.796875 21.59375 
C 50.796875 34.296875 41.40625 44.09375 30.5 44.09375 
C 21.703125 44.09375 17 37.796875 16.703125 37.40625 
L 16.703125 44.09375 
L 2.796875 43 
L 2.796875 40.09375 
C 9.796875 40.09375 10.40625 39.40625 10.40625 35 
L 10.40625 -12 
C 10.40625 -16.5 9.296875 -16.5 2.796875 -16.5 
L 2.796875 -19.40625 
C 5.40625 -19.203125 10.796875 -19.203125 13.59375 -19.203125 
C 16.5 -19.203125 21.90625 -19.203125 24.5 -19.40625 
L 24.5 -16.5 
C 18.09375 -16.5 16.90625 -16.5 16.90625 -12 
L 16.90625 5.40625 
C 18.703125 2.90625 22.796875 -1 29.203125 -1 
C 40.703125 -1 50.796875 8.703125 50.796875 21.59375 
z
M 43.203125 21.59375 
C 43.203125 9.703125 36.40625 1 28.703125 1 
C 25.59375 1 22.703125 2.296875 20.703125 4.203125 
C 18.40625 6.5 16.90625 8.5 16.90625 11.296875 
L 16.90625 31.90625 
C 16.90625 33.796875 16.90625 33.90625 18 35.5 
C 21 40 25.90625 41.90625 29.703125 41.90625 
C 37.203125 41.90625 43.203125 32.796875 43.203125 21.59375 
z
" id="LMRoman12-Regular-70"/>
      <path d="M 24.09375 0 
L 24.09375 2.90625 
C 17.59375 2.90625 17.203125 3.40625 17.203125 7.296875 
L 17.203125 44.09375 
L 3.59375 43 
L 3.59375 40.09375 
C 10 40.09375 10.90625 39.5 10.90625 34.59375 
L 10.90625 7.40625 
C 10.90625 2.90625 9.796875 2.90625 3.296875 2.90625 
L 3.296875 0 
C 6.09375 0.203125 10.90625 0.203125 13.796875 0.203125 
C 14.90625 0.203125 20.703125 0.203125 24.09375 0 
z
M 18.5 60.40625 
C 18.5 63.40625 16.09375 65.296875 13.703125 65.296875 
C 10.90625 65.296875 8.796875 63.09375 8.796875 60.40625 
C 8.796875 57.796875 11 55.59375 13.59375 55.59375 
C 16.59375 55.59375 18.5 58 18.5 60.40625 
z
" id="LMRoman12-Regular-69"/>
      <path d="M 35.203125 12.703125 
C 35.203125 18.09375 31.90625 21.296875 31 22.203125 
C 27.40625 25.296875 24.703125 25.90625 18.09375 27.09375 
C 15.09375 27.703125 7.796875 29.09375 7.796875 35.09375 
C 7.796875 38.203125 9.90625 42.796875 18.90625 42.796875 
C 29.796875 42.796875 30.40625 33.5 30.59375 30.40625 
C 30.703125 29.59375 31.40625 29.59375 31.703125 29.59375 
C 32.796875 29.59375 32.796875 30.09375 32.796875 31.90625 
L 32.796875 42.296875 
C 32.796875 44.09375 32.796875 44.59375 31.796875 44.59375 
C 31 44.59375 29.09375 42.40625 28.40625 41.5 
C 25.296875 44 22.203125 44.59375 19 44.59375 
C 6.90625 44.59375 3.296875 38 3.296875 32.5 
C 3.296875 31.40625 3.296875 27.90625 7.09375 24.40625 
C 10.296875 21.59375 13.703125 20.90625 18.296875 20 
C 23.796875 18.90625 25.09375 18.59375 27.59375 16.59375 
C 29.40625 15.09375 30.703125 12.90625 30.703125 10.09375 
C 30.703125 5.796875 28.203125 1 19.40625 1 
C 12.796875 1 8 4.796875 5.796875 14.796875 
C 5.40625 16.59375 5.296875 16.796875 5.296875 16.796875 
C 5.09375 17.203125 4.703125 17.203125 4.40625 17.203125 
C 3.296875 17.203125 3.296875 16.703125 3.296875 14.90625 
L 3.296875 1.296875 
C 3.296875 -0.5 3.296875 -1 4.296875 -1 
C 4.796875 -1 4.90625 -0.90625 6.59375 1.203125 
C 7.09375 1.90625 7.09375 2.09375 8.59375 3.703125 
C 12.40625 -1 17.796875 -1 19.5 -1 
C 30 -1 35.203125 4.796875 35.203125 12.703125 
z
" id="LMRoman12-Regular-73"/>
      <path d="M 45.90625 21.40625 
C 45.90625 34.296875 36.09375 44.59375 24.5 44.59375 
C 12.5 44.59375 3 34 3 21.40625 
C 3 8.59375 13 -1 24.40625 -1 
C 36.203125 -1 45.90625 8.796875 45.90625 21.40625 
z
M 38.296875 22.296875 
C 38.296875 18.796875 38.296875 12.59375 35.703125 7.90625 
C 32.90625 3.09375 28.296875 1.203125 24.5 1.203125 
C 20.796875 1.203125 16.296875 2.796875 13.40625 7.703125 
C 10.703125 12.203125 10.59375 18.09375 10.59375 22.296875 
C 10.59375 26.09375 10.59375 32.203125 13.703125 36.703125 
C 16.5 41 20.90625 42.59375 24.40625 42.59375 
C 28.296875 42.59375 32.5 40.796875 35.203125 36.90625 
C 38.296875 32.296875 38.296875 26 38.296875 22.296875 
z
" id="LMRoman12-Regular-6f"/>
      <path d="M 52.09375 0 
L 52.09375 2.90625 
C 47.09375 2.90625 44.59375 2.90625 44.5 5.90625 
L 44.5 24.296875 
C 44.5 33.59375 44.5 36.40625 42.203125 39.59375 
C 39.296875 43.5 34.59375 44.09375 31.203125 44.09375 
C 21.5 44.09375 17.703125 35.796875 16.90625 33.796875 
L 16.796875 33.796875 
L 16.796875 44.09375 
L 3.203125 43 
L 3.203125 40.09375 
C 10 40.09375 10.796875 39.40625 10.796875 34.5 
L 10.796875 7.40625 
C 10.796875 2.90625 9.703125 2.90625 3.203125 2.90625 
L 3.203125 0 
C 5.796875 0.203125 11.203125 0.203125 14 0.203125 
C 16.90625 0.203125 22.296875 0.203125 24.90625 0 
L 24.90625 2.90625 
C 18.5 2.90625 17.296875 2.90625 17.296875 7.40625 
L 17.296875 26 
C 17.296875 36.5 24.203125 42.09375 30.40625 42.09375 
C 36.59375 42.09375 38 37 38 30.90625 
L 38 7.40625 
C 38 2.90625 36.90625 2.90625 30.40625 2.90625 
L 30.40625 0 
C 33 0.203125 38.40625 0.203125 41.203125 0.203125 
C 44.09375 0.203125 49.5 0.203125 52.09375 0 
z
" id="LMRoman12-Regular-6e"/>
     </defs>
     <g transform="translate(32.139062 193.323312)rotate(-90)scale(0.1 -0.1)">
      <use xlink:href="#LMRoman12-Regular-70"/>
      <use x="54.399994" xlink:href="#LMRoman12-Regular-72"/>
      <use x="92.499985" xlink:href="#LMRoman12-Regular-65"/>
      <use x="135.999969" xlink:href="#LMRoman12-Regular-63"/>
      <use x="179.499954" xlink:href="#LMRoman12-Regular-69"/>
      <use x="206.699951" xlink:href="#LMRoman12-Regular-73"/>
      <use x="245.299942" xlink:href="#LMRoman12-Regular-69"/>
      <use x="272.499939" xlink:href="#LMRoman12-Regular-6f"/>
      <use x="321.499924" xlink:href="#LMRoman12-Regular-6e"/>
     </g>
    </g>
   </g>
   <g id="line2d_25">
    <path clip-path="url(#pfc697214a7)" d="M 235.7281 62.02721 
L 99.679447 86.705642 
L 72.469717 122.228532 
L 66.011776 142.924684 
L 63.523207 150.534295 
L 62.371472 145.542047 
" style="fill:none;stroke:#7d9aaa;stroke-dasharray:5.55,2.4;stroke-dashoffset:0;stroke-width:1.5;"/>
    <defs>
     <path d="M 0 -3 
L -0.673542 -0.927051 
L -2.85317 -0.927051 
L -1.089814 0.354102 
L -1.763356 2.427051 
L -0 1.145898 
L 1.763356 2.427051 
L 1.089814 0.354102 
L 2.85317 -0.927051 
L 0.673542 -0.927051 
z
" id="md38805bef0" style="stroke:#7d9aaa;stroke-linejoin:bevel;"/>
    </defs>
    <g clip-path="url(#pfc697214a7)">
     <use style="fill:#7d9aaa;stroke:#7d9aaa;stroke-linejoin:bevel;" x="235.7281" xlink:href="#md38805bef0" y="62.02721"/>
     <use style="fill:#7d9aaa;stroke:#7d9aaa;stroke-linejoin:bevel;" x="99.679447" xlink:href="#md38805bef0" y="86.705642"/>
     <use style="fill:#7d9aaa;stroke:#7d9aaa;stroke-linejoin:bevel;" x="72.469717" xlink:href="#md38805bef0" y="122.228532"/>
     <use style="fill:#7d9aaa;stroke:#7d9aaa;stroke-linejoin:bevel;" x="66.011776" xlink:href="#md38805bef0" y="142.924684"/>
     <use style="fill:#7d9aaa;stroke:#7d9aaa;stroke-linejoin:bevel;" x="63.523207" xlink:href="#md38805bef0" y="150.534295"/>
     <use style="fill:#7d9aaa;stroke:#7d9aaa;stroke-linejoin:bevel;" x="62.371472" xlink:href="#md38805bef0" y="145.542047"/>
    </g>
   </g>
   <g id="line2d_26">
    <path clip-path="url(#pfc697214a7)" d="M 401.680719 52.525062 
L 339.91895 49.354152 
L 201.587395 52.929802 
L 104.327519 68.041027 
L 71.153449 103.430556 
L 65.291942 117.285935 
" style="fill:none;stroke:#7d9aaa;stroke-dasharray:5.55,2.4;stroke-dashoffset:0;stroke-width:1.5;"/>
    <defs>
     <path d="M -3 3 
L 3 -3 
M -3 -3 
L 3 3 
" id="m59f7e02e45" style="stroke:#7d9aaa;"/>
    </defs>
    <g clip-path="url(#pfc697214a7)">
     <use style="fill:#7d9aaa;stroke:#7d9aaa;" x="401.680719" xlink:href="#m59f7e02e45" y="52.525062"/>
     <use style="fill:#7d9aaa;stroke:#7d9aaa;" x="339.91895" xlink:href="#m59f7e02e45" y="49.354152"/>
     <use style="fill:#7d9aaa;stroke:#7d9aaa;" x="201.587395" xlink:href="#m59f7e02e45" y="52.929802"/>
     <use style="fill:#7d9aaa;stroke:#7d9aaa;" x="104.327519" xlink:href="#m59f7e02e45" y="68.041027"/>
     <use style="fill:#7d9aaa;stroke:#7d9aaa;" x="71.153449" xlink:href="#m59f7e02e45" y="103.430556"/>
     <use style="fill:#7d9aaa;stroke:#7d9aaa;" x="65.291942" xlink:href="#m59f7e02e45" y="117.285935"/>
    </g>
   </g>
   <g id="line2d_27">
    <path clip-path="url(#pfc697214a7)" d="M 410.544962 52.258716 
L 403.819654 47.934698 
L 350.346261 47.233584 
L 229.043925 49.280596 
L 133.881852 55.087349 
L 76.356821 78.843054 
" style="fill:none;stroke:#7d9aaa;stroke-dasharray:5.55,2.4;stroke-dashoffset:0;stroke-width:1.5;"/>
    <defs>
     <path d="M -3 0 
L 3 0 
M 0 3 
L 0 -3 
" id="m6e785c3aae" style="stroke:#7d9aaa;"/>
    </defs>
    <g clip-path="url(#pfc697214a7)">
     <use style="fill:#7d9aaa;stroke:#7d9aaa;" x="410.544962" xlink:href="#m6e785c3aae" y="52.258716"/>
     <use style="fill:#7d9aaa;stroke:#7d9aaa;" x="403.819654" xlink:href="#m6e785c3aae" y="47.934698"/>
     <use style="fill:#7d9aaa;stroke:#7d9aaa;" x="350.346261" xlink:href="#m6e785c3aae" y="47.233584"/>
     <use style="fill:#7d9aaa;stroke:#7d9aaa;" x="229.043925" xlink:href="#m6e785c3aae" y="49.280596"/>
     <use style="fill:#7d9aaa;stroke:#7d9aaa;" x="133.881852" xlink:href="#m6e785c3aae" y="55.087349"/>
     <use style="fill:#7d9aaa;stroke:#7d9aaa;" x="76.356821" xlink:href="#m6e785c3aae" y="78.843054"/>
    </g>
   </g>
   <g id="line2d_28">
    <path clip-path="url(#pfc697214a7)" d="M 412.437097 52.203516 
L 410.956296 47.80728 
L 398.287215 46.437953 
L 331.322073 46.41708 
L 215.305377 48.236413 
L 131.290449 52.096514 
" style="fill:none;stroke:#7d9aaa;stroke-dasharray:5.55,2.4;stroke-dashoffset:0;stroke-width:1.5;"/>
    <defs>
     <path d="M 0 -3 
L -3 3 
L 3 3 
z
" id="mf2d5f32208" style="stroke:#7d9aaa;stroke-linejoin:miter;"/>
    </defs>
    <g clip-path="url(#pfc697214a7)">
     <use style="fill:#7d9aaa;stroke:#7d9aaa;stroke-linejoin:miter;" x="412.437097" xlink:href="#mf2d5f32208" y="52.203516"/>
     <use style="fill:#7d9aaa;stroke:#7d9aaa;stroke-linejoin:miter;" x="410.956296" xlink:href="#mf2d5f32208" y="47.80728"/>
     <use style="fill:#7d9aaa;stroke:#7d9aaa;stroke-linejoin:miter;" x="398.287215" xlink:href="#mf2d5f32208" y="46.437953"/>
     <use style="fill:#7d9aaa;stroke:#7d9aaa;stroke-linejoin:miter;" x="331.322073" xlink:href="#mf2d5f32208" y="46.41708"/>
     <use style="fill:#7d9aaa;stroke:#7d9aaa;stroke-linejoin:miter;" x="215.305377" xlink:href="#mf2d5f32208" y="48.236413"/>
     <use style="fill:#7d9aaa;stroke:#7d9aaa;stroke-linejoin:miter;" x="131.290449" xlink:href="#mf2d5f32208" y="52.096514"/>
    </g>
   </g>
   <g id="line2d_29">
    <path clip-path="url(#pfc697214a7)" d="M 413.383165 52.176128 
L 412.437097 47.781469 
L 409.310961 46.285119 
L 380.332495 45.677985 
L 289.65396 46.106886 
L 188.095646 47.577742 
" style="fill:none;stroke:#7d9aaa;stroke-dasharray:5.55,2.4;stroke-dashoffset:0;stroke-width:1.5;"/>
    <defs>
     <path d="M 3 0 
L -3 -3 
L -3 3 
z
" id="mdf82027dd9" style="stroke:#7d9aaa;stroke-linejoin:miter;"/>
    </defs>
    <g clip-path="url(#pfc697214a7)">
     <use style="fill:#7d9aaa;stroke:#7d9aaa;stroke-linejoin:miter;" x="413.383165" xlink:href="#mdf82027dd9" y="52.176128"/>
     <use style="fill:#7d9aaa;stroke:#7d9aaa;stroke-linejoin:miter;" x="412.437097" xlink:href="#mdf82027dd9" y="47.781469"/>
     <use style="fill:#7d9aaa;stroke:#7d9aaa;stroke-linejoin:miter;" x="409.310961" xlink:href="#mdf82027dd9" y="46.285119"/>
     <use style="fill:#7d9aaa;stroke:#7d9aaa;stroke-linejoin:miter;" x="380.332495" xlink:href="#mdf82027dd9" y="45.677985"/>
     <use style="fill:#7d9aaa;stroke:#7d9aaa;stroke-linejoin:miter;" x="289.65396" xlink:href="#mdf82027dd9" y="46.106886"/>
     <use style="fill:#7d9aaa;stroke:#7d9aaa;stroke-linejoin:miter;" x="188.095646" xlink:href="#mdf82027dd9" y="47.577742"/>
    </g>
   </g>
   <g id="line2d_30">
    <path clip-path="url(#pfc697214a7)" d="M 234.946426 66.168 
L 102.19372 91.747556 
L 74.878009 113.544 
L 67.246889 124.851163 
L 63.667872 125.864 
L 61.898933 99.279101 
" style="fill:none;stroke:#a9a280;stroke-dasharray:9.6,2.4,1.5,2.4;stroke-dashoffset:0;stroke-width:1.5;"/>
    <defs>
     <path d="M 0 -3 
L -0.673542 -0.927051 
L -2.85317 -0.927051 
L -1.089814 0.354102 
L -1.763356 2.427051 
L -0 1.145898 
L 1.763356 2.427051 
L 1.089814 0.354102 
L 2.85317 -0.927051 
L 0.673542 -0.927051 
z
" id="m8ad855f0a4" style="stroke:#a9a280;stroke-linejoin:bevel;"/>
    </defs>
    <g clip-path="url(#pfc697214a7)">
     <use style="fill:#a9a280;stroke:#a9a280;stroke-linejoin:bevel;" x="234.946426" xlink:href="#m8ad855f0a4" y="66.168"/>
     <use style="fill:#a9a280;stroke:#a9a280;stroke-linejoin:bevel;" x="102.19372" xlink:href="#m8ad855f0a4" y="91.747556"/>
     <use style="fill:#a9a280;stroke:#a9a280;stroke-linejoin:bevel;" x="74.878009" xlink:href="#m8ad855f0a4" y="113.544"/>
     <use style="fill:#a9a280;stroke:#a9a280;stroke-linejoin:bevel;" x="67.246889" xlink:href="#m8ad855f0a4" y="124.851163"/>
     <use style="fill:#a9a280;stroke:#a9a280;stroke-linejoin:bevel;" x="63.667872" xlink:href="#m8ad855f0a4" y="125.864"/>
     <use style="fill:#a9a280;stroke:#a9a280;stroke-linejoin:bevel;" x="61.898933" xlink:href="#m8ad855f0a4" y="99.279101"/>
    </g>
   </g>
   <g id="line2d_31">
    <path clip-path="url(#pfc697214a7)" d="M 400.671333 54.837457 
L 339.642935 50.924526 
L 202.467882 52.760504 
L 106.3281 63.51922 
L 73.211916 82.161 
L 66.362419 73.361455 
" style="fill:none;stroke:#a9a280;stroke-dasharray:9.6,2.4,1.5,2.4;stroke-dashoffset:0;stroke-width:1.5;"/>
    <defs>
     <path d="M -3 3 
L 3 -3 
M -3 -3 
L 3 3 
" id="m9dc85c864c" style="stroke:#a9a280;"/>
    </defs>
    <g clip-path="url(#pfc697214a7)">
     <use style="fill:#a9a280;stroke:#a9a280;" x="400.671333" xlink:href="#m9dc85c864c" y="54.837457"/>
     <use style="fill:#a9a280;stroke:#a9a280;" x="339.642935" xlink:href="#m9dc85c864c" y="50.924526"/>
     <use style="fill:#a9a280;stroke:#a9a280;" x="202.467882" xlink:href="#m9dc85c864c" y="52.760504"/>
     <use style="fill:#a9a280;stroke:#a9a280;" x="106.3281" xlink:href="#m9dc85c864c" y="63.51922"/>
     <use style="fill:#a9a280;stroke:#a9a280;" x="73.211916" xlink:href="#m9dc85c864c" y="82.161"/>
     <use style="fill:#a9a280;stroke:#a9a280;" x="66.362419" xlink:href="#m9dc85c864c" y="73.361455"/>
    </g>
   </g>
   <g id="line2d_32">
    <path clip-path="url(#pfc697214a7)" d="M 411.367243 54.453073 
L 403.304172 49.234625 
L 350.400553 47.179496 
L 229.886437 48.101566 
L 135.495026 50.762862 
L 78.230766 56.019122 
" style="fill:none;stroke:#a9a280;stroke-dasharray:9.6,2.4,1.5,2.4;stroke-dashoffset:0;stroke-width:1.5;"/>
    <defs>
     <path d="M -3 0 
L 3 0 
M 0 3 
L 0 -3 
" id="m2b92b5ab3d" style="stroke:#a9a280;"/>
    </defs>
    <g clip-path="url(#pfc697214a7)">
     <use style="fill:#a9a280;stroke:#a9a280;" x="411.367243" xlink:href="#m2b92b5ab3d" y="54.453073"/>
     <use style="fill:#a9a280;stroke:#a9a280;" x="403.304172" xlink:href="#m2b92b5ab3d" y="49.234625"/>
     <use style="fill:#a9a280;stroke:#a9a280;" x="350.400553" xlink:href="#m2b92b5ab3d" y="47.179496"/>
     <use style="fill:#a9a280;stroke:#a9a280;" x="229.886437" xlink:href="#m2b92b5ab3d" y="48.101566"/>
     <use style="fill:#a9a280;stroke:#a9a280;" x="135.495026" xlink:href="#m2b92b5ab3d" y="50.762862"/>
     <use style="fill:#a9a280;stroke:#a9a280;" x="78.230766" xlink:href="#m2b92b5ab3d" y="56.019122"/>
    </g>
   </g>
   <g id="line2d_33">
    <path clip-path="url(#pfc697214a7)" d="M 413.609271 54.375287 
L 411.634641 49.057176 
L 398.511582 46.38891 
L 331.312466 45.683816 
L 216.969068 46.095633 
L 133.479258 45.591161 
" style="fill:none;stroke:#a9a280;stroke-dasharray:9.6,2.4,1.5,2.4;stroke-dashoffset:0;stroke-width:1.5;"/>
    <defs>
     <path d="M 0 -3 
L -3 3 
L 3 3 
z
" id="mf54143b366" style="stroke:#a9a280;stroke-linejoin:miter;"/>
    </defs>
    <g clip-path="url(#pfc697214a7)">
     <use style="fill:#a9a280;stroke:#a9a280;stroke-linejoin:miter;" x="413.609271" xlink:href="#mf54143b366" y="54.375287"/>
     <use style="fill:#a9a280;stroke:#a9a280;stroke-linejoin:miter;" x="411.634641" xlink:href="#mf54143b366" y="49.057176"/>
     <use style="fill:#a9a280;stroke:#a9a280;stroke-linejoin:miter;" x="398.511582" xlink:href="#mf54143b366" y="46.38891"/>
     <use style="fill:#a9a280;stroke:#a9a280;stroke-linejoin:miter;" x="331.312466" xlink:href="#mf54143b366" y="45.683816"/>
     <use style="fill:#a9a280;stroke:#a9a280;stroke-linejoin:miter;" x="216.969068" xlink:href="#mf54143b366" y="46.095633"/>
     <use style="fill:#a9a280;stroke:#a9a280;stroke-linejoin:miter;" x="133.479258" xlink:href="#mf54143b366" y="45.591161"/>
    </g>
   </g>
   <g id="line2d_34">
    <path clip-path="url(#pfc697214a7)" d="M 414.308619 54.351213 
L 413.362442 49.021383 
L 409.557166 46.237364 
L 380.493086 45.050932 
L 289.618984 44.665251 
L 189.221408 43.862351 
" style="fill:none;stroke:#a9a280;stroke-dasharray:9.6,2.4,1.5,2.4;stroke-dashoffset:0;stroke-width:1.5;"/>
    <defs>
     <path d="M 3 0 
L -3 -3 
L -3 3 
z
" id="m85d21cb9b6" style="stroke:#a9a280;stroke-linejoin:miter;"/>
    </defs>
    <g clip-path="url(#pfc697214a7)">
     <use style="fill:#a9a280;stroke:#a9a280;stroke-linejoin:miter;" x="414.308619" xlink:href="#m85d21cb9b6" y="54.351213"/>
     <use style="fill:#a9a280;stroke:#a9a280;stroke-linejoin:miter;" x="413.362442" xlink:href="#m85d21cb9b6" y="49.021383"/>
     <use style="fill:#a9a280;stroke:#a9a280;stroke-linejoin:miter;" x="409.557166" xlink:href="#m85d21cb9b6" y="46.237364"/>
     <use style="fill:#a9a280;stroke:#a9a280;stroke-linejoin:miter;" x="380.493086" xlink:href="#m85d21cb9b6" y="45.050932"/>
     <use style="fill:#a9a280;stroke:#a9a280;stroke-linejoin:miter;" x="289.618984" xlink:href="#m85d21cb9b6" y="44.665251"/>
     <use style="fill:#a9a280;stroke:#a9a280;stroke-linejoin:miter;" x="189.221408" xlink:href="#m85d21cb9b6" y="43.862351"/>
    </g>
   </g>
   <g id="line2d_35">
    <path clip-path="url(#pfc697214a7)" d="M 233.938286 67.769864 
L 104.4 87.276576 
L 75.846857 98.141814 
L 66.877714 101.015133 
L 62.393143 100.90368 
L 59.821714 86.506338 
" style="fill:none;stroke:#56aa1c;stroke-dasharray:1.5,2.475;stroke-dashoffset:0;stroke-width:1.5;"/>
    <defs>
     <path d="M 0 -3 
L -0.673542 -0.927051 
L -2.85317 -0.927051 
L -1.089814 0.354102 
L -1.763356 2.427051 
L -0 1.145898 
L 1.763356 2.427051 
L 1.089814 0.354102 
L 2.85317 -0.927051 
L 0.673542 -0.927051 
z
" id="mde8a53082e" style="stroke:#56aa1c;stroke-linejoin:bevel;"/>
    </defs>
    <g clip-path="url(#pfc697214a7)">
     <use style="fill:#56aa1c;stroke:#56aa1c;stroke-linejoin:bevel;" x="233.938286" xlink:href="#mde8a53082e" y="67.769864"/>
     <use style="fill:#56aa1c;stroke:#56aa1c;stroke-linejoin:bevel;" x="104.4" xlink:href="#mde8a53082e" y="87.276576"/>
     <use style="fill:#56aa1c;stroke:#56aa1c;stroke-linejoin:bevel;" x="75.846857" xlink:href="#mde8a53082e" y="98.141814"/>
     <use style="fill:#56aa1c;stroke:#56aa1c;stroke-linejoin:bevel;" x="66.877714" xlink:href="#mde8a53082e" y="101.015133"/>
     <use style="fill:#56aa1c;stroke:#56aa1c;stroke-linejoin:bevel;" x="62.393143" xlink:href="#mde8a53082e" y="100.90368"/>
     <use style="fill:#56aa1c;stroke:#56aa1c;stroke-linejoin:bevel;" x="59.821714" xlink:href="#mde8a53082e" y="86.506338"/>
    </g>
   </g>
   <g id="line2d_36">
    <path clip-path="url(#pfc697214a7)" d="M 401.122286 55.653375 
L 338.502857 50.381327 
L 203.616 50.175581 
L 107.897143 54.906781 
L 73.789714 62.349639 
L 66.054857 54.992702 
" style="fill:none;stroke:#56aa1c;stroke-dasharray:1.5,2.475;stroke-dashoffset:0;stroke-width:1.5;"/>
    <defs>
     <path d="M -3 3 
L 3 -3 
M -3 -3 
L 3 3 
" id="m8df86111dd" style="stroke:#56aa1c;"/>
    </defs>
    <g clip-path="url(#pfc697214a7)">
     <use style="fill:#56aa1c;stroke:#56aa1c;" x="401.122286" xlink:href="#m8df86111dd" y="55.653375"/>
     <use style="fill:#56aa1c;stroke:#56aa1c;" x="338.502857" xlink:href="#m8df86111dd" y="50.381327"/>
     <use style="fill:#56aa1c;stroke:#56aa1c;" x="203.616" xlink:href="#m8df86111dd" y="50.175581"/>
     <use style="fill:#56aa1c;stroke:#56aa1c;" x="107.897143" xlink:href="#m8df86111dd" y="54.906781"/>
     <use style="fill:#56aa1c;stroke:#56aa1c;" x="73.789714" xlink:href="#m8df86111dd" y="62.349639"/>
     <use style="fill:#56aa1c;stroke:#56aa1c;" x="66.054857" xlink:href="#m8df86111dd" y="54.992702"/>
    </g>
   </g>
   <g id="line2d_37">
    <path clip-path="url(#pfc697214a7)" d="M 412.354286 55.227583 
L 404.578286 48.730995 
L 350.598857 45.881783 
L 229.618286 45.545782 
L 138.116571 45.95065 
L 79.097143 46.958845 
" style="fill:none;stroke:#56aa1c;stroke-dasharray:1.5,2.475;stroke-dashoffset:0;stroke-width:1.5;"/>
    <defs>
     <path d="M -3 0 
L 3 0 
M 0 3 
L 0 -3 
" id="mc0f1a18a9c" style="stroke:#56aa1c;"/>
    </defs>
    <g clip-path="url(#pfc697214a7)">
     <use style="fill:#56aa1c;stroke:#56aa1c;" x="412.354286" xlink:href="#mc0f1a18a9c" y="55.227583"/>
     <use style="fill:#56aa1c;stroke:#56aa1c;" x="404.578286" xlink:href="#mc0f1a18a9c" y="48.730995"/>
     <use style="fill:#56aa1c;stroke:#56aa1c;" x="350.598857" xlink:href="#mc0f1a18a9c" y="45.881783"/>
     <use style="fill:#56aa1c;stroke:#56aa1c;" x="229.618286" xlink:href="#mc0f1a18a9c" y="45.545782"/>
     <use style="fill:#56aa1c;stroke:#56aa1c;" x="138.116571" xlink:href="#mc0f1a18a9c" y="45.95065"/>
     <use style="fill:#56aa1c;stroke:#56aa1c;" x="79.097143" xlink:href="#mc0f1a18a9c" y="46.958845"/>
    </g>
   </g>
   <g id="line2d_38">
    <path clip-path="url(#pfc697214a7)" d="M 414.411429 55.152354 
L 412.333714 48.576531 
L 399.702857 45.257826 
L 331.837714 44.041984 
L 217.851429 43.741251 
L 136.244571 42.994617 
" style="fill:none;stroke:#56aa1c;stroke-dasharray:1.5,2.475;stroke-dashoffset:0;stroke-width:1.5;"/>
    <defs>
     <path d="M 0 -3 
L -3 3 
L 3 3 
z
" id="m2703831c9c" style="stroke:#56aa1c;stroke-linejoin:miter;"/>
    </defs>
    <g clip-path="url(#pfc697214a7)">
     <use style="fill:#56aa1c;stroke:#56aa1c;stroke-linejoin:miter;" x="414.411429" xlink:href="#m2703831c9c" y="55.152354"/>
     <use style="fill:#56aa1c;stroke:#56aa1c;stroke-linejoin:miter;" x="412.333714" xlink:href="#m2703831c9c" y="48.576531"/>
     <use style="fill:#56aa1c;stroke:#56aa1c;stroke-linejoin:miter;" x="399.702857" xlink:href="#m2703831c9c" y="45.257826"/>
     <use style="fill:#56aa1c;stroke:#56aa1c;stroke-linejoin:miter;" x="331.837714" xlink:href="#m2703831c9c" y="44.041984"/>
     <use style="fill:#56aa1c;stroke:#56aa1c;stroke-linejoin:miter;" x="217.851429" xlink:href="#m2703831c9c" y="43.741251"/>
     <use style="fill:#56aa1c;stroke:#56aa1c;stroke-linejoin:miter;" x="136.244571" xlink:href="#m2703831c9c" y="42.994617"/>
    </g>
   </g>
   <g id="line2d_39">
    <path clip-path="url(#pfc697214a7)" d="M 414.678857 55.142635 
L 414 48.544198 
L 410.379429 45.144832 
L 381.250286 43.652833 
L 290.283429 43.039016 
L 190.656 42.374075 
" style="fill:none;stroke:#56aa1c;stroke-dasharray:1.5,2.475;stroke-dashoffset:0;stroke-width:1.5;"/>
    <defs>
     <path d="M 3 0 
L -3 -3 
L -3 3 
z
" id="m28668be661" style="stroke:#56aa1c;stroke-linejoin:miter;"/>
    </defs>
    <g clip-path="url(#pfc697214a7)">
     <use style="fill:#56aa1c;stroke:#56aa1c;stroke-linejoin:miter;" x="414.678857" xlink:href="#m28668be661" y="55.142635"/>
     <use style="fill:#56aa1c;stroke:#56aa1c;stroke-linejoin:miter;" x="414" xlink:href="#m28668be661" y="48.544198"/>
     <use style="fill:#56aa1c;stroke:#56aa1c;stroke-linejoin:miter;" x="410.379429" xlink:href="#m28668be661" y="45.144832"/>
     <use style="fill:#56aa1c;stroke:#56aa1c;stroke-linejoin:miter;" x="381.250286" xlink:href="#m28668be661" y="43.652833"/>
     <use style="fill:#56aa1c;stroke:#56aa1c;stroke-linejoin:miter;" x="290.283429" xlink:href="#m28668be661" y="43.039016"/>
     <use style="fill:#56aa1c;stroke:#56aa1c;stroke-linejoin:miter;" x="190.656" xlink:href="#m28668be661" y="42.374075"/>
    </g>
   </g>
   <g id="patch_3">
    <path d="M 57.6 307.584 
L 57.6 41.472 
" style="fill:none;stroke:#000000;stroke-linecap:square;stroke-linejoin:miter;stroke-width:0.8;"/>
   </g>
   <g id="patch_4">
    <path d="M 414.72 307.584 
L 414.72 41.472 
" style="fill:none;stroke:#000000;stroke-linecap:square;stroke-linejoin:miter;stroke-width:0.8;"/>
   </g>
   <g id="patch_5">
    <path d="M 57.6 307.584 
L 414.72 307.584 
" style="fill:none;stroke:#000000;stroke-linecap:square;stroke-linejoin:miter;stroke-width:0.8;"/>
   </g>
   <g id="patch_6">
    <path d="M 57.6 41.472 
L 414.72 41.472 
" style="fill:none;stroke:#000000;stroke-linecap:square;stroke-linejoin:miter;stroke-width:0.8;"/>
   </g>
   <g id="patch_7">
    <path d="M 231.573469 68.191936 
Q 233.403209 66.078987 235.232948 63.966038 
Q 235.825464 66.697599 236.417979 69.42916 
z
" style="stroke:#000000;stroke-linecap:round;"/>
   </g>
   <g id="text_15">
    <!--   -->
    <g transform="translate(235.7281 62.02721)scale(0.1 -0.1)">
     <use xlink:href="#LMRoman12-Regular-20"/>
    </g>
   </g>
   <g id="patch_8">
    <path d="M 397.526088 58.689788 
Q 399.355828 56.576839 401.185567 54.46389 
Q 401.778083 57.195451 402.370598 59.927012 
z
" style="stroke:#000000;stroke-linecap:round;"/>
   </g>
   <g id="text_16">
    <!--   -->
    <g transform="translate(401.680719 52.525062)scale(0.1 -0.1)">
     <use xlink:href="#LMRoman12-Regular-20"/>
    </g>
   </g>
   <g id="patch_9">
    <path d="M 406.390332 58.423442 
Q 408.220071 56.310493 410.049811 54.197544 
Q 410.642326 56.929105 411.234841 59.660666 
z
" style="stroke:#000000;stroke-linecap:round;"/>
   </g>
   <g id="text_17">
    <!--   -->
    <g transform="translate(410.544962 52.258716)scale(0.1 -0.1)">
     <use xlink:href="#LMRoman12-Regular-20"/>
    </g>
   </g>
   <g id="patch_10">
    <path d="M 408.282467 58.368242 
Q 410.112207 56.255293 411.941946 54.142345 
Q 412.534462 56.873906 413.126977 59.605467 
z
" style="stroke:#000000;stroke-linecap:round;"/>
   </g>
   <g id="text_18">
    <!--   -->
    <g transform="translate(412.437097 52.203516)scale(0.1 -0.1)">
     <use xlink:href="#LMRoman12-Regular-20"/>
    </g>
   </g>
   <g id="patch_11">
    <path d="M 409.228535 58.340854 
Q 411.058274 56.227905 412.888014 54.114956 
Q 413.480529 56.846517 414.073045 59.578078 
z
" style="stroke:#000000;stroke-linecap:round;"/>
   </g>
   <g id="text_19">
    <!--   -->
    <g transform="translate(413.383165 52.176128)scale(0.1 -0.1)">
     <use xlink:href="#LMRoman12-Regular-20"/>
    </g>
   </g>
   <g id="patch_12">
    <path d="M 230.791795 72.332726 
Q 232.621535 70.219777 234.451274 68.106828 
Q 235.04379 70.838389 235.636305 73.56995 
z
" style="stroke:#000000;stroke-linecap:round;"/>
   </g>
   <g id="text_20">
    <!--   -->
    <g transform="translate(234.946426 66.168)scale(0.1 -0.1)">
     <use xlink:href="#LMRoman12-Regular-20"/>
    </g>
   </g>
   <g id="patch_13">
    <path d="M 396.516702 61.002183 
Q 398.346442 58.889234 400.176182 56.776285 
Q 400.768697 59.507846 401.361212 62.239407 
z
" style="stroke:#000000;stroke-linecap:round;"/>
   </g>
   <g id="text_21">
    <!--   -->
    <g transform="translate(400.671333 54.837457)scale(0.1 -0.1)">
     <use xlink:href="#LMRoman12-Regular-20"/>
    </g>
   </g>
   <g id="patch_14">
    <path d="M 407.212613 60.617799 
Q 409.042353 58.50485 410.872092 56.391901 
Q 411.464607 59.123462 412.057123 61.855023 
z
" style="stroke:#000000;stroke-linecap:round;"/>
   </g>
   <g id="text_22">
    <!--   -->
    <g transform="translate(411.367243 54.453073)scale(0.1 -0.1)">
     <use xlink:href="#LMRoman12-Regular-20"/>
    </g>
   </g>
   <g id="patch_15">
    <path d="M 409.45464 60.540013 
Q 411.28438 58.427064 413.11412 56.314115 
Q 413.706635 59.045676 414.29915 61.777237 
z
" style="stroke:#000000;stroke-linecap:round;"/>
   </g>
   <g id="text_23">
    <!--   -->
    <g transform="translate(413.609271 54.375287)scale(0.1 -0.1)">
     <use xlink:href="#LMRoman12-Regular-20"/>
    </g>
   </g>
   <g id="patch_16">
    <path d="M 410.153988 60.515939 
Q 411.983728 58.40299 413.813468 56.290042 
Q 414.405983 59.021603 414.998498 61.753164 
z
" style="stroke:#000000;stroke-linecap:round;"/>
   </g>
   <g id="text_24">
    <!--   -->
    <g transform="translate(414.308619 54.351213)scale(0.1 -0.1)">
     <use xlink:href="#LMRoman12-Regular-20"/>
    </g>
   </g>
   <g id="patch_17">
    <path d="M 229.783655 73.93459 
Q 231.613395 71.821641 233.443134 69.708692 
Q 234.03565 72.440253 234.628165 75.171814 
z
" style="stroke:#000000;stroke-linecap:round;"/>
   </g>
   <g id="text_25">
    <!--   -->
    <g transform="translate(233.938286 67.769864)scale(0.1 -0.1)">
     <use xlink:href="#LMRoman12-Regular-20"/>
    </g>
   </g>
   <g id="patch_18">
    <path d="M 396.967655 61.818101 
Q 398.797395 59.705152 400.627134 57.592204 
Q 401.21965 60.323765 401.812165 63.055326 
z
" style="stroke:#000000;stroke-linecap:round;"/>
   </g>
   <g id="text_26">
    <!--   -->
    <g transform="translate(401.122286 55.653375)scale(0.1 -0.1)">
     <use xlink:href="#LMRoman12-Regular-20"/>
    </g>
   </g>
   <g id="patch_19">
    <path d="M 408.199655 61.392309 
Q 410.029395 59.27936 411.859134 57.166411 
Q 412.45165 59.897972 413.044165 62.629533 
z
" style="stroke:#000000;stroke-linecap:round;"/>
   </g>
   <g id="text_27">
    <!--   -->
    <g transform="translate(412.354286 55.227583)scale(0.1 -0.1)">
     <use xlink:href="#LMRoman12-Regular-20"/>
    </g>
   </g>
   <g id="patch_20">
    <path d="M 410.256798 61.31708 
Q 412.086538 59.204132 413.916277 57.091183 
Q 414.508793 59.822744 415.101308 62.554305 
z
" style="stroke:#000000;stroke-linecap:round;"/>
   </g>
   <g id="text_28">
    <!--   -->
    <g transform="translate(414.411429 55.152354)scale(0.1 -0.1)">
     <use xlink:href="#LMRoman12-Regular-20"/>
    </g>
   </g>
   <g id="patch_21">
    <path d="M 410.524227 61.307361 
Q 412.353966 59.194412 414.183706 57.081463 
Q 414.776221 59.813024 415.368737 62.544585 
z
" style="stroke:#000000;stroke-linecap:round;"/>
   </g>
   <g id="text_29">
    <!--   -->
    <g transform="translate(414.678857 55.142635)scale(0.1 -0.1)">
     <use xlink:href="#LMRoman12-Regular-20"/>
    </g>
   </g>
   <g id="legend_1">
    <g id="patch_22">
     <path d="M 330.549688 302.584 
L 407.72 302.584 
Q 409.72 302.584 409.72 300.584 
L 409.72 92.474625 
Q 409.72 90.474625 407.72 90.474625 
L 330.549688 90.474625 
Q 328.549688 90.474625 328.549688 92.474625 
L 328.549688 300.584 
Q 328.549688 302.584 330.549688 302.584 
z
" style="fill:#ffffff;opacity:0.8;stroke:#cccccc;stroke-linejoin:miter;"/>
    </g>
    <g id="line2d_40">
     <path d="M 332.549688 97.974625 
L 352.549688 97.974625 
" style="fill:none;stroke:#7d9aaa;stroke-dasharray:5.55,2.4;stroke-dashoffset:0;stroke-width:1.5;"/>
    </g>
    <g id="line2d_41">
     <g>
      <use style="fill:#7d9aaa;stroke:#7d9aaa;stroke-linejoin:bevel;" x="342.549688" xlink:href="#md38805bef0" y="97.974625"/>
     </g>
    </g>
    <g id="text_30">
     <!-- e=1 a=0.5 -->
     <defs>
      <path d="M 70.703125 34.203125 
C 70.703125 36.09375 69 36.09375 67.5 36.09375 
L 8.59375 36.09375 
C 7.203125 36.09375 5.40625 36.09375 5.40625 34.296875 
C 5.40625 32.40625 7.09375 32.40625 8.59375 32.40625 
L 67.5 32.40625 
C 68.90625 32.40625 70.703125 32.40625 70.703125 34.203125 
z
M 70.703125 15.59375 
C 70.703125 17.5 69 17.5 67.5 17.5 
L 8.59375 17.5 
C 7.203125 17.5 5.40625 17.5 5.40625 15.703125 
C 5.40625 13.796875 7.09375 13.796875 8.59375 13.796875 
L 67.5 13.796875 
C 68.90625 13.796875 70.703125 13.796875 70.703125 15.59375 
z
" id="LMRoman12-Regular-3d"/>
      <path d="M 44 20.09375 
C 44 32 36 41.90625 25.5 41.90625 
C 19.796875 41.90625 15.40625 39.40625 12.796875 36.59375 
L 12.796875 57.296875 
C 17.09375 55.90625 20.59375 55.796875 21.703125 55.796875 
C 33 55.796875 40.203125 64.09375 40.203125 65.5 
C 40.203125 65.90625 40 66.40625 39.40625 66.40625 
C 39.40625 66.40625 39 66.40625 38.09375 66 
C 32.5 63.59375 27.703125 63.296875 25.09375 63.296875 
C 18.5 63.296875 13.796875 65.296875 11.90625 66.09375 
C 11.203125 66.40625 10.90625 66.40625 10.90625 66.40625 
C 10.09375 66.40625 10.09375 65.796875 10.09375 64.203125 
L 10.09375 34.5 
C 10.09375 32.703125 10.09375 32.09375 11.296875 32.09375 
C 11.796875 32.09375 11.90625 32.203125 12.90625 33.40625 
C 15.703125 37.5 20.40625 39.90625 25.40625 39.90625 
C 30.703125 39.90625 33.296875 35 34.09375 33.296875 
C 35.796875 29.40625 35.90625 24.5 35.90625 20.703125 
C 35.90625 16.90625 35.90625 11.203125 33.09375 6.703125 
C 30.90625 3.09375 27 0.59375 22.59375 0.59375 
C 16 0.59375 9.5 5.09375 7.703125 12.40625 
C 8.203125 12.203125 8.796875 12.09375 9.296875 12.09375 
C 11 12.09375 13.703125 13.09375 13.703125 16.5 
C 13.703125 19.296875 11.796875 20.90625 9.296875 20.90625 
C 7.5 20.90625 4.90625 20 4.90625 16.09375 
C 4.90625 7.59375 11.703125 -2.09375 22.796875 -2.09375 
C 34.09375 -2.09375 44 7.40625 44 20.09375 
z
" id="LMRoman12-Regular-35"/>
     </defs>
     <g transform="translate(360.549688 101.474625)scale(0.1 -0.1)">
      <use xlink:href="#LMRoman12-Regular-65"/>
      <use x="43.499985" xlink:href="#LMRoman12-Regular-3d"/>
      <use x="119.699966" xlink:href="#LMRoman12-Regular-31"/>
      <use x="168.699951" xlink:href="#LMRoman12-Regular-20"/>
      <use x="201.299942" xlink:href="#LMRoman12-Regular-61"/>
      <use x="250.299927" xlink:href="#LMRoman12-Regular-3d"/>
      <use x="326.499908" xlink:href="#LMRoman12-Regular-30"/>
      <use x="375.499893" xlink:href="#LMRoman12-Regular-2e"/>
      <use x="402.69989" xlink:href="#LMRoman12-Regular-35"/>
     </g>
    </g>
    <g id="line2d_42">
     <path d="M 332.549688 111.91525 
L 352.549688 111.91525 
" style="fill:none;stroke:#7d9aaa;stroke-dasharray:5.55,2.4;stroke-dashoffset:0;stroke-width:1.5;"/>
    </g>
    <g id="line2d_43">
     <g>
      <use style="fill:#7d9aaa;stroke:#7d9aaa;" x="342.549688" xlink:href="#m59f7e02e45" y="111.91525"/>
     </g>
    </g>
    <g id="text_31">
     <!-- e=1 a=1   -->
     <g transform="translate(360.549688 115.41525)scale(0.1 -0.1)">
      <use xlink:href="#LMRoman12-Regular-65"/>
      <use x="43.499985" xlink:href="#LMRoman12-Regular-3d"/>
      <use x="119.699966" xlink:href="#LMRoman12-Regular-31"/>
      <use x="168.699951" xlink:href="#LMRoman12-Regular-20"/>
      <use x="201.299942" xlink:href="#LMRoman12-Regular-61"/>
      <use x="250.299927" xlink:href="#LMRoman12-Regular-3d"/>
      <use x="326.499908" xlink:href="#LMRoman12-Regular-31"/>
      <use x="375.499893" xlink:href="#LMRoman12-Regular-20"/>
      <use x="408.099884" xlink:href="#LMRoman12-Regular-20"/>
     </g>
    </g>
    <g id="line2d_44">
     <path d="M 332.549688 125.855875 
L 352.549688 125.855875 
" style="fill:none;stroke:#7d9aaa;stroke-dasharray:5.55,2.4;stroke-dashoffset:0;stroke-width:1.5;"/>
    </g>
    <g id="line2d_45">
     <g>
      <use style="fill:#7d9aaa;stroke:#7d9aaa;" x="342.549688" xlink:href="#m6e785c3aae" y="125.855875"/>
     </g>
    </g>
    <g id="text_32">
     <!-- e=1 a=1.5 -->
     <g transform="translate(360.549688 129.355875)scale(0.1 -0.1)">
      <use xlink:href="#LMRoman12-Regular-65"/>
      <use x="43.499985" xlink:href="#LMRoman12-Regular-3d"/>
      <use x="119.699966" xlink:href="#LMRoman12-Regular-31"/>
      <use x="168.699951" xlink:href="#LMRoman12-Regular-20"/>
      <use x="201.299942" xlink:href="#LMRoman12-Regular-61"/>
      <use x="250.299927" xlink:href="#LMRoman12-Regular-3d"/>
      <use x="326.499908" xlink:href="#LMRoman12-Regular-31"/>
      <use x="375.499893" xlink:href="#LMRoman12-Regular-2e"/>
      <use x="402.69989" xlink:href="#LMRoman12-Regular-35"/>
     </g>
    </g>
    <g id="line2d_46">
     <path d="M 332.549688 139.7965 
L 352.549688 139.7965 
" style="fill:none;stroke:#7d9aaa;stroke-dasharray:5.55,2.4;stroke-dashoffset:0;stroke-width:1.5;"/>
    </g>
    <g id="line2d_47">
     <g>
      <use style="fill:#7d9aaa;stroke:#7d9aaa;stroke-linejoin:miter;" x="342.549688" xlink:href="#mf2d5f32208" y="139.7965"/>
     </g>
    </g>
    <g id="text_33">
     <!-- e=1 a=2   -->
     <g transform="translate(360.549688 143.2965)scale(0.1 -0.1)">
      <use xlink:href="#LMRoman12-Regular-65"/>
      <use x="43.499985" xlink:href="#LMRoman12-Regular-3d"/>
      <use x="119.699966" xlink:href="#LMRoman12-Regular-31"/>
      <use x="168.699951" xlink:href="#LMRoman12-Regular-20"/>
      <use x="201.299942" xlink:href="#LMRoman12-Regular-61"/>
      <use x="250.299927" xlink:href="#LMRoman12-Regular-3d"/>
      <use x="326.499908" xlink:href="#LMRoman12-Regular-32"/>
      <use x="375.499893" xlink:href="#LMRoman12-Regular-20"/>
      <use x="408.099884" xlink:href="#LMRoman12-Regular-20"/>
     </g>
    </g>
    <g id="line2d_48">
     <path d="M 332.549688 153.737125 
L 352.549688 153.737125 
" style="fill:none;stroke:#7d9aaa;stroke-dasharray:5.55,2.4;stroke-dashoffset:0;stroke-width:1.5;"/>
    </g>
    <g id="line2d_49">
     <g>
      <use style="fill:#7d9aaa;stroke:#7d9aaa;stroke-linejoin:miter;" x="342.549688" xlink:href="#mdf82027dd9" y="153.737125"/>
     </g>
    </g>
    <g id="text_34">
     <!-- e=1 a=2.5 -->
     <g transform="translate(360.549688 157.237125)scale(0.1 -0.1)">
      <use xlink:href="#LMRoman12-Regular-65"/>
      <use x="43.499985" xlink:href="#LMRoman12-Regular-3d"/>
      <use x="119.699966" xlink:href="#LMRoman12-Regular-31"/>
      <use x="168.699951" xlink:href="#LMRoman12-Regular-20"/>
      <use x="201.299942" xlink:href="#LMRoman12-Regular-61"/>
      <use x="250.299927" xlink:href="#LMRoman12-Regular-3d"/>
      <use x="326.499908" xlink:href="#LMRoman12-Regular-32"/>
      <use x="375.499893" xlink:href="#LMRoman12-Regular-2e"/>
      <use x="402.69989" xlink:href="#LMRoman12-Regular-35"/>
     </g>
    </g>
    <g id="line2d_50">
     <path d="M 332.549688 167.67775 
L 352.549688 167.67775 
" style="fill:none;stroke:#a9a280;stroke-dasharray:9.6,2.4,1.5,2.4;stroke-dashoffset:0;stroke-width:1.5;"/>
    </g>
    <g id="line2d_51">
     <g>
      <use style="fill:#a9a280;stroke:#a9a280;stroke-linejoin:bevel;" x="342.549688" xlink:href="#m8ad855f0a4" y="167.67775"/>
     </g>
    </g>
    <g id="text_35">
     <!-- e=2 a=0.5 -->
     <g transform="translate(360.549688 171.17775)scale(0.1 -0.1)">
      <use xlink:href="#LMRoman12-Regular-65"/>
      <use x="43.499985" xlink:href="#LMRoman12-Regular-3d"/>
      <use x="119.699966" xlink:href="#LMRoman12-Regular-32"/>
      <use x="168.699951" xlink:href="#LMRoman12-Regular-20"/>
      <use x="201.299942" xlink:href="#LMRoman12-Regular-61"/>
      <use x="250.299927" xlink:href="#LMRoman12-Regular-3d"/>
      <use x="326.499908" xlink:href="#LMRoman12-Regular-30"/>
      <use x="375.499893" xlink:href="#LMRoman12-Regular-2e"/>
      <use x="402.69989" xlink:href="#LMRoman12-Regular-35"/>
     </g>
    </g>
    <g id="line2d_52">
     <path d="M 332.549688 181.618375 
L 352.549688 181.618375 
" style="fill:none;stroke:#a9a280;stroke-dasharray:9.6,2.4,1.5,2.4;stroke-dashoffset:0;stroke-width:1.5;"/>
    </g>
    <g id="line2d_53">
     <g>
      <use style="fill:#a9a280;stroke:#a9a280;" x="342.549688" xlink:href="#m9dc85c864c" y="181.618375"/>
     </g>
    </g>
    <g id="text_36">
     <!-- e=2 a=1   -->
     <g transform="translate(360.549688 185.118375)scale(0.1 -0.1)">
      <use xlink:href="#LMRoman12-Regular-65"/>
      <use x="43.499985" xlink:href="#LMRoman12-Regular-3d"/>
      <use x="119.699966" xlink:href="#LMRoman12-Regular-32"/>
      <use x="168.699951" xlink:href="#LMRoman12-Regular-20"/>
      <use x="201.299942" xlink:href="#LMRoman12-Regular-61"/>
      <use x="250.299927" xlink:href="#LMRoman12-Regular-3d"/>
      <use x="326.499908" xlink:href="#LMRoman12-Regular-31"/>
      <use x="375.499893" xlink:href="#LMRoman12-Regular-20"/>
      <use x="408.099884" xlink:href="#LMRoman12-Regular-20"/>
     </g>
    </g>
    <g id="line2d_54">
     <path d="M 332.549688 195.559 
L 352.549688 195.559 
" style="fill:none;stroke:#a9a280;stroke-dasharray:9.6,2.4,1.5,2.4;stroke-dashoffset:0;stroke-width:1.5;"/>
    </g>
    <g id="line2d_55">
     <g>
      <use style="fill:#a9a280;stroke:#a9a280;" x="342.549688" xlink:href="#m2b92b5ab3d" y="195.559"/>
     </g>
    </g>
    <g id="text_37">
     <!-- e=2 a=1.5 -->
     <g transform="translate(360.549688 199.059)scale(0.1 -0.1)">
      <use xlink:href="#LMRoman12-Regular-65"/>
      <use x="43.499985" xlink:href="#LMRoman12-Regular-3d"/>
      <use x="119.699966" xlink:href="#LMRoman12-Regular-32"/>
      <use x="168.699951" xlink:href="#LMRoman12-Regular-20"/>
      <use x="201.299942" xlink:href="#LMRoman12-Regular-61"/>
      <use x="250.299927" xlink:href="#LMRoman12-Regular-3d"/>
      <use x="326.499908" xlink:href="#LMRoman12-Regular-31"/>
      <use x="375.499893" xlink:href="#LMRoman12-Regular-2e"/>
      <use x="402.69989" xlink:href="#LMRoman12-Regular-35"/>
     </g>
    </g>
    <g id="line2d_56">
     <path d="M 332.549688 209.499625 
L 352.549688 209.499625 
" style="fill:none;stroke:#a9a280;stroke-dasharray:9.6,2.4,1.5,2.4;stroke-dashoffset:0;stroke-width:1.5;"/>
    </g>
    <g id="line2d_57">
     <g>
      <use style="fill:#a9a280;stroke:#a9a280;stroke-linejoin:miter;" x="342.549688" xlink:href="#mf54143b366" y="209.499625"/>
     </g>
    </g>
    <g id="text_38">
     <!-- e=2 a=2   -->
     <g transform="translate(360.549688 212.999625)scale(0.1 -0.1)">
      <use xlink:href="#LMRoman12-Regular-65"/>
      <use x="43.499985" xlink:href="#LMRoman12-Regular-3d"/>
      <use x="119.699966" xlink:href="#LMRoman12-Regular-32"/>
      <use x="168.699951" xlink:href="#LMRoman12-Regular-20"/>
      <use x="201.299942" xlink:href="#LMRoman12-Regular-61"/>
      <use x="250.299927" xlink:href="#LMRoman12-Regular-3d"/>
      <use x="326.499908" xlink:href="#LMRoman12-Regular-32"/>
      <use x="375.499893" xlink:href="#LMRoman12-Regular-20"/>
      <use x="408.099884" xlink:href="#LMRoman12-Regular-20"/>
     </g>
    </g>
    <g id="line2d_58">
     <path d="M 332.549688 223.44025 
L 352.549688 223.44025 
" style="fill:none;stroke:#a9a280;stroke-dasharray:9.6,2.4,1.5,2.4;stroke-dashoffset:0;stroke-width:1.5;"/>
    </g>
    <g id="line2d_59">
     <g>
      <use style="fill:#a9a280;stroke:#a9a280;stroke-linejoin:miter;" x="342.549688" xlink:href="#m85d21cb9b6" y="223.44025"/>
     </g>
    </g>
    <g id="text_39">
     <!-- e=2 a=2.5 -->
     <g transform="translate(360.549688 226.94025)scale(0.1 -0.1)">
      <use xlink:href="#LMRoman12-Regular-65"/>
      <use x="43.499985" xlink:href="#LMRoman12-Regular-3d"/>
      <use x="119.699966" xlink:href="#LMRoman12-Regular-32"/>
      <use x="168.699951" xlink:href="#LMRoman12-Regular-20"/>
      <use x="201.299942" xlink:href="#LMRoman12-Regular-61"/>
      <use x="250.299927" xlink:href="#LMRoman12-Regular-3d"/>
      <use x="326.499908" xlink:href="#LMRoman12-Regular-32"/>
      <use x="375.499893" xlink:href="#LMRoman12-Regular-2e"/>
      <use x="402.69989" xlink:href="#LMRoman12-Regular-35"/>
     </g>
    </g>
    <g id="line2d_60">
     <path d="M 332.549688 237.380875 
L 352.549688 237.380875 
" style="fill:none;stroke:#56aa1c;stroke-dasharray:1.5,2.475;stroke-dashoffset:0;stroke-width:1.5;"/>
    </g>
    <g id="line2d_61">
     <g>
      <use style="fill:#56aa1c;stroke:#56aa1c;stroke-linejoin:bevel;" x="342.549688" xlink:href="#mde8a53082e" y="237.380875"/>
     </g>
    </g>
    <g id="text_40">
     <!-- e=3 a=0.5 -->
     <defs>
      <path d="M 44.796875 17.09375 
C 44.796875 26.296875 37.40625 33.5 27.796875 35.203125 
C 36.5 37.703125 42.09375 45 42.09375 52.796875 
C 42.09375 60.703125 33.90625 66.5 24.203125 66.5 
C 14.203125 66.5 6.796875 60.40625 6.796875 53.09375 
C 6.796875 49.09375 9.90625 48.296875 11.40625 48.296875 
C 13.5 48.296875 15.90625 49.796875 15.90625 52.796875 
C 15.90625 56 13.5 57.40625 11.296875 57.40625 
C 10.703125 57.40625 10.5 57.40625 10.203125 57.296875 
C 14 64.09375 23.40625 64.09375 23.90625 64.09375 
C 27.203125 64.09375 33.703125 62.59375 33.703125 52.796875 
C 33.703125 50.90625 33.40625 45.296875 30.5 41 
C 27.5 36.59375 24.09375 36.296875 21.40625 36.203125 
L 18.40625 35.90625 
C 16.703125 35.796875 16.296875 35.703125 16.296875 34.796875 
C 16.296875 33.796875 16.796875 33.796875 18.59375 33.796875 
L 23.203125 33.796875 
C 31.703125 33.796875 35.5 26.796875 35.5 17.203125 
C 35.5 4.09375 28.703125 0.59375 23.796875 0.59375 
C 19 0.59375 10.796875 2.90625 7.90625 9.5 
C 11.09375 9 14 10.796875 14 14.40625 
C 14 17.296875 11.90625 19.296875 9.09375 19.296875 
C 6.703125 19.296875 4.09375 17.90625 4.09375 14.09375 
C 4.09375 5.203125 13 -2.09375 24.09375 -2.09375 
C 36 -2.09375 44.796875 7 44.796875 17.09375 
z
" id="LMRoman12-Regular-33"/>
     </defs>
     <g transform="translate(360.549688 240.880875)scale(0.1 -0.1)">
      <use xlink:href="#LMRoman12-Regular-65"/>
      <use x="43.499985" xlink:href="#LMRoman12-Regular-3d"/>
      <use x="119.699966" xlink:href="#LMRoman12-Regular-33"/>
      <use x="168.699951" xlink:href="#LMRoman12-Regular-20"/>
      <use x="201.299942" xlink:href="#LMRoman12-Regular-61"/>
      <use x="250.299927" xlink:href="#LMRoman12-Regular-3d"/>
      <use x="326.499908" xlink:href="#LMRoman12-Regular-30"/>
      <use x="375.499893" xlink:href="#LMRoman12-Regular-2e"/>
      <use x="402.69989" xlink:href="#LMRoman12-Regular-35"/>
     </g>
    </g>
    <g id="line2d_62">
     <path d="M 332.549688 251.3215 
L 352.549688 251.3215 
" style="fill:none;stroke:#56aa1c;stroke-dasharray:1.5,2.475;stroke-dashoffset:0;stroke-width:1.5;"/>
    </g>
    <g id="line2d_63">
     <g>
      <use style="fill:#56aa1c;stroke:#56aa1c;" x="342.549688" xlink:href="#m8df86111dd" y="251.3215"/>
     </g>
    </g>
    <g id="text_41">
     <!-- e=3 a=1   -->
     <g transform="translate(360.549688 254.8215)scale(0.1 -0.1)">
      <use xlink:href="#LMRoman12-Regular-65"/>
      <use x="43.499985" xlink:href="#LMRoman12-Regular-3d"/>
      <use x="119.699966" xlink:href="#LMRoman12-Regular-33"/>
      <use x="168.699951" xlink:href="#LMRoman12-Regular-20"/>
      <use x="201.299942" xlink:href="#LMRoman12-Regular-61"/>
      <use x="250.299927" xlink:href="#LMRoman12-Regular-3d"/>
      <use x="326.499908" xlink:href="#LMRoman12-Regular-31"/>
      <use x="375.499893" xlink:href="#LMRoman12-Regular-20"/>
      <use x="408.099884" xlink:href="#LMRoman12-Regular-20"/>
     </g>
    </g>
    <g id="line2d_64">
     <path d="M 332.549688 265.262125 
L 352.549688 265.262125 
" style="fill:none;stroke:#56aa1c;stroke-dasharray:1.5,2.475;stroke-dashoffset:0;stroke-width:1.5;"/>
    </g>
    <g id="line2d_65">
     <g>
      <use style="fill:#56aa1c;stroke:#56aa1c;" x="342.549688" xlink:href="#mc0f1a18a9c" y="265.262125"/>
     </g>
    </g>
    <g id="text_42">
     <!-- e=3 a=1.5 -->
     <g transform="translate(360.549688 268.762125)scale(0.1 -0.1)">
      <use xlink:href="#LMRoman12-Regular-65"/>
      <use x="43.499985" xlink:href="#LMRoman12-Regular-3d"/>
      <use x="119.699966" xlink:href="#LMRoman12-Regular-33"/>
      <use x="168.699951" xlink:href="#LMRoman12-Regular-20"/>
      <use x="201.299942" xlink:href="#LMRoman12-Regular-61"/>
      <use x="250.299927" xlink:href="#LMRoman12-Regular-3d"/>
      <use x="326.499908" xlink:href="#LMRoman12-Regular-31"/>
      <use x="375.499893" xlink:href="#LMRoman12-Regular-2e"/>
      <use x="402.69989" xlink:href="#LMRoman12-Regular-35"/>
     </g>
    </g>
    <g id="line2d_66">
     <path d="M 332.549688 279.20275 
L 352.549688 279.20275 
" style="fill:none;stroke:#56aa1c;stroke-dasharray:1.5,2.475;stroke-dashoffset:0;stroke-width:1.5;"/>
    </g>
    <g id="line2d_67">
     <g>
      <use style="fill:#56aa1c;stroke:#56aa1c;stroke-linejoin:miter;" x="342.549688" xlink:href="#m2703831c9c" y="279.20275"/>
     </g>
    </g>
    <g id="text_43">
     <!-- e=3 a=2   -->
     <g transform="translate(360.549688 282.70275)scale(0.1 -0.1)">
      <use xlink:href="#LMRoman12-Regular-65"/>
      <use x="43.499985" xlink:href="#LMRoman12-Regular-3d"/>
      <use x="119.699966" xlink:href="#LMRoman12-Regular-33"/>
      <use x="168.699951" xlink:href="#LMRoman12-Regular-20"/>
      <use x="201.299942" xlink:href="#LMRoman12-Regular-61"/>
      <use x="250.299927" xlink:href="#LMRoman12-Regular-3d"/>
      <use x="326.499908" xlink:href="#LMRoman12-Regular-32"/>
      <use x="375.499893" xlink:href="#LMRoman12-Regular-20"/>
      <use x="408.099884" xlink:href="#LMRoman12-Regular-20"/>
     </g>
    </g>
    <g id="line2d_68">
     <path d="M 332.549688 293.143375 
L 352.549688 293.143375 
" style="fill:none;stroke:#56aa1c;stroke-dasharray:1.5,2.475;stroke-dashoffset:0;stroke-width:1.5;"/>
    </g>
    <g id="line2d_69">
     <g>
      <use style="fill:#56aa1c;stroke:#56aa1c;stroke-linejoin:miter;" x="342.549688" xlink:href="#m28668be661" y="293.143375"/>
     </g>
    </g>
    <g id="text_44">
     <!-- e=3 a=2.5 -->
     <g transform="translate(360.549688 296.643375)scale(0.1 -0.1)">
      <use xlink:href="#LMRoman12-Regular-65"/>
      <use x="43.499985" xlink:href="#LMRoman12-Regular-3d"/>
      <use x="119.699966" xlink:href="#LMRoman12-Regular-33"/>
      <use x="168.699951" xlink:href="#LMRoman12-Regular-20"/>
      <use x="201.299942" xlink:href="#LMRoman12-Regular-61"/>
      <use x="250.299927" xlink:href="#LMRoman12-Regular-3d"/>
      <use x="326.499908" xlink:href="#LMRoman12-Regular-32"/>
      <use x="375.499893" xlink:href="#LMRoman12-Regular-2e"/>
      <use x="402.69989" xlink:href="#LMRoman12-Regular-35"/>
     </g>
    </g>
   </g>
  </g>
 </g>
 <defs>
  <clipPath id="pfc697214a7">
   <rect height="266.112" width="357.12" x="57.6" y="41.472"/>
  </clipPath>
 </defs>
</svg>
